<svg width="180" height="180" viewBox="0 0 180 180" fill="none" xmlns="http://www.w3.org/2000/svg">
<path d="M65.8001 40.8C67.4001 40.2 67.4001 40.2 66.0001 39.3C64.7001 38.5 63.6001 38.7 63.6001 39.8C63.6001 41 64.3001 41.4 65.8001 40.8Z" fill="#41BAFF"/>
<path d="M81.2999 36.4C81.8999 36.2 81.2999 34.5 80.4999 34.3C80.1999 34.3 79.8999 34.6 79.8999 35C79.8999 35.9 80.5999 36.7 81.2999 36.4Z" fill="#41BAFF"/>
<path d="M87.1999 34.3C88.1999 34.3 88.4999 33.8 87.8999 32.9C87.1999 32.1 86.4999 32.4 86.3999 33.4C86.3999 33.9 86.6999 34.2 87.1999 34.3Z" fill="#41BAFF"/>
<path d="M69.3999 40.2C69.6999 40 69.7999 39.6 69.6999 39.4C69.6999 39.2 69.2999 39 68.9999 39C68.6999 39 68.4999 39.4 68.6999 39.8C68.7999 40.2 69.1999 40.4 69.3999 40.2Z" fill="#41BAFF"/>
<path d="M89.9999 32.6C89.6999 31.7 88.9999 32 88.8999 33.1C88.8999 33.6 88.9999 34.1 89.0999 34.1C89.5999 34.4 90.1999 33.3 89.9999 32.6Z" fill="#41BAFF"/>
<path d="M93.5 33.7C94.2 33.8 94.9 33.1 94.7 32.5C94.5 31.9 93.2 32.4 93 33C93 33.3 93.1 33.6 93.5 33.7Z" fill="#41BAFF"/>
<path d="M54 48.6C54.2 48.1 54.2 47.5 54 47.4C53.3 46.8 52.2 47.4 52.2 48.4C52.2 49.6 53.6999 49.9 54.0999 48.7L54 48.6Z" fill="#41BAFF"/>
<path d="M64.5001 44.9C64.9001 44.9 65.1001 44.7 64.8001 44.3C64.6001 44 64.1001 43.7 63.7001 43.8C63.3001 43.8 63.1001 44 63.4001 44.4C63.6001 44.7 64.1001 45 64.5001 44.9Z" fill="#41BAFF"/>
<path d="M91.6 38.2C92.3 38.5 92.5 38.4 92.5 37.6C92.5 36.4 91.4 35.9 91 36.9C90.7 37.6 90.9 37.8 91.6 38.1V38.2Z" fill="#41BAFF"/>
<path d="M86.8 41.8C88.1 41.2 87.9 39.6 86.5 39.1C84.8 38.5 84.7 38.8 85.3 40.6C85.8 42.1 86 42.2 86.8 41.8Z" fill="#41BAFF"/>
<path d="M106.2 31.4C106.4 31.4 106.8 31.4 107 31.1C107.2 30.8 107 30.5 106.5 30.4C106.1 30.3 105.7 30.4 105.7 30.8C105.7 31.1 106 31.4 106.2 31.5V31.4Z" fill="#41BAFF"/>
<path d="M119.1 36.6C119.8 36.4 120.1 35.1 119.6 34.9C119.3 34.9 118.9 34.9 118.7 35.2C118.1 35.7 118.5 36.8 119.1 36.6Z" fill="#41BAFF"/>
<path d="M91 41.3C91 42.3 91.7 42.9 92.6 42.6C93 42.5 93.1 41.9 92.9 41.2C92.5 39.9 91.1 40 91 41.2V41.3Z" fill="#41BAFF"/>
<path d="M114.6 38.2C114.9 38.2 115.2 38 115.3 37.7C115.3 37.5 115.3 37.1 114.9 36.9C114.5 36.7 114.3 36.9 114.2 37.4C114.1 37.8 114.2 38.2 114.6 38.2Z" fill="#41BAFF"/>
<path d="M131.8 43.9C133.2 44.3 134 43.7 133.5 42.5C133 41.4 132.7 41.3 131.7 41.9C130.5 42.6 130.5 43.6 131.7 43.9H131.8Z" fill="#41BAFF"/>
<path d="M113.8 38.6C113.6 38.6 113.2 39 113.1 39.5C112.9 40.4 112.9 40.4 113.7 40.1C114.6 39.7 114.7 38.8 113.7 38.6H113.8Z" fill="#41BAFF"/>
<path d="M122.8 43.4C123.5 42.4 123 41.5 121.9 41.8C121.2 42 121.1 42.2 121.7 43.1C122.3 44.1 122.3 44.2 122.9 43.4H122.8Z" fill="#41BAFF"/>
<path d="M127.4 46.1C127 47.5 127.4 47.9 129 47.7H130.3C130.3 47.6 129.4 46.4 129.4 46.4C128.6 45.3 128.6 45.2 129.5 44.9C130.4 44.7 130.4 44.5 129.9 43.9C129.1 43 127.8 42.7 127.2 43.2C127 43.5 126.9 44 127.2 44.3C127.4 44.7 127.5 45.5 127.3 46L127.4 46.1Z" fill="#41BAFF"/>
<path d="M91.4999 46.1C91.8999 46 92.0999 45.5 91.9999 45.2C91.8999 44.8 91.3999 44.6 91.0999 44.7C90.7999 44.8 90.4999 45.3 90.5999 45.6C90.6999 46 91.1999 46.2 91.4999 46.1Z" fill="#41BAFF"/>
<path d="M93.8999 44.6C93.9999 45 94.3999 45.2 94.6999 45C95.4999 44.4 95.2999 43.3 94.4999 43.6C94.0999 43.7 93.7999 44.2 93.9999 44.6H93.8999Z" fill="#41BAFF"/>
<path d="M117 44.3C117.4 44.1 117.8 43.5 117.8 43C117.8 42.4 117.8 42.3 117.6 42.6C117.6 42.9 117.1 43.5 116.9 44C116.5 44.6 116.5 44.7 117 44.4V44.3Z" fill="#41BAFF"/>
<path d="M133 46.8C132.4 46.6 131.9 46.8 131.8 47.3C131.7 47.7 132 48.1 132.5 48.1C133.8 48.1 134.2 47.1 133.1 46.8H133Z" fill="#41BAFF"/>
<path d="M44.7 74.2C45 74.2 45.1 73.8 45 73.4C44.9 73 44.5 72.6 44.2 72.6C43.9 72.6 43.8 72.9 43.9 73.4C44.1 74 44.5 74.3 44.7 74.2Z" fill="#41BAFF"/>
<path d="M123.7 47.4C124.1 47.5 124.5 47.1 124.6 46.6C124.9 45.6 123.8 44.9 123 45.7C122.4 46.3 122.8 47.2 123.6 47.4H123.7Z" fill="#41BAFF"/>
<path d="M134.8 50.4C135.2 50.5 135.6 50.4 135.7 50.1C135.7 49.8 135.5 49.5 135.1 49.4C134.7 49.3 134.3 49.4 134.2 49.7C134.2 49.9 134.4 50.3 134.8 50.4Z" fill="#41BAFF"/>
<path d="M132.1 49.7C132.1 49.9 132.3 50.3 132.7 50.4C133.1 50.5 133.5 50.4 133.6 50.1C133.6 49.8 133.4 49.5 133 49.4C132.6 49.3 132.2 49.4 132.1 49.7Z" fill="#41BAFF"/>
<path d="M128.8 49.4C128.2 50 128.9 51.1 129.7 50.9C130 50.8 130.4 50.4 130.5 50C130.7 49.2 129.5 48.7 128.8 49.4Z" fill="#41BAFF"/>
<path d="M125.7 50.6C126 50.6 126.3 50.4 126.4 50C126.5 49.6 126.4 49.2 126.1 49.1C125.9 49.1 125.5 49.3 125.4 49.7C125.3 50.1 125.4 50.5 125.7 50.6Z" fill="#41BAFF"/>
<path d="M132.6 54.2C132.6 54.7 133 55 133.3 54.9C133.6 54.9 133.8 54.9 133.7 55.2C133.7 55.5 134 55.8 134.6 56C135.2 56.2 135.6 56 135.6 55.4C135.6 55 135.5 54.6 135.3 54.7C135.1 54.8 134.7 54.3 134.5 53.8C134.2 53.1 133.8 52.8 133.3 53C132.8 53.1 132.6 53.6 132.6 54.2Z" fill="#41BAFF"/>
<path d="M131.1 55.4C131 55.8 131.1 56.2 131.4 56.3C131.7 56.3 132 56.1 132.1 55.7C132.2 55.3 132.1 54.9 131.8 54.8C131.6 54.8 131.2 55 131.1 55.4Z" fill="#41BAFF"/>
<path d="M134.7 57.4C134.8 57 134.6 56.6 134.2 56.5C133.8 56.4 133.4 56.6 133.3 57C133.2 57.4 133.4 57.8 133.8 57.9C134.2 58 134.6 57.8 134.7 57.4Z" fill="#41BAFF"/>
<path d="M44.6 79.4999C45 79.3999 45.2 78.8999 45.1 78.5999C45 78.1999 44.5 77.9999 44.2 78.0999C43.8 78.1999 43.6 78.6999 43.7 78.9999C43.8 79.3999 44.3 79.5999 44.6 79.4999Z" fill="#41BAFF"/>
<path d="M131.6 59.4C131.9 59.4 132.2 59.2 132.3 58.8C132.4 58.4 132.3 58 132 57.9C131.8 57.9 131.4 58.1 131.3 58.5C131.2 58.9 131.3 59.3 131.6 59.4Z" fill="#41BAFF"/>
<path d="M43.0001 83.6C43.4001 83.6 43.6001 83.4 43.3001 83C43.1001 82.7 42.6001 82.4 42.2001 82.5C41.8001 82.5 41.6001 82.7 41.9001 83.1C42.1001 83.4 42.6001 83.7 43.0001 83.6Z" fill="#41BAFF"/>
<path d="M132.8 63.9C134.2 64.3 134.6 63.9 134.2 62.7C133.9 61.6 132.3 60.8 132 61.7C132 61.9 132 62.2 132.4 62.3C132.6 62.3 132.6 62.7 132.4 63.1C132.1 63.5 132.2 63.8 132.8 64V63.9Z" fill="#41BAFF"/>
<path d="M41.2 89.6C40.8 89 40.4 88.3 40.4 88C40.1 87.2 38.6 87.2 38 88C37.7 88.5 37.4 88.6 37.1 88.3C36.5 87.8 35.7 88.1 35.9 88.7C35.9 88.9 36.3 89.1 36.7 89C37 88.9 37.6 89.2 37.9 89.7C38.2 90.2 38.9 90.4 39.4 90.3C39.9 90.1 40.7 90.2 41.1 90.3C41.8 90.7 41.9 90.5 41.2 89.6Z" fill="#41BAFF"/>
<path d="M134.3 77.2C134.9 78.1 135.9 77.9 136.2 76.7C136.3 76.2 136.8 75.6 137.3 75.4C138.2 75 138.7 74.2 138.1 74.1C137.8 74.1 137.3 74.1 136.9 74.1C136.5 74.1 135.6 74.6 134.9 75.2C133.9 76.2 133.8 76.5 134.3 77.2Z" fill="#41BAFF"/>
<path d="M42.5 99.5C42.5 99.6 42.7 99.5 43 99.3C43.4 98.8 42.5 97.6 41.9 97.8C41.6 97.8 41.7 98.2 41.9 98.6C42.2 99 42.5 99.4 42.5 99.5Z" fill="#41BAFF"/>
<path d="M44.9001 106.4C45.0001 106.2 45.0001 105.7 44.9001 105.3C44.7001 104.6 43.4001 104.9 43.2001 105.6C43.0001 106.2 44.6001 106.9 44.9001 106.3V106.4Z" fill="#41BAFF"/>
<path d="M135.1 93.4C134.1 93.8 133.9 94.1 134.2 94.7C134.5 95.2 134.9 95.2 135.8 94.7C137.9 93.5 137.5 92.5 135.2 93.4H135.1Z" fill="#41BAFF"/>
<path d="M133.9 102.8C134.4 102.8 135.3 102.8 135.8 102.9C137.2 103.2 137.6 101.3 136.3 100.7C135.5 100.3 135.2 100.5 135 101.2C134.8 101.8 134.5 102.1 134.1 101.7C133.8 101.5 133.5 101.5 133.2 101.7C133.2 101.2 133.2 100.7 133.2 100.3C133.3 100.3 133.5 100.4 133.6 100.5C134.4 100.7 134.7 100.5 134.8 99.7C135 98.5 134.4 97.9 133.3 98.3C133.3 96.5 133.3 94.5 133.3 92.5V89C133.3 83.1 133.3 78.1 133.1 73.8C133.8 73.3 134.3 72.4 133.8 71.9C133.6 71.7 133.3 71.5 133 71.3C132.5 62.7 131.1 57.2 127.2 53.2C123.8 49.8 119.3 48.3 112.7 47.6C112.7 47.2 112.9 46.5 113 46.1C113.1 45.6 112.9 45.1 112.5 45C112.1 45 111.8 44.6 111.8 44.3C111.8 43.7 110.8 43.5 110.5 44C110.4 44.2 110.3 44.8 110.4 45.4C110.4 46.1 111 47 111.5 47.6C109.4 47.4 107.1 47.3 104.6 47.2C104.6 47.2 104.6 47.2 104.6 47.1C104.7 46.6 105 45.7 105.3 45.3C106 44.1 104.4 43.1 103.4 44.2C102.8 44.9 102.9 45.2 103.4 45.6C103.9 46 104.1 46.3 103.6 46.6C103.4 46.8 103.3 47 103.2 47.2C102.6 47.2 102.1 47.2 101.5 47.2C101.7 47.1 102 46.9 102.1 46.6C102.5 45.9 102.5 45.6 101.7 45.2C100.6 44.6 99.8999 45 99.8999 46.2C99.8999 46.6 100.1 46.9 100.4 47.1C97.5999 47.1 94.4999 47.1 91.1999 47.1H87.6999C86.1999 47.1 84.7 47.1 83.2999 47.1C83.0999 47 82.8999 46.9 82.6999 47C82.6999 47 82.5999 47 82.4999 47.1C80.5999 47.1 78.7999 47.1 77.0999 47.1C77.0999 47.1 77.2 47.1 77.2999 47.1C78.0999 46.5 77.8999 45.4 77.0999 45.7C76.6999 45.8 76.3999 46.3 76.5999 46.7C76.5999 47 76.7999 47.1 76.9999 47.1C75.9999 47.1 75.0999 47.1 74.1999 47.1C74.1999 47 74.1999 46.9 74.1999 46.8C73.8999 45.9 73.5999 44.9 73.5999 44.6C73.5999 44.3 73.1999 44.1 72.7999 44C72.4 44 72.1999 44.3 72.3999 44.7C72.4999 45.1 72.1999 45.6 71.7999 46C71.2999 46.3 71.1999 46.8 71.1999 47.3C61.9999 47.8 56.1999 49.1 52.1999 53.2C46.6999 58.7 46.0999 67.2 46.0999 83.2C45.7999 82.8 45.2999 82.9 44.9999 83.4C44.6999 83.9 45.3999 84.5 45.9999 84.3C45.9999 85.8 45.9999 87.3 45.9999 88.9V89.4C45.8999 89 45.3999 88.8 44.9999 88.9C44.5999 89 44.3999 89.4 44.5999 89.7C44.9999 90.3 45.7999 90.3 45.9999 89.9V92.5C45.9999 110 45.9999 119.7 50.2999 126C49.9999 126.5 49.7999 126.6 49.5999 126.1C49.5999 125.7 49.1999 125.5 48.8999 125.6C48.3999 125.9 49.1999 127.1 50.0999 127.3C50.2999 127.3 50.7999 127.3 51.1999 127.2C51.4999 127.5 51.7999 127.9 52.0999 128.2C53.0999 129.2 54.0999 130 55.2999 130.7C59.5999 135.4 60.1999 138.7 60.0999 143C60.0999 145.5 59.3999 148 58.3999 150.3L54.6999 158.6C54.0999 160 54.2999 161.6 55.1999 162.8C56.7999 165 60.0999 165 61.7999 162.9L62.9999 161.5C64.0999 160.1 64.4999 158.3 64.0999 156.7L63.4999 154.4C63.2999 153.6 63.1999 152.7 63.1999 151.9V146.2C63.1999 140.6 65.1999 134.9 70.6999 134.3C75.3999 134.6 81.0999 134.6 87.8999 134.6H91.3999C92.6999 134.6 93.8999 134.6 94.9999 134.6C94.9999 134.6 94.8999 134.8 94.8999 134.9C94.6999 135.5 94.8999 136 95.5999 136.1C96.1999 136.3 96.7 136.1 96.7999 135.4C96.7999 135.1 96.7999 134.8 96.6999 134.6C97.5999 134.6 98.3999 134.6 99.2999 134.6C99.5 134.9 99.7999 135.2 99.9999 135.3C100.2 135.3 100.5 135.2 100.6 134.9C100.6 134.8 100.6 134.7 100.6 134.6C104.2 134.6 107.4 134.5 110.3 134.3C110.3 134.6 110.3 135 110.6 135C110.9 135 111.2 134.8 111.3 134.4C111.3 134.4 111.3 134.3 111.3 134.2C113.5 134 115.5 133.8 117.3 133.4C117.3 133.6 117.5 133.8 117.9 133.9C118.3 134 118.7 133.8 118.8 133.4C118.8 133.3 118.8 133.2 118.8 133.1C122.3 132.2 125 130.8 127.2 128.6C129.3 126.5 130.6 124.1 131.5 120.9C131.8 120.9 132.1 120.7 132.2 120.4C132.2 120.2 132.2 119.8 131.8 119.6C132.6 116.2 133 112.2 133.1 107.1C133.1 107.2 133.3 107.3 133.4 107.4C133.7 107.6 134 107.5 134 107.1C134 106.7 133.7 106.2 133.4 106.1C133.4 106.1 133.3 106.1 133.2 106.1C133.2 105.2 133.2 104.3 133.2 103.4C133.4 103.4 133.6 103.4 133.9 103.4V102.8ZM108.6 109.8C106.4 102.9 100.9 97.6 93.5999 96.8V109.8H92.4999C72.5999 109.8 61.2999 96.2 60.7999 73.5H70.7999C71.0999 90.1 78.5 97.2 84.2999 98.6V73.5H93.6999V87.9C99.3999 87.3 105.5 80.7 107.5 73.5H116.9C115.3 82.4 108.8 88.9 104.1 91.6C108.8 93.8 116.2 99.5 119 109.8H108.7H108.6Z" fill="#41BAFF"/>
<path d="M138.6 107.4C138.4 107.4 137.8 107.4 137.3 107.7C136 108.2 134.6 110.7 135.7 110.5C136.1 110.5 136.9 110.3 137.4 110.3C137.9 110.3 138.3 109.9 138.3 109.5C138.3 109.1 138.5 108.7 138.8 108.6C139.4 108.4 139.3 107.4 138.7 107.3L138.6 107.4Z" fill="#41BAFF"/>
<path d="M97 44.2C97.6 44.1 97.7 43.7 97.5 42.7C97 40.3 95.9 40.4 96.1 42.9C96.1 44 96.4 44.3 97 44.2Z" fill="#41BAFF"/>
<path d="M105.4 40C106.4 40.2 107.4 39 106.6 38.5C106.2 38.2 105.7 38.5 105.4 38.9C105.1 39.4 105.1 39.8 105.4 39.9V40Z" fill="#41BAFF"/>
<path d="M106.4 45.5C106.4 46 106.6 46.2 107 46C107.7 45.7 107.8 44.7 107.2 44.3C106.7 44 106.4 44.5 106.4 45.5Z" fill="#41BAFF"/>
<path d="M113.9 37.4C113.8 36.9 113.4 36.5 113 36.4C112.1 36.4 111.5 37.6 112 38.3C112.7 39.2 114 38.6 113.8 37.3L113.9 37.4Z" fill="#41BAFF"/>
<path d="M115.7 35.5C116 35.7 116.5 35.7 116.6 35.5C116.8 35.2 116.6 34.9 116.2 34.7C115.9 34.5 115.5 34.5 115.3 34.7C115.2 34.9 115.3 35.3 115.7 35.5Z" fill="#41BAFF"/>
<path d="M43.8 124C44 124 44.1 123.5 44 123.1C43.8 122.4 43.1 122.3 42.8 123.1C42.5 123.6 43.2 124.2 43.8 124Z" fill="#41BAFF"/>
<path d="M135.9 120.7C135.7 120.7 135.3 120.7 135.1 120.9C134.6 121.4 135.4 122.2 136.1 122C136.7 121.8 136.6 120.8 135.9 120.7Z" fill="#41BAFF"/>
<path d="M132.2 125.9C131.8 125.8 131.4 125.9 131.3 126.2C131.3 126.4 131.5 126.8 131.9 126.9C132.3 127 132.7 126.9 132.8 126.6C132.8 126.3 132.6 126 132.2 125.9Z" fill="#41BAFF"/>
<path d="M52.3001 135.2C51.7001 134.9 51.2001 135.2 51.1001 135.8C51.1001 136.1 51.3001 136.3 51.8001 136.4C52.6001 136.4 53.1001 135.6 52.4001 135.3L52.3001 135.2Z" fill="#41BAFF"/>
<path d="M123.7 131.9C123.5 131.9 122.9 132.1 122.5 132.4C121.8 132.9 121.9 133 122.7 133.2C123.3 133.4 123.8 133.2 123.9 132.7C124 132.3 123.9 131.9 123.7 131.9Z" fill="#41BAFF"/>
<path d="M59.1 141.8C59.4 141.8 59.5 141.5 59.4 141C59.2 140.4 58.9 140.1 58.6 140.2C58.4 140.2 58.2 140.6 58.3 141C58.4 141.4 58.8 141.8 59.1 141.8Z" fill="#41BAFF"/>
<path d="M119.4 134.9C119 134.8 118.7 134.9 118.7 135.3C118.7 136.2 119.8 136.7 120 135.9C120.1 135.5 119.9 135 119.4 134.9Z" fill="#41BAFF"/>
<path d="M113.1 133.7C113.1 133.7 112.6 133.9 112.1 134.2C111.5 134.7 111.4 134.8 112.1 135C112.5 135.1 113 134.9 113.1 134.5C113.2 134.1 113.1 133.7 113.1 133.7Z" fill="#41BAFF"/>
<path d="M117.3 137C117.5 136.1 117.3 135.7 116.5 135.1C115.8 134.8 114.9 134.5 114.5 134.7C114 134.8 113.9 135 114.2 135.1C114.5 135.1 114.8 135.8 114.9 136.4C115.2 138.1 116.9 138.5 117.3 137Z" fill="#41BAFF"/>
<path d="M104.1 134.3C103.9 134.6 103.9 135 104.1 135.2C104.7 135.9 105.3 135.4 104.9 134.6C104.7 134.2 104.4 134.1 104.1 134.3Z" fill="#41BAFF"/>
<path d="M117.4 138.5C117 138.4 116.6 138.5 116.5 138.8C116.5 139 116.7 139.4 117.1 139.5C117.5 139.6 117.9 139.5 118 139.2C118 138.9 117.8 138.6 117.4 138.5Z" fill="#41BAFF"/>
<path d="M47.3 120.2C46.8 120.1 46.5 120.4 46.3 121.2C46.1 122.5 46.9 123.5 47.6 122.8C47.9 122.5 47.9 122.1 47.6 122C47.3 121.8 47.3 121.4 47.6 121.1C47.8 120.8 47.7 120.4 47.3 120.3V120.2Z" fill="#41BAFF"/>
<path d="M118.8 141.3C118.3 141.6 118.5 142.5 119.2 142.6C119.4 142.6 119.7 142.4 119.8 142C120 141.3 119.5 140.9 118.8 141.3Z" fill="#41BAFF"/>
<path d="M107.8 139.5C107.6 139.7 107.8 140.1 108.3 140.4C108.8 140.7 109.2 140.8 109.3 140.5C109.5 139.9 108.2 139.1 107.8 139.5Z" fill="#41BAFF"/>
<path d="M114.1 141.8C113.9 141.8 113.5 141.8 113.2 142.1C112.5 142.8 113.4 144 114.2 143.5C114.9 143.1 114.8 142 114.1 141.8Z" fill="#41BAFF"/>
<path d="M97.9 138C97.3 137.7 97.1 137.8 97 138.5C97 139.1 97.3 139.6 97.8 139.8C98.4 140.1 98.6 140 98.7 139.3C98.7 138.7 98.4 138.2 97.9 138Z" fill="#41BAFF"/>
<path d="M100.2 139.8C100.1 140.2 100.2 140.7 100.3 140.9C100.8 141.5 102.1 140.9 102 140.2C101.7 139.3 100.4 139.1 100.2 139.9V139.8Z" fill="#41BAFF"/>
<path d="M51.8 128C51.4 127.3 50.9 127.4 50.4 128.3C50.1 128.8 50 129.2 50.1 129.3C50.6 129.4 52 128.4 51.8 128Z" fill="#41BAFF"/>
<path d="M43.4 128C43.6 128 44 127.7 44.1 127.2C44.3 126.3 43.9 125.8 43.2 126.2C42.7 126.5 42.9 127.9 43.4 128Z" fill="#41BAFF"/>
<path d="M45.8001 127.6C45.4001 127.5 45.1001 127.6 45.1001 128C45.1001 128.9 46.2001 129.4 46.4001 128.6C46.5001 128.2 46.3001 127.7 45.8001 127.6Z" fill="#41BAFF"/>
<path d="M94.9 142.3C94.7 142.9 94.9 143.4 95.3 143.5C96.1 143.7 96.4 142.1 95.7 141.6C95.4 141.4 95 141.7 94.9 142.3Z" fill="#41BAFF"/>
<path d="M45.6 130.3C44.4 130 43.4 129.6 43.4 129.4C43.4 129.1 43.2 129.1 43 129.2C42.8 129.3 42.6 129.8 42.7 130.2C42.7 130.7 42.4 130.8 41.8 130.4C41.3 130.2 40.7 130.1 40.5 130.4C40.1 130.8 40.4 131 41.7 131.3C42.7 131.6 44.6 131.3 44.5 131C44.5 130.8 45.2 131 46.2 131.3C47.2 131.6 48 131.7 47.9 131.4C47.9 131.1 46.7 130.7 45.6 130.4V130.3Z" fill="#41BAFF"/>
<path d="M91.2 141.6C91 141.9 91 142.3 91.2 142.4C91.5 142.4 91.6 142.7 91.4 142.8C91.2 142.8 90.6 142.5 90 141.9C89.5 141.2 89 140.8 88.9 140.9C87.9 143 87.8 143.4 88.6 142.8C89.3 142.3 89.5 142.3 89.8 143C90.4 144.1 91.8 143.8 92.1 142.5C92.4 141.2 91.8 140.8 91.1 141.8L91.2 141.6Z" fill="#41BAFF"/>
</svg>
