<svg width="180" height="180" viewBox="0 0 180 180" fill="none" xmlns="http://www.w3.org/2000/svg">
<path d="M39.5 48.3C39.8 48.3 40.1 47.9 40.1 47.6C40.1 47.3 39.9 47.1 39.5 47C39.2 46.9 39 47.2 39 47.6C39 48 39.2 48.4 39.5 48.3Z" fill="#4E5AF0"/>
<path d="M37.9001 47.3C38.3001 47.5 38.5001 47.3 38.3001 46.8C38.3001 46.5 37.8001 46 37.5001 46C37.1001 45.8 36.9001 46 37.0001 46.5C37.1001 46.8 37.5001 47.3 37.9001 47.3Z" fill="#4E5AF0"/>
<path d="M54.1999 48.9C53.7999 48.3 53.0999 48.2 52.7999 48.9C52.5999 49.1 52.7999 49.6 53.1999 49.9C53.9999 50.5 54.7999 49.8 54.1999 48.9Z" fill="#4E5AF0"/>
<path d="M51.5001 52.6C52.2001 51.9 51.7001 50.4 51.0001 50.4C50.3001 50.4 50.3001 50.8 50.1001 51.2C49.7001 52.2 50.8001 53.3 51.5001 52.5V52.6Z" fill="#4E5AF0"/>
<path d="M133.7 45.5C135.2 45.5 135.8 44.7 135 43.7C134.2 42.8 133.9 42.7 133.1 43.5C132.1 44.5 132.4 45.4 133.7 45.4V45.5Z" fill="#4E5AF0"/>
<path d="M47 53.3C47.3 53.3 47.5 52.9 47.5 52.6C47.5 52.3 47.3 52.1 47 52C46.7 51.9 46.5 52.2 46.5 52.6C46.5 53 46.7 53.4 47 53.3Z" fill="#4E5AF0"/>
<path d="M57.4001 46.5C57.4001 46.3 57.6001 45.7 57.7001 45C58.0001 43.9 57.2001 43.5 56.2001 44.3C55.5001 44.8 54.4001 47 54.6001 47.2C54.9001 47.5 57.4001 46.8 57.4001 46.4V46.5Z" fill="#4E5AF0"/>
<path d="M82.6 45.8C82.9 44.3 82.1 43.9 81.6 45.5C81.5 46 81 46.5 80.6 46.5C79.7 46.5 78.8 47.5 79.2 48.3C79.8 50 82 48.4 82.5 45.8H82.6Z" fill="#4E5AF0"/>
<path d="M115.2 46.5C116 45.9 115.8 45 114.9 45C114 45 114.4 45.5 114.4 46C114.4 46.9 114.4 47 115.2 46.5Z" fill="#4E5AF0"/>
<path d="M47.1 54C46.6 53.8 46.5 54 46.6 54.6C46.6 55.1 47 55.5 47.3 55.5C48.1 55.5 47.9 54.3 47.1 54Z" fill="#4E5AF0"/>
<path d="M86.6999 47C87.0999 47 87.4999 46.7 87.4999 46.2C87.4999 45.7 87.0999 45.4 86.6999 45.4C86.2999 45.4 85.8999 45.7 85.8999 46.2C85.8999 46.7 86.1999 47 86.6999 47Z" fill="#4E5AF0"/>
<path d="M124.8 47.3C125.3 46.2 124.5 45.4 123.5 46C122.8 46.4 122.8 46.5 123.5 47.3C124.3 48.2 124.4 48.2 124.7 47.3H124.8Z" fill="#4E5AF0"/>
<path d="M130 48.8C130 50.3 130.5 50.5 132 49.9L133.2 49.4L132 48.4C131 47.6 131 47.4 131.8 46.9C132.6 46.4 132.6 46.3 132 45.9C131 45.2 129.7 45.2 129.2 45.9C129 46.2 129.2 46.7 129.4 47C129.7 47.3 129.9 48 129.9 48.6L130 48.8Z" fill="#4E5AF0"/>
<path d="M95.1999 47.5C95.5999 47.5 95.9999 47.2 95.9999 46.7C95.9999 46.2 95.5999 45.9 95.1999 45.9C94.7999 45.9 94.3999 46.2 94.3999 46.7C94.3999 47.2 94.6999 47.5 95.1999 47.5Z" fill="#4E5AF0"/>
<path d="M98.4999 47.4C99.3999 47.1 99.4999 46 98.6999 46C97.8999 46 97.8999 46.4 97.8999 46.8C97.8999 47.2 98.0999 47.5 98.4999 47.4Z" fill="#4E5AF0"/>
<path d="M134.5 48.8C134.5 49.2 134.8 49.5 135.3 49.4C136.5 49.2 136.7 48 135.5 48C134.3 48 134.5 48.3 134.5 48.8Z" fill="#4E5AF0"/>
<path d="M42 59.4C42.3 59.4 42.5 59.1 42.5 58.7C42.5 58.3 42.3 57.8 42 57.7C41.8 57.5 41.5 57.8 41.5 58.4C41.5 59 41.7 59.4 42 59.4Z" fill="#4E5AF0"/>
<path d="M126.8 51C127.2 51 127.5 50.5 127.5 50C127.5 49 126.3 48.6 125.7 49.5C125.3 50.2 125.8 51 126.7 51H126.8Z" fill="#4E5AF0"/>
<path d="M48.7 59.5C48.9 59.5 49.2 59.3 49.4 59C49.4 58.7 49.2 58.5 48.7 58.5C48.2 58.5 47.9 58.7 48.1 59C48.1 59.3 48.5 59.5 48.7 59.5Z" fill="#4E5AF0"/>
<path d="M138.2 51C138.6 51 139 50.8 139 50.5C139 50.2 138.7 50 138.2 50C137.7 50 137.4 50.2 137.4 50.5C137.4 50.8 137.7 51 138.2 51Z" fill="#4E5AF0"/>
<path d="M135.5 51C135.5 51.2 135.8 51.5 136.3 51.5C136.8 51.5 137.1 51.3 137.1 51C137.1 50.7 136.8 50.5 136.3 50.5C135.8 50.5 135.5 50.7 135.5 51Z" fill="#4E5AF0"/>
<path d="M132.2 51.5C131.8 52.2 132.7 53.2 133.4 52.7C133.7 52.5 133.9 52 133.9 51.6C133.9 50.8 132.6 50.6 132.1 51.4L132.2 51.5Z" fill="#4E5AF0"/>
<path d="M150.5 52.3C150.5 51.8 150.2 51.5 149.7 51.5C149.2 51.5 149 51.7 149.1 52.1C149.4 53 150.5 53.2 150.5 52.3Z" fill="#4E5AF0"/>
<path d="M153.4 52.8C153.4 52.3 153.2 51.9 152.7 51.9C152.2 51.9 151.9 52.2 152 52.7C152.2 53.7 153.1 53.8 153.3 52.7L153.4 52.8Z" fill="#4E5AF0"/>
<path d="M141 54.7C141.6 54.3 141.6 52.9 141 52.9C140.4 52.9 140.4 53.1 140.2 53.4C139.8 54.1 140.4 55 141 54.6V54.7Z" fill="#4E5AF0"/>
<path d="M138 55.7C138.2 55.5 138.5 55.7 138.5 55.9C138.5 56.1 139 56.4 139.5 56.4C140 56.4 140.5 56.2 140.4 55.6C140.3 55.2 140.1 54.9 139.9 55C139.7 55.1 139.2 54.8 138.9 54.3C138.4 53.7 138 53.5 137.5 53.8C137.1 54 137 54.6 137.1 55.1C137.3 55.6 137.6 55.8 137.9 55.6L138 55.7Z" fill="#4E5AF0"/>
<path d="M136.5 56C136.3 56 136 56.3 136 56.8C136 57.3 136.2 57.6 136.5 57.6C136.8 57.6 137 57.3 137 56.8C137 56.3 136.8 56 136.5 56Z" fill="#4E5AF0"/>
<path d="M149 56.8C149.1 57.3 149.5 57.7 149.9 57.7C150.3 57.7 150.7 57.3 150.8 56.8C150.8 56.2 150.6 56 149.9 56C149.2 56 148.9 56.2 149 56.8Z" fill="#4E5AF0"/>
<path d="M155 57.1C155.8 56.3 155.4 55.9 154.4 56.5C154 56.7 153.9 57.1 154.1 57.3C154.3 57.5 154.7 57.4 155 57.1Z" fill="#4E5AF0"/>
<path d="M139.2 58.5C139.6 58.5 140 58.2 140 57.7C140 57.2 139.7 56.9 139.2 56.9C138.7 56.9 138.4 57.2 138.4 57.7C138.4 58.2 138.7 58.5 139.2 58.5Z" fill="#4E5AF0"/>
<path d="M142.7 58.5C143.1 58.5 143.5 58.3 143.5 58C143.5 57.7 143.2 57.5 142.7 57.5C142.2 57.5 141.9 57.7 141.9 58C141.9 58.3 142.2 58.5 142.7 58.5Z" fill="#4E5AF0"/>
<path d="M146.3 59.9C146.8 59.8 147.2 59.3 147.2 58.8C147.2 57.7 146.5 57.3 145.5 58C144.5 58.6 145.2 60.1 146.3 60V59.9Z" fill="#4E5AF0"/>
<path d="M39.3999 63.7C39.3999 64.1 39.6999 64.5 40.1999 64.5C40.6999 64.5 40.9999 64.2 40.9999 63.7C40.9999 63.2 40.5999 62.9 40.1999 62.9C39.7999 62.9 39.3999 63.3 39.3999 63.7Z" fill="#4E5AF0"/>
<path d="M155.5 58C154.7 58 154.5 58.2 154.6 58.8C154.7 59.3 155.1 59.7 155.5 59.7C155.9 59.7 156.3 59.3 156.4 58.8C156.4 58.2 156.2 58 155.5 58Z" fill="#4E5AF0"/>
<path d="M137.5 60.5C137.8 60.5 138 60.2 138 59.7C138 59.2 137.8 58.9 137.5 58.9C137.2 58.9 137 59.2 137 59.7C137 60.2 137.2 60.5 137.5 60.5Z" fill="#4E5AF0"/>
<path d="M142.7 61C142.3 61.7 142.9 62.6 143.5 62.2C144.1 61.8 144.1 60.4 143.5 60.4C142.9 60.4 142.9 60.6 142.7 60.9V61Z" fill="#4E5AF0"/>
<path d="M37.4001 67.9C37.8001 68.1 38.0001 67.9 37.8001 67.5C37.8001 67.1 37.3001 66.7 37.0001 66.6C36.6001 66.5 36.4001 66.6 36.5001 67.1C36.6001 67.4 37.0001 67.9 37.4001 67.9Z" fill="#4E5AF0"/>
<path d="M139.8 64.5C141.2 64.5 141.5 64 140.8 63C140.2 62 138.5 61.7 138.5 62.5C138.5 63.3 138.7 63 139 63C139.3 63 139.3 63.3 139.2 63.8C139 64.3 139.2 64.6 139.8 64.6V64.5Z" fill="#4E5AF0"/>
<path d="M150.2 64.1C151 64.1 151.7 63.9 151.9 63.7C152.4 63.2 150.8 61.9 149.7 61.9C148.6 61.9 148.5 62.1 148.6 63C148.7 63.9 149.1 64.2 150.2 64.1Z" fill="#4E5AF0"/>
<path d="M39.3 68.3C38.9 68.7 39.3 69.5 40 69.5C40.7 69.5 40.5 69.2 40.5 68.7C40.5 67.9 39.9 67.7 39.3 68.3Z" fill="#4E5AF0"/>
<path d="M37.6001 73.5C37.1001 73.5 36.9001 73.7 37.0001 74.1C37.3001 75 38.4001 75.1 38.4001 74.3C38.4001 73.5 38.0001 73.5 37.6001 73.5Z" fill="#4E5AF0"/>
<path d="M146.5 69.8C146.5 69.3 146 69 145.5 69C145 69 144.5 69.2 144.6 69.6C145 70.6 146.5 70.7 146.5 69.8Z" fill="#4E5AF0"/>
<path d="M37.8999 76C37.8999 76.2 38.1999 76.5 38.6999 76.5C39.1999 76.5 39.4999 76.3 39.4999 76C39.4999 75.7 39.0999 75.5 38.6999 75.5C38.2999 75.5 37.8999 75.7 37.8999 76Z" fill="#4E5AF0"/>
<path d="M144.7 77C145.5 77.7 146.5 77.2 146.5 76C146.5 74.8 146.8 74.8 147.3 74.5C148.1 73.8 148.3 73 147.7 73C147.5 73 146.9 73.2 146.5 73.3C146.1 73.4 145.3 74.2 144.9 74.9C144.1 76.1 144.1 76.4 144.9 76.9L144.7 77Z" fill="#4E5AF0"/>
<path d="M150.5 73.7C150.5 72.8 149.2 72.8 148.8 73.7C148.7 74.1 148.7 74.5 148.8 74.7C149.3 75.2 150.5 74.5 150.5 73.7Z" fill="#4E5AF0"/>
<path d="M152.2 76.5C152 76.7 151.4 77 150.7 77C149.6 77 148.5 78.7 149.1 79.3C149.8 80.1 152.1 79.7 152.6 78.8C152.9 78.3 153.4 77.6 153.6 77.5C154.1 77.1 153.6 76 152.9 76C152.2 76 152.3 76.2 152.1 76.5H152.2Z" fill="#4E5AF0"/>
<path d="M37.1999 82.5C37.5999 82.5 37.9999 82.3 37.9999 82C37.9999 81.7 37.5999 81.5 37.1999 81.5C36.7999 81.5 36.3999 81.7 36.3999 82C36.3999 82.3 36.6999 82.5 37.1999 82.5Z" fill="#4E5AF0"/>
<path d="M146 85.8C146.4 86.2 146.8 86.1 147.5 85.4C149.3 83.6 148.5 82.8 146.5 84.4C145.7 85 145.5 85.4 146 85.8Z" fill="#4E5AF0"/>
<path d="M154.9 90C154.3 90 153.9 90.2 154 90.6C154.4 91.6 155.9 91.7 155.9 90.8C155.9 89.9 155.4 90 154.9 90Z" fill="#4E5AF0"/>
<path d="M150 94.4C149.5 94.7 149.5 94.9 150 95.2C150.6 95.6 151.5 95.2 151.5 94.4C151.5 93.6 151 93.9 150 94.4Z" fill="#4E5AF0"/>
<path d="M148 96.6C148 96.6 148 96.6 147.9 96.6C147.8 95.7 147.6 94.8 147.5 93.9C147.6 93.9 147.7 93.9 147.8 93.8C148.3 93.6 149.2 93.4 149.7 93.4C151.2 93.4 151 91.4 149.7 91.2C148.8 91.1 148.5 91.3 148.5 92.1C148.5 92.9 148.3 93.1 147.8 92.9C147.6 92.9 147.5 92.9 147.3 92.9C147.3 92.5 147.1 92.1 147.1 91.7C147.8 91.7 148.1 91.4 147.9 90.6C147.8 89.6 147.3 89.2 146.6 89.4C145.5 84.3 144 79.4 142 74.6C142.9 74.1 143.5 72.6 142.7 72.1C142.2 71.8 141.4 71.7 140.8 71.8C140.7 71.5 140.5 71.1 140.4 70.8C140.4 70.7 140.5 70.6 140.5 70.5C140.5 70.3 140.3 70 140 69.8C137.6 64.5 134.7 59.5 131.4 54.5C130.8 54.2 130.1 53.9 129.5 53.7C129.8 53.7 130 53.3 130 53C130 52.7 129.8 52.2 129.5 52.2C129.2 52.2 129 52.5 129 53C129 53.5 129.1 53.5 129.3 53.6C126.1 52.2 122.8 51 119.4 50C119.7 49.6 119.9 49 119.8 48.5C119.7 48 119.6 47.8 119.5 48.1C119.5 48.4 119.3 49.1 119.2 49.6C119.2 49.7 119.2 49.8 119.1 49.9C115.5 48.8 111.7 47.9 107.9 47.3C106.9 49.1 105.7 51.5 104.9 53.5C96.2 52.2 87.5 52.2 78.9 53.5C78.1 51.6 76.9 49.1 75.9 47.3C67.7 48.7 59.8 51.2 52.4 54.6C45.9 64.3 41.5 73.9 38.7 83.4C38.6 83.5 38.5 83.6 38.6 83.8C35.2 95.9 34.4 107.9 35.5 119.8C36.1 120.3 36.7 120.7 37.3 121.1C37.4 121.1 37.8 121.5 38.4 122.1C44.9 128.5 47.9 135.1 44.3 143.5C42 148.9 46 156.5 48.9 151.4C49.1 151 49.3 150.7 49.5 150.3C50.2 149.1 50.6 147.7 50.6 146.3V144.7C50.6 140 51.4 135.3 52.9 130.9L53.1 130.3C56.8 132 60.6 133.4 64.2 134.5C66.5 131.3 68.6 128 70.4 124.4C67 123.1 63.8 121.5 60.7 119.7C61.5 119.1 62.3 118.5 63.1 117.8C69.5 120.8 76.1 122.7 82.8 123.6C82.6 123.9 82.4 124.3 82.2 124.7C81.7 125.9 81.2 127 81.1 127.2C80.7 128.2 82.6 128 83.5 127.2C84.6 126 84.9 124.3 84 124C83.6 123.8 83.5 123.8 83.7 123.7C86.8 124.1 89.9 124.3 93.1 124.2C92.7 124.2 92.4 124.5 92.3 124.9C91.9 126 92.3 127.1 93.2 127.1C94.1 127.1 95.2 125.8 94.9 124.9C94.8 124.5 94.4 124.3 94 124.2C97.4 124.2 100.8 123.7 104.2 123.1C104.2 123.1 104.2 123.3 104.2 123.4C104.2 123.9 104.4 124.2 104.7 124.1C105 124 105.2 123.7 105.2 123.4C105.2 123.1 105.2 123.1 105 123C110.3 121.9 115.6 120.2 120.8 117.8C121.6 118.4 122.4 119.1 123.2 119.7C120.1 121.5 116.9 123.1 113.5 124.4C115.2 127.7 117.1 130.8 119.2 133.8C118.8 133.9 118.6 134.2 118.6 134.7C118.6 135.2 118.9 135.7 119.6 135.7C120.3 135.7 120.6 135.4 120.6 134.7C120.6 134 120.6 134.3 120.5 134.2C121.3 133.9 122.1 133.7 123 133.4C123.3 133.6 123.5 133.7 123.7 133.7C123.9 133.7 124.2 133.5 124.2 133.2C124.2 132.9 124.2 133.1 124.2 133C128.5 131.5 132.8 129.5 137.2 127.2C137.2 127.2 137.2 127.2 137.3 127.2C137.5 127.2 137.6 127.1 137.7 126.9C141.3 124.9 144.9 122.6 148.6 119.9C149 116.2 149.1 112.6 149.1 109.1C149.2 108.9 149.2 108.7 149.1 108.4C149.1 104.8 148.8 101.4 148.4 97.9C148.5 98 148.7 98.1 148.8 98.1C149.2 98.2 149.4 98.1 149.3 97.6C149.2 97.2 148.8 96.8 148.4 96.7L148 96.6ZM73 106.5C67.4 106.5 62.8 101.3 62.8 95C62.8 88.7 67.3 83.5 73 83.5C78.7 83.5 83.3 88.7 83.2 95C83.2 101.3 78.7 106.5 73 106.5ZM110.8 106.5C105.2 106.5 100.6 101.3 100.6 95C100.6 88.7 105.1 83.5 110.8 83.5C116.5 83.5 121.1 88.7 121 95C121 101.3 116.5 106.5 110.8 106.5Z" fill="#4E5AF0"/>
<path d="M153.8 99.2C153.7 98.8 153.8 98.4 154 98.2C154.5 97.9 154.2 97 153.5 97C152.8 97 152.7 97.3 152.3 97.7C151.2 98.5 150.4 101.3 151.4 100.9C151.8 100.7 152.5 100.4 153 100.3C153.5 100.1 153.8 99.6 153.6 99.3L153.8 99.2Z" fill="#4E5AF0"/>
<path d="M150 110.1C149.7 110 149.5 110.3 149.5 110.7C149.5 111.1 149.7 111.5 150 111.4C150.3 111.3 150.5 111 150.5 110.7C150.5 110.4 150.3 110.2 150 110.1Z" fill="#4E5AF0"/>
<path d="M154.5 110.5C154.3 110.5 154 110.7 153.7 111C153.4 111.6 154.3 112.2 154.9 111.8C155.4 111.5 155.1 110.6 154.4 110.6L154.5 110.5Z" fill="#4E5AF0"/>
<path d="M152.2 116.5C151.8 116.5 151.4 116.7 151.4 117C151.4 117.3 151.7 117.5 152.2 117.5C152.7 117.5 153 117.3 153 117C153 116.7 152.7 116.5 152.2 116.5Z" fill="#4E5AF0"/>
<path d="M145.5 124.5C145.3 124.5 144.8 124.9 144.5 125.3C144 126 144 126.1 145 126.1C146 126.1 146 125.8 146 125.3C146 124.8 145.8 124.5 145.5 124.5Z" fill="#4E5AF0"/>
<path d="M141 126.7C141 125.9 140.4 125.7 139.8 126.3C139.2 126.8 139.4 127.4 140.2 127.4C141 127.4 141 127.1 141 126.6V126.7Z" fill="#4E5AF0"/>
<path d="M142.2 128.5C141.7 128.5 141.5 128.7 141.6 129.1C141.9 130 143 130.1 143 129.3C143 128.5 142.7 128.5 142.2 128.5Z" fill="#4E5AF0"/>
<path d="M133.5 129C133.3 129 133 129.4 133 129.8C133 130.2 133.2 130.6 133.5 130.6C133.8 130.6 134 130.3 134 129.8C134 129.3 133.8 129 133.5 129Z" fill="#4E5AF0"/>
<path d="M135.8 129C135.8 129 135.3 129.4 135 129.8C134.5 130.4 134.5 130.6 135.2 130.6C135.9 130.6 136 130.3 136 129.8C136 129.3 136 129 135.8 129Z" fill="#4E5AF0"/>
<path d="M139.4 129.4C138.6 129.3 137.7 129.3 137.4 129.5C137 129.7 136.9 129.9 137.2 129.9C137.5 129.9 138 130.4 138.2 131C138.9 132.6 140.7 132.5 140.7 131C140.7 129.5 140.4 129.7 139.4 129.4Z" fill="#4E5AF0"/>
<path d="M110 131.5C109.6 131.4 109.5 131.5 109.6 131.9C109.7 132.3 110 132.5 110.1 132.5C110.7 132.5 110.6 131.7 110 131.5Z" fill="#4E5AF0"/>
<path d="M127.2 131.9C127 132.2 127.2 132.6 127.4 132.7C128.2 133.2 128.6 132.6 128 131.9C127.6 131.6 127.3 131.6 127.1 131.9H127.2Z" fill="#4E5AF0"/>
<path d="M102.8 124C103 123.7 102.6 123.5 102.1 123.5C101.6 123.5 101.1 123.7 101.1 124C101.1 124.3 101.4 124.5 101.8 124.5C102.2 124.5 102.7 124.3 102.8 124Z" fill="#4E5AF0"/>
<path d="M141.2 132.5C140.8 132.5 140.4 132.7 140.4 133C140.4 133.3 140.7 133.5 141.2 133.5C141.7 133.5 142 133.3 142 133C142 132.7 141.7 132.5 141.2 132.5Z" fill="#4E5AF0"/>
<path d="M69.6999 135.4C69.8999 135.1 69.7999 134.7 69.4999 134.6C69.1999 134.5 69.0999 134.1 69.2999 133.7C69.3999 133.3 69.2999 133 68.6999 133C68.0999 133 67.8999 133.4 67.9999 134.2C68.0999 135.6 69.0999 136.3 69.6999 135.4Z" fill="#4E5AF0"/>
<path d="M96.8 124.5C96.4 124.5 96 124.7 96 125C96 125.3 96.3 125.5 96.8 125.5C97.3 125.5 97.6 125.3 97.6 125C97.6 124.7 97.3 124.5 96.8 124.5Z" fill="#4E5AF0"/>
<path d="M57.3 134.3C56.9 134.7 57.3 135.5 58 135.5C58.7 135.5 58.5 135.2 58.5 134.7C58.5 133.9 57.9 133.7 57.3 134.3Z" fill="#4E5AF0"/>
<path d="M107 135C106.8 135 106.5 135.4 106.5 135.8C106.5 136.2 106.7 136.6 107 136.6C107.3 136.6 107.5 136.3 107.5 135.8C107.5 135.3 107.3 135 107 135Z" fill="#4E5AF0"/>
<path d="M95.7 127C95.5 127.3 95.5 127.6 95.7 127.8C96 128.1 97.5001 127.4 97.5001 126.9C97.5001 126.4 96.2 126.4 95.7 127Z" fill="#4E5AF0"/>
<path d="M100.8 126.8C100.1 127.4 100.5 128.4 101.5 128.4C102.5 128.4 102.5 128.1 102.5 127.4C102.5 126.5 101.5 126.1 100.8 126.8Z" fill="#4E5AF0"/>
<path d="M143.2 134.8C142.8 135.2 143.2 136 143.9 136C144.6 136 144.4 135.7 144.4 135.2C144.4 134.4 143.8 134.2 143.2 134.7V134.8Z" fill="#4E5AF0"/>
<path d="M80.8 127.9C79.5 126.8 79.2 126.8 78.8 127.9C78.7 128.6 78.3 128.8 77.3 128.6C76.5 128.4 76 128.6 76 128.9C76 129.2 76.4 129.4 77 129.3C77.7 129.1 78.2 129.5 79 130.8C80.2 132.7 80.7 132.9 81.8 131.4C82.6 130.2 82.3 129.1 80.9 127.9H80.8Z" fill="#4E5AF0"/>
<path d="M104.8 127C104.4 127 104 127.4 103.8 127.8C103.6 128.3 103.8 128.6 104.5 128.6C105.2 128.6 105.5 128.3 105.5 127.8C105.5 127.3 105.2 127 104.8 127Z" fill="#4E5AF0"/>
<path d="M74.3 137.1C73.5 136.3 73.4 136.3 73.1 137.3C72.9 138.1 72.7 138.3 72.4 137.8C72.2 137.4 71.8 137.3 71.6 137.5C71.2 137.9 72.2999 138.8 73.1999 138.8C74.0999 138.8 74 138.6 74.4 138.3C75 137.9 74.9999 137.7 74.1999 137L74.3 137.1Z" fill="#4E5AF0"/>
<path d="M132.1 135.9C132.1 136.1 132.3 136.4 132.9 136.6C133.5 136.7 133.9 136.6 133.9 136.4C133.9 135.8 132.5 135.4 132.1 135.9Z" fill="#4E5AF0"/>
<path d="M53.8001 137.3C52.9001 138.1 53.6001 138.9 54.9001 138.9C56.2001 138.9 56.4001 138.9 55.8001 137.9C55.1001 136.9 54.3001 136.6 53.8001 137.3Z" fill="#4E5AF0"/>
<path d="M94.9999 129.8C94.3999 131.3 94.2999 132 94.9999 132C95.6999 132 96.9999 129.8 96.9999 129C96.9999 128.2 95.4999 128.6 94.9999 129.8Z" fill="#4E5AF0"/>
<path d="M98.3 128.5C97.7 128.5 97.5 128.8 97.5 129.4C97.7 130.5 101.4 130.9 101.4 129.9C101.4 128.9 99.9 128.6 98.2 128.6L98.3 128.5Z" fill="#4E5AF0"/>
<path d="M138.8 136.5C138.6 136.5 138.2 136.7 138 137C137.5 137.9 138.6 138.8 139.3 138.1C139.9 137.5 139.5 136.4 138.8 136.4V136.5Z" fill="#4E5AF0"/>
<path d="M85.2 129.5C85 129.8 85 130.1 85.2 130.3C85.5 130.6 86.5001 130 86.5001 129.4C86.5001 128.8 85.7001 128.8 85.3001 129.5H85.2Z" fill="#4E5AF0"/>
<path d="M122.2 137.1C121.5 136.9 121.3 137.1 121.5 137.8C121.5 138.4 122 138.8 122.6 138.9C123.3 139 123.5 138.9 123.3 138.2C123.3 137.7 122.8 137.2 122.2 137.1Z" fill="#4E5AF0"/>
<path d="M92.7 129.5C92.3 129.5 92 129.9 92 130.3C92 131.2 92 131.2 93.2 130.8C94.1 130.5 93.8 129.6 92.7 129.6V129.5Z" fill="#4E5AF0"/>
<path d="M124.8 138.2C124.8 138.6 125 139 125.2 139.2C125.9 139.6 127 138.7 126.6 138C126.1 137.2 124.8 137.3 124.8 138.2Z" fill="#4E5AF0"/>
<path d="M73.7999 140C73.5999 140.6 73.5999 141 73.7999 141C74.2999 141 75.3999 139.6 75.0999 139.3C74.5999 138.7 74.0999 139 73.7999 140Z" fill="#4E5AF0"/>
<path d="M102.8 130.3C102.2 130.9 102.5 131.5 103.5 131.5C104.5 131.5 104.5 131.3 104.4 130.9C104.2 130.2 103.3 129.9 102.8 130.3Z" fill="#4E5AF0"/>
<path d="M66.3001 139.8C65.9001 140.2 66.5001 141.5 67.0001 141.5C67.5001 141.5 67.5001 141.1 67.5001 140.5C67.5001 139.6 66.9001 139.2 66.3001 139.8Z" fill="#4E5AF0"/>
<path d="M69.1001 140.5C68.6001 140.5 68.4001 140.7 68.5001 141.1C68.8001 142 69.9001 142.1 69.9001 141.3C69.9001 140.5 69.6001 140.5 69.1001 140.5Z" fill="#4E5AF0"/>
<path d="M100 132.5C99.8 132.5 99.5 132.9 99.5 133.3C99.5 133.7 99.8 134.1 100.3 134.1C100.8 134.1 100.9 133.8 100.8 133.3C100.6 132.9 100.3 132.5 100 132.5Z" fill="#4E5AF0"/>
</svg>
