<svg width="180" height="180" viewBox="0 0 180 180" fill="none" xmlns="http://www.w3.org/2000/svg">
<path d="M123 48.6C123 48 121.7 47.9 121.3 48.4C121.1 48.6 121.3 49 121.5 49.2C122.1 49.6 123 49.2 123.1 48.6H123Z" fill="#259AE7"/>
<path d="M118.9 52.5C119.5 51.4 118.6 50.5 117.8 51.3C117.3 51.8 117.3 52.1 117.8 52.7C118.3 53.3 118.6 53.2 118.9 52.7V52.5Z" fill="#259AE7"/>
<path d="M112 54C113.5 54 113.9 52.4 112.8 51.4C111.5 50.2 111.2 50.3 111.1 52.3C110.9 53.8 111.1 54.1 112 54Z" fill="#259AE7"/>
<path d="M73.4999 58.3C73.2999 58.9 73.4999 59.2 73.9999 59.4C74.4999 59.4 74.9999 59.4 75.1999 58.9C75.3999 58.4 75.1999 58 74.6999 57.7C74.2999 57.5 74.0999 57.5 73.8999 57.7C73.8999 57.5 73.8999 57.4 73.8999 57.2C73.5999 56.6 72.8999 56.4 72.4999 57C72.2999 57.2 72.4999 57.7 72.7999 58C73.0999 58.3 73.4999 58.4 73.6999 58.2L73.4999 58.3Z" fill="#259AE7"/>
<path d="M137.1 52.4C137.8 52.4 138.7 51.4 138.2 51C138 50.8 137.6 50.7 137.3 51C136.6 51.3 136.5 52.4 137.1 52.5V52.4Z" fill="#259AE7"/>
<path d="M101.4 54.9C102.3 54.7 102.6 53.6 101.7 53.5C101.3 53.5 100.9 53.8 100.8 54.2C100.8 54.6 101 54.9 101.3 54.9H101.4Z" fill="#259AE7"/>
<path d="M102.3 57C102.8 55.5 102 55.1 101.4 56.6C101.2 57.1 100.7 57.5 100.4 57.5C99.4999 57.5 98.5999 58.4 98.7999 59.1C99.1999 60.8 101.5 59.5 102.4 57H102.3Z" fill="#259AE7"/>
<path d="M105.5 57.7C105.5 58.1 105.8 58.5 106.2 58.5C106.6 58.5 107 58.2 107 57.8C107 57.4 106.7 57 106.3 57C105.9 57 105.5 57.3 105.5 57.7Z" fill="#259AE7"/>
<path d="M137.5 58.1C136.7 58.1 136.6 58.1 136.8 59.2C136.8 60.4 137 60.4 137.7 60C138.8 59.4 138.6 58.3 137.5 58.2V58.1Z" fill="#259AE7"/>
<path d="M57.5 76.3C57.7 76.3 58 76 58 75.6C58 74.9 57.5 74.5 56.9 75C56.5 75.4 56.9 76.2 57.5 76.3Z" fill="#259AE7"/>
<path d="M47.1 76.8C47.4 76.8 47.9 77.3 47.9 77.9C47.9 78.5 48.5 79 49 79C49.5 79 50.2 79.4 50.5 79.8C51 80.4 51.1 80.3 50.9 79.2C50.9 78.5 50.7 77.7 50.9 77.4C50.9 76.6 49.5 76 48.7 76.5C48.2 76.9 47.9 76.8 47.7 76.5C47.4 75.8 46.5 75.7 46.5 76.5C46.5 77.3 46.7 77 47.1 77.1V76.9V76.8Z" fill="#259AE7"/>
<path d="M135 80.7C135.6 80.7 136 80 135.6 79.7C135.4 79.5 135 79.5 134.7 79.5C134.1 79.7 134.3 80.7 135 80.6V80.7Z" fill="#259AE7"/>
<path d="M135.8 82.7999C135.7 82.4999 135.3 82.2999 135 82.4999C134.1 82.7999 134.3 83.5999 135.2 83.4999C135.7 83.4999 135.9 83.1999 135.8 82.8999V82.7999Z" fill="#259AE7"/>
<path d="M42.0999 79.8C42.0999 80.2 42.4999 80.6 42.8999 80.7C43.2999 80.9 43.4999 80.7 43.3999 80.3C43.3999 79.9 42.9999 79.5 42.5999 79.4C42.1999 79.2 41.9999 79.4 42.0999 79.8Z" fill="#259AE7"/>
<path d="M140.5 91.1C140.8 90.7 140.7 90.2 140.2 89.8C139.7 89.4 139.3 89.4 139.2 89.8C138.9 90.8 140 91.8 140.6 91.1H140.5Z" fill="#259AE7"/>
<path d="M134.8 87.1C134.5 87.5 134.5 87.8 134.8 88C135.1 88.2 135.5 88 135.6 87.8C135.7 87.6 135.8 87.2 135.6 86.9C135.4 86.6 135 86.7 134.8 87.1Z" fill="#259AE7"/>
<path d="M47.2 82.2C47.2 81.7 47.2 81.3 46.6 81.3C46 81.3 45.8 81.5 45.9 82C45.9 83.1 46.9 83.3 47.2 82.2Z" fill="#259AE7"/>
<path d="M136.3 90.4C136 89.5 134.9 88.6 134.4 88.8C133.5 89.1 133 91 133.7 91.6C134.6 92.3 136.6 91.3 136.3 90.4Z" fill="#259AE7"/>
<path d="M138.2 93.8C137.8 93.6 136.8 93.8 136 94C134.6 94.5 134.5 94.7 134.6 95.5C134.8 96.6 135.8 96.8 136.6 95.9C136.9 95.5 137.6 95.2 138.2 95.2C139.2 95.2 140 94.6 139.4 94.3C138.8 94 138.7 93.9 138.3 93.8H138.2Z" fill="#259AE7"/>
<path d="M139.9 95.6C139.5 95.8 139.3 96.1 139.3 96.3C139.3 97 140.7 97.1 141.2 96.6C141.8 95.9 140.8 95.1 139.9 95.6Z" fill="#259AE7"/>
<path d="M41.6 78.8C41.6 78.8 41.8 79 42.1 78.8C42.7 78.5 42.4 77.1 41.7 77C41.4 77 41.3 77.3 41.4 77.8C41.5 78.3 41.6 78.7 41.6 78.8Z" fill="#259AE7"/>
<path d="M138.1 108.2C137.8 108.2 137.1 108.2 136.6 107.6C135.7 106.9 133.8 107.6 133.9 108.4C133.9 109.4 136 110.6 137 110.2C137.6 110 138.3 109.8 138.6 109.8C139.2 109.8 139.5 108.6 139 108.2C138.8 108 138.4 108 138.1 108.2Z" fill="#259AE7"/>
<path d="M46.9 79C47.3 79 47.7 78.8 47.7 78.6C47.7 78.3 47.4 78.1 47 78C46.6 78 46.2 78 46.2 78.4C46.2 78.8 46.5 78.9 46.9 79Z" fill="#259AE7"/>
<path d="M48.1 80.2C48.1 80.5 48.4 80.7 48.7 80.8C48.9 80.8 49.3 80.8 49.4 80.4C49.4 80.1 49.4 79.8 48.8 79.8C48.2 79.8 48 80 48.1 80.3V80.2Z" fill="#259AE7"/>
<path d="M41.0001 86.1C41.2001 86.1 41.4001 85.5 41.4001 85.1C41.4001 84.4 40.2001 84.1 39.7001 84.7C39.3001 85.2 40.4001 86.4 40.9001 86L41.0001 86.1Z" fill="#259AE7"/>
<path d="M128.7 110.8H128.3C131.4 93 135.3 69 136.4 57.6C136.5 56.3 136.4 54.7 136.2 54C136.1 53.3 135.8 52.3 134.9 51.5C134.1 50.8 132.9 50.5 132 50.5C132 50.2 131.8 49.9 131.6 49.8C130.9 49.5 130.2 49.8 130 50.6C127.8 50.9 124.5 51.9 117.2 54.8C116.8 54.6 116.4 54.8 116 55.3C111.6 57 105.8 59.4 98.0999 62.6C98.0999 62.4 97.8999 62.2 97.6999 62.1C97.4999 62.1 97.0999 62.1 96.8999 62.4C96.6999 62.6 96.8999 62.9 97.0999 63H96.8999C89.3999 66.1 75.4999 72.1 55.3999 80.8C55.3999 80.4 55.0999 80.1 54.6999 80.1C54.2999 80.1 53.9999 80.3 53.9999 80.6C53.9999 80.9 54.1999 81.1 54.2999 81.2C50.7999 82.7 47.0999 84.3 43.1999 86C38.7999 87.7 36.5999 89.4 36.3999 91.1C36.3999 91.9 36.3999 92.6 36.9999 93.2L40.8999 100.9C42.4999 104 43.4999 107.4 43.8999 110.8L44.3999 114.5C44.5999 115.9 44.3999 117.4 44.3999 118.8L42.7999 127.8C42.3999 130.1 43.7999 132.3 45.9999 132.8C49.1999 133.6 52.0999 130.7 51.2999 127.5L48.8999 118L48.0999 111C47.8999 109.6 47.8999 108.2 47.8999 106.8C48.0999 106.8 48.2999 106.8 48.5999 106.8C49.9999 106.4 50.4999 105.3 50.0999 103.5C49.6999 101.8 49.4999 101.6 48.5999 102.3C48.5999 102.3 48.3999 102.3 48.3999 102.5C48.3999 101.8 48.6999 101.1 48.7999 100.4V100.2C49.3999 98.6 50.1999 98.7 51.3999 98.8C54.8999 99.8 58.4999 100.6 60.6999 100.7C63.6999 100.7 66.9999 99.5 70.6999 97C95.7999 80.1 108.7 71.5 109.5 71.3C110.1 71.3 110.9 71 111.4 71.5C111.9 72 111.9 72.9 111.8 73.1C111.3 75 87.7999 96.5 86.3999 97.9C85.4999 98.9 84.4999 99.7 83.6999 100.6H83.1999C82.6999 100.6 82.5999 101 82.7999 101.5C79.2999 105.1 77.4999 108.1 84.3999 112.6C88.9999 115.6 92.4999 118 96.1999 120.5C97.7999 121.8 100.1 124.7 101.5 127.2C102.7 129.2 102.6 132 102.6 134.4V135.1C102.6 135.8 102.6 136.6 102.4 137.3L101.4 142.1C101.4 142.8 101.4 143.4 101.9 143.9C103.2 145.2 105.3 144.3 105.3 142.5V134.9C105.3 133.1 105.1 131 106.2 129.5C106.8 128.7 107.6 128.8 109 129.3C112.4 131.7 115.6 133.8 119.5 133.4C121.6 133.2 123.8 131.5 125.2 126.6C125.2 126.6 125.5 126.4 125.7 126.6C126.3 126.6 126.6 125.7 126.1 125.3C126.1 125.3 125.8 125.3 125.6 125.1C125.6 124.7 125.8 124.4 125.8 124C126 122.8 126.3 121.5 126.5 120.1C127 119.8 127.3 119 126.8 118.3C127.1 116.5 127.5 114.5 127.8 112.4H128.5C131 112.1 131 111 128.5 111H128.8L128.7 110.8Z" fill="#259AE7"/>
<path d="M34.8001 82C34.8001 81.6 33.4001 81.7 33.0001 82C32.5001 82.7 33.0001 83.5 34.2001 83.6C34.9001 83.6 35.1001 83.4 35.0001 82.9C35.0001 82.4 34.8001 82 34.8001 81.9V82Z" fill="#259AE7"/>
<path d="M132 121.7C132.3 121.3 132.2 120.8 131.7 120.4C131.2 120 130.8 120 130.7 120.4C130.4 121.4 131.5 122.4 132.1 121.7H132Z" fill="#259AE7"/>
<path d="M131.6 127.1C130.6 127.7 131.1 129.1 132.4 129C132.9 129 133.4 128.6 133.5 128.2C133.6 127.3 132.5 126.6 131.7 127H131.6V127.1Z" fill="#259AE7"/>
<path d="M134.1 131C133.8 131.3 133.8 131.7 134.1 131.9C134.3 132.1 134.7 131.9 135 131.6C135.3 131.3 135.3 130.9 135 130.7C134.8 130.5 134.4 130.7 134.1 131Z" fill="#259AE7"/>
<path d="M131.1 49.6C132.9 49.2 132.3 47.2 130.4 47.1C128.8 47.1 128.7 47.1 129.5 48.6C130 49.4 130.6 49.8 131.1 49.7V49.6Z" fill="#259AE7"/>
<path d="M124.9 49.1C124.6 48.7 124.1 48.7 123.6 49.1C123.1 49.4 122.9 49.8 123.2 50.1C124 50.7 125.4 50.1 124.9 49.2V49.1Z" fill="#259AE7"/>
<path d="M135.2 50.3C135.5 50.1 135.4 49.7 135.2 49.4C135 49.1 134.6 48.9 134.4 49C134.2 49.1 134.2 49.6 134.4 49.9C134.6 50.2 135 50.4 135.2 50.3Z" fill="#259AE7"/>
<path d="M72.2999 59.2C72.5999 59.2 72.5999 58.6 72.4999 58.2C72.0999 57.2 71.4999 57.4 71.6999 58.5C71.6999 59 71.9999 59.2 72.2999 59.1V59.2Z" fill="#259AE7"/>
<path d="M72.7001 70.9001C72.7001 70.2001 71.3001 69.7 71.1001 70.2C71.1001 70.5 71.1001 70.9001 71.1001 71.1001C71.5001 71.7001 72.6001 71.5001 72.6001 70.9001H72.7001Z" fill="#259AE7"/>
<path d="M75.5001 66.6C76.4001 66.9 76.7001 66.6 77.1001 65.5C77.4001 64.7 77.5001 64 77.4001 63.8C77.1001 63.1 75.3001 64.1 74.9001 65.2C74.5001 66.1 74.6001 66.4 75.5001 66.6Z" fill="#259AE7"/>
<path d="M80.2 61.1C80.2 62 81 62.7 81.7 62.4C82.2 62.2 81.5 60.6 80.8 60.4C81.1 60.4 81.4 60 81.6 59.5C81.8 59 81.6 58.5 81.3 58.3C80.6 58 80.2 58.6 80.2 59.9C80.2 61.2 80.2 60.4 80.5 60.4C80.3 60.4 80.2 60.8 80.2 61.1Z" fill="#259AE7"/>
<path d="M87.2999 59.7C88.2999 59.7 88.4999 59 87.7999 58.3C86.9999 57.6 86.3999 57.9 86.3999 58.9C86.3999 59.9 86.7999 59.7 87.2999 59.7Z" fill="#259AE7"/>
<path d="M89.2999 59.4C89.7999 59.6 90.2999 58.5 89.9999 57.8C89.5999 56.9 88.8999 57.3 88.8999 58.4C88.8999 59.5 89.0999 59.3 89.1999 59.4H89.2999Z" fill="#259AE7"/>
<path d="M93.6 58.4C94.3 58.4 94.9 57.7 94.6 57.1C94.4 56.6 93.1 57.1 93 57.8C93 58.1 93.2 58.4 93.6 58.4Z" fill="#259AE7"/>
<path d="M92.2 63.2C93 63.4 93.1 63.2 93.1 62.5C93.1 61.3 91.8 60.9 91.5 62C91.3 62.7 91.5 62.9 92.2 63.1V63.2Z" fill="#259AE7"/>
<path d="M106 54.8C106.2 54.8 106.6 54.8 106.7 54.4C106.7 54.1 106.7 53.8 106.1 53.8C105.5 53.8 105.3 53.8 105.4 54.2C105.4 54.5 105.7 54.8 106 54.8Z" fill="#259AE7"/>
<path d="M125.6 132.5C124.7 132.5 124.6 133.2 125.4 133.9C125.8 134.2 126.3 134.3 126.4 133.9C126.6 133.2 126.2 132.4 125.6 132.5Z" fill="#259AE7"/>
<path d="M32.8999 101.7C33.0999 101.7 33.3999 101.4 33.3999 101C33.3999 100.3 32.8999 99.9 32.2999 100.4C31.8999 100.8 32.2999 101.6 32.8999 101.7Z" fill="#259AE7"/>
<path d="M122.2 133.7C121.5 133.8 121.3 134.1 121.3 134.7C121.3 135.7 122.8 136.1 123.4 135.4C124 134.6 123.2 133.5 122.1 133.7H122.2Z" fill="#259AE7"/>
<path d="M119.6 134C119.6 133.7 119.2 133.6 118.8 133.8C118.4 134 118.2 134.4 118.5 134.6C118.7 134.8 119.1 134.9 119.3 134.8C119.5 134.7 119.7 134.3 119.6 134Z" fill="#259AE7"/>
<path d="M120.5 137.7C120.5 137.5 120.5 137.2 120.3 137C120.1 136.7 119.7 136.7 119.5 137C119.2 137.4 119.3 137.8 119.5 138.1C119.5 138.1 119.7 138.2 119.8 138.2C119.8 138.5 119.8 138.8 120.2 139C120.8 139.3 121.4 138.6 121.1 138C121.1 137.8 120.7 137.6 120.4 137.5V137.7H120.5Z" fill="#259AE7"/>
<path d="M114.1 138.4C113.9 138.5 113.8 138.9 114.1 139.3C114.4 139.7 114.7 139.9 114.9 139.8C115.2 139.7 115.2 139.3 114.9 138.9C114.7 138.5 114.4 138.3 114.1 138.4Z" fill="#259AE7"/>
<path d="M99.6 129.9C100 129.7 100.2 129.4 100.1 129.1C100.1 128.9 99.6 128.8 99.2 129C98.8 129.2 98.6 129.6 98.7 129.8C98.7 130.1 99.2 130.1 99.6 129.9Z" fill="#259AE7"/>
<path d="M100.5 132.1C99.7001 131.8 99.3001 132.2 99.6001 133C99.8001 133.4 100.2 133.5 100.6 133.3C101.3 132.9 101.2 132.3 100.6 132.1H100.5Z" fill="#259AE7"/>
<path d="M39.7999 122.5C39.5999 122.5 39.3 122.7 39.2 123.1C39.2 123.5 39.3999 124 39.5999 124.2C39.8999 124.4 40.1 124.2 40.2 123.6C40.2 123 40.1999 122.5 39.7999 122.5Z" fill="#259AE7"/>
<path d="M98.8001 134.8C98.1001 135.5 98.5001 136.5 99.2001 136.1C99.6001 135.9 99.8001 135.4 99.6001 135C99.4001 134.6 99.1001 134.5 98.8001 134.7V134.8Z" fill="#259AE7"/>
<path d="M94.4 127.4C94 127.6 93.8 128 93.9 128.2C93.9 128.5 94.4 128.5 94.8 128.3C95.2 128.1 95.4 127.8 95.3 127.5C95.3 127.3 94.8 127.2 94.4 127.5V127.4Z" fill="#259AE7"/>
<path d="M90.5999 120.8C90.0999 120.6 89.4999 121.4 89.7999 122C89.7999 122.2 90.2999 122.2 90.6999 122C91.3999 121.7 91.2999 121 90.6999 120.8H90.5999Z" fill="#259AE7"/>
<path d="M53.3999 101.7C52.2999 102.3 51.1999 102.9 50.9999 103C50.0999 103.5 51.5999 104.6 52.8999 104.4C54.4999 104.2 55.7999 103.1 55.2999 102.2C54.9999 101.7 55.0999 101.7 55.4999 102C56.1999 102.5 56.6999 101.7 56.0999 101.1C55.7999 100.8 54.5999 101.1 53.4999 101.7H53.3999Z" fill="#259AE7"/>
<path d="M90 123.2C89.7 123.2 89.3 123.5 89.3 123.8C89.3 124.7 90 124.9 90.3 124C90.5 123.5 90.3 123.3 90 123.2Z" fill="#259AE7"/>
<path d="M87.8001 117.8C87.3001 118.1 86.6001 120 86.9001 120.5C86.9001 120.7 87.3001 120.8 87.5001 120.7C87.8001 120.7 87.8001 120.3 87.7001 120C87.7001 119.8 87.7001 119.6 88.0001 119.6C88.3001 119.6 88.5001 119.3 88.5001 118.8C88.5001 117.7 88.3001 117.5 87.8001 117.8Z" fill="#259AE7"/>
<path d="M86.1999 97.8C86.4999 97.8 86.5999 97.4 86.1999 97C85.8999 96.5 85.5999 96.1 85.2999 96.3C85.0999 96.3 84.9999 96.8 85.2999 97.1C85.4999 97.5 85.8999 97.8 86.1999 97.8Z" fill="#259AE7"/>
<path d="M36.9 102.3C37.3 102.3 37.4 101.8 37.2 101.6C37 101.3 37.2 101 37.6 100.7C38 100.5 38 100.1 37.6 99.8C37.2 99.5 36.8 99.6 36.3 100.3C35.6 101.4 35.9 102.6 36.9 102.3Z" fill="#259AE7"/>
<path d="M77.0999 97.2C75.9999 96.8 74.8999 97.4 74.8999 98.2C74.8999 99 76.2999 100.1 77.1999 99.8C78.0999 99.4 78.0999 97.5 77.0999 97.2Z" fill="#259AE7"/>
<path d="M77.6001 101.7C77.6001 101.3 77.4001 101 77.1001 101C76.8001 101 76.6001 101.4 76.6001 101.8C76.6001 102.2 76.9001 102.5 77.1001 102.5C77.4001 102.5 77.6001 102.1 77.6001 101.7Z" fill="#259AE7"/>
<path d="M83.7001 116.4C83.1001 116.7 83.0001 117.2 83.2001 117.7C83.4001 118.2 84.0001 118.4 84.5001 118.2C85.1001 117.9 85.2001 117.4 85.0001 116.9C84.8001 116.4 84.2001 116.2 83.7001 116.4Z" fill="#259AE7"/>
<path d="M71.8001 114.2C71.4001 114.2 71.1001 114.5 71.1001 114.7C71.1001 115 71.5001 115.2 71.9001 115.2C72.3001 115.2 72.6001 115 72.6001 114.7C72.6001 114.4 72.2001 114.2 71.8001 114.2Z" fill="#259AE7"/>
<path d="M74.9999 100.8C74.6999 100.6 74.3999 100.6 74.1999 100.8C73.8999 101.2 74.5999 102.6 75.0999 102.6C75.5999 102.6 75.5999 101.2 74.8999 100.9L74.9999 100.8Z" fill="#259AE7"/>
<path d="M83 99.1C83.9 98.7 83.8 97.6 83 97.3C82.2 97 81.4 97.8 81.8 98.6C82.1 99.2 82.6 99.3 83.1 99.1H83Z" fill="#259AE7"/>
<path d="M94.4 138.8C93.9 138.6 93.3 139.4 93.6 140C93.9 140.6 94.1 140.2 94.5 140C95.2 139.7 95.1 139 94.5 138.8H94.4Z" fill="#259AE7"/>
<path d="M39.3999 106.5C39.3999 105.3 39.1999 105.3 38.2999 105.9C37.5999 106.4 37.3999 106.4 37.3999 105.9C37.3999 105.4 37.3999 105.2 36.9999 105.2C36.3999 105.2 36.6999 106.7 37.3999 107.3C37.5999 107.5 38.1999 107.6 38.6999 107.7C39.4999 107.7 39.5999 107.7 39.3999 106.6V106.5Z" fill="#259AE7"/>
<path d="M77.4999 109C78.1999 109 78.6999 107.5 78.6999 105.8C78.6999 104.1 78.3999 105 77.7999 105.1C76.6999 105.3 76.4999 109.1 77.4999 109Z" fill="#259AE7"/>
<path d="M52.6 107.4C52.3 107.4 52 107.7 52 108C52 108.5 53.2 108.6 53.6 108C54 107.5 53.3 107 52.6 107.3V107.4Z" fill="#259AE7"/>
<path d="M83.1001 121C82.9001 120.4 82.7001 120.3 82.2001 120.7L82.0001 120.9C82.0001 120.7 81.6001 120.6 81.1001 120.7C80.7001 120.7 80.4001 121 80.6001 121.3C80.6001 121.6 80.6001 121.8 80.6001 121.7C80.4001 121.7 80.3001 120.8 80.4001 120C80.4001 119.2 80.4001 118.5 80.4001 118.5C78.1001 119.1 77.8001 119.3 78.8001 119.5C79.6001 119.5 79.7001 119.8 79.5001 120.6C79.0001 121.8 80.2001 122.6 81.4001 122C81.6001 122 81.7001 121.8 81.9001 121.7V122.2C82.1001 122.9 82.3001 122.9 82.8001 122.5C83.2001 122.2 83.5001 121.6 83.3001 121H83.2001H83.1001Z" fill="#259AE7"/>
<path d="M83.3001 123.9C82.9001 124.1 82.6001 124.5 82.6001 124.7C82.6001 125.5 83.9001 126 84.3001 125.4C84.8001 124.6 84.1001 123.5 83.4001 123.9H83.3001Z" fill="#259AE7"/>
<path d="M37.2 108.4C36.7 108.7 36.5 109.1 36.6 109.2C37 109.5 38.7 109.2 38.7 108.7C38.7 107.9 38.1 107.8 37.2 108.4Z" fill="#259AE7"/>
<path d="M75.8 111.1C75.8 111.6 76.1 112 76.4 111.9C77.1 111.6 77.4 110.8 76.9 110.3C76.2 109.7 75.7 110 75.7 111L75.8 111.1Z" fill="#259AE7"/>
<path d="M31.4999 103.5C30.8999 103.5 30.4999 104.9 30.9999 105.3C31.1999 105.5 31.5999 105.3 31.9999 104.8C32.5999 104.1 32.3999 103.4 31.4999 103.5Z" fill="#259AE7"/>
<path d="M32.3999 105.9C32.0999 106.8 32.7999 107.6 33.3999 106.9C33.6999 106.5 33.5999 106.1 33.3999 105.8C32.9999 105.5 32.6999 105.6 32.5999 105.8H32.4999L32.3999 105.9Z" fill="#259AE7"/>
<path d="M73.9 107.1C73.5 107.1 73.2 107.5 73.2 107.9C73.2 108.3 73.5 108.5 74 108.3C74.4 108.1 74.7 107.8 74.7 107.5C74.7 107.2 74.3 107.1 73.9 107.1Z" fill="#259AE7"/>
<path d="M77.8999 121.5C77.3999 121.8 77.1 122.2 77.3 122.6C77.7 123.4 79.0999 122.6 78.9999 121.7C78.9999 121.3 78.4999 121.3 77.9999 121.5H77.8999Z" fill="#259AE7"/>
</svg>
