<svg width="180" height="180" viewBox="0 0 180 180" fill="none" xmlns="http://www.w3.org/2000/svg">
<path d="M149 57.5C147.6 52.1 143.3 47.9 138 46.5C131.7 44.8 113 44.2 100.7 44C100.7 43.3 100.1 43.1 99.6 43.6C99.5 43.7 99.4 43.9 99.5 44.1C93.5 44.1 89.3001 44.1 89.3001 44.1C89.3001 44.1 88.8001 44.1 87.9001 44.1C88.4001 43.9 88.4 43.2 87.7 42.6C86.4 41.7 85.6 41.8 85.6 42.9C85.6 44 85.7001 43.8 86 43.9C86.2001 43.9 86.5 43.9 86.9001 44C84.9001 44 81.8 44 78.1 44.1C78.3 43.7 78.1001 43.1 77.9001 42.2C77.5 41.2 77.1 41.3 76.2 42.2C75.5 43 75.3 43.6 75.5 44C69.4001 44.1 62.1 44.3 55.6 44.7C55.6 44 54.9 43.6 54.5 44C54.3 44.2 54.2 44.5 54.2 44.8C48.4 45.2 43.5 45.7 40.8 46.4C35.4 47.8 31.2 52.1 29.8 57.4C29.8 57.7 29.7 58 29.6 58.2C29.6 58.2 29.4 58.2 29.3 58.2C28.7 58.2 28.4 58.4 28.5 58.8C28.5 59.1 29 59.4 29.3 59.4C29.1 60.3 28.9 61.3 28.8 62.4C28.8 61.9 28.7 61.6 28.5 61.6C28.3 61.6 27.7 61.8 27 61.9C25.6 62.2 25.9 63.2 27.5 63.4C28.2 63.4 28.5 63.4 28.7 63.2C28.7 63.5 28.7 63.8 28.6 64.1C28.5 64.2 28.3 64.4 28.2 64.6C27.3 66 27.3 66.9 28.2 68C27.9 70.6 27.8 73.4 27.6 75.9C27.6 75.9 27.5 75.8 27.5 75.7C27.5 75.5 27.2 75.3 26.8 75.3C26.4 75.3 26.1 75.6 26.1 76C26.1 76.4 26.4 76.7 26.8 76.7C27.2 76.7 27.5 76.9 27.6 77.1C27.5 79.9 27.4 82.4 27.4 84.3C27.4 84.3 27.4 84.3 27.3 84.3C26.9 84.3 26.6 84.5 26.7 84.9C26.8 85.3 27.1 85.5 27.4 85.6C27.4 86.9 27.4 87.6 27.4 87.6C27.4 87.6 27.4 87.6 27.4 87.7C26.9 87 26.4 86.9 26 87.6C25.6 88.2 26.6 89.5 27.5 89.5C27.5 90 27.5 90.6 27.5 91.2C27.5 91 27.2 90.9 27 90.9C26.5 90.9 26.2 91.3 26.2 91.9C26.2 93 27.2 92.9 27.5 91.9C27.6 97.3 28 106.9 29.2 113.9C29 113.9 28.8 113.9 28.6 114C27.6 114.2 26.8 114.8 26.2 115.6C25.5 116.8 25.5 117 26.2 117.7C26.9 118.4 27 118.4 27.5 117.5C27.8 117 28.3 116.5 28.7 116.5C29.1 116.5 29.4 116.2 29.5 115.7C29.6 116.4 29.8 117.1 30 117.7C31.4 123.1 35.7 127.3 41 128.7C43.6 129.4 48.3 129.9 53.9 130.3C56.9 131 54.8 132.4 54.7 134.7C54.7 136.6 53.6 138.3 52.2 139.4L50.4 140.9C48.4 142.5 48.1 145.5 49.8 147.5C52.3 150.4 57.1 149.1 57.8 145.3L59.2001 137.6C60.4001 134 64.7 132.5 71.1 131.1C81.2001 131.4 89.8 131.4 89.8 131.4C89.8 131.4 90.4 131.4 91.3 131.4C91 131.6 90.6 132 90.5 132.4C89.7 134 89.7 134.4 90.5 134.4C91.3 134.4 91.2 134.1 91.2 133.7C91.2 133.3 91.5 132.9 91.9 132.8C92.6 132.5 92.8 131.7 92.4 131.3C93.5 131.3 94.9 131.3 96.6 131.3C96.4 131.9 97.8 133.1 98.4 132.7C98.6 132.6 98.8 132 98.8 131.5C98.8 131 98.8 131.3 98.8 131.2C99.4 131.2 100 131.2 100.7 131.2C104.8 131.2 108.8 132.2 112.3 134.4C113.9 135.4 115.1 136.9 115.7 138.7C116.7 141.9 117.9 145.9 117.9 146.8V166.6L117.5 170.6C117.1 175.3 122.6 178.1 126.2 175C128.4 173 128.5 169.5 126.4 167.4L125.6 166.6L121.4 148.8C121.1 147.5 120.9 146.1 120.9 144.8V140.4C120.9 138.5 121.6 136.7 123 135.4C123.7 134.7 124.5 134.2 125.4 133.8L134.6 130.1C134.6 130.3 134.9 130.5 135.3 130.5C135.7 130.5 136 130.3 136 130C136 129.7 135.9 129.7 135.7 129.6L138.4 128.5C143.8 127.1 148 122.8 149.4 117.5C152 107.8 152 87.5 152 87.5C152 87.5 152 67.2 149.4 57.5H149ZM76.8001 106.1V68.7L111.7 87.4L76.8001 106.1Z" fill="#FF4D26"/>
<path d="M75.1999 37.9C75.1999 36.3 75.1999 36.3 74.1999 37.9C73.7999 38.6 73.0999 39.1 72.7999 39.1C71.9999 39.1 71.3999 40.4 71.8999 41C72.6999 42.3 75.1999 40.2 75.2999 38L75.1999 37.9Z" fill="#FF4D26"/>
<path d="M64.1 40.4C64.7 39.2 64.7 38.9 64.1 38.8C63.8 38.7 63.3 38.8 63.2 39C63 39.3 63.1 39.7 63.2 39.9C63.3 40.1 63.2 40.4 62.7 40.4C62.2 40.4 62 40.6 62.1 41C62.5 42.1 63.3 41.8 64 40.5L64.1 40.4Z" fill="#FF4D26"/>
<path d="M57.6001 42.9C58.6001 43.3 59.2001 42.9 59.2001 41.8C59.2001 40.7 58.8001 40.5 57.7001 40.7C56.7001 40.9 56.6001 42.5 57.7001 42.9H57.6001Z" fill="#FF4D26"/>
<path d="M96.9001 42.7C96.9001 42.2 96.6001 41.8 96.2001 41.8C95.8001 41.8 95.4001 41.5 95.3001 41.1C95.0001 40.3 94.5001 40.2 93.9001 40.7C93.4001 41.2 93.5001 41.5 94.5001 42.6C95.6001 43.9 96.9001 44 96.9001 42.6V42.7Z" fill="#FF4D26"/>
<path d="M55.2001 42.6C55.6001 42.4 55.8001 42 55.7001 41.6C55.3001 40.7 54.6001 40.7 54.2001 41.6C53.9001 42.5 54.2001 43 55.2001 42.6Z" fill="#FF4D26"/>
<path d="M100.2 42.3C100.5 42.3 100.7 42 100.7 41.6C100.7 41.2 100.5 40.9 100.2 40.9C99.9 40.9 99.7 41.2 99.7 41.6C99.7 42 99.9 42.3 100.2 42.3Z" fill="#FF4D26"/>
<path d="M30 43.2C30.3 43.2 30.5 42.9 30.5 42.5C30.5 42.1 30.3 41.7 30 41.5C29.8 41.4 29.5 41.6 29.5 42.2C29.5 42.8 29.7 43.2 30 43.2Z" fill="#FF4D26"/>
<path d="M50.7 42.7C51 42.7 51.2 42.4 51.2 42C51.2 41.6 51 41.3 50.7 41.3C50.4 41.3 50.2 41.6 50.2 42C50.2 42.4 50.4 42.7 50.7 42.7Z" fill="#FF4D26"/>
<path d="M92.9 43.1C93.3 42.9 93.5 42.5 93.4 42.1C93 41.2 92.3 41.2 91.9 42.1C91.6 43 91.9 43.5 92.9 43.1Z" fill="#FF4D26"/>
<path d="M36.7999 43.7C37.1999 43.7 37.4999 43.4 37.4999 43C37.4999 42.2 36.8999 42.1 36.3999 42.6C35.7999 43.1 35.9999 43.7 36.7999 43.7Z" fill="#FF4D26"/>
<path d="M39.7 45.1C40.1 45.1 40.4 44.8 40.4 44.4C40.4 44 40.1 43.7 39.7 43.7C39.3 43.7 39 44 39 44.4C39 44.8 39.3 45.1 39.7 45.1Z" fill="#FF4D26"/>
<path d="M141.9 46.3C142.8 46 142.8 46.1 142 46.6C141.2 47.3 141.3 47.9 142.4 47.9C143.5 47.9 143.2 46.2 142.6 45.8C142.4 45.8 141.9 45.8 141.6 46.1C141 46.5 141.1 46.5 141.8 46.3H141.9Z" fill="#FF4D26"/>
<path d="M152.5 48.4C153.6 48.4 154.1 47.8 153.7 46.8C153.3 45.8 152.2 45.5 151.6 46.2C150.8 47.1 151.4 48.3 152.5 48.3V48.4Z" fill="#FF4D26"/>
<path d="M148.9 52.1C150.3 52.3 150.4 52.1 149.7 50.7C149.3 49.9 149.4 49.6 149.9 49.2C150.5 48.7 150.5 48.5 149.9 47.9C149.4 47.5 148.7 47.2 148.3 47.4C147.6 47.5 147.5 48 147.6 49.8C147.6 51.8 147.8 52 149 52.2L148.9 52.1Z" fill="#FF4D26"/>
<path d="M23.1 52C23.4 52 23.7 51.5 23.7 51.2C23.7 50.9 23.4 50.5 23.1 50.4C22.7 50.4 22.5 50.6 22.5 51.2C22.5 51.8 22.7 52.1 23.1 52Z" fill="#FF4D26"/>
<path d="M152.4 51C151.7 51.7 152.1 52.6 152.9 52.5C153.3 52.5 153.7 52 153.7 51.7C153.7 50.9 152.9 50.5 152.4 51Z" fill="#FF4D26"/>
<path d="M148.7 54.6C148.7 55.8 150.3 55.6 150.5 54.4C150.5 53.8 150.4 53.6 149.7 53.6C149 53.6 148.7 53.9 148.7 54.6Z" fill="#FF4D26"/>
<path d="M153.6 54.3C153.6 54.1 153.4 53.8 153.1 53.7C152.8 53.7 152.6 53.9 152.6 54.3C152.6 54.7 152.8 55 153.1 54.9C153.4 54.9 153.6 54.5 153.6 54.3Z" fill="#FF4D26"/>
<path d="M23.0001 57C23.4001 56.6 23.4001 56.3 23.0001 55.9C22.6001 55.5 22.4001 55.6 22.2001 56.2C21.8001 57.2 22.3001 57.8 23.0001 57Z" fill="#FF4D26"/>
<path d="M155.2 58.4C153.9 57.2 153.7 57.1 153.3 58.1C153 59 153.3 59.8 154 59.5C154.2 59.3 154.4 59.5 154.4 59.9C154.4 60.3 154.8 60.7 155.3 60.7C156.6 60.7 156.5 59.8 155.1 58.4H155.2Z" fill="#FF4D26"/>
<path d="M23.5001 59.7C23.5001 60 23.9001 60.2 24.1001 60.2C24.3001 60.2 24.6001 60 24.7001 59.7C24.7001 59.4 24.5001 59.2 24.1001 59.2C23.7001 59.2 23.4001 59.4 23.5001 59.7Z" fill="#FF4D26"/>
<path d="M152.5 60.4C152.5 60 152.2 59.6 151.7 59.6C151.2 59.6 151 59.8 151.1 60.2C151.4 61 152.4 61.2 152.4 60.4H152.5Z" fill="#FF4D26"/>
<path d="M153.8 61.4C153.2 62 153.5 62.5 154.5 62.5C155.5 62.5 155.4 62.3 155.3 61.9C155.1 61.2 154.3 60.9 153.8 61.3V61.4Z" fill="#FF4D26"/>
<path d="M153 63.5C153 62.9 152.2 62.5 151.9 62.8C151.4 63.3 151.6 63.9 152.3 63.9C153 63.9 153 63.7 153 63.5Z" fill="#FF4D26"/>
<path d="M154.4 66.8C154.4 66.4 153 65.7 152.9 66.1C152.5 67.7 152.9 68.5 153.8 68.6C154.7 68.7 154.8 68.6 154.6 68C154.5 67.6 154.3 67.1 154.3 66.8H154.4Z" fill="#FF4D26"/>
<path d="M151.6 74.5C151.6 74.9 151.9 75.2 152.3 75.2C152.7 75.2 153 74.9 153 74.5C153 74.1 152.7 73.8 152.3 73.8C151.9 73.8 151.6 74.1 151.6 74.5Z" fill="#FF4D26"/>
<path d="M153.1 76.4C151.6 76.1 151.6 76.2 151.6 77.6C151.6 79 151.8 79.1 152.7 79.1C153.6 79.1 154 78.7 154.3 78.1C155.1 76.9 155 76.8 153.1 76.5V76.4Z" fill="#FF4D26"/>
<path d="M24.3999 88.1C24.3999 87.9 24.1999 87.7 23.8999 87.5C23.5999 87.5 23.3999 87.5 23.4999 87.9C23.6999 88.5 24.2999 88.7 24.3999 88.1Z" fill="#FF4D26"/>
<path d="M24.7 93.7C25 94 25.3 94 25.5 93.7C25.7 93.4 25.6 92.9 25.4 92.7C25.1 92.4 24.8 92.4 24.6 92.7C24.4 93 24.5 93.5 24.7 93.7Z" fill="#FF4D26"/>
<path d="M25.2999 96.6C25.4999 96.4 25.5999 95.9 25.2999 95.5C24.8999 94.9 24.7999 94.9 24.4999 95.6C24.0999 96.6 24.4999 97.2 25.2999 96.6Z" fill="#FF4D26"/>
<path d="M153 95.5C152.4 95.8 152.4 96.1 152.8 96.8C153.6 98 154.6 97.8 154.6 96.5C154.6 95.2 154 94.9 153 95.5Z" fill="#FF4D26"/>
<path d="M152.8 99.1C152.4 99.6 152.8 100.2 153.7 100.2C154.6 100.2 154.4 99.9 154.4 99.5C154.4 98.8 153.4 98.5 152.8 99.1Z" fill="#FF4D26"/>
<path d="M23 101.2C22.8 101.2 22.4 101.6 22.3 102.2C22.2 102.8 22.3 103.1 22.6 103C23.3 102.8 23.6 101.3 23 101.3V101.2Z" fill="#FF4D26"/>
<path d="M25.1001 101.2C24.7001 101.2 24.4001 101.4 24.5001 101.7C24.5001 102 24.9001 102.2 25.1001 102.2C25.3001 102.2 25.6001 102 25.7001 101.7C25.7001 101.4 25.5001 101.2 25.1001 101.2Z" fill="#FF4D26"/>
<path d="M153.2 103C152.8 103 152.5 103.2 152.5 103.4C152.5 103.6 152.8 103.9 153.2 104.1C153.6 104.2 153.9 104.1 153.9 103.7C153.9 103.3 153.6 103 153.2 103Z" fill="#FF4D26"/>
<path d="M25.5 103.6C24.9 103.6 24.4 103.6 24.2 103.8C23.1 104.9 24.5 107.1 25.9 106.5C27.1 106 26.7 103.8 25.5 103.6Z" fill="#FF4D26"/>
<path d="M24.8 112.5C24.8 112.7 25.1 113 25.5 113C25.9 113 26.2001 112.8 26.2001 112.5C26.2001 112.2 25.9 112 25.5 112C25.1 112 24.8 112.2 24.8 112.5Z" fill="#FF4D26"/>
<path d="M150.7 114C150.4 114 150.1 114.1 150.1 114.6C150.1 115.1 150.4 115.4 150.9 115.4C151.7 115.4 151.6 114.4 150.7 114.1V114Z" fill="#FF4D26"/>
<path d="M152.5 117.4C152.5 116.6 151.9 116.5 151.4 117C150.8 117.5 151 118.1 151.8 118.1C152.6 118.1 152.5 117.8 152.5 117.4Z" fill="#FF4D26"/>
<path d="M26.0001 120.2C26.6001 119.733 26.5334 119.1 25.8001 118.3C24.5001 116.9 23.6001 116.8 22.1001 117.9C20.2001 119.2 21.3001 120.8 24.1001 120.9C24.6001 120.9 25.5001 120.6 25.9001 120.2H26.0001Z" fill="#FF4D26"/>
<path d="M24.9 122.2C25.1 123.2 25.9 123.3 26.1 122.2C26.1 121.7 26 121.4 25.5 121.4C25 121.4 24.8 121.7 24.9 122.2Z" fill="#FF4D26"/>
<path d="M27.6001 122.8C26.8001 122.8 26.7001 123 26.9001 124C27.1001 124.9 27.0001 125.1 26.5001 124.9C26.1001 124.7 25.8001 124.9 25.8001 125.3C25.8001 125.7 25.5001 125.9 24.9001 125.8C24.4001 125.7 23.9001 125.8 23.6001 126.2C23.4001 126.6 23.6001 126.7 24.1001 126.5C24.6001 126.3 25.4001 126.5 25.9001 126.9C26.5001 127.3 26.7001 127.6 26.3001 127.6C25.9001 127.6 25.8001 127.8 26.0001 128.1C26.5001 128.9 27.1001 128.1 27.5001 126.5C27.6001 125.6 28.0001 124.9 28.2001 124.9C28.4001 124.9 28.6001 124.5 28.6001 124C28.6001 123.5 28.3001 123.1 27.6001 123.1V122.8Z" fill="#FF4D26"/>
<path d="M153 124.2C152.1 123.6 151.6 123.6 151.6 124.2C151.6 124.8 152.9 125.4 153.4 125C153.5 124.8 153.4 124.5 153 124.2Z" fill="#FF4D26"/>
<path d="M142.5 130.7C141.9 131.3 142.2 131.8 143.1 131.8C144 131.8 144 131.5 144 131.1C144 130.4 143 130.1 142.4 130.7H142.5Z" fill="#FF4D26"/>
<path d="M138.2 130.8C137.8 130.8 137.4 131.1 137.4 131.6C137.4 132.1 137.6 132.3 138 132.2C138.8 131.9 139 130.9 138.2 130.9V130.8Z" fill="#FF4D26"/>
</svg>
