<svg width="180" height="180" viewBox="0 0 180 180" fill="none" xmlns="http://www.w3.org/2000/svg">
<g id="1WinLogo 1">
<g id="Group">
<path id="Vector" d="M150.9 80.7C150.4 80.7 150 80.9 149.9 81.3C149.7 82.3 150.2 82.7 151.1 82.2C152 81.7 151.9 80.9 150.9 80.7Z" fill="#EEF4F8"/>
<path id="Vector_2" d="M150.7 83.2C150.2 83.1 149.7 83.2 149.6 83.2C149.3 83.6 150.2 84.4 150.9 84.3C151.8 84.2 151.7 83.4 150.6 83.1L150.7 83.2Z" fill="#EEF4F8"/>
<path id="Vector_3" d="M71.7 62.5C72.1 62.5 72.2 62.1 71.8 61.9C71.5 61.7 71 61.5 70.6 61.7C70.2 61.7 70.1 62.1 70.5 62.3C70.8 62.5 71.3 62.7 71.7 62.5Z" fill="#EEF4F8"/>
<path id="Vector_4" d="M136.9 114C136.5 113.8 136.1 114 136 114.5C135.7 115.7 136.7 116.4 137.2 115.3C137.5 114.8 137.4 114.2 136.9 114Z" fill="#EEF4F8"/>
<path id="Vector_5" d="M120.7 128C120.4 128 120.3 128.5 120.5 128.9C120.8 129.9 121.4 129.7 121.3 128.6C121.3 128.1 121 127.8 120.7 127.9V128Z" fill="#EEF4F8"/>
<path id="Vector_6" d="M152.5 76.2C152.2 76.1 152 76.4 152 76.8C152 77.2 152.2 77.6 152.5 77.5C152.8 77.4 153.1 77.1 153.1 76.8C153.1 76.5 152.9 76.3 152.5 76.2Z" fill="#EEF4F8"/>
<path id="Vector_7" d="M142.6 99.7C142.6 99.7 142.6 99.7 142.5 99.7C142.1 99.5 141.9 99.7 142.1 100.2C142.1 100.5 142.6 101 142.9 101C143.2 101 143.3 101 143.4 100.9C143.4 100.9 143.4 100.7 143.4 100.6C143.4 100.3 143 99.9 142.6 99.8V99.7Z" fill="#EEF4F8"/>
<path id="Vector_8" d="M149 89.5C148.6 90.4 149.6 91.6 150.2 91C150.5 90.6 150.4 90.1 150 89.7C149.6 89.3 149.1 89.2 149 89.5Z" fill="#EEF4F8"/>
<path id="Vector_9" d="M147.7 60.6C147.9 60.8 148.3 61 148.9 61C149.5 61 149.9 60.6 149.9 60.2C149.9 59.4 149.2 59.3 148 59.8C147.7 59.9 147.6 60.1 147.6 60.3C147.4 60.2 147.1 60.1 146.8 60.3C146 60.7 145.7 61.7 146.2 62.2C146.6 62.6 147.8 61.3 147.7 60.6Z" fill="#EEF4F8"/>
<path id="Vector_10" d="M154 67.3C153.8 64.7 152.2 62.7 149 62.7H148.7C148.7 62.7 148.7 62.6 148.7 62.5C148.7 62.2 148.4 62 148 62C147.6 62 147.3 62.3 147.4 62.6H139.9C136.6 62.6 134.2 63.7 132.9 66.9L131.4 70.6C131.4 70.6 131.4 70.6 131.4 70.7L120.7 96.6L120.1 82.6C120.9 82.6 121.2 82.3 121.1 81.9C121.1 81.6 120.6 81.5 120 81.9L119.6 71.9C120.1 72.1 120.5 71.7 120.5 70.8C120.5 70.2 120.4 69.8 120.3 69.8C120.1 69.8 119.8 70.2 119.6 70.6V70C119.4 64.3 116.7 62.5 113.5 62.5H104.3C100.6 62.5 98.4999 64 97.3999 66.7L85.1999 96.7L84.7999 86.8C85.7999 87 85.9999 86.9 86.2999 86.2C86.6999 85.2 86.0999 84.4 84.8999 84.8H84.6999L84.0999 69.3C83.9999 64.2 82.1999 62.4 78.0999 62.4H67.8999C70.1999 65.1 72.8999 68.5 71.8999 76.2C71.6999 76.1 71.4999 76 71.3999 76.1C70.6999 76.3 70.6999 77 71.4999 78L69.3999 89.1C69.1999 88.6 68.5999 88.4 68.0999 88.5C66.9999 88.8 66.8999 89.6 67.6999 90.4C68.1999 90.8 68.7999 90.7 69.0999 90.3L68.6999 92.5C68.5999 92.4 68.3999 92.3 68.2999 92.3C67.9999 92.3 67.8999 92.8 67.9999 93.2C67.9999 93.5 68.2999 93.7 68.4999 93.8L67.7999 97.7L68.4999 114.1C68.5999 120 71.4999 122.5 76.3999 122.5H88.7999C92.6999 122.5 94.3999 119.5 95.8999 115.7L98.9999 108L99.1999 107.4L105.3 92.5L106.3 114.7C106.3 116.9 106.9 118.8 107.9 120.1C108.2 120.5 108.6 120.9 109 121.2C109.2 121.3 109.3 121.4 109.5 121.5C109.6 121.5 109.8 121.7 109.9 121.7C111.9 123 113.1 124 114 125.2C113.9 125.2 113.7 125.4 113.7 125.5C113.5 125.9 113.5 126.4 113.7 126.6C113.9 127 114.5 127 115 126.8C115.3 127.6 115.5 128.4 115.7 129.3L116.2 131.6C116.4 132.4 116.4 133.2 116.3 134L115.7 141.1C115.5 142.9 117.1 144.3 118.9 144C120.5 143.7 121.5 142.2 121.1 140.6L119.2 133.7C118.8 132.4 118.8 131 119 129.6L119.3 127.8C119.5 126.8 119.5 125.7 119.7 124.7C119.9 123.3 120.4 122.6 121.8 122.3H127.5C131.5 122.3 133.2 119.8 135 115.5L137 110.6L137.7 108.8L138.7 106.2C138.7 106.2 138.7 106.2 138.8 106.2C139.7 106.7 140.6 105.7 140 104.8C139.8 104.6 139.6 104.4 139.3 104.4L142.9 95.6C143.3 95.6 143.7 95.4 144.1 95.4C145.4 95.4 145.4 93.7 144.3 93.3C144.3 93.1 144.3 92.9 144.1 92.8L153 70.9C153.6 69.4 153.9 68 153.9 66.6V66.4L154 67.3ZM111.3 122.8C111.1 122.8 111 122.8 110.8 122.6C111 122.6 111.1 122.7 111.3 122.8ZM112.1 122.9C112.5 122.9 112.8 122.9 113.2 122.9C112.8 122.9 112.4 122.9 112 122.9H112.1Z" fill="#EEF4F8"/>
<path id="Vector_11" d="M154.9 70.8C154.6 70.8 154.5 71.2 154.5 71.6C154.7 72.3 155.7 72.5 156.1 72C156.5 71.6 155.5 70.6 154.8 70.8H154.9Z" fill="#EEF4F8"/>
<path id="Vector_12" d="M86.5998 69.9C86.9998 69.8 87.2998 69.5 87.0998 69.2C86.8998 68.9 86.5998 68.8 86.2998 68.8C86.0998 68.8 85.7998 69.2 85.7998 69.5C85.7998 69.8 86.0998 70 86.5998 69.9Z" fill="#EEF4F8"/>
<path id="Vector_13" d="M120.8 73.8C121.8 74.4 121.9 74.4 121.9 73.3C121.9 72.4 122 72.2 122.4 72.6C122.7 72.9 123.1 72.9 123.2 72.6C123.5 72.1 122.2 71.5 121.3 71.7C121 71.7 120.5 72.2 120.2 72.5C119.7 73 119.7 73.2 120.7 73.8H120.8Z" fill="#EEF4F8"/>
<path id="Vector_14" d="M97.7998 115C97.0998 115.9 99.1998 118.9 99.9998 118.2C100.5 117.7 99.9998 116.3 98.8998 115C98.4998 114.5 98.0998 114.6 97.7998 115Z" fill="#EEF4F8"/>
<path id="Vector_15" d="M96.1 119C95.8 119.3 95.8 119.8 96.1 120.1C96.4 120.4 96.7 120.4 97 119.9C97.2 119.5 97.2 119 97 118.8C96.8 118.6 96.4 118.7 96.1 119Z" fill="#EEF4F8"/>
<path id="Vector_16" d="M110.9 124.7C110.9 125 110.9 125.3 111.1 125.5C111.2 125 111.1 124.7 110.9 124.7Z" fill="#EEF4F8"/>
</g>
<g id="Group_2">
<path id="Vector_17" fill-rule="evenodd" clip-rule="evenodd" d="M65.9999 76.6C65.9999 76.6 65.8999 76.3 65.7999 76.1C66.8999 70.7 64.8999 66.8 61.1999 64.2C57.8999 62 53.6999 61.6 49.1999 63.8L30.6999 72.2C25.9999 74.3 23.9999 79.8 25.9999 84.4C27.1999 87.2 29.5999 89 32.2999 89.6C32.2999 89.6 32.2999 89.6 32.2999 89.7C32.2999 89.9 32.4999 90.1 32.7999 90.2C33.0999 90.2 33.3999 90.2 33.4999 89.9C33.4999 89.9 33.4999 89.8 33.4999 89.7C34.9999 89.9 36.6999 89.7 38.1999 89L40.6999 87.9L39.7999 92.6C39.7999 92.6 39.5999 92.7 39.3999 92.9C38.6999 93.6 38.4999 94.6 38.8999 95.1C38.8999 95.1 39.0999 95.2 39.2999 95.2L38.6999 98.5C38.0999 98.3 37.5999 98.7 37.7999 99.5C37.8999 99.9 38.0999 100.1 38.3999 99.9L36.5999 109.8C36.4999 110.4 36.3999 111 36.3999 111.6C36.0999 111.4 35.7999 111.4 35.5999 111.6C35.3999 111.9 35.5999 112.3 35.9999 112.6C36.1999 112.6 36.2999 112.7 36.3999 112.8C36.3999 112.9 36.3999 113.1 36.3999 113.2C36.1999 113.2 35.9999 113.1 35.7999 113.2C35.3999 113.4 35.7999 114.4 36.2999 114.5C36.2999 114.5 36.4999 114.5 36.5999 114.5C36.9999 116.3 37.8999 118 38.9999 119.4C38.6999 119.8 39.2999 120.5 39.7999 120.4C39.7999 120.4 39.8999 120.4 39.9999 120.3C41.4999 121.7 43.3999 122.6 45.3999 123C51.4999 124.1 57.4999 120.1 58.4999 113.9L58.6999 112.9L59.1999 110.2L60.0999 105.5C60.3999 105.5 60.5999 105.5 60.8999 105.5C61.2999 105.5 61.3999 105.1 60.9999 104.9C60.7999 104.8 60.4999 104.7 60.2999 104.6L60.8999 101.2C60.9999 101.2 61.1999 101.2 61.2999 101.1C61.5999 100.9 61.6999 100.4 61.4999 100.1C61.4999 100 61.2999 99.9 61.0999 99.8L63.7999 85.5C63.9999 85.5 64.0999 85.2 64.1999 85C64.1999 84.8 64.1999 84.5 64.0999 84.3L64.2999 83C64.3999 83 64.4999 83 64.5999 82.8C64.5999 82.6 64.5999 82.4 64.3999 82.2V81.8C64.5999 81.8 64.7999 81.6 64.7999 81.4C64.7999 81.2 64.7999 80.9 64.6999 80.7C64.6999 80.7 64.6999 80.7 64.6999 80.6L65.2999 77.6C65.6999 77.2 65.8999 76.7 65.7999 76.6H65.9999Z" fill="#38A8FA"/>
<path id="Vector_18" fill-rule="evenodd" clip-rule="evenodd" d="M59.3 113.5C58.9 113.7 58.8 114.1 59.1 114.3C59.3 114.5 59.7 114.5 59.9 114.3C60.1 114.2 60.3 113.8 60.2 113.5C60.2 113.2 59.7 113.1 59.4 113.4L59.3 113.5Z" fill="#38A8FA"/>
<path id="Vector_19" fill-rule="evenodd" clip-rule="evenodd" d="M36.3999 118.6C35.7999 119.2 35.9999 119.7 36.7999 119.8C37.1999 119.8 37.4999 119.5 37.4999 119.1C37.4999 118.3 36.9999 118.1 36.3999 118.6Z" fill="#38A8FA"/>
<path id="Vector_20" fill-rule="evenodd" clip-rule="evenodd" d="M37.4 117.5C37.6 117.1 36.7 116.6 36.2 116.8C35.5 117.1 35.7 117.6 36.6 117.7C37 117.7 37.4 117.6 37.4 117.5Z" fill="#38A8FA"/>
<path id="Vector_21" fill-rule="evenodd" clip-rule="evenodd" d="M39.1999 91.6C39.4999 90.4 38.9999 89.8 38.0999 90.3C37.2999 90.7 37.1999 91 37.5999 91.7C38.1999 92.7 38.8999 92.6 39.1999 91.6Z" fill="#38A8FA"/>
<path id="Vector_22" fill-rule="evenodd" clip-rule="evenodd" d="M36.5999 106C36.2999 105.3 35.5999 105.3 35.3999 106C35.3999 106.2 35.6999 106.4 36.0999 106.5C36.7999 106.7 36.8999 106.5 36.5999 106Z" fill="#38A8FA"/>
<path id="Vector_23" fill-rule="evenodd" clip-rule="evenodd" d="M35.9 109.9C36.4 109.8 36.6 109.5 36.5 109.3C36.1 108.6 34.8 108.8 35 109.5C35 109.9 35.5 110 36 109.9H35.9Z" fill="#38A8FA"/>
<path id="Vector_24" fill-rule="evenodd" clip-rule="evenodd" d="M34.5 105.9C34.1 106 33.8 106.3 33.7 106.6C33.7 107.3 34.6999 107.8 35.2999 107.3C35.9999 106.7 35.4 105.7 34.5 105.9Z" fill="#38A8FA"/>
</g>
</g>
</svg>
