<svg width="24" height="24" viewBox="0 0 24 24" fill="none" xmlns="http://www.w3.org/2000/svg">
<g id="link-chain">
<g id="Vector">
<path d="M16.5967 13.0611L18.718 10.9398C20.2801 9.37767 20.2801 6.845 18.718 5.28291C17.1559 3.72081 14.6232 3.72081 13.0611 5.28291L12.354 5.99003L10.5862 4.22227L11.2934 3.51514C13.8318 0.976726 17.9473 0.976726 20.4858 3.51514C23.0242 6.05355 23.0242 10.1692 20.4858 12.7076L18.3644 14.8289C15.826 17.3673 11.7104 17.3673 9.17204 14.8289C8.93157 14.5884 8.71388 14.3338 8.51898 14.0677L10.3218 12.2649C10.4896 12.5491 10.6956 12.8169 10.9398 13.0611C12.5019 14.6232 15.0346 14.6232 16.5967 13.0611Z" fill="#0C0D11"/>
<path d="M5.2829 13.0611L7.40423 10.9398C8.96633 9.37766 11.499 9.37766 13.0611 10.9398C13.3052 11.1839 13.5112 11.4518 13.6791 11.736L15.4819 9.93311C15.287 9.66704 15.0693 9.41244 14.8289 9.172C12.2904 6.63359 8.17487 6.63359 5.63646 9.172L3.51514 11.2933C0.976725 13.8318 0.976725 17.9473 3.51514 20.4857C6.05355 23.0241 10.1691 23.0241 12.7075 20.4857L13.4146 19.7786L11.6469 18.0109L10.9398 18.718C9.37767 20.2801 6.845 20.2801 5.2829 18.718C3.72081 17.1559 3.72081 14.6232 5.2829 13.0611Z" fill="#0C0D11"/>
</g>
</g>
</svg>
