<svg width="107" height="221" viewBox="0 0 107 221" fill="none" xmlns="http://www.w3.org/2000/svg">
<path id="Vector" d="M90.3001 74.2C90.3001 74.2 90.3001 74.2 90.3001 74.3C90.3001 74.5 90.3001 74.7 90.0001 74.6C89.8001 74.6 89.9001 74.4 89.8001 74.2C89.7001 74.9 89.8001 75.6 89.5001 76.2C89.5001 76.2 89.5001 76.4 89.4001 76.4C89.0001 76.6 88.9001 76.9 88.8001 77.4C88.8001 77.7 88.7001 78.2 88.3001 78.3C88.1001 78.3 87.9001 78.3 87.9001 78.6C87.9001 79.2 87.6001 79.8 87.5001 80.5C87.5001 80.5 87.5001 80.6 87.5001 80.7C87.5001 80.8 87.4001 81 87.3001 81.1C87.3001 81.2 87.1001 81.4 86.9001 81.2C86.9001 81.2 86.9001 81.2 86.9001 81.3C87.1001 81.7 86.9001 82.1 86.7001 82.5C86.7001 82.7 86.5001 82.8 86.3001 82.7C86.1001 82.7 86.1001 82.5 86.1001 82.3C86.1001 82.2 86.3001 82 85.9001 82.1C85.8001 82.1 85.7001 81.9 85.7001 81.8C85.7001 81.5 85.7001 81.3 85.3001 81.2C85.0001 81.1 85.2001 80.8 85.3001 80.7C85.3001 80.7 85.6001 80.7 85.6001 80.6C85.6001 80.4 85.4001 80.4 85.3001 80.4C85.1001 80.4 84.9001 80.3 84.7001 80.4C85.1001 80.6 85.0001 80.8 84.7001 81C84.9001 81 85.1001 81 85.2001 81.2C85.2001 81.4 85.2001 81.5 85.0001 81.6C84.7001 81.7 84.9001 82 84.8001 82.2V82.3C84.2001 82.3 84.5001 81.7 84.4001 81.5C84.4001 81.7 84.4001 82 84.1001 82C83.8001 81.9 83.4001 81.5 83.2001 82.2C83.2001 82.4 82.9001 82.2 82.8001 82.1C82.8001 82.4 82.4001 82.7 82.5001 83.1C82.5001 83.1 82.5001 83.2 82.5001 83.3C82.5001 83.9 82.0001 84.1 81.6001 84.2C81.4001 84.7 81.4001 85.2 81.4001 85.7C81.4001 85.8 81.4001 85.9 81.6001 86C82.0001 86 81.9001 86.3 81.8001 86.6C81.8001 86.8 81.6001 86.9 81.4001 86.9C81.8001 86.9 82.0001 86.9 81.9001 87.4C81.9001 87.4 81.9001 87.4 81.8001 87.4C81.0001 87.4 80.9001 87.7 81.3001 88.5C81.4001 88.7 81.4001 88.9 81.3001 89.1C81.3001 89.1 81.1001 89.1 81.0001 89.2C80.9001 89.6 80.7001 90.1 80.7001 90.6C80.7001 91.1 80.6001 91.5 80.5001 92C80.6001 91.9 80.6001 91.8 80.7001 91.7C80.8001 91.6 80.9001 91.5 81.1001 91.6C81.3001 91.6 81.3001 91.8 81.2001 92C81.2001 92.3 81.0001 92.6 80.8001 92.8C80.6001 93 80.5001 93.2 80.5001 93.5C80.8001 93.2 81.2001 93.1 81.5001 92.9C81.7001 93.3 82.1001 93.2 82.3001 93.6C82.4001 93.3 81.7001 92.8 82.5001 92.7C82.5001 92.7 82.6001 92.7 82.7001 92.7C82.9001 92.7 83.1001 92.6 83.3001 92.7C83.2001 92.3 83.1001 91.9 82.6001 92C82.6001 91.9 82.6001 91.7 82.6001 91.6C82.6001 91.5 82.6001 91.1 82.2001 91.3C82.1001 91.3 81.9001 91.3 81.8001 91.1C81.6001 90.8 81.4001 90.7 81.2001 90.5C81.0001 90.5 80.8001 90.2 81.2001 90.1H81.4001C81.7001 90.1 81.4001 89.9 81.4001 89.8C81.4001 89.8 81.4001 89.7 81.4001 89.6C81.4001 89.4 81.5001 89.3 81.7001 89.3C81.9001 89.3 82.1001 89.3 82.3001 89.1C82.6001 88.9 82.7001 89 82.7001 89.4C82.7001 89.9 82.8001 90.2 83.4001 90.2C83.7001 90.2 84.0001 90.3 84.3001 90.5C84.8001 90.5 84.9001 90.8 84.9001 91.3C84.9001 91.9 85.1001 92.3 85.7001 92.5C85.8001 92.5 86.2001 93.6 86.1001 93.7C86.0001 93.8 85.8001 93.8 85.7001 93.7C85.5001 93.7 85.4001 93.5 85.2001 93.5C84.9001 93.5 85.1001 94.1 84.6001 93.8C84.3001 93.6 84.2001 93.3 84.3001 92.9C84.3001 93.1 84.1001 93.2 83.9001 93.3C84.0001 93.5 84.3001 93.6 84.3001 93.8C84.3001 94 84.2001 94.1 84.0001 94.2C83.7001 94.3 83.4001 94.2 83.1001 94.2C82.9001 94.2 82.6001 94.2 82.8001 94.6V94.7C82.5001 94.7 82.2001 94.9 81.9001 94.7C81.7001 94.5 81.8001 94.7 81.8001 94.7C81.8001 94.8 81.8001 95 82.0001 95C82.2001 95 82.3001 95 82.4001 94.9C82.5001 94.8 82.6001 94.8 82.8001 94.9C83.0001 95.1 83.1001 95.3 83.2001 95.5C83.2001 95.5 83.2001 95.6 83.2001 95.7C83.2001 96.1 83.4001 96.5 83.9001 96.7C84.1001 96.7 84.2001 96.9 84.1001 97.1C84.2001 97.1 84.4001 97.3 84.5001 97.3C84.8001 97.3 84.5001 96.9 84.8001 96.9C85.1001 96.9 85.4001 96.9 85.4001 97.4C85.4001 97.5 85.4001 97.7 85.6001 97.7C85.8001 97.7 86.0001 97.5 86.0001 97.5C86.0001 97 86.4001 96.4 86.0001 95.9C86.2001 95.3 86.2001 95.3 86.9001 95.5C87.0001 95.5 87.2001 95.5 87.2001 95.5C87.4001 95.2 87.9001 95.2 88.1001 94.8C88.3001 94.4 88.8001 94.4 89.2001 94.6C89.2001 94.8 89.3001 94.9 89.4001 95.1C89.6001 95.1 89.7001 95.4 89.8001 95.6C89.8001 95.7 89.6001 95.8 89.6001 95.9C89.8001 96.1 90.0001 95.8 90.1001 95.9C89.9001 96.1 89.9001 96.4 89.5001 96.5C89.3001 96.5 89.2001 96.7 89.1001 96.4C89.1001 96.2 88.9001 96.4 88.8001 96.4C88.5001 96.7 88.2001 96.9 87.8001 96.6C87.6001 96.4 87.4001 96.6 87.4001 96.9C87.4001 97.2 87.4001 97.4 87.1001 97.4C87.1001 97.4 87.1001 97.4 87.0001 97.4C86.7001 97.9 87.4001 98.1 87.3001 98.5C87.3001 98.5 87.7001 98.7 87.8001 98.3C88.0001 98.2 88.0001 98.5 88.1001 98.5C88.3001 98.8 88.4001 99 88.3001 99.4C88.3001 99.5 88.3001 99.7 88.4001 99.7C88.6001 100 88.4001 100.1 88.2001 100.1C87.7001 100 87.1001 100.3 86.9001 99.6C86.6001 100.1 86.4001 100.1 85.9001 99.6C85.9001 100.1 86.6001 100.6 87.1001 100.3C87.4001 100.1 87.7001 100 88.1001 100.1C88.3001 100.1 88.4001 99.9 88.6001 100C89.0001 99.8 89.3001 100 89.7001 99.9H89.9001C89.7001 100.5 90.2001 100.4 90.5001 100.4C90.5001 100.4 90.7001 100.4 90.8001 100.4C91.1001 100.4 91.5001 100.4 91.6001 100.7C91.6001 101.1 91.1001 101.7 90.8001 101.7C90.3001 101.7 89.8001 101.8 89.3001 101.7C89.1001 101.7 88.8001 101.7 89.0001 102.1C89.2001 102.4 89.5001 102.6 89.8001 102.8C89.9001 102.8 90.1001 102.9 89.9001 103.2C89.7001 103.5 89.6001 103.3 89.5001 103.2C89.3001 103.2 89.2001 102.9 89.1001 103.1C89.0001 103.2 88.7001 103.1 88.7001 103.3C88.7001 103.4 88.7001 103.5 88.9001 103.5C89.1001 103.5 89.3001 103.7 89.3001 103.4C89.3001 103.4 89.4001 103.2 89.5001 103.4C89.9001 104 90.4001 103.6 91.1001 103.6C90.5001 104.1 90.8001 104.3 91.1001 104.5C90.4001 104.5 90.1001 105.4 89.2001 104.9C89.3001 105.3 89.6001 105.3 89.7001 105.7C89.7001 106.1 89.9001 106.4 89.5001 106.7C89.1001 106.9 89.2001 107.1 89.5001 107.4C89.1001 107.5 89.0001 107 88.7001 107.1C88.4001 107.6 89.2001 107.7 89.0001 108.2C88.4001 107.8 87.8001 107.7 87.2001 107.7C87.2001 107.7 87.0001 107.7 87.0001 107.5C87.0001 107 87.4001 106.8 88.0001 106.8C88.0001 106.8 88.0001 106.8 88.2001 106.8C88.2001 106.8 88.2001 106.8 88.1001 106.8C87.9001 106.8 87.8001 106.7 87.9001 106.5C88.0001 106.2 88.2001 106.2 88.6001 106.2C88.4001 106.1 88.2001 106 88.0001 106C87.4001 106 87.0001 105.5 87.0001 104.9C87.0001 104.7 87.0001 104.6 87.2001 104.6C87.5001 104.6 87.2001 104.4 87.2001 104.3C87.2001 104.2 87.1001 104.1 86.9001 104.3C86.5001 104.6 86.1001 104.3 86.1001 103.9C86.1001 103.9 86.1001 103.8 86.1001 103.7C86.1001 103.1 86.1001 102.5 85.6001 102C85.6001 101.8 85.6001 101.6 85.6001 101.4C85.4001 101.8 85.2001 101.7 84.9001 101.7C84.8001 101.7 84.6001 101.7 84.5001 101.5C84.5001 101.4 84.5001 101.3 84.5001 101.2C84.5001 101.1 84.7001 100.9 84.5001 100.8C84.4001 100.8 84.3001 100.8 84.2001 100.8C84.0001 100.8 84.0001 101 84.1001 101.2V101.4C84.1001 101.4 84.1001 101.4 84.0001 101.5C83.8001 101.6 83.6001 101.3 83.5001 101.5C83.5001 101.6 83.1001 101.5 83.4001 101.8C83.6001 102 83.6001 101.9 83.8001 101.8C83.8001 101.8 83.9001 101.8 84.0001 101.8C84.2001 101.8 84.4001 101.8 84.6001 101.8C84.8001 101.8 85.0001 101.6 85.2001 101.8C85.3001 102 85.0001 102.2 85.0001 102.4C85.0001 102.4 85.0001 102.4 85.0001 102.5C84.8001 102.7 84.6001 102.5 84.5001 102.5C84.3001 102.5 84.1001 102.5 83.9001 102.5C83.6001 102.6 83.9001 102.8 83.9001 103C83.9001 103.3 83.5001 103.3 83.5001 103.6C83.5001 103.6 83.4001 103.8 83.3001 103.8C83.0001 104 82.8001 104.3 82.4001 104.2C82.1001 104.2 81.7001 104.2 81.5001 104.5C81.5001 104.6 81.3001 104.5 81.2001 104.4C81.2001 104.2 81.1001 104.4 81.0001 104.4C80.6001 104.7 80.6001 105.1 80.5001 105.5C79.9001 105.9 79.8001 105.9 79.5001 105.5C79.5001 105.3 79.7001 105.2 79.7001 105C79.7001 104.9 79.6001 104.8 79.5001 104.7C79.4001 104.5 79.3001 104.4 79.2001 104.2C79.2001 104 79.1001 103.8 79.2001 103.6C79.4001 103.3 78.9001 103.6 79.0001 103.3C79.0001 103.1 79.4001 103.1 79.4001 102.9C79.2001 103.1 78.9001 103.3 78.9001 103.7C78.9001 103.7 78.9001 103.9 78.7001 103.9C78.6001 103.9 78.5001 103.9 78.4001 103.7C78.4001 103.5 78.4001 103.4 78.3001 103.1C78.1001 103.3 78.0001 103.4 77.8001 103.1C78.0001 103.4 78.5001 103.6 78.2001 104.1C78.1001 104.3 77.9001 104.1 77.7001 104.1C77.7001 104.3 77.7001 104.5 77.7001 104.6C77.7001 104.7 77.8001 104.9 78.1001 104.8C78.5001 104.6 78.7001 104.8 78.8001 105.3C78.6001 105.6 79.0001 105.6 79.0001 105.7C79.1001 105.9 79.2001 106.1 79.4001 106.3C79.5001 105.6 80.0001 105.9 80.4001 105.8C81.0001 106 80.9001 105.5 81.1001 105.2C81.4001 105 81.7001 105 82.0001 104.8C82.1001 104.6 82.4001 104.7 82.5001 104.9C82.5001 105.1 82.8001 105.4 82.4001 105.5C82.2001 105.7 82.5001 105.7 82.5001 105.8C82.6001 106 82.8001 105.8 83.0001 105.8C82.5001 105.2 83.2001 105 83.4001 104.6C83.7001 104.1 84.3001 104.1 84.8001 104C85.3001 103.9 85.6001 104 85.6001 104.6C85.6001 104.7 85.6001 104.9 85.6001 105C85.7001 105.3 85.6001 105.4 85.3001 105.4C84.9001 105.4 84.6001 105.4 84.7001 105.9C84.7001 106.1 84.7001 106.2 84.4001 106.2C84.2001 106.2 84.1001 106.2 83.9001 106.4C83.7001 106.6 83.5001 106.5 83.3001 106.6C83.5001 106.6 83.7001 106.8 84.0001 106.8C84.2001 106.8 84.3001 106.9 84.4001 107.1C84.4001 107.3 84.4001 107.4 84.2001 107.4C84.3001 107.4 84.5001 107.4 84.6001 107.4C84.8001 107.4 84.9001 107.6 85.1001 107.6C85.3001 107.6 85.6001 107.8 85.3001 108.1C85.1001 108.2 85.1001 108.4 85.1001 108.6C85.1001 108.9 85.1001 109.1 85.5001 109C85.7001 109 86.0001 109 86.2001 108.9C86.7001 108.9 87.1001 108.7 87.6001 108.9C87.6001 109.4 87.8001 109.6 88.3001 109.5C88.5001 109.5 88.8001 109.3 88.9001 109.6C88.9001 110 88.5001 110.1 88.1001 110.2C88.5001 110.6 88.8001 110.2 89.2001 110.2C89.8001 110.1 90.3001 110.4 90.6001 111.1C90.6001 111.2 90.6001 111.5 90.6001 111.4C90.1001 111.3 90.2001 111.7 90.0001 111.9C89.9001 111.9 89.8001 111.9 89.8001 111.9C89.6001 112 89.4001 111.9 89.3001 111.9C89.1001 111.8 89.3001 111.7 89.3001 111.6C89.3001 111.5 89.4001 111.3 89.2001 111.3C89.0001 111.5 88.6001 111.3 88.6001 111.7C88.6001 112.1 89.0001 111.8 89.2001 111.9C89.2001 112.2 89.5001 112.2 89.5001 112.5C89.1001 113.1 89.7001 113 90.0001 113.1C89.6001 113.5 89.2001 113.2 88.8001 113.3C88.7001 113.3 88.5001 113.3 88.5001 113.4C88.5001 113.4 88.5001 113.5 88.5001 113.6C88.6001 113.7 88.7001 113.6 88.9001 113.6C89.0001 113.6 89.1001 113.6 89.2001 113.5C89.0001 113.9 89.0001 113.9 89.8001 114C89.6001 114.2 89.4001 114.2 89.2001 114.1C88.8001 114.1 88.6001 114.4 88.4001 114.6C88.3001 114.7 88.4001 114.8 88.5001 114.9C88.7001 115.1 88.9001 114.9 89.1001 114.8C89.2001 114.8 89.1001 114.4 89.4001 114.6C89.5001 114.7 89.6001 115 89.4001 115.2C89.2001 115.6 88.8001 115.8 88.5001 116.2C88.3001 116.5 88.1001 116.5 87.8001 116.3C87.8001 116.3 87.8001 116.3 87.7001 116.2C87.7001 116 87.7001 115.7 87.3001 115.8C87.1001 115.8 87.0001 115.7 86.9001 115.5C86.9001 115.3 86.8001 115 87.0001 114.9C87.2001 114.9 87.4001 115 87.6001 114.9C87.7001 114.8 88.0001 114.7 88.0001 114.5C88.0001 114.3 87.7001 114.2 87.4001 114.3H87.2001C87.1001 114.3 86.9001 114.3 86.8001 114.1C86.8001 114 86.8001 113.9 87.0001 113.9C87.2001 113.6 86.9001 113.8 86.8001 113.7C86.6001 113.7 86.5001 113.7 86.3001 113.6C85.9001 113.4 85.8001 112.9 86.1001 112.5C86.2001 112.4 86.5001 112.4 86.2001 112.1C86.0001 112 86.4001 111.9 86.4001 111.7C86.1001 111.7 86.2001 112.2 85.9001 112.2C85.7001 112.2 85.4001 112.2 85.2001 112.4C84.9001 112.6 84.9001 113.1 84.2001 113.1C84.7001 113.2 84.9001 112.6 85.2001 113.1C85.2001 113.1 85.2001 113.2 85.4001 113.2C85.5001 113.2 85.6001 113.2 85.6001 113.3C85.8001 113.7 86.2001 113.9 86.5001 114.1C86.7001 114.4 86.8001 114.6 86.5001 114.9C86.3001 115.1 86.3001 115.4 86.4001 115.6C86.4001 115.8 86.4001 116.1 86.1001 116.3C86.1001 116.3 86.0001 116.5 85.9001 116.5C85.6001 116.6 85.6001 116.4 85.6001 116.2C85.4001 115.6 85.1001 116.1 84.9001 116.2C84.6001 116.6 84.3001 116.5 84.0001 116.2C83.7001 116 83.4001 115.9 83.1001 116.2C82.9001 116.4 82.9001 116.6 83.1001 116.7C83.3001 116.7 83.7001 116.7 83.8001 117C83.8001 117.4 83.8001 117.7 83.5001 118C83.3001 118.2 83.3001 118.4 83.4001 118.7C83.5001 119 83.4001 119.2 83.1001 119.3C83.5001 119.6 83.8001 119.8 84.3001 119.8C85.1001 119.8 85.7001 120.1 86.2001 120.6C86.4001 120.8 86.4001 121.2 86.8001 121.4C87.2001 121.6 87.5001 121.8 88.0001 121.4C88.2001 121.2 88.4001 121.4 88.4001 121.6C88.4001 122 88.8001 121.8 89.0001 121.8C89.2001 121.8 89.3001 121.7 89.5001 121.8C89.8001 122.3 90.4001 122.4 90.9001 122.6C91.2001 122.6 91.5001 122.8 91.6001 123.2C91.7001 123.7 92.1001 123.7 92.6001 123.7C92.3001 123.9 92.1001 123.9 91.9001 123.8C91.4001 123.6 91.1001 123.7 90.8001 124.2C90.7001 124.3 90.4001 124.4 90.2001 124.3C89.6001 124.2 89.8001 124.8 89.5001 125V125.1C90.2001 124.9 90.1001 125.7 90.5001 125.9C90.7001 125.9 90.5001 126.6 90.5001 126.8C90.3001 127.1 90.1001 126.8 89.9001 126.6C89.9001 126.6 89.9001 126.4 89.7001 126.5C89.4001 126.7 89.0001 126.9 88.7001 127C88.5001 127.1 88.2001 127 88.1001 127.3C88.1001 127.5 87.6001 127.5 87.5001 127.1C87.5001 127.1 87.5001 127 87.5001 126.9C87.6001 127.4 87.3001 127.5 87.0001 127.6C87.0001 127.5 86.8001 127.3 86.6001 127.4C86.5001 127.4 86.3001 127.6 86.4001 127.8C86.4001 127.8 86.4001 127.9 86.4001 128C86.4001 128 86.3001 128 86.2001 128C86.0001 127.8 85.9001 127.6 85.7001 127.4C85.4001 127 84.9001 126.9 84.7001 126.5C84.7001 126.4 84.5001 126.4 84.3001 126.5C84.1001 126.5 83.9001 126.5 83.8001 126.3C83.9001 126.6 84.2001 126.6 84.4001 126.6C84.6001 126.6 84.7001 126.6 84.7001 126.9C84.7001 127.1 84.5001 127.1 84.4001 127.1C84.4001 127.1 84.1001 127.1 84.2001 127.2C84.4001 127.7 84.6001 128.2 84.9001 128.7C85.1001 129 85.3001 128.7 85.6001 128.7C85.8001 128.7 85.9001 128.7 86.1001 128.7C86.2001 128.7 86.3001 128.7 86.3001 128.6C86.3001 128.4 86.4001 128.4 86.5001 128.6C86.7001 129.1 87.2001 129.1 87.6001 129.3C87.6001 129.5 86.5001 129.7 87.6001 129.8C87.7001 129.8 87.6001 129.9 87.6001 130C87.4001 130 87.5001 130.4 87.4001 130.3C87.3001 130.1 87.0001 130.3 87.0001 130.1C87.0001 129.5 86.6001 129.3 86.1001 129.2C86.0001 129.4 86.0001 129.7 85.6001 129.5C85.3001 129.4 85.3001 129.6 85.3001 129.9C85.5001 130.4 85.8001 130.6 86.3001 130.6C86.3001 130.8 86.6001 130.9 86.3001 131C85.8001 131 85.8001 131.3 86.0001 131.6C86.9001 133.3 87.5001 135.1 88.3001 136.9C88.6001 137.5 88.9001 138.1 89.2001 138.8C89.5001 139.6 89.4001 139.6 88.5001 139.8C88.4001 139.8 88.3001 139.7 88.3001 139.5C88.3001 139.2 88.3001 139.1 88.7001 139.1C88.2001 138.5 88.2001 137.7 87.6001 137.1C87.8001 137.7 88.4001 138.1 88.1001 138.8C88.1001 138.8 88.0001 138.8 87.9001 138.8C87.4001 138.4 87.1001 137.9 86.6001 137.5C86.4001 137.5 86.4001 136.8 86.0001 137.3C86.0001 137.3 85.8001 137.3 85.8001 137.2C86.2001 136.5 85.5001 136.1 85.3001 135.7C85.1001 135.9 85.4001 136 85.3001 136.3C85.1001 136 84.6001 136.3 84.4001 135.9C86.1001 139.4 87.8001 142.9 89.6001 146.3C89.6001 146.3 89.6001 146.5 89.6001 146.6C89.4001 146.6 89.3001 146.5 89.2001 146.4C88.6001 146 88.5001 145.3 88.1001 144.8C87.3001 143.5 86.5001 142.1 85.9001 140.8C85.4001 139.9 84.9001 139 84.4001 138.1C84.3001 138 84.2001 137.8 84.1001 137.7C83.5001 136.8 83.2001 135.8 82.7001 134.8C82.6001 134.6 82.5001 134.3 82.1001 134.3C82.4001 134.7 82.3001 135.3 82.9001 135.6C83.1001 135.7 83.0001 136 82.9001 136.2C82.7001 136.4 82.5001 136.2 82.3001 136C82.6001 136.4 82.6001 137 83.2001 137.2C83.4001 137.2 83.2001 137.5 83.2001 137.6C82.9001 138.1 82.9001 138.6 83.2001 139C83.2001 139 83.2001 139.1 83.2001 139.2C83.0001 139.2 82.9001 139.2 82.8001 139.2C82.6001 139 82.4001 138.6 82.1001 138.5C82.3001 138.7 82.3001 138.9 82.1001 138.9C81.5001 139 81.9001 139.2 82.1001 139.4C82.6001 139.4 83.1001 139.7 83.6001 139.4C83.8001 139.4 83.8001 139.6 83.9001 139.7C84.1001 140 83.8001 140.5 84.3001 140.6C84.3001 140.6 84.3001 140.8 84.5001 140.6C84.9001 140.1 84.9001 140.5 85.0001 140.8C85.0001 140.9 85.0001 141 85.0001 141.1C85.0001 141.5 84.8001 141.6 84.4001 141.6C83.7001 141.6 83.7001 140.9 83.3001 140.4C83.1001 141 83.3001 141.6 83.8001 141.8C84.0001 141.9 84.1001 142.1 83.9001 142.3C83.7001 142.6 83.8001 142.8 83.9001 143C84.3001 143.4 84.5001 143.9 84.6001 144.4C84.7001 144.8 85.0001 145.1 85.1001 145.5C85.1001 145.7 85.2001 145.9 85.0001 146C84.7001 146 84.6001 145.7 84.5001 145.4C84.0001 144.5 83.4001 143.6 82.9001 142.7C82.9001 142.7 82.9001 142.6 82.8001 142.7C83.3001 143.3 83.5001 144.1 83.9001 144.7C83.9001 144.7 83.9001 144.9 83.9001 145C83.6001 145.3 83.5001 145 83.4001 144.8C83.0001 144.1 82.5001 143.5 82.1001 142.9C81.9001 142.7 82.0001 142.2 81.5001 142.3H81.3001C81.0001 142.3 81.0001 141.8 80.7001 141.6C80.7001 141.6 80.7001 141.5 80.7001 141.4C80.7001 141.4 80.7001 141.5 80.8001 141.6C80.9001 141.8 81.0001 142 80.8001 142C80.5001 142 80.6001 142.2 80.6001 142.4C80.8001 143.3 81.1001 144.2 81.3001 145.1C81.4001 145.7 81.9001 146.1 81.9001 146.7C81.9001 146.8 82.0001 146.9 82.2001 146.9C82.6001 146.9 82.7001 147.2 82.7001 147.5C82.7001 147.8 82.7001 148 82.7001 148.3C82.7001 149.1 83.2001 149.6 84.0001 149.7C84.1001 149.7 84.3001 149.7 84.3001 149.7C84.7001 149.2 85.1001 149.5 85.5001 149.7C85.7001 149.7 85.8001 149.8 85.8001 149.6C85.9001 149.2 86.1001 149.3 86.3001 149.6C86.5001 149.9 86.7001 150.3 86.8001 150.6C86.8001 150.7 86.6001 150.9 86.9001 150.9C87.3001 151.5 87.7001 152.1 88.0001 152.8C88.0001 153 88.1001 153.1 88.3001 153.2C88.3001 153.1 88.1001 153 88.1001 152.9C88.0001 152.1 87.4001 151.5 87.1001 150.8C86.9001 150.4 86.5001 150 86.6001 149.5C86.6001 149.5 86.6001 149.4 86.8001 149.3C87.4001 149.9 87.8001 150.6 88.3001 151.3C88.5001 151.6 88.6001 151.9 88.9001 152.1C89.2001 152.2 88.9001 152.5 88.9001 152.6C88.7001 153 89.2001 153.1 89.3001 153.3C89.6001 153.7 89.9001 154.1 90.1001 154.6C90.3001 155 90.6001 155.4 91.0001 155.5C91.3001 155.5 91.3001 155.8 91.1001 156C90.8001 156.4 90.9001 156.8 91.4001 156.9C91.8001 157 92.1001 157.1 92.0001 157.7C92.0001 157.8 92.0001 157.9 92.2001 157.9C92.4001 157.9 92.6001 158 92.8001 158C93.4001 158 93.4001 158 93.1001 158.6C93.2001 158.6 93.4001 158.6 93.5001 158.6C93.6001 158.6 93.5001 158.8 93.6001 158.9C93.8001 159.1 93.6001 159.4 93.8001 159.6L93.7001 159.8C93.3001 159.6 93.4001 160.1 93.2001 160.2C93.4001 160.4 93.6001 160.1 93.8001 160.2C93.6001 160.4 93.4001 160.5 93.8001 160.6C94.0001 160.6 93.8001 160.7 93.8001 160.8C93.6001 161.3 94.0001 161.4 94.3001 161.5C94.3001 161.5 94.3001 161.5 94.4001 161.6C94.4001 161.7 94.4001 161.8 94.2001 161.8C94.7001 162.3 94.7001 163.1 95.2001 163.5C95.5001 164.1 95.9001 164.7 96.1001 165.4C96.1001 165.5 96.1001 165.6 96.1001 165.7C95.6001 165.5 95.5001 165.1 95.3001 164.7C95.1001 164.4 94.8001 164.1 94.6001 163.7C94.4001 164 94.2001 164 94.0001 163.7C93.9001 163.5 93.8001 163.2 93.6001 163C93.4001 162.8 93.3001 162.7 93.1001 163C92.9001 163.2 92.8001 163.3 93.1001 163.5C93.4001 163.8 93.5001 164.3 94.0001 164.4C94.2001 164.4 94.2001 164.6 94.0001 164.8C93.6001 165.1 93.1001 165.2 92.6001 164.9C92.4001 164.8 92.2001 164.8 91.9001 164.8C91.5001 164.8 91.2001 164.8 91.0001 164.3C90.8001 163.9 90.6001 163.6 90.4001 163.3C90.7001 163.8 91.0001 164.1 91.1001 164.6C90.9001 164.9 90.9001 164.9 90.6001 164.4C90.2001 163.8 89.9001 163.3 89.3001 162.8C89.3001 163.6 89.8001 164 90.1001 164.6C90.6001 165.1 91.1001 165.7 91.7001 166.2C91.7001 166.2 91.7001 166.2 91.8001 166.3C91.9001 166.4 92.1001 166.5 92.1001 166.7C92.3001 167.3 92.6001 167.8 93.0001 168.2C93.0001 168.2 93.2001 168.3 93.2001 168.4C93.2001 168.4 93.2001 168.4 93.2001 168.5C93.2001 168.7 93.3001 168.8 93.4001 168.9C93.4001 168.9 93.4001 169 93.4001 169.1C93.0001 169.3 93.4001 169.5 93.4001 169.7C93.5001 169.8 93.5001 170 93.7001 170.2C94.2001 170.6 94.2001 170.7 93.6001 171C94.1001 171 94.4001 171.3 94.6001 171.7C94.7001 171.8 94.9001 171.9 94.9001 172.2C94.6001 172.6 94.1001 172.5 93.7001 172.5C93.5001 172.5 93.4001 172.3 93.5001 172.1C93.8001 171.3 93.1001 171.7 92.9001 171.4C92.8001 171.7 92.9001 171.8 93.0001 171.9C93.0001 171.9 93.2001 172.1 93.2001 172.2C92.9001 172.6 93.4001 172.6 93.5001 172.8C93.6001 173 93.7001 173.1 93.8001 173.3C93.8001 173.6 94.0001 173.9 93.7001 174.1C93.3001 174.1 93.2001 173.7 93.0001 173.5C93.0001 173.4 92.8001 173.4 92.7001 173.5C91.9001 173.7 91.3001 173.5 91.1001 172.6C91.1001 172.3 90.6001 172.4 90.4001 172.2C90.4001 172.2 90.2001 172.1 90.1001 172.1C89.2001 171.9 89.2001 171.8 89.7001 171.1C89.7001 170.7 89.3001 170.8 89.2001 170.7C89.1001 170.7 89.0001 170.5 88.9001 170.3C88.8001 170.2 88.7001 169.9 88.5001 170C88.3001 170 88.3001 170.3 88.2001 170.5C88.2001 170.5 88.2001 170.5 88.2001 170.6C88.2001 170.6 88.0001 170.6 87.9001 170.6C87.5001 170.9 87.3001 170.8 87.2001 170.4C87.2001 170.2 87.2001 170 87.2001 169.9C87.2001 169.8 87.1001 169.6 87.0001 169.6H86.8001C86.8001 169.7 86.8001 169.9 86.8001 170C87.1001 170.3 87.3001 170.6 87.4001 171.1C87.4001 171.4 87.6001 171.6 87.9001 171.7C88.2001 171.9 88.3001 172.1 88.2001 172.5C88.2001 172.8 88.2001 173 88.3001 173.2C88.3001 173.2 88.3001 173.3 88.5001 173.4C88.8001 173.9 89.2001 174.3 89.3001 174.9C89.4001 175.3 89.7001 175.7 90.2001 175.6C90.5001 175.6 90.7001 175.6 90.7001 176C90.7001 176.3 90.4001 176.3 90.2001 176.3C89.9001 176.3 89.7001 176.4 89.6001 176.8C89.4001 177.2 89.2001 177.6 89.0001 178C88.7001 178.6 87.5001 178.5 87.1001 178C87.1001 178 87.1001 177.9 86.9001 177.9C86.9001 178 86.9001 178.1 87.0001 178.1C87.0001 178.1 87.0001 178.2 87.0001 178.3C87.0001 178.6 86.7001 178.6 86.6001 178.8C86.6001 179 86.8001 179.1 86.8001 179.3C86.8001 179.6 86.8001 179.9 86.3001 179.6C86.7001 180.3 87.0001 181 87.2001 181.7C87.3001 182.2 87.2001 182.2 86.8001 182.3C86.8001 182.3 86.8001 182.4 86.9001 182.4C87.3001 182.4 87.6001 182.6 87.2001 183.1V183.3C87.2001 183.7 86.9001 183.7 86.7001 183.8C86.7001 184 86.7001 184.1 86.7001 184.3C86.7001 184.5 86.5001 184.7 86.7001 185C86.9001 185.2 86.7001 185.5 86.4001 185.7C86.0001 185.7 85.9001 185.2 85.7001 184.9C85.4001 185.5 86.3001 185.7 86.0001 186.2C86.5001 186.4 86.7001 187 87.1001 187.2C87.1001 187.1 86.8001 187 86.7001 186.8C86.4001 186.5 86.4001 186.3 86.7001 186C87.0001 185.9 87.1001 186 87.2001 186.3C87.4001 186.2 87.5001 185.9 87.8001 186.2C88.0001 186.4 88.1001 186.6 88.0001 186.9C87.9001 187.2 88.0001 187.4 88.4001 187.4C88.7001 187.4 89.0001 187.7 89.2001 187.4C89.3001 187.1 88.9001 187 88.7001 186.9C88.5001 186.8 88.3001 186.7 88.4001 186.5C88.4001 185.8 88.0001 185.5 87.6001 185.1C87.6001 185.1 87.5001 185 87.5001 184.9C87.5001 184.7 87.4001 184.5 87.3001 184.4C87.3001 184.2 87.0001 183.9 87.3001 183.7C87.3001 183.3 87.5001 183 88.1001 183C87.4001 182.7 87.5001 182.1 87.3001 181.7C87.1001 181.3 87.0001 181 87.3001 180.6C87.3001 180.6 87.5001 180.5 87.6001 180.6C87.8001 180.8 87.9001 181 87.9001 181.3C87.9001 181.5 88.0001 181.7 88.2001 181.8C88.3001 181.5 88.2001 181.2 88.2001 180.9C88.2001 180.5 88.2001 180.2 88.6001 180C88.3001 179.7 88.0001 179.8 87.7001 179.6C87.5001 179.5 87.3001 179.4 87.4001 179.1C87.4001 178.9 87.7001 178.9 87.8001 178.9C88.5001 178.7 89.1001 179.1 89.7001 179.4C89.9001 179.4 89.9001 179.6 89.9001 179.8C89.9001 180 89.7001 180.1 89.4001 180.1C89.9001 180.1 90.2001 180.3 90.5001 180.5C90.5001 180.5 90.5001 180.5 90.5001 180.6C91.3001 181 91.3001 181.9 91.7001 182.6C91.7001 182.7 91.8001 182.8 92.0001 182.9C92.3001 182.9 92.6001 183.1 92.8001 183.3C93.1001 183.4 93.2001 183.6 92.8001 183.8H92.6001C92.5001 184.6 91.6001 184.3 91.2001 184.7C91.5001 185.3 91.8001 185.8 92.5001 186C93.1001 186.1 93.4001 186.6 93.7001 187C93.7001 187.4 93.3001 187.3 93.0001 187.3C92.9001 187.3 92.8001 187.5 92.6001 187.5C92.2001 187.5 92.4001 187.7 92.6001 187.8C92.6001 187.8 92.6001 187.9 92.6001 188C92.6001 188.2 92.4001 188.3 92.2001 188.3C92.2001 188.3 92.1001 188.3 92.0001 188.3C92.0001 188.3 92.0001 188.2 91.8001 188.3C91.8001 188.3 91.8001 188.4 91.8001 188.5C91.8001 188.6 91.8001 188.6 91.8001 188.7C91.8001 188.9 92.0001 189.2 91.6001 189.3C91.2001 189.3 91.3001 189 91.2001 188.8C91.0001 188.8 90.8001 188.4 90.7001 188.8C90.6001 188.9 90.5001 189.1 90.3001 189C90.0001 188.8 90.0001 188.9 90.1001 189.2C90.1001 189.2 90.3001 189.3 90.1001 189.5C90.0001 189.5 89.8001 189.1 89.6001 189.5C89.6001 189.7 89.4001 189.5 89.3001 189.5C89.6001 189.1 89.0001 189.1 89.0001 188.8C89.0001 188.7 88.8001 188.5 88.6001 188.5C88.4001 189 88.9001 189.3 89.1001 189.6C89.0001 189.6 88.9001 189.6 88.7001 189.7C88.7001 189.7 88.4001 189.7 88.5001 190C88.6001 190.2 88.8001 190 88.8001 190C89.0001 189.9 89.2001 189.6 89.4001 190C89.2001 190.3 89.0001 190.7 89.3001 191C89.6001 191.4 89.3001 191.4 89.1001 191.5C89.0001 191.5 88.8001 191.5 88.7001 191.5C88.6001 191.5 88.4001 191.5 88.4001 191.3C88.4001 191 88.7001 191.4 88.8001 191.3C88.8001 191 88.4001 190.9 88.3001 190.7C88.2001 190.8 88.0001 190.7 88.0001 190.7C88.0001 190.2 87.6001 189.9 87.5001 189.5C87.5001 189.4 87.4001 189.3 87.5001 189.2C87.6001 188.9 87.6001 188.9 87.3001 188.8C87.3001 189 87.5001 189.2 87.3001 189.3C87.2001 189.3 87.3001 189.5 87.3001 189.5C87.9001 189.7 87.8001 190.2 87.9001 190.6C88.0001 190.9 88.1001 191 88.4001 190.9C88.3001 191 88.5001 191.3 88.1001 191.3C87.9001 191.3 88.2001 191.5 88.1001 191.7H87.9001C87.9001 191.7 87.9001 191.5 87.6001 191.5C87.9001 191.9 87.9001 192.3 87.8001 192.7C88.0001 192.8 88.2001 192.9 88.2001 193.2C88.2001 193.2 88.2001 193.2 88.2001 193.3C88.3001 193.6 88.2001 193.5 88.0001 193.5C88.2001 193.7 88.3001 193.9 88.4001 194.3C88.4001 194.7 89.0001 194.9 88.9001 195.4C88.9001 195.5 88.9001 195.6 88.8001 195.6C88.4001 195.3 88.2001 194.9 87.9001 194.5C88.4001 195.2 88.9001 196 89.3001 196.8C89.3001 197.1 89.3001 197.4 89.7001 197.5C89.7001 197.5 89.9001 197.6 89.9001 197.7C90.0001 198.8 90.9001 199.3 91.4001 200.1C91.6001 200.4 91.8001 200.7 92.0001 201C92.2001 201.3 92.2001 201.3 92.0001 201.6C91.8001 201.8 92.0001 201.9 92.1001 202C92.6001 202.6 93.0001 203.3 93.5001 203.9C93.7001 204.2 93.7001 204.6 93.9001 204.8C93.7001 205.1 93.6001 205.1 93.3001 204.8C93.1001 204.8 93.1001 204.5 92.9001 204.4C92.0001 204.1 91.6001 203.6 91.0001 202.7C90.5001 201.9 89.9001 201.1 89.1001 200.5C89.3001 200.8 89.5001 201.1 89.7001 201.4C89.7001 201.4 89.8001 201.6 89.7001 201.7C89.5001 201.7 89.6001 201.7 89.5001 201.5C89.1001 201.1 88.8001 200.7 88.5001 200.3C88.1001 199.9 87.8001 199.4 87.5001 198.9C87.3001 198.9 87.2001 198.7 87.1001 198.6C86.8001 198.3 86.7001 197.8 86.1001 197.7C85.8001 197.7 85.6001 197.2 85.4001 197C85.4001 197.7 85.9001 198 86.3001 198.5C86.5001 198.7 86.6001 198.9 86.6001 199.1C86.3001 199.8 87.1001 200.1 87.2001 200.7C86.7001 200.4 86.6001 199.9 86.2001 199.7C86.3001 200.3 86.8001 200.7 87.0001 201.1C87.2001 201.1 87.2001 201.3 87.3001 201.4C87.6001 202.1 88.2001 202.7 88.6001 203.4C88.8001 203.7 89.0001 203.9 89.2001 204.1C89.2001 204.2 89.2001 204.3 89.1001 204.3C88.1001 203 87.0001 201.8 86.1001 200.4C85.9001 200.6 86.1001 200.7 86.1001 200.9C86.5001 201.7 87.0001 202.5 87.5001 203.2C87.6001 203.4 87.7001 203.6 87.8001 203.8C87.8001 204.3 88.3001 204.7 88.5001 205.2C88.5001 205.3 88.5001 205.4 88.4001 205.4C88.3001 205.4 88.2001 205.4 88.0001 205.4C87.9001 205.4 87.8001 205.3 87.8001 205.1C87.3001 204.4 86.8001 203.7 86.3001 203C85.3001 201.7 84.4001 200.3 83.6001 199C83.1001 198.3 82.7001 197.6 82.4001 197.3C82.8001 197.9 83.4001 198.9 84.0001 199.8C84.1001 200 84.3001 200.2 84.3001 200.5C84.3001 200.7 84.3001 200.8 84.1001 200.6C83.8001 199.9 83.3001 199.3 82.8001 198.7C82.3001 198.2 82.0001 197.6 81.5001 197.1C81.5001 197.1 81.5001 197.1 81.4001 197C81.2001 196.9 81.1001 196.6 80.9001 196.6C80.5001 196.3 80.3001 195.9 80.1001 195.5C79.6001 194.8 79.2001 194 78.6001 193.3C78.4001 193.2 78.3001 193 78.2001 192.8C78.4001 193.1 78.5001 193.3 78.5001 193.6C79.7001 196 81.3001 198.2 82.7001 200.6C82.6001 200.8 82.4001 200.5 82.3001 200.6C82.3001 200.8 82.3001 200.8 82.2001 200.9C82.1001 200.9 82.1001 200.9 82.3001 201.3C82.3001 201.7 82.6001 202 82.8001 202.4C82.8001 202.5 82.8001 202.6 82.9001 202.8C83.4001 203.3 83.7001 203.9 83.9001 204.6C83.7001 204.7 83.6001 204.6 83.3001 204.6C83.7001 205 84.0001 205.4 84.3001 205.9C84.3001 205.9 84.8001 206.1 84.3001 206.2C84.1001 206.2 84.4001 206.6 84.5001 206.7C85.0001 207.3 85.3001 208 85.8001 208.6C86.0001 208.9 86.3001 209.3 86.6001 209.5C86.8001 209.8 86.8001 209.9 86.6001 210.1C86.2001 209.7 86.0001 208.9 85.3001 208.8C86.4001 210.3 87.3001 211.9 88.5001 213.4C88.3001 213.6 88.2001 213.9 88.5001 214.1C88.8001 214.4 88.9001 214.8 89.1001 215C89.6001 215.6 90.0001 216.4 90.7001 216.9C90.5001 217.1 90.4001 216.9 90.3001 216.9C90.1001 216.8 89.9001 216.5 89.6001 216.5C89.5001 216.5 89.3001 216.4 89.2001 216.2C89.0001 215.7 88.5001 215.4 88.1001 215C87.7001 214.5 87.2001 214 86.8001 213.5C87.1001 214 87.7001 214.3 87.6001 214.9C88.4001 216.1 89.5001 217 90.3001 218.1C90.7001 218.8 91.3001 219.4 91.8001 220.1C91.9001 220.2 92.1001 220.4 92.1001 220.6C92.1001 220.8 92.1001 220.8 91.9001 220.8C91.2001 219.9 90.4001 219.1 89.4001 218.5C89.3001 218.3 89.2001 218 88.9001 218.2C88.7001 218.2 88.6001 218.2 88.5001 218C88.0001 217.5 87.4001 217 87.0001 216.4C86.8001 216.3 86.6001 216.1 86.5001 215.9C86.5001 215.9 86.3001 215.8 86.2001 215.7C85.8001 215.2 85.1001 215.2 84.7001 214.7C84.7001 214.7 84.4001 214.7 84.3001 214.7C83.6001 214 82.9001 213.3 82.3001 212.5C82.1001 211.9 81.6001 211.6 81.1001 211.1C80.8001 210.8 80.6001 210.6 80.3001 210.3C79.7001 209.7 79.0001 209.1 78.6001 208.3C78.6001 208.3 78.6001 208.4 78.6001 208.5C78.6001 208.5 78.6001 208.6 78.4001 208.7C77.6001 207.8 77.1001 206.7 76.2001 205.9C76.0001 205.7 76.2001 205.2 75.7001 205.4C75.2001 205.3 75.3001 204.8 75.0001 204.6C75.0001 204.7 75.0001 204.8 75.1001 204.9C75.1001 205 75.3001 205.1 75.1001 205.3C75.0001 205.4 74.8001 205.5 74.7001 205.4H74.6001C74.2001 204.9 73.9001 204.3 73.3001 204.1C73.3001 203.8 73.3001 203.5 73.0001 203.6C72.7001 203.6 72.6001 203.4 72.7001 203.2C72.7001 203.1 72.7001 202.9 72.7001 202.8C72.7001 202.6 72.5001 202.6 72.4001 202.4C72.4001 202.6 72.4001 202.7 72.5001 202.8C72.5001 202.8 72.5001 202.9 72.5001 203C72.5001 203.1 72.5001 203.2 72.3001 203.2C71.8001 203 71.7001 202.5 71.5001 202.2C71.5001 202.2 71.3001 202 71.3001 202.1C71.2001 202.3 71.4001 202.4 71.5001 202.5C71.7001 202.7 71.8001 202.9 71.8001 203.1C71.5001 203.8 71.4001 203.8 71.0001 203.4C71.0001 203.4 71.0001 203.4 70.9001 203.3C70.6001 203.1 70.5001 202.7 70.1001 202.6C70.1001 202.8 70.2001 202.9 70.3001 203.1C70.3001 203.3 70.5001 203.5 70.3001 203.6C70.1001 203.6 70.0001 203.5 69.9001 203.3C69.8001 203 69.6001 202.8 69.5001 202.6C69.4001 202.6 69.4001 202.3 69.2001 202.3C69.0001 202.8 69.1001 203.2 69.3001 203.7C69.4001 204 69.3001 204.4 69.3001 204.7C69.5001 205 69.9001 205.1 69.9001 205.5C69.9001 205.8 69.9001 206 70.1001 206.2C70.3001 206.8 70.7001 207.3 71.0001 207.8C71.0001 208 71.2001 208.2 71.2001 208.4C70.7001 208.8 70.7001 208.2 70.5001 208.1C70.6001 208.3 70.7001 208.5 70.5001 208.7C70.3001 208.9 70.1001 208.7 69.9001 208.7C69.8001 208.7 69.7001 208.5 69.7001 208.3C69.2001 207.9 69.0001 207.3 68.9001 206.7C68.9001 206.4 68.5001 206.1 68.2001 206.1C67.7001 206 67.7001 205.7 67.7001 205.3C67.7001 206.2 68.1001 207 68.6001 207.7C68.6001 207.7 68.6001 207.8 68.6001 207.9C68.2001 208.1 68.2001 208.1 67.8001 207.6C67.8001 207.6 67.8001 207.6 67.8001 207.5C67.6001 207.3 67.6001 207 67.4001 206.8C67.3001 206.7 67.2001 206.5 67.1001 206.4C66.8001 206.1 66.6001 205.8 66.4001 205.5C66.4001 205.5 66.2001 205.3 66.1001 205.2C65.9001 205.5 65.9001 205.8 66.0001 206.1V206.2C65.7001 206.4 65.7001 206.6 65.9001 206.8C66.1001 207 66.2001 207.2 66.2001 207.5C66.2001 207.5 66.2001 207.6 66.1001 207.7C65.8001 207.8 65.7001 208.2 65.3001 208.2C65.3001 208.2 65.2001 208.2 65.1001 208C64.9001 207.4 64.5001 207 64.1001 206.5C64.1001 206.4 63.9001 206.2 63.9001 206.2C64.3001 206.5 64.5001 207.2 64.7001 207.8C64.7001 208.1 65.0001 208.2 65.1001 208.4C65.1001 208.5 65.1001 208.6 65.1001 208.7C64.9001 208.8 64.8001 208.7 64.7001 208.6C64.4001 208.4 64.1001 208.1 63.7001 207.9C63.7001 207.9 63.7001 207.9 63.6001 207.9C63.4001 207.6 63.2001 207.4 63.3001 207C63.3001 207.2 63.3001 207.5 63.5001 208C63.5001 208.3 63.3001 208.4 63.0001 208.4C62.8001 208.4 62.7001 208.3 62.7001 208.1C62.7001 208.1 62.7001 207.9 62.5001 207.9L62.6001 208.1C62.6001 208.1 62.6001 208.2 62.6001 208.3C62.5001 208.6 62.3001 208.6 62.0001 208.4C61.9001 208.2 61.8001 208.1 61.7001 207.9C61.6001 207.6 61.4001 207.5 61.0001 207.4C61.0001 207.5 61.1001 207.6 61.2001 207.7C61.2001 207.8 61.3001 207.9 61.3001 208C61.0001 208.5 60.9001 208.1 60.7001 208C60.7001 207.9 60.6001 207.7 60.5001 207.6C60.5001 207.4 60.2001 207.3 60.0001 207.3C60.0001 207.5 60.0001 207.7 60.2001 207.9C60.2001 208 60.5001 208.2 60.2001 208.3C60.1001 208.4 59.9001 208.3 59.8001 208.3C59.3001 207.9 58.7001 207.8 58.3001 207.3C58.0001 207 57.7001 206.9 57.3001 206.8C57.5001 207.1 57.5001 207.4 57.7001 207.7C57.8001 208 57.7001 208 57.4001 208C57.1001 208 57.0001 207.8 56.9001 207.6C56.8001 207.4 56.7001 207.1 56.6001 207C56.6001 207.2 56.9001 207.4 56.6001 207.6C56.2001 207.4 55.8001 207.2 55.7001 206.8C55.7001 206.8 55.7001 206.8 55.8001 206.7C55.8001 206.7 55.8001 206.7 55.8001 206.8C55.5001 206.8 55.4001 206.7 55.2001 206.6C55.0001 206.5 54.9001 206.6 54.9001 206.8C54.7001 206.9 54.5001 206.9 54.5001 206.7C54.5001 206.3 54.2001 206.4 53.9001 206.3C54.1001 206.5 54.3001 206.6 54.2001 206.8C54.1001 207 53.9001 207 53.8001 206.9C53.3001 206.8 53.4001 207.1 53.5001 207.3C53.7001 207.9 53.5001 208.2 53.0001 208.5C53.0001 208.5 52.9001 208.5 52.8001 208.5C52.8001 208.5 52.6001 208.4 52.6001 208.5C52.7001 208.9 53.0001 209.1 53.1001 209.5C53.1001 209.5 53.1001 209.6 53.1001 209.7C53.1001 209.8 53.1001 210 53.1001 210.1C53.1001 210.3 53.2001 210.5 53.4001 210.6C53.7001 210.9 53.8001 211.2 53.7001 211.5C53.7001 211.9 53.3001 212 53.0001 212.2C53.4001 212.2 53.5001 212 53.7001 212.1C53.7001 212.1 53.7001 212.1 53.8001 212.1C53.8001 212.4 53.4001 212.6 53.4001 212.9C53.4001 213.1 53.6001 213.2 53.4001 213.4H53.2001C53.0001 213.3 52.8001 213.1 52.7001 212.9C52.5001 212.5 52.5001 211.9 51.9001 211.9H51.8001C51.6001 211.7 51.5001 211.5 51.4001 211.3C51.4001 211.1 51.4001 211 51.2001 210.8C51.2001 210.1 50.6001 209.6 50.3001 209.1C50.3001 209.1 50.3001 209.1 50.3001 209C50.3001 208.8 50.3001 208.6 50.3001 208.5C50.3001 208 50.1001 207.8 49.6001 207.9C49.2001 207.9 49.0001 207.8 48.8001 207.4C48.6001 206.9 48.4001 206.4 48.3001 205.9C48.3001 205.7 48.3001 205.6 48.1001 205.5C47.7001 205.2 47.7001 204.7 47.5001 204.3C47.5001 204.4 47.5001 204.5 47.5001 204.5C47.5001 204.5 47.4001 204.5 47.3001 204.5C47.0001 204.3 46.7001 204.1 46.6001 203.7C46.5001 203.3 46.1001 203.7 45.9001 203.5C45.9001 203.5 45.8001 203.4 45.7001 203.3C45.7001 203.1 45.7001 202.8 45.4001 202.7C45.4001 202.7 45.4001 202.7 45.4001 202.6C45.4001 202.4 45.1001 202.3 45.1001 202.1V201.9C45.3001 201.9 45.4001 201.9 45.6001 201.9C45.4001 201.7 45.2001 202 45.0001 201.8C45.0001 201.8 45.0001 201.7 45.0001 201.6C45.0001 201.4 45.2001 201.3 45.4001 201.3C45.7001 201.3 45.5001 201.1 45.4001 200.9C45.3001 200.6 45.0001 200.4 44.8001 200.1C44.6001 199.9 44.6001 199.9 44.5001 200.1C44.3001 200.4 44.2001 200.1 44.1001 200.1C43.9001 199.7 43.5001 199.6 43.4001 199.2C43.4001 199.5 43.4001 199.8 43.1001 199.7C42.8001 199.7 42.4001 199.7 42.6001 199.2C42.7001 198.8 42.6001 198.6 42.2001 198.6C42.2001 198.6 42.0001 198.6 41.9001 198.5C41.7001 198.4 41.5001 198.2 41.5001 198C41.5001 197.8 41.9001 197.7 42.1001 197.7C42.3001 197.7 42.5001 198 42.6001 197.7C42.7001 197.4 43.1001 197.2 42.9001 196.8C42.9001 196 42.8001 195.2 42.3001 194.5C42.1001 194.2 42.3001 194 42.9001 193.8C42.5001 193.6 42.2001 193.3 41.8001 193.2C41.8001 193.2 41.8001 193.2 41.8001 193.1C41.8001 192.8 41.4001 192.9 41.4001 192.6C41.4001 192.6 41.4001 192.6 41.5001 192.6C41.8001 192.6 42.2001 192.8 42.3001 192.3C42.1001 192.6 41.8001 192.8 41.5001 192.5C41.3001 192.2 41.2001 192.1 40.8001 192.2C40.5001 192.3 39.9001 192.3 39.7001 191.8C39.7001 191.6 39.5001 191.4 39.9001 191.3C40.3001 191.3 40.8001 191.3 41.1001 190.9C41.1001 190.8 41.3001 190.7 41.4001 190.6C41.7001 190.4 41.7001 190.1 41.7001 189.8C41.7001 189.5 41.4001 189.2 41.7001 189C41.7001 189 41.8001 189 41.9001 189C41.9001 189 41.9001 189 41.9001 188.8C41.9001 188.8 41.9001 188.6 41.9001 188.5C42.3001 188.1 42.5001 187.6 42.7001 187.2C42.9001 187 42.7001 186.9 42.7001 186.7C42.5001 186.4 42.2001 186.2 42.7001 185.9C42.9001 185.9 42.7001 185.6 42.7001 185.5C42.3001 184.8 42.2001 184.1 42.0001 183.4C42.0001 183 41.8001 182.7 41.3001 182.5C41.1001 182.4 41.3001 182.2 41.3001 182C41.3001 181.5 41.4001 180.9 41.1001 180.4C41.2001 180.8 40.6001 181 40.7001 181.4V181.7C40.7001 181.9 40.7001 182.1 40.9001 182.3C40.9001 182.5 41.0001 182.6 40.9001 182.8C40.7001 183 40.6001 182.8 40.5001 182.7C40.5001 182.7 40.5001 182.4 40.2001 182.5C40.2001 182.5 40.2001 182.7 40.1001 182.8C40.1001 182.9 39.9001 183.1 39.8001 183.1C39.5001 183.1 39.4001 182.9 39.5001 182.7C39.6001 182.5 39.7001 182.3 39.5001 182.2C39.4001 182.2 39.2001 182 39.3001 181.8C39.3001 181.8 39.3001 181.8 39.4001 181.8C39.1001 181.4 39.3001 180.9 39.2001 180.5C39.8001 179.9 39.1001 179.4 39.1001 178.8C39.1001 178.6 39.0001 178.5 38.9001 178.3C38.9001 177.9 38.4001 177.9 38.4001 177.5C38.4001 177.3 38.4001 177 38.7001 177C38.6001 176.8 38.3001 177 38.2001 176.8C38.0001 176.7 37.9001 176.6 37.8001 176.5C37.8001 176.5 37.8001 176.4 37.7001 176.5C37.7001 176.5 37.7001 176.7 37.7001 176.8C37.7001 176.8 37.7001 176.9 37.7001 177V177.2C37.5001 177.2 37.3001 177.3 37.1001 177.2C37.0001 177.2 36.9001 177 36.9001 176.8C36.5001 176.1 36.3001 175.2 35.7001 174.6C35.7001 174.7 35.7001 174.9 35.7001 175C35.7001 175.1 35.6001 175.3 35.6001 175.4C35.5001 175.6 35.5001 175.8 35.4001 176.1C35.2001 176.6 35.8001 176.5 35.9001 176.8V177C35.9001 177 35.7001 177.1 35.6001 177C35.2001 176.7 35.2001 177 35.2001 177.3C35.2001 177.6 35.6001 177.8 35.5001 178.2C35.5001 178.2 35.4001 178.2 35.3001 178.2C34.9001 178.2 35.0001 178.5 35.0001 178.8C35.0001 178.9 35.0001 179 35.1001 179.2C35.3001 179.4 35.4001 179.6 35.1001 179.9C35.1001 180 34.9001 180.2 35.0001 180.3C35.3001 180.9 35.2001 181.7 35.7001 182.3C36.1001 183 36.5001 183.7 36.7001 184.5C36.4001 185 36.7001 185.3 36.9001 185.7C37.3001 186.3 37.5001 187 37.6001 187.7C37.6001 188.2 37.9001 188.5 38.0001 188.9C38.3001 189.2 38.3001 189.7 38.6001 190.1C38.6001 189.6 38.2001 189.4 38.2001 189.1C38.4001 188.8 38.6001 188.7 38.9001 189C39.1001 189.5 39.1001 190 39.4001 190.4C39.4001 190.6 39.3001 190.8 39.0001 190.7C38.5001 190.7 38.4001 190.9 38.6001 191.3C38.6001 191.3 38.6001 191.4 38.6001 191.5C38.9001 192.1 39.0001 192.7 39.1001 193.3C39.2001 193.7 39.4001 194.1 39.5001 194.5C39.5001 194.8 39.5001 195.1 39.5001 195.4C39.2001 195.6 39.0001 195.3 38.8001 195.1C38.8001 195.1 38.7001 195 38.6001 194.9C38.2001 194.6 37.9001 194.3 38.3001 193.8C38.3001 193.8 38.3001 194 38.1001 194C37.9001 194 37.9001 193.9 37.8001 193.7C37.8001 193.5 37.6001 193.4 37.4001 193.3C37.4001 192.4 36.7001 191.8 36.6001 191C36.6001 190.3 36.0001 189.9 35.8001 189.2C35.8001 189.1 35.8001 189 35.7001 188.9C35.7001 188.9 35.7001 188.9 35.7001 189C35.7001 189.4 36.1001 189.8 35.7001 190.2C35.5001 190.2 35.5001 190.1 35.4001 190C35.3001 189.8 35.2001 189.6 35.2001 189.4C35.2001 189.2 35.2001 189 34.9001 189H34.7001C34.5001 188.5 34.7001 188 34.7001 187.5C34.7001 187.3 34.7001 187.1 34.7001 186.9C34.7001 186.5 34.5001 186.3 34.1001 186.3C34.1001 186.3 34.0001 186.3 33.9001 186.1C33.9001 186 33.9001 185.8 33.8001 185.7C33.8001 185.4 33.5001 185.4 33.3001 185.5C33.1001 185.1 33.1001 184.6 32.9001 184.2C32.8001 183.9 32.8001 183.6 32.3001 183.7C32.3001 183.9 32.5001 184 32.5001 184.1C32.5001 184.1 32.5001 184.2 32.5001 184.3C32.5001 184.4 32.7001 185.4 32.7001 185.5C32.7001 185.8 32.5001 185.8 32.2001 185.7C32.2001 185.9 32.4001 186.1 32.4001 186.3C32.4001 186.6 32.6001 186.9 32.6001 187.3C32.6001 187.6 32.8001 187.8 32.9001 188C33.0001 188.3 33.1001 188.6 33.2001 188.9C33.2001 189.1 33.2001 189.3 33.3001 189.5C33.5001 189.8 33.7001 190.1 33.8001 190.4C33.9001 190.9 34.0001 191.5 34.2001 192C34.2001 192.2 34.2001 192.3 34.2001 192.5C34.2001 192.7 34.1001 192.9 34.2001 193.1C34.4001 193.4 34.2001 193.8 34.5001 194.1C34.7001 194.4 34.6001 194.7 34.8001 194.9C35.2001 195.2 35.4001 195.6 35.3001 196.2C35.3001 196.5 35.3001 197 35.7001 197.2C36.0001 197.6 36.0001 198.2 36.2001 198.7C36.2001 198.9 36.2001 199.1 36.2001 199.3C36.2001 199.3 36.2001 199.4 36.2001 199.5C36.0001 199.7 36.2001 200.1 35.9001 200.2C35.5001 200.2 35.5001 199.7 35.2001 199.5C35.0001 199.5 34.7001 199.5 34.6001 199.1C34.6001 198.9 34.3001 199 34.2001 198.9C34.0001 198.7 34.0001 198.5 34.0001 198.3C34.0001 198.5 34.2001 198.7 34.0001 198.9C33.8001 198.9 33.7001 198.9 33.6001 198.8C33.6001 198.8 33.5001 198.6 33.5001 198.5C33.5001 197.8 33.1001 197.2 32.9001 196.5C32.9001 196.4 32.8001 196.3 32.7001 196.1C32.6001 195.5 32.3001 194.9 32.0001 194.3C32.1001 195 32.3001 195.6 32.5001 196.3C32.5001 196.6 32.7001 196.9 32.7001 197.2C32.7001 197.2 32.7001 197.3 32.7001 197.4C32.7001 197.6 32.7001 197.9 32.4001 198C32.3001 198 32.2001 197.9 32.2001 197.8C32.0001 197 31.7001 196.2 31.5001 195.4C31.3001 194.8 31.3001 194.2 31.0001 193.7C30.4001 192.2 30.3001 190.6 29.7001 189.1C29.6001 189.3 29.7001 189.6 29.7001 189.8C29.9001 190.4 30.0001 191.1 30.3001 191.6C30.4001 191.8 30.3001 192 30.2001 192.2C30.0001 192.3 29.8001 192.2 29.7001 192.1C29.7001 191.7 29.4001 191.6 29.3001 191.3C29.0001 190.8 28.8001 190.3 28.8001 189.7V189.5C28.8001 189.4 28.7001 189.3 28.7001 189.1C28.7001 188.6 28.6001 188.2 28.2001 187.9C28.1001 187.8 28.2001 187.6 28.0001 187.4C28.2001 187.9 28.2001 187.9 28.0001 188.7C27.7001 188.7 27.5001 189.1 27.1001 188.9C27.0001 188.9 27.0001 188.9 26.9001 189.1C26.9001 189.4 26.7001 189.5 26.3001 189.4C26.1001 189.4 26.0001 189.5 26.0001 190.1C26.0001 189.9 25.8001 189.5 26.3001 189.5C26.8001 189.5 26.6001 190 26.6001 190.2C26.6001 190.4 26.5001 190.5 26.4001 190.6C26.5001 190.7 25.9001 190.6 26.4001 190.8C26.6001 190.8 26.7001 191 26.8001 191.2C26.8001 191.5 26.6001 191.6 26.6001 191.9C26.8001 192.7 26.8001 193.6 27.6001 194.3C27.8001 194.3 28.0001 194.3 28.1001 194.4C28.2001 194.4 28.4001 194.7 28.3001 194.7C27.9001 194.9 28.3001 195.2 28.1001 195.5C27.9001 195.8 28.1001 196.1 28.1001 196.4C28.0001 196.6 28.1001 197 27.9001 197.2C27.7001 197.4 27.4001 197.6 27.1001 197.5C26.8001 197.5 26.8001 197.1 26.7001 197C26.7001 197.5 27.0001 197.9 27.1001 198.4C27.1001 198.6 27.3001 198.8 27.3001 199C27.2001 199.3 27.4001 199.6 27.3001 199.9C27.3001 200.1 27.3001 200.4 27.3001 200.6C26.9001 200.8 27.1001 201 27.1001 201.3C27.1001 201.5 27.4001 201.8 27.1001 202C26.9001 202 26.9001 201.8 26.7001 201.7C26.7001 201.9 26.8001 202 26.8001 202.1C26.8001 202.3 26.6001 202.4 26.6001 202.5C26.4001 202.8 26.2001 202.7 26.1001 202.5C25.9001 201.8 25.4001 201.5 24.8001 201.2C24.6001 200.9 24.6001 200.6 24.5001 200.3C24.5001 200 24.3001 199.8 24.2001 199.5C24.2001 199 23.9001 198.8 23.5001 198.5C23.2001 198.2 22.8001 197.9 22.9001 197.4C22.9001 197.5 22.7001 197.8 22.9001 198.1C23.1001 198.3 22.7001 198.4 22.5001 198.5C22.4001 198.5 22.3001 198.5 22.2001 198.4C22.9001 199.2 22.6001 200.3 22.8001 201.2C22.7001 201.6 22.6001 201.9 22.8001 202.3C22.8001 202.5 23.0001 202.7 23.0001 202.9C23.0001 203.1 22.5001 203.2 23.0001 203.5C23.2001 204 23.5001 204.5 23.6001 205.1C23.6001 205.3 23.8001 205.6 23.5001 205.7C23.1001 205.5 23.0001 205.1 22.9001 204.7C22.9001 204.4 22.7001 204.3 22.7001 204C22.9001 204.7 22.9001 205.5 23.1001 206.2C22.8001 206.6 23.0001 207 23.1001 207.3C23.3001 207.9 23.7001 208.4 23.8001 209C23.8001 209.3 24.1001 209.5 23.8001 209.8C23.5001 209.8 23.4001 209.5 23.2001 209.4C23.0001 209.2 22.9001 209 22.8001 208.8C22.6001 208.5 22.4001 208.3 22.1001 208.2C21.8001 208.2 21.5001 207.9 21.4001 207.6C21.3001 207.4 21.2001 207.1 20.9001 207C20.9001 207 20.9001 207 20.8001 206.9C20.7001 206.7 20.6001 206.5 20.3001 206.4C19.8001 206.2 20.0001 205.7 19.8001 205.3C19.8001 204.8 19.5001 204.6 19.2001 204.4C18.9001 204.2 18.8001 204 18.6001 203.7C18.2001 202.9 18.0001 202 17.5001 201.2C17.5001 201.4 17.6001 201.5 17.7001 201.7C17.8001 202 18.1001 202.3 17.7001 202.5C17.4001 202.7 17.1001 202.5 16.9001 202.3C16.6001 202.2 16.8001 201.9 16.6001 201.6C16.5001 201.8 16.4001 201.9 16.3001 202.1C16.3001 202.1 16.2001 202.1 16.1001 202.1C16.1001 201.5 16.3001 200.8 16.4001 200.2C16.4001 200 16.9001 199.6 16.2001 199.6C16.1001 199.6 16.0001 199.3 16.2001 199.1V198.9C16.2001 198.9 16.0001 198.9 16.0001 199.1C16.0001 199.3 15.9001 199.5 16.0001 199.7C16.1001 199.8 16.2001 200 16.0001 200.1C15.9001 200.2 15.7001 200.2 15.5001 200.1C15.3001 200 15.1001 199.8 14.8001 199.9C15.2001 200.2 15.1001 200.6 15.2001 201C15.2001 201 15.1001 201 15.0001 201C14.9001 201 14.8001 200.7 14.7001 200.6C15.0001 200.9 14.9001 201.5 15.4001 201.6V201.8C14.9001 202 15.3001 202.2 15.4001 202.5C14.8001 202.5 14.9001 201.8 14.6001 201.6C14.4001 201.8 14.4001 201.8 14.6001 202.2C14.6001 202.4 14.9001 202.5 14.8001 202.8C14.5001 203.2 14.3001 202.8 14.2001 202.6C14.0001 202.2 13.7001 201.8 13.6001 201.4C13.7001 202.1 14.4001 202.6 14.1001 203.4C14.1001 203.6 14.5001 203.8 14.1001 203.9C14.1001 203.9 14.1001 204.1 14.1001 204.2C14.2001 204.4 14.2001 204.6 14.1001 204.9C14.1001 205 14.2001 205.2 14.1001 205.2C14.1001 205.2 13.9001 205 13.8001 205C13.4001 204.4 13.2001 203.6 12.5001 203.2C12.5001 203.2 12.4001 203 12.3001 203C12.3001 203.1 12.5001 203.2 12.5001 203.3C12.5001 203.4 12.5001 203.5 12.5001 203.6C12.5001 203.8 12.5001 204 12.3001 204C12.1001 204 12.0001 203.8 11.9001 203.7C12.2001 204.1 12.1001 204.7 12.5001 205.1C12.7001 205.4 12.4001 205.6 12.5001 205.9C12.3001 205.9 12.1001 205.4 11.9001 205.9C11.4001 205.6 11.4001 206.1 11.2001 206.3C11.4001 206.1 11.6001 206 11.9001 205.9C11.9001 206.2 12.3001 206.5 11.9001 206.9C11.9001 207.5 11.5001 208 11.8001 208.6C11.8001 208.6 11.8001 208.8 11.6001 208.8C11.6001 208.4 11.2001 208.3 11.1001 208C11.1001 207.9 10.8001 207.9 10.6001 207.8C10.6001 208 10.5001 208.2 10.6001 208.4C10.7001 208.7 10.8001 208.9 11.0001 209.3C10.6001 209.3 10.6001 208.9 10.5001 208.7C10.3001 208.1 10.1001 208.4 9.90006 208.7C9.60006 208.8 9.70006 208.4 9.50006 208.4C9.40006 208.5 9.30006 208.8 9.00006 208.7C8.80006 208.7 8.80006 208.4 8.70006 208.2C8.70006 207.9 8.70006 207.6 8.50006 207.4C8.50006 207.4 8.50006 207.2 8.50006 207.1C8.20006 206.8 8.10006 206.6 8.50006 206.3C8.40006 206.1 8.20006 206.3 8.10006 206.2C8.10006 205.7 8.20007 205.3 8.40006 204.9C8.60006 204.5 8.90006 204.3 8.90006 203.8C9.40006 203.1 9.50006 203.1 9.10006 202.5C8.90006 202.3 8.90006 201.8 8.50006 202.1C7.90006 202.5 7.80006 202.4 7.60006 201.8C7.40006 201.2 7.20006 200.6 6.60006 200.2C6.40006 200.1 6.10006 199.8 6.00006 200.3C6.00006 200.3 6.00006 200.3 5.80006 200.3C5.60007 200.3 5.50006 200.3 5.30006 200.3C5.10007 200.4 4.90006 200.4 4.80006 200.1C4.80006 199.9 4.80006 199.6 4.90006 199.5C5.40006 199 5.90006 199 6.60006 199.2C7.30006 199.4 7.70007 199.9 7.90006 200.5C7.90006 200.7 8.10007 200.8 8.30006 200.8C8.50006 200.8 8.50006 200.6 8.60006 200.5C9.00006 199.9 8.90006 199.3 8.60006 198.7C8.60006 198.6 8.50006 198.5 8.60006 198.3C8.60006 197.9 8.30006 197.9 8.10006 198C7.30006 198.3 7.60006 197.8 7.60006 197.4C7.60006 197.2 7.60007 197.1 7.80006 197C7.80006 197 7.90006 196.8 7.80006 196.8C7.40006 196.8 7.50006 196.4 7.30006 196.2C7.10007 196 6.80006 196 6.90006 195.6C6.90006 195.5 6.70006 195.6 6.50006 195.6C6.20006 195.6 5.90005 195.8 5.70006 195.6C5.90005 195.6 6.10007 195.5 6.30006 195.6C6.50006 195.5 5.90006 195.2 6.40006 195.1C6.50006 195.1 6.90006 195.1 6.80006 194.9C6.80006 194.6 6.50006 194.6 6.20006 194.6C6.40005 194.3 6.50006 194 6.20006 193.7C6.10006 193.6 6.40006 193.2 6.00006 193C5.80006 192.8 5.50006 192.7 5.30006 192.5C5.10007 192.3 5.00006 192.2 5.30006 191.9C5.30006 191.8 5.30006 191.8 5.30006 191.7C5.20007 191.7 5.10006 191.6 5.00006 191.7C5.00006 191.7 4.90006 191.9 4.80006 192C4.70007 191.8 4.40006 191.7 4.50006 191.4C4.50006 191.1 4.30006 191.1 4.10006 191C4.10006 191 3.90006 191 3.90006 190.9C3.90006 190.9 3.90006 190.8 3.90006 190.7C4.10006 190.5 4.70007 190.7 4.90006 190.9C5.10006 191.1 5.20006 191.4 5.50006 191.5C5.30006 191 5.10006 190.5 5.00006 189.9C5.00006 189.8 5.00006 189.6 4.80006 189.6C4.20007 189.4 4.10006 188.9 3.90006 188.4H4.10006C4.30006 188.5 4.60006 188.4 4.70006 188.4C4.90005 188.2 4.60006 188.1 4.50006 188C4.50006 188 4.50006 187.8 4.40006 187.7C4.40006 187.6 4.10007 187.5 4.30006 187.4C4.40006 187.3 4.60006 187.4 4.70006 187.4C4.90005 187.4 5.20007 187.8 5.30006 187.5C5.50006 187.2 5.00006 187.2 4.90006 187C4.90006 186.9 4.90006 187 4.90006 186.6C4.90006 186.4 4.70006 186.2 4.50006 186.1C4.50006 186.1 4.40006 186.1 4.30006 185.9C4.30006 185.9 4.30006 185.8 4.30006 185.7C4.70007 185.4 4.90006 185.2 4.60006 184.6C4.40006 184.1 4.20006 183.4 4.60006 182.8C4.70006 182.5 4.40006 182.2 4.80006 182C5.10007 181.8 5.30006 182.2 5.50006 182.4C5.60006 182.4 5.70007 182.4 5.80006 182.4C5.80006 182.3 5.80006 182.2 5.80006 182.1C5.70007 181.8 5.40005 181.7 5.20006 181.5C4.80006 181 4.80006 180.8 5.40006 180.6C5.70007 180.5 5.90006 180.3 5.80006 179.9C5.80006 179.7 5.80006 179.4 5.70006 179.3C5.10006 178.5 5.50006 177.7 5.80006 176.9C5.80006 176.7 5.80006 176.6 5.80006 176.4C5.50006 175.9 5.80006 175.2 5.20006 174.8C5.00006 174.6 5.20007 174.3 5.40006 174.2C5.70007 174 5.90006 173.9 5.80006 173.5C5.80006 173.2 6.00006 172.9 6.20006 172.7C6.20006 172.5 6.40005 172.4 6.20006 172.2C6.00006 172.1 5.90006 171.9 5.90006 171.6C5.90006 171.4 5.90006 171.1 6.10006 171C6.40006 170.8 6.40005 171.2 6.70006 171.3C6.30006 171.1 6.30006 170.3 5.70006 170.4C5.60006 170.4 5.50006 170.3 5.50006 170.2C5.50006 170.2 5.50006 170.1 5.50006 170C5.50006 170 5.50006 169.8 5.60006 169.8C5.90006 169.7 5.60006 169.3 5.90006 169.2C6.20007 169.2 6.30006 169.5 6.70006 169.4C6.30006 168.3 5.30006 167.8 4.50006 167.1C4.40006 167.2 4.50006 167.2 4.30006 167.6C4.30006 167.8 4.30006 168.2 3.80006 167.9C3.50006 167.5 3.40006 166.9 3.10006 166.4C3.10006 166.2 3.10006 165.9 3.10006 165.7C3.10006 165.5 3.10006 165.3 3.20006 165.2C3.60006 164.7 3.90006 164.1 4.00006 163.5C4.00006 163.1 3.80006 163.3 3.60006 163.3C3.30006 163.3 3.30006 163.2 3.20006 162.9C3.20006 162.5 3.50006 162.2 3.70006 161.8C3.80006 161.6 4.10006 161.3 4.40006 161.5C4.80006 161.7 4.90006 161.6 5.10006 161.2C5.10006 161 5.30006 161 5.50006 161C5.70006 160.7 5.50006 160.5 5.40006 160.3C5.30006 160.1 5.10006 160 5.10006 159.8C5.10006 159.6 5.10006 159.5 5.40006 159.6C5.50006 159.6 5.50006 159.8 5.60006 159.9C5.60006 159.8 5.60006 159.6 5.40006 159.6C5.10006 159.6 5.20007 159.1 4.90006 159.2C4.60006 159.4 4.40006 159.6 4.30006 160C4.30006 160.3 4.30006 160.5 4.30006 160.8C4.30006 160.9 4.30006 161 4.20006 161.1C4.20006 161.2 4.20006 161.3 4.20006 161.4C4.20006 161.5 4.20006 161.6 4.00006 161.7C3.80006 161.7 3.80006 161.7 3.70006 161.5C3.50006 161.1 3.10006 160.8 3.70006 160.3C3.50006 160.4 3.30006 160.5 3.10006 160.5H2.90006C2.90006 160.3 2.90006 160.1 2.90006 159.9C2.90006 159.7 2.90005 159.5 2.70006 159.5C2.40005 159.5 2.40006 159.1 2.30006 158.9C2.30006 158.9 2.30006 158.6 2.10006 158.7C1.70006 158.7 1.40006 158.7 1.10006 159C1.00006 159 0.900063 158.9 0.900063 158.8C0.900063 158.3 1.10006 157.8 1.10006 157.3C1.10006 157 1.20006 156.7 1.50006 156.6C2.00006 156.2 2.50006 156.4 3.00006 156.6C3.20006 156.6 3.20006 156.8 3.20006 157C3.20006 157 3.10006 157.2 3.20006 157.2C3.20006 157.3 3.40006 157.2 3.50006 157.2C4.10006 157.2 3.80006 157.6 4.00006 158C4.00006 157.5 4.00006 157.1 4.20006 156.8C4.20006 156.6 4.30006 156.5 4.50006 156.4C4.80006 156.1 5.30006 155.8 5.60006 155.5C5.80006 155.3 6.00006 155.3 6.10006 155.6C6.10006 155.8 6.10006 156 6.10006 156.2C6.10006 156.4 6.10006 156.6 5.90006 156.7C5.60006 156.6 5.40006 156.7 5.40006 157C5.40006 157.1 5.40006 157.2 5.40006 157.3C5.40006 157.8 5.80006 157.9 6.00006 158.2C6.20006 158.3 6.20006 158.2 6.20006 158.1C6.20006 158 6.30006 157.7 6.60006 157.9C6.80006 157.9 6.80006 158.2 6.70006 158.3C6.70006 158.3 6.70006 158.5 6.70006 158.6C6.70006 158.8 6.70007 159.1 6.90006 159.3C6.90006 159.1 6.90006 158.8 7.10006 158.6C7.10006 158.6 7.10006 158.6 7.20006 158.6C7.30006 158.6 7.50006 158.6 7.60006 158.5C7.60006 158.3 7.40006 158.3 7.40006 158.3C6.90006 157.8 6.70007 157.2 6.80006 156.5V156.3C6.60007 155.8 6.60006 155.6 7.00006 155C7.30006 154.5 7.20006 153.9 7.50006 153.4C7.00006 153.7 6.90006 153.4 6.80006 153.1C6.50006 153.5 6.20007 154 5.80006 154.2C5.40006 154.4 5.20006 154 5.00006 153.8C4.80006 153.6 4.70006 153.5 4.70006 153.3C4.70006 153 5.00006 153.1 5.10006 153C5.30006 152.8 5.30006 152.5 5.40006 152.3C5.60006 151.833 5.96673 151.633 6.50006 151.7C6.80006 151.9 6.90006 151.5 7.10006 151.5C7.50006 151.5 7.70006 151.1 8.00006 151.2H8.20006C8.20006 151.2 8.30006 151.3 8.40006 151.4C8.50006 151.4 8.60007 151.5 8.80006 151.4C8.80006 151.3 8.80006 151.2 8.80006 151.1C8.60007 150.7 8.40006 150.2 8.10006 149.9C7.60006 149.9 7.50006 149.3 7.10006 149.2C6.80006 149.2 6.70006 149.4 6.50006 149.6C6.40006 149.7 6.30006 149.9 6.20006 150C6.10006 150.1 5.90006 150.3 5.80006 150C5.70007 149.9 5.70007 149.7 5.80006 149.5C6.00006 149.2 6.30006 149 6.60006 148.8C6.70006 148.7 6.90006 148.5 7.00006 148.3C7.00006 148.2 7.20007 148.1 7.30006 148.1C7.60007 148.1 7.50006 147.9 7.50006 147.7C7.50006 147.7 7.50006 147.6 7.50006 147.5C7.80006 147.2 8.10006 147.4 8.40006 147.5C8.10006 147.3 7.60007 147.4 7.30006 147.2C7.10007 147.2 6.90006 147 7.30006 146.8C7.50006 146.7 7.70007 146.6 7.80006 146.5C8.20007 146.5 8.40006 146.3 8.30006 145.8C8.00006 145.8 7.70007 146.2 7.40006 145.8C7.40006 145.8 7.40006 145.7 7.40006 145.6C7.40006 145.5 7.40006 145.4 7.40006 145.3C7.40006 145.1 7.80006 145.1 7.70006 144.8C7.80006 144.6 7.90006 144.5 8.10006 144.4C8.30006 144.4 8.40006 144.4 8.60006 144.5C8.60006 144.3 8.60006 144.2 8.60006 144.1C8.70006 143.7 8.90005 143.7 9.20006 144.1C9.20006 144.1 9.20006 144.5 9.50006 144.3C9.50006 144.3 9.50006 144.3 9.50006 144.2C9.50006 144.2 9.50006 144 9.50006 143.9C9.80006 143.3 10.1001 143.2 10.7001 143.7C10.7001 143.4 11.0001 143.4 11.2001 143.2C10.9001 143.4 10.6001 143.4 10.4001 143.2C10.2001 143 10.0001 143.2 9.80006 143.2C9.50006 143.2 9.40006 143.1 9.40006 142.8C9.40006 142.8 9.40006 142.6 9.40006 142.5C9.00006 142 9.30006 141.6 9.50006 141.2C9.70006 140.9 9.90006 140.7 10.0001 140.3C9.60006 140.3 9.10006 140.3 9.10006 139.8C9.10006 139.7 9.30006 139.6 9.40006 139.5C9.90006 139.1 10.5001 138.6 11.2001 138.4C11.4001 138.4 11.5001 138.2 11.6001 138C11.8001 137.7 12.0001 137.5 12.4001 137.4C12.7001 137.4 12.6001 137.6 12.7001 137.8C12.7001 138 12.7001 138.3 12.9001 138.4C13.4001 138.6 13.5001 138.1 13.8001 137.9C13.8001 137.6 14.0001 137.3 13.9001 137C13.9001 136.9 14.0001 136.7 14.1001 136.7C14.6001 136.8 14.6001 136.5 14.7001 136.2C14.7001 136 14.8001 135.6 15.1001 135.6C15.4001 135.6 15.5001 135.9 15.7001 136.1C15.7001 136.1 15.8001 136.3 15.9001 136.3C16.0001 136.5 16.0001 136.7 15.9001 136.9C15.9001 137.2 15.9001 137.3 16.1001 137.5C16.3001 138 16.6001 137.7 16.9001 137.7C17.2001 137.7 17.5001 137.6 17.8001 137.4C18.0001 137.4 18.1001 137.5 18.1001 137.7C17.8001 137.9 18.1001 138.4 17.8001 138.6C17.6001 138.6 17.5001 138.6 17.3001 138.6C16.8001 138.5 16.9001 138.9 16.9001 139.1C16.9001 139.4 16.7001 139.5 16.4001 139.5C16.3001 139.5 16.1001 139.5 16.1001 139.8C16.1001 140 16.3001 140 16.4001 139.8C16.4001 139.8 16.5001 139.7 16.6001 139.7C17.0001 139.7 16.8001 140 16.8001 140.1C16.8001 140.4 16.5001 140.6 16.2001 140.5C15.9001 140.2 15.8001 140.5 15.7001 140.7C15.6001 140.7 15.5001 140.7 15.4001 140.7C15.2001 140.5 15.2001 140.3 15.1001 140.1C14.9001 140.4 14.1001 140 14.5001 140.8C14.5001 140.9 14.5001 141.1 14.4001 141.2C14.0001 141.5 13.6001 141.8 13.3001 142.2C13.3001 142.3 13.1001 142.2 12.9001 142.3C13.3001 142.3 13.7001 142.6 14.1001 142.7C14.1001 142.5 13.9001 142.4 13.8001 142.4C13.5001 142.1 13.5001 141.9 13.8001 141.7C14.2001 141.6 14.6001 141.4 15.0001 141.6C15.0001 141.8 15.0001 142 14.8001 142.1C15.1001 141.9 15.3001 142.1 15.6001 142.1C15.8001 141.6 16.0001 141.5 16.1001 141.9C16.1001 142.1 16.1001 142.3 16.4001 142.5C16.4001 142.3 16.7001 142.2 16.9001 142.1C17.2001 141.8 17.4001 141.4 17.6001 141C17.6001 140.9 17.6001 140.7 17.6001 140.6C17.6001 140.1 18.0001 139.8 18.5001 140C18.6001 140.1 18.7001 140.2 18.9001 140.2C18.9001 140.2 19.1001 140.2 19.1001 140.3C19.4001 140.6 19.4001 140.4 19.5001 140.2C19.7001 139.7 20.1001 139.4 20.1001 138.8C20.1001 138.7 20.1001 138.6 20.3001 138.6C20.5001 138.6 20.6001 138.7 20.7001 138.9C20.7001 139.1 20.7001 139.3 20.7001 139.6C20.8001 139.9 20.7001 140.2 20.5001 140.6C20.9001 140.6 21.1001 140.4 21.4001 140.6C21.2001 140.1 21.1001 139.7 21.0001 139.2C21.0001 138.9 20.7001 138.7 20.7001 138.3C20.7001 138.1 21.0001 137.9 20.9001 137.7C20.9001 137.6 20.9001 137.5 20.9001 137.3C20.7001 137 20.5001 137.5 20.4001 137.3C20.2001 137 20.0001 136.7 20.1001 136.3C20.4001 136.1 20.6001 136.1 20.8001 136.6C20.7001 136 20.4001 136.2 20.1001 136.3C20.1001 136.3 20.0001 136.3 19.9001 136.3C19.7001 136.1 19.8001 135.7 19.4001 135.8H19.3001C19.2001 135.8 19.0001 135.8 18.9001 135.8H18.7001C18.6001 135.8 18.5001 135.8 18.5001 135.6C18.5001 135.5 18.5001 135.4 18.4001 135.2C18.4001 135.1 18.4001 135 18.4001 134.9C18.4001 134.8 18.4001 134.7 18.4001 134.5C18.4001 134.2 18.4001 134 18.8001 134C18.9001 134 19.0001 134.2 19.1001 134.2C19.2001 134.2 19.3001 134.4 19.4001 134.2C19.6001 133.5 19.4001 132.8 19.7001 132.1C19.9001 131.4 20.1001 130.7 20.4001 130C20.4001 129.8 20.4001 129.7 20.4001 129.5C20.6001 129.5 20.9001 129.5 21.0001 129.3C21.3001 128.9 21.4001 129.3 21.6001 129.5C21.8001 129.6 22.0001 129.6 22.2001 129.5C22.5001 129.5 22.7001 129.3 22.8001 129C22.8001 128.9 22.9001 128.8 23.1001 128.7C23.5001 128.5 23.8001 128.7 24.1001 128.9C24.2001 128.9 24.4001 129.1 24.5001 128.9C24.6001 128.8 24.5001 128.7 24.5001 128.5C24.4001 128.1 24.0001 127.7 24.2001 127.4C24.4001 127 24.1001 127 23.9001 126.8C23.9001 126.8 23.8001 126.6 23.7001 126.6C23.7001 126.2 23.5001 125.9 23.5001 125.5C23.5001 125.5 23.6001 125.5 23.7001 125.5C23.6001 125.5 23.6001 125.5 23.5001 125.6C23.3001 125.6 23.3001 125.4 23.2001 125.3C23.2001 124.9 22.8001 124.6 22.9001 124.2C22.9001 124.2 22.9001 124 23.0001 124C23.4001 124 23.3001 123.8 23.3001 123.6C23.6001 123.1 23.1001 122.7 23.0001 122.3C23.0001 122.3 23.0001 122.2 23.0001 122.1C23.1001 121.8 23.2001 121.6 23.0001 121.3C23.0001 120.9 23.2001 120.5 22.9001 120.2C22.8001 120 22.5001 120.2 22.4001 120C22.4001 119.6 22.8001 119.3 22.6001 118.8V118.6C22.6001 118.3 23.2001 118.5 23.2001 118C23.0001 118 22.7001 118.8 22.5001 118V117.8C22.5001 117.6 22.5001 117.5 22.5001 117.3C22.5001 116.8 22.7001 116.6 23.2001 116.7C23.0001 116.6 22.8001 116.5 22.6001 116.4C22.6001 116.4 22.6001 116.3 22.6001 116.2C22.6001 115.8 22.9001 115.6 23.3001 115.7C23.5001 115.9 23.6001 116.2 23.7001 116.4C24.0001 116.8 24.0001 117.2 23.5001 117.5C23.4001 117.5 23.3001 117.3 23.1001 117.5C23.1001 117.6 23.3001 117.5 23.4001 117.5C23.7001 117.6 23.8001 117.9 23.9001 118.4C24.2001 117.8 23.7001 117.4 23.9001 116.8C23.9001 116.4 23.6001 115.9 23.4001 115.4C23.4001 115.2 23.4001 115 23.3001 114.8C23.3001 115 23.3001 115.2 23.3001 115.4C23.3001 115.4 23.3001 115.4 23.3001 115.5C23.1001 115.7 22.9001 115.6 22.8001 115.3C22.8001 115.1 22.8001 115 22.8001 114.8C22.8001 114.5 22.8001 114.2 22.6001 113.9C22.6001 114.2 22.6001 114.5 22.3001 114.7C22.1001 114.8 21.9001 114.7 21.8001 114.5C21.8001 114.3 21.8001 114.1 21.7001 114C21.7001 114 21.8001 113.6 21.5001 113.7C21.3001 113.7 21.2001 113.8 21.3001 114.1C21.3001 114.3 21.3001 114.5 21.3001 114.7C21.2001 114.8 21.4001 115.1 21.1001 115.2C20.8001 115.2 20.8001 115 20.7001 114.8C20.7001 114.4 20.6001 114.1 20.2001 113.8C20.1001 113.8 20.0001 113.5 20.2001 113.3C20.3001 113.2 20.4001 113.3 20.5001 113.3C20.8001 113.5 20.5001 113.3 20.5001 113.2C20.5001 113.2 20.5001 113.2 20.5001 113.1C20.5001 113 20.5001 112.8 20.5001 112.7C20.5001 112.4 20.7001 112.2 21.0001 112.3C21.0001 112.3 21.0001 112.1 21.1001 112.1C21.3001 112.1 21.4001 112.3 21.4001 112.4C21.5001 112.4 21.4001 112.5 21.4001 112.4C21.2001 111.6 21.4001 110.7 21.0001 109.9C20.9001 109.6 21.2001 109.4 21.0001 109.1C21.0001 109.5 20.8001 109.7 20.5001 109.8C20.3001 109.8 20.2001 109.8 20.2001 109.5C20.3001 109.3 20.5001 109.5 20.7001 109.4C20.7001 108.8 20.0001 108.3 20.5001 107.7C20.5001 107.6 20.2001 107.4 20.4001 107.1C20.4001 107.1 20.4001 106.9 20.5001 106.8C20.7001 106.8 20.7001 106.8 20.8001 106.9C20.8001 107 21.0001 107.1 21.1001 107C21.3001 107 21.1001 106.7 21.1001 106.6C21.2001 106.6 21.4001 106.6 21.6001 106.8C21.6001 106.8 21.6001 106.7 21.6001 106.6C22.1001 105.9 22.0001 105.2 21.9001 104.4C21.8001 103.9 21.9001 103.7 22.5001 103.6C22.3001 103.3 22.0001 103.3 21.9001 103C21.7001 102.7 21.8001 102.4 22.1001 102.2C21.9001 102.2 21.8001 102.2 21.7001 102.4C21.7001 102.7 21.4001 102.8 21.1001 102.8C20.9001 102.8 20.8001 102.6 20.9001 102.1C20.5001 102.5 20.5001 102.5 20.0001 102C20.0001 102 20.0001 101.9 20.0001 101.8C20.0001 101.8 20.0001 101.9 20.0001 102C20.0001 102.1 19.8001 102.2 19.7001 102.2C19.4001 102.4 19.2001 102.4 19.3001 101.9C19.3001 101.7 19.4001 101.8 19.5001 101.8C19.7001 101.8 19.5001 101.4 19.9001 101.5C20.5001 101.2 20.2001 100.8 20.0001 100.4C20.0001 100.3 20.2001 100.4 20.3001 100.4C20.7001 100.2 20.5001 99.8 20.5001 99.5C20.5001 98.9 20.8001 98.3 21.1001 97.8C21.3001 97.4 21.7001 97.2 22.1001 97.5C22.4001 97.7 22.7001 97.7 23.1001 97.7C23.3001 97.7 23.5001 97.7 23.8001 97.9C23.7001 97.4 23.7001 97 23.2001 96.9C23.2001 96.9 23.2001 96.9 23.1001 96.8C23.1001 96.5 23.3001 96.3 23.3001 96C23.3001 95.7 23.3001 95.9 23.3001 95.8C23.3001 95.8 23.4001 95.6 23.5001 95.6C24.4001 95.9 24.3001 95 24.7001 94.6C24.7001 94.8 24.6001 94.9 24.4001 94.8C24.2001 94.5 24.2001 94.3 24.4001 94C24.7001 94 25.2001 94 25.0001 93.4V93.2C25.0001 92.8 24.9001 92.4 25.2001 92.1C25.2001 92.1 25.2001 92 25.2001 91.9C25.2001 91.7 25.2001 91.5 24.9001 91.6C24.6001 91.6 24.3001 91.6 24.1001 91.3C24.0001 91.1 23.9001 90.9 24.0001 90.7C24.2001 90.2 24.0001 89.7 23.7001 89.3C23.7001 89.1 23.5001 89.1 23.3001 89.1C23.1001 89.1 22.8001 89.3 22.7001 88.9H22.5001C22.3001 89.2 22.1001 89.3 21.8001 89.3C21.8001 89.6 22.3001 89.8 22.0001 90.1C21.7001 90.3 21.5001 90 21.3001 89.8C21.1001 89.6 21.0001 89.5 20.7001 89.7C20.5001 89.8 20.4001 89.7 20.3001 89.7C20.1001 89.6 20.2001 89.4 20.3001 89.2C20.3001 89 20.4001 88.8 20.5001 88.7C20.7001 88.4 20.5001 88.2 20.5001 87.9C20.5001 87.4 20.7001 87.2 21.2001 87.4C21.6001 87.5 21.6001 87.5 21.8001 87C21.5001 87 21.3001 87 21.0001 87.1C20.8001 87.1 20.5001 87.2 20.4001 86.9C20.4001 86.6 20.4001 86.3 20.7001 86.3C21.1001 86.3 21.4001 85.9 21.9001 86.1C21.7001 85.8 21.4001 86.1 21.3001 85.8C21.3001 85.6 21.1001 85.5 20.9001 85.5C20.9001 85.5 20.8001 85.5 20.9001 85.3C20.9001 85.2 21.1001 85.1 21.2001 85C21.3001 85 21.3001 84.8 21.5001 84.7C21.3001 84.7 21.0001 84.7 20.9001 84.6C20.7001 84.5 20.4001 84.6 20.1001 84.6C20.5001 84.2 20.4001 83.9 19.9001 83.6C19.9001 83.3 19.8001 83.1 19.5001 82.9C19.3001 82.7 19.2001 82.9 19.2001 83.1C19.0001 83.2 18.8001 83.1 18.7001 83.1C18.5001 83 18.4001 82.8 18.7001 82.6C19.2001 82.2 19.5001 81.8 19.3001 81.1C19.3001 80.8 19.6001 80.5 19.8001 80.2C20.0001 79.9 19.8001 79.4 20.1001 79.1C20.1001 79 20.1001 78.9 20.0001 78.9C20.0001 78.9 19.8001 78.7 19.9001 78.6C20.2001 78.3 19.9001 78 19.9001 77.7C19.7001 78.2 19.6001 78.8 18.9001 78.6C18.7001 78.6 18.5001 78.6 18.4001 78.8C18.4001 78.8 18.4001 78.8 18.3001 78.8C18.0001 78.6 18.2001 78.4 18.3001 78.3C18.4001 78.1 18.3001 78.1 18.3001 78.2C17.8001 78.5 17.4001 78.5 17.0001 78C17.0001 78 17.0001 77.9 17.0001 77.8C17.3001 77.3 17.1001 76.8 16.8001 76.3C17.0001 76.2 17.2001 76.3 17.3001 76.3C18.0001 76.3 18.4001 75.9 18.2001 75.3C18.2001 75 18.3001 74.8 18.2001 74.5C17.9001 74.7 17.4001 74.6 17.3001 75.1L17.1001 75.2C16.7001 75 16.5001 75.5 16.2001 75.4C16.2001 75.1 16.2001 74.9 15.9001 74.6C15.6001 74.3 15.9001 74 16.3001 73.9C16.3001 73.9 16.3001 73.9 16.4001 73.9C16.6001 74.1 16.7001 74.3 16.8001 74.5C16.8001 74.2 16.8001 73.9 17.0001 73.6C17.2001 73.3 17.4001 73 17.9001 73C18.1001 73 18.2001 73.1 18.3001 73.3C18.3001 73.5 18.3001 73.7 18.3001 74C19.1001 73.7 19.5001 74.2 19.9001 74.7C20.1001 74.9 20.3001 75 20.5001 74.7C20.7001 74.8 20.8001 75 21.0001 75.2C21.0001 74.8 20.7001 75 20.6001 74.8C19.8001 74.8 19.7001 74.5 20.0001 73.8C20.0001 73.7 20.0001 73.6 20.0001 73.5C19.8001 73.3 20.0001 73.1 20.0001 72.9C19.8001 72.4 19.7001 72.4 19.2001 72.8C19.1001 72.8 18.9001 72.9 18.8001 72.8C18.8001 72.4 18.8001 72 19.2001 71.7C19.5001 71.5 19.4001 71.3 19.4001 71C19.4001 70.8 19.1001 71 19.0001 70.9C19.0001 70.9 19.0001 70.7 19.0001 70.6C18.8001 70.3 18.5001 70.4 18.3001 70.5C18.0001 70.6 17.8001 70.5 17.6001 70.2C17.5001 70 17.6001 69.8 17.8001 69.7C17.5001 69.9 17.3001 70.1 17.5001 70.4C17.7001 70.7 18.0001 70.6 18.2001 70.6C18.4001 70.6 18.6001 70.4 18.9001 70.6C19.2001 70.8 18.9001 71.1 18.9001 71.3C18.6001 71.6 18.4001 72 17.9001 71.9C17.7001 71.9 17.6001 71.8 17.5001 71.7C17.4001 71.7 17.3001 71.7 17.3001 71.8C16.8001 71.9 16.3001 72.2 15.8001 72.1C15.7001 72.1 15.5001 72.1 15.4001 72.1C14.7001 71.9 14.9001 72.5 15.0001 72.6C15.4001 73 14.7001 73.2 14.8001 73.5H14.6001C14.3001 73.4 14.2001 73.4 14.1001 73.7C14.1001 73.9 14.1001 74 13.8001 74.1C13.6001 74.1 13.7001 74.3 13.8001 74.5C13.9001 75 13.8001 75.3 13.2001 75.4C13.3001 74.9 13.2001 74.5 13.0001 74.2C12.9001 74 12.8001 74.4 12.6001 74.3C12.3001 73.7 12.8001 73.4 13.1001 73C13.1001 73 13.1001 73 13.3001 73C13.7001 73 14.1001 73 14.5001 73.1C14.9001 73.1 15.0001 73 14.9001 72.6C14.9001 72.4 14.9001 72.2 14.9001 72C14.9001 72 14.8001 72.1 14.8001 72.2C14.7001 72.7 14.0001 73 13.5001 72.7C13.4001 72.7 13.2001 72.4 13.2001 72.7H13.1001V72.6C13.3001 72.4 13.1001 72.2 13.1001 72C13.0001 71.7 12.9001 71.5 13.4001 71.5C13.9001 71.5 13.6001 71.1 13.4001 70.8C13.4001 70.7 13.2001 70.5 13.4001 70.4C13.5001 70.3 13.7001 70.4 13.8001 70.4C14.0001 70.4 14.0001 70.6 13.8001 70.7C13.6001 70.9 13.7001 71 13.8001 71.1C14.1001 71.3 14.4001 71.3 14.3001 71.1C14.3001 70.9 14.2001 70.8 14.2001 70.6C14.4001 70.6 14.5001 70.6 14.5001 70.8C14.5001 71.4 14.8001 71.1 15.1001 71.2C15.3001 71.2 15.4001 71.2 15.4001 71C15.4001 70.8 15.2001 71 15.1001 71C14.8001 71.2 14.8001 70.7 14.8001 70.7C14.8001 70.4 14.7001 70.3 14.4001 70.3C14.4001 70.3 14.2001 70.3 14.2001 70.2C14.2001 69.9 13.8001 69.9 13.7001 69.7C13.5001 69.4 13.1001 69.7 13.1001 69.6C13.1001 69.4 13.5001 69.4 13.6001 69.2C13.4001 69 13.1001 68.8 13.0001 68.5C13.0001 68.4 12.7001 68.5 12.6001 68.5C12.4001 68.7 12.4001 69.1 12.1001 69.2C11.9001 69.2 11.6001 69.2 11.4001 69C11.4001 69 11.4001 68.9 11.4001 68.8C10.8001 68.1 11.6001 68 11.8001 67.6C11.8001 67.5 12.0001 67.4 11.8001 67.3C11.7001 67.1 11.6001 67.3 11.5001 67.3C11.1001 67.4 10.9001 67.3 10.6001 66.8C11.2001 66.5 11.9001 66.8 12.6001 66.8C12.7001 66.8 12.8001 66.8 12.8001 66.9C13.0001 67.2 13.1001 67.1 13.3001 66.9C13.5001 66.6 13.3001 66.6 13.1001 66.6C13.0001 66.6 12.9001 66.5 12.9001 66.2C13.5001 66.7 14.4001 66.6 14.9001 67.4C14.9001 67.4 15.1001 67.6 15.2001 67.4C15.2001 67.4 15.4001 67.2 15.4001 67.1C15.4001 66.9 15.3001 66.9 15.2001 66.9C14.8001 66.9 14.8001 66.7 14.9001 66.4C15.0001 66.2 14.9001 65.9 14.8001 65.7C14.8001 65.5 14.5001 65.7 14.5001 65.8C14.3001 66.5 13.8001 66.2 13.4001 66.1C13.1001 66 12.6001 65.8 13.1001 65.3C13.1001 65.3 13.3001 65 13.1001 64.9C12.9001 64.9 12.8001 64.9 12.9001 65.1C12.9001 65.3 12.8001 65.4 12.7001 65.4C12.5001 65.4 12.4001 65.4 12.3001 65.2C12.2001 65.1 12.2001 64.8 11.9001 64.8C11.9001 64.8 11.9001 64.8 11.9001 64.7C11.9001 64.2 12.1001 63.9 12.3001 63.5C12.3001 63.1 12.7001 62.7 12.8001 62.3C12.9001 62 13.2001 61.8 13.6001 61.9C13.6001 61.9 13.6001 61.9 13.6001 62C13.6001 62 13.6001 62.1 13.6001 62.2C13.6001 62.4 13.3001 62.7 13.6001 62.8C13.8001 62.8 14.1001 62.6 14.1001 62.2C14.1001 62.1 14.1001 61.9 14.3001 61.9C14.5001 62.1 14.7001 62 14.8001 61.7C14.8001 61.5 14.9001 61.6 15.0001 61.6C15.2001 61.6 15.0001 61.7 15.0001 61.8C15.0001 62.1 15.2001 61.9 15.2001 61.8C15.6001 61.3 16.2001 61.7 16.7001 61.5C16.8001 61.5 16.9001 61.5 16.9001 61.7C16.9001 61.8 16.9001 61.9 16.8001 61.9C16.7001 61.9 16.3001 62.3 16.8001 62.3C16.8001 62.5 16.8001 62.6 16.8001 62.7C16.6001 62.9 16.4001 63.1 16.8001 63.4C17.1001 63.6 16.6001 63.7 16.6001 63.9C16.8001 64.1 17.2001 63.9 17.5001 64.1C17.5001 64.1 17.6001 64.3 17.7001 64.4C17.7001 64.6 17.5001 64.8 17.4001 65C17.2001 65.2 17.1001 65.4 17.4001 65.5C17.7001 65.5 17.8001 65.7 17.8001 66C17.5001 66.2 17.6001 66.5 17.4001 66.7C17.2001 67 17.1001 67.3 17.1001 67.7C17.1001 67.9 16.9001 68.1 17.1001 68.1C17.3001 68.1 17.6001 68.1 17.7001 67.8C17.7001 67.4 18.0001 67.1 18.1001 66.8C18.3001 66.2 18.8001 65.9 19.3001 65.7C19.0001 65.7 18.8001 65.9 18.5001 65.8C18.3001 65.5 18.7001 65.4 18.7001 65.1C18.7001 64.9 18.7001 64.7 18.7001 64.5C18.7001 64.3 18.7001 64.1 18.7001 64C18.7001 63.8 18.7001 63.7 18.9001 63.5C19.0001 62.9 18.5001 63.3 18.4001 63.2C18.2001 63 18.0001 62.7 17.7001 62.6C17.7001 62.6 17.6001 62.5 17.7001 62.4C17.7001 61.9 18.3001 62 18.5001 61.7C18.9001 61.3 18.8001 60.9 18.7001 60.4C18.7001 60.2 18.7001 59.7 18.2001 59.9C18.0001 59.9 18.0001 59.7 18.2001 59.6C18.3001 59.4 18.5001 59.4 18.6001 59.2C18.7001 59 18.8001 58.8 18.6001 58.6C18.5001 58.4 18.4001 58.2 18.4001 58C18.4001 58 18.4001 58 18.5001 57.9C18.8001 57.8 18.6001 57.2 19.1001 57.3H19.3001C19.3001 56.9 19.4001 56.5 19.1001 56.2C18.9001 56.1 18.8001 55.9 19.0001 55.7C19.3001 55.4 19.0001 55 19.2001 54.7C19.2001 54.2 19.4001 54 19.9001 54.1C20.1001 54.1 20.3001 54.1 20.5001 53.9C20.5001 53.9 20.7001 53.7 20.8001 53.7C21.0001 53.7 21.9001 54.6 21.9001 54.9C21.9001 55.2 21.6001 55.2 21.4001 55.1C21.4001 55.5 21.5001 55.8 21.9001 55.9C22.1001 55.9 22.2001 55.8 22.3001 55.7C22.5001 55.7 22.7001 55.7 22.7001 55.4C22.7001 55.2 22.7001 55.1 22.7001 54.9C22.7001 54.2 22.7001 54.2 22.0001 54.4C21.8001 54.4 21.6001 54.4 21.5001 54.2C21.3001 53.8 21.0001 53.5 20.8001 53.1C20.5001 52.7 20.4001 52.1 20.5001 51.6C20.6001 51 20.3001 50.6 19.9001 50.3C19.6001 50 19.5001 49.9 19.6001 49.5C19.6001 49.3 19.6001 49.1 19.6001 48.9C19.2001 48.3 19.6001 47.8 19.9001 47.4C20.2001 47 20.7001 46.6 20.9001 46.1C21.3001 46.1 21.4001 46.4 21.4001 46.7C21.4001 47 21.4001 47.3 21.4001 47.5C21.4001 47.5 21.5001 47.5 21.6001 47.5C22.2001 47.1 22.9001 47.5 23.0001 48.2C23.0001 48.8 23.2001 49.4 23.3001 50C23.5001 49.5 23.5001 49.1 23.4001 48.6C23.4001 47.9 23.4001 47.8 24.1001 47.8C24.1001 47.6 23.8001 47.6 23.7001 47.5C23.5001 47.5 23.3001 47.2 23.3001 47C23.3001 46.5 23.1001 46 23.2001 45.5C23.2001 45.3 23.2001 45.2 23.0001 45.1C23.0001 45.1 22.9001 45.1 22.8001 45C22.6001 44.8 22.1001 44.7 22.0001 44.4C21.9001 44 22.3001 43.9 22.5001 43.6C22.8001 43.1 22.8001 42.6 22.6001 42C22.4001 41.6 22.3001 41.1 22.6001 40.7C22.6001 40.7 22.6001 40.5 22.6001 40.4C22.1001 40 22.6001 39.5 22.5001 39.1C22.5001 38.7 22.7001 38.7 23.0001 38.8C23.0001 38.8 23.1001 39 23.2001 38.8C23.2001 38.6 23.2001 38.4 23.4001 38.2C23.6001 38 23.8001 37.9 24.1001 38.1C24.3001 38.3 24.3001 38.6 24.5001 38.9C24.5001 38.6 24.3001 38.4 24.5001 38.2C24.6001 38 24.8001 37.9 25.0001 38.2C25.2001 38.4 25.4001 38.4 25.6001 38.5C25.9001 38.3 25.9001 38.1 25.7001 37.8C25.7001 38 25.7001 38.2 25.5001 38.2C25.1001 38.2 25.0001 38 24.9001 37.7C24.9001 37.2 24.6001 36.9 24.2001 36.6C24.0001 36.6 23.7001 36 23.7001 36.7C23.7001 37.1 23.5001 37.3 23.1001 37.1C23.0001 37.1 22.9001 36.8 22.7001 37.1C22.6001 37.3 22.5001 37.6 22.2001 37.6C21.9001 37.6 21.7001 37.3 21.7001 37C21.7001 36.7 21.6001 36.5 21.2001 36.5C20.8001 36.5 20.8001 36.1 20.6001 35.8C20.3001 36 20.4001 36.5 20.0001 36.5C19.5001 36.5 19.0001 36.5 18.6001 36.3C18.5001 36 18.2001 36 18.0001 36.1C17.8001 36.1 17.6001 36.1 17.6001 36.4C17.6001 36.7 17.6001 36.7 17.4001 36.7C17.2001 36.7 17.1001 36.7 17.1001 36.5C17.1001 36.3 16.9001 36.1 16.9001 35.9C16.9001 35 16.5001 34.2 16.1001 33.4C16.1001 33.2 15.8001 32.9 16.1001 32.8C16.4001 32.7 16.8001 32.6 16.9001 33C17.1001 33.3 17.2001 33.7 17.5001 33.2C17.6001 33 17.8001 33.1 18.0001 33.2C18.2001 33.4 18.4001 33.4 18.7001 33.2C18.2001 33.3 18.0001 33.1 18.0001 32.7C18.0001 32.4 17.8001 32.1 17.7001 31.7C17.7001 31.5 17.7001 31.2 17.3001 31.2C16.9001 31.2 16.8001 31.4 16.8001 31.7C16.8001 31.7 16.8001 31.7 16.8001 31.8C16.7001 31.8 16.6001 32 16.5001 32.1C16.2001 32.6 16.0001 32.6 15.6001 32.2C15.1001 31.7 15.1001 31.3 15.6001 30.8C15.6001 30.7 15.8001 30.6 15.8001 30.5C16.0001 30.1 16.3001 29.9 16.7001 30.2C16.9001 30.1 16.8001 29.9 16.8001 29.8C16.8001 29.2 17.0001 29.1 17.5001 29.5C17.7001 29.6 17.8001 29.6 17.9001 29.5C18.1001 29.4 18.0001 29.2 17.9001 29.1C17.7001 28.7 17.8001 28.4 18.2001 28.3C18.6001 28.1 18.8001 28.3 19.0001 28.8C19.0001 28.9 19.1001 29 19.1001 29.2C19.1001 29.1 19.0001 29 19.0001 28.9C19.0001 28.4 19.0001 28.1 18.3001 28.3C18.0001 28.4 17.8001 28 17.6001 27.7C17.3001 27.2 17.2001 26.5 17.0001 26C17.0001 25.8 16.8001 25.5 16.5001 25.6C16.2001 25.6 16.1001 25.9 16.1001 26.2C16.1001 26.5 16.1001 26.9 16.1001 27.2C16.0001 27.8 15.5001 28 15.1001 27.5C14.8001 27.2 14.6001 27.1 14.2001 27.3C13.9001 27.5 13.6001 27.2 13.5001 26.9C13.3001 26.6 13.0001 26.4 12.7001 26.2C12.1001 26 11.9001 25.5 12.1001 24.9C12.6001 23.7 13.2001 23.6 14.2001 24.4C14.5001 24.7 14.9001 24.8 15.2001 25C15.5001 25.2 15.8001 25 15.8001 24.7C15.8001 24.3 15.8001 23.9 16.0001 23.4C16.0001 23.1 16.0001 22.9 15.8001 22.7C15.5001 22.2 15.7001 21.5 15.4001 20.9C15.4001 20.9 15.4001 20.9 15.4001 20.8C15.4001 20.3 15.2001 19.8 15.1001 19.3C15.1001 19.1 15.1001 18.9 15.2001 18.9C15.4001 18.9 15.6001 19 15.6001 19.2C15.6001 19.5 15.8001 19.8 15.8001 20C15.8001 19.5 15.4001 19 15.8001 18.5C15.8001 18.4 15.8001 18.1 15.8001 17.9C15.8001 17.7 15.7001 17.4 15.8001 17.2C16.0001 16.9 16.1001 16.6 16.6001 16.8C16.7001 17 16.8001 17.1 16.9001 17.3C17.0001 17.7 17.0001 18.2 17.3001 18.7C17.2001 18.4 17.0001 18.2 17.1001 17.9C17.2001 17.7 17.4001 17.7 17.6001 17.8C17.7001 17.8 17.8001 18 17.8001 18.2C17.8001 18.6 17.8001 19.1 18.2001 19.4C18.2001 19.3 18.2001 19.1 18.2001 19V18.8C17.8001 17.9 17.8001 16.9 17.6001 16C17.6001 15.9 17.6001 15.8 17.6001 15.7C17.5001 15.3 17.4001 15 17.8001 14.7C18.0001 14.6 18.1001 14.7 18.1001 14.9C18.1001 15.1 18.1001 15.3 18.1001 15.4C18.1001 15.8 18.5001 16.1 18.5001 16.5C18.5001 16.6 18.5001 16.8 18.6001 16.8C18.6001 16.5 18.9001 16.3 18.4001 16.1C18.2001 16.1 18.2001 15.7 18.1001 15.5C18.1001 15.4 18.1001 15.3 18.1001 15.1C18.1001 14.8 18.1001 14.6 18.6001 14.7C18.6001 14.7 18.8001 14.7 18.9001 14.7C18.8001 14.1 18.4001 13.6 18.3001 13C18.3001 12.9 18.3001 12.7 18.3001 12.6C18.6001 12.3 18.7001 12.6 18.9001 12.8C19.1001 13.4 19.2001 13.5 19.7001 13.1C19.9001 13 20.0001 12.9 20.2001 12.9C20.2001 12.9 20.3001 12.9 20.4001 12.9C20.9001 13.1 20.8001 13.8 21.1001 14.2C21.1001 13.6 20.9001 12.9 20.7001 12.3C20.7001 12.1 20.6001 11.9 20.8001 11.8C21.1001 11.6 21.0001 11.4 20.8001 11.3C20.3001 11 20.2001 10.4 20.0001 9.9C20.0001 9.6 20.1001 9.4 20.3001 9.2C20.3001 8.8 20.5001 8.6 20.9001 9C20.9001 8.7 21.1001 8.5 21.1001 8.2C21.1001 8 21.3001 8 21.5001 8.1C22.0001 8.3 22.5001 8.4 22.8001 8.9C22.6001 9.3 22.6001 9.6 23.0001 9.8C22.8001 9.6 22.6001 9.4 22.8001 9.1C22.8001 9 22.9001 8.8 22.8001 8.8C22.4001 8.5 22.6001 8.1 22.8001 7.8C23.3001 7.8 23.5001 8.1 23.6001 8.5C23.6001 8.7 23.7001 8.9 24.0001 9.1C24.0001 9.1 24.2001 9.1 24.3001 9.2C24.4001 9.2 24.5001 9.3 24.6001 9.4C24.8001 9.5 24.8001 9.8 25.1001 9.4C25.2001 9.2 25.4001 9.5 25.5001 9.6C26.2001 9.6 26.2001 9.6 25.9001 10.4C25.7001 10.6 25.4001 10.4 25.1001 10.4C25.1001 10.6 25.1001 10.7 25.2001 10.8C25.2001 10.8 25.2001 11 25.2001 11.1C24.9001 11.5 25.2001 11.7 25.5001 12C25.5001 12 25.6001 12 25.7001 12.1C25.7001 12.3 25.7001 12.5 25.9001 12.6C26.1001 12.6 26.2001 12.4 26.2001 12.3L26.4001 12.2C26.6001 12.2 26.9001 12.5 26.9001 12C26.9001 11.8 27.0001 11.7 27.2001 11.8C27.9001 12.1 28.3001 12.1 28.8001 12.1C29.4001 12.2 29.5001 12.8 29.1001 13.3C28.9001 13.3 28.6001 13.3 28.7001 13.7C28.7001 13.9 28.5001 13.9 28.3001 13.9C28.5001 14 28.6001 13.9 28.7001 13.9C28.9001 13.8 29.0001 13.7 29.2001 13.9C29.4001 14.1 29.2001 14.3 29.2001 14.4C29.0001 14.6 29.2001 14.7 29.2001 14.9C29.4001 15.1 29.6001 15.1 29.8001 15.2C29.8001 15.2 29.9001 15 30.0001 15C30.2001 15.2 30.5001 15 30.7001 15.1C30.7001 15.4 30.7001 15.7 30.9001 15.9C31.0001 16.1 31.2001 16.4 30.9001 16.6C30.6001 16.9 30.9001 17.1 31.1001 17.3C31.1001 17.3 31.1001 17.4 31.1001 17.5C31.0001 17.7 30.6001 17.8 30.7001 18.1C30.7001 18.3 30.8001 18.5 31.0001 18.6C31.0001 18.7 31.0001 18.8 31.0001 18.9C30.7001 19.2 30.3001 19.4 30.3001 19.8C30.3001 20 29.8001 19.8 30.0001 20.2C30.0001 20.3 30.0001 20.4 30.0001 20.5C30.0001 20.8 30.0001 21.2 30.2001 21.4C30.5001 21.9 30.5001 22.3 30.4001 22.8C30.3001 23.2 30.4001 23.5 30.9001 23.4C31.0001 23.4 31.2001 23.4 31.3001 23.4C31.4001 23.4 31.5001 23.5 31.6001 23.6C31.6001 23.6 31.7001 23.8 31.8001 23.9C31.8001 24.3 32.1001 24.3 32.4001 24.2C32.6001 24.2 32.8001 24.2 33.0001 24.1C33.0001 23.8 32.8001 24.1 32.7001 24C32.5001 24 32.4001 24.1 32.2001 24.1C31.9001 24.1 31.8001 23.9 32.0001 23.7C32.1001 23.5 32.0001 23.3 32.0001 23.1C32.0001 22.8 31.6001 22.6 32.0001 22.3C32.5001 22 32.5001 22 32.8001 22.5V22.7C32.7001 22.9 32.6001 23.1 33.0001 23.1C33.4001 23.1 33.7001 23.1 33.9001 22.8C34.1001 22.5 34.3001 22.7 34.6001 22.8C34.4001 22.6 34.6001 22.4 34.6001 22.2C34.7001 22 34.6001 21.9 34.6001 21.7C35.2001 21.7 35.8001 22 35.9001 22.8C35.9001 22.4 35.7001 22.2 35.7001 21.9C35.7001 21.7 35.6001 21.6 35.7001 21.5C35.9001 21.4 36.0001 21.5 36.1001 21.6C36.7001 22.1 37.4001 22 38.0001 22.3C38.6001 22.3 38.3001 21.8 38.4001 21.5C38.4001 21.5 38.4001 21.5 38.5001 21.4C38.7001 21.4 38.9001 21.3 39.1001 21.6C39.1001 21.6 39.2001 21.6 39.3001 21.6C39.3001 21.6 39.4001 21.6 39.5001 21.6C39.7001 21.6 40.0001 21.4 40.2001 21.8C40.2001 22 39.9001 22 39.8001 22.2C39.8001 22.3 39.6001 22.4 39.5001 22.5C39.5001 22.5 39.4001 22.5 39.3001 22.6C39.2001 22.6 38.8001 22.6 39.2001 22.9C39.3001 22.9 39.4001 23.1 39.5001 23.1C39.6001 23.1 39.7001 23.3 39.7001 23.4V23.5C39.7001 23.5 39.3001 23.4 39.4001 23.7C39.4001 23.9 39.5001 23.9 39.7001 23.8C40.0001 23.8 40.2001 24 40.4001 24.2C40.4001 24.2 40.4001 24.2 40.4001 24.3C40.4001 24.5 40.4001 24.6 40.4001 24.8C40.4001 25.4 40.4001 25.8 40.0001 26.2C40.0001 26.2 40.0001 26.2 40.0001 26.3C39.8001 26.6 40.0001 27 39.8001 27.2C39.6001 27.2 39.3001 27.2 39.6001 27.6C39.6001 27.9 39.4001 28.1 39.2001 28.3C39.1001 28.4 39.0001 28.6 38.8001 28.7C38.7001 28.7 38.6001 28.8 38.4001 28.9C38.4001 28.9 38.2001 29 38.1001 29C38.4001 29.3 38.6001 29.6 39.1001 29.6C39.4001 29.6 39.5001 29.9 39.5001 30.2C39.4001 30.6 39.7001 30.8 39.8001 31.1C39.7001 31.5 40.1001 31.5 40.3001 31.7C40.3001 31.9 40.5001 32.2 40.3001 32.5C40.6001 32.1 40.9001 32.5 41.3001 32.4C41.2001 32.1 41.1001 31.9 41.4001 31.7C41.6001 31.6 41.5001 31.4 41.5001 31.2C41.5001 30.9 41.4001 30.5 41.5001 30.2C41.5001 30.1 41.6001 30 41.8001 29.9C41.8001 29.9 41.9001 29.9 42.0001 29.8C42.1001 29.6 42.0001 29.2 42.3001 29.2C42.8001 29.1 43.2001 28.7 43.7001 28.9C43.9001 28.9 44.0001 29.1 44.0001 29.3C44.0001 29.5 44.2001 29.6 44.4001 29.7C44.8001 29.7 44.9001 29.9 44.7001 30.3C44.5001 30.9 44.5001 31.5 44.9001 32C45.0001 32.1 45.2001 32.4 45.4001 32.2C45.6001 32.1 45.6001 31.9 45.4001 31.7C45.3001 31.4 45.3001 31.4 45.7001 31.3C45.4001 31.1 45.3001 30.8 45.4001 30.5C45.4001 30.3 45.6001 30.3 45.7001 30.5C45.0001 30.5 45.2001 29.8 45.2001 29.4C45.2001 29.2 45.2001 29.1 45.2001 28.9C45.3001 28.6 45.6001 28.6 45.9001 28.5C46.1001 28.5 46.3001 28.5 46.3001 28.1C46.3001 27.9 46.3001 27.8 46.3001 27.6C46.3001 26.9 46.1001 26.3 46.3001 25.6C46.3001 25.4 46.2001 25.4 46.0001 25.6C45.9001 25.8 45.7001 26 45.5001 25.6C45.4001 25.3 45.1001 24.9 45.5001 24.8C46.1001 24.6 45.9001 24.3 45.8001 23.9C45.8001 23.8 45.8001 23.7 45.8001 23.6C46.0001 23.2 46.2001 22.8 46.0001 22.4C46.0001 21.9 46.1001 21.3 45.6001 21C45.6001 20.8 45.6001 20.7 45.8001 20.7C46.0001 20.5 45.9001 20.3 45.8001 20.1C45.7001 19.6 45.6001 19 45.5001 18.4C45.5001 18.2 45.5001 18.1 45.3001 18C45.1001 17.8 44.9001 17.5 45.2001 17.2C45.2001 17.1 45.2001 17 45.1001 16.9C45.5001 16.4 45.4001 15.8 45.1001 15.3C45.1001 15.3 45.1001 15.1 45.0001 15.1C45.0001 14.5 44.8001 13.9 44.9001 13.3C44.9001 13.3 44.9001 13.1 45.1001 13.1H45.3001C45.6001 13.3 46.0001 13.1 46.1001 13.5C46.1001 13.7 46.0001 13.7 45.9001 13.9C45.6001 14.3 45.7001 14.4 46.1001 14.5C46.2001 14.5 46.4001 14.5 46.5001 14.7C46.5001 14.9 46.3001 14.9 46.2001 14.9C45.9001 14.9 45.9001 15.2 46.0001 15.3C46.3001 15.7 46.2001 16.1 46.4001 16.5C46.4001 16.7 46.2001 16.9 46.4001 17.1C46.4001 17.2 46.6001 17.4 46.7001 17.6C46.7001 17.8 46.7001 18.2 47.2001 18.2C47.3001 18.2 47.2001 18.5 47.4001 18.6C47.9001 18.3 48.0001 17.9 47.4001 17.5C47.4001 17.5 47.4001 17.3 47.4001 17.2C47.2001 17.2 47.3001 17.5 47.3001 17.6C47.3001 17.8 47.1001 17.9 46.9001 17.9C46.7001 17.9 46.7001 17.7 46.7001 17.6C46.7001 17.1 46.7001 16.6 46.7001 16.1C46.7001 15.8 46.5001 15.6 46.7001 15.3C46.8001 15.1 46.8001 14.8 47.2001 14.9C47.5001 14.9 47.6001 15.1 47.6001 15.4C47.6001 15.6 47.6001 15.8 47.6001 15.9C47.6001 16.1 47.6001 16.4 47.6001 16.7C47.8001 16.7 48.0001 16.6 48.2001 16.7C47.4001 15.9 47.4001 15.8 48.0001 15.4C48.1001 15.4 48.1001 15.2 48.2001 15C48.2001 14.8 48.4001 14.8 48.5001 14.9C48.7001 14.8 48.5001 14.7 48.5001 14.5C48.5001 14.4 48.5001 14.3 48.4001 14.2C48.1001 13.6 48.2001 12.9 47.9001 12.3C47.8001 12 48.1001 11.6 47.9001 11.2C48.0001 10.4 47.9001 9.6 47.4001 8.9C47.4001 8.7 47.2001 8.4 47.6001 8.4C47.4001 8.4 47.3001 8.6 47.4001 8.9C47.4001 9 47.4001 9.1 47.5001 9.2C47.9001 9.6 47.8001 10.1 47.5001 10.5C47.5001 10.6 47.3001 10.6 47.2001 10.7C47.1001 10.7 47.0001 10.7 46.9001 10.7C46.9001 10.1 47.0001 9.5 46.8001 9C46.8001 8.8 46.6001 8.7 46.5001 8.6C46.5001 8.6 46.5001 8.6 46.4001 8.5C46.2001 8.2 46.2001 7.9 46.0001 7.6C45.8001 7.4 45.6001 7.3 45.7001 7C45.8001 6.8 46.1001 6.7 46.3001 6.8C46.5001 6.8 46.6001 7 46.8001 7.1C46.8001 7.1 46.8001 7.4 46.9001 7.3C47.4001 7.3 47.4001 7.6 47.3001 7.9C47.5001 7.7 47.5001 7.5 47.3001 7.3C47.3001 7.3 47.1001 7.2 47.1001 7.1C47.1001 6.8 47.3001 6.4 46.7001 6.7C46.7001 6.7 46.6001 6.5 46.5001 6.4C46.5001 6.2 46.5001 6 46.5001 5.8C46.5001 6 46.5001 6.2 46.2001 6.2C46.0001 6.2 46.0001 6 46.0001 5.8C46.0001 5.5 45.8001 5.1 46.0001 4.8H46.2001C46.4001 5.2 46.7001 5 47.0001 4.9C47.3001 5.1 47.6001 4.9 47.7001 4.7C47.7001 4.5 47.6001 4.2 47.3001 4.2C47.3001 4.2 47.1001 4.2 47.1001 4C46.8001 3.6 47.0001 3.3 47.4001 3.2C47.5001 2.9 47.8001 3 48.0001 3C48.6001 2.4 49.1001 2.4 49.5001 3.2C49.7001 3.6 49.7001 3.9 49.7001 4.3V4.6C49.7001 4.9 49.8001 5.3 49.9001 5.6C49.9001 5.4 49.8001 5.3 49.9001 5.1C50.3001 4.9 50.2001 4.4 50.6001 4.3C50.8001 4.3 50.9001 4.3 50.9001 4.1C51.4001 3.7 50.7001 3.6 50.7001 3.3C50.7001 3.1 50.6001 3 50.7001 2.8C50.7001 2.7 50.9001 2.6 50.9001 2.4C50.9001 2.1 50.9001 1.9 50.6001 1.8C50.2001 1.3 50.2001 1.3 50.6001 1C50.9001 0.8 50.6001 0.699999 50.6001 0.599999C50.6001 0.199999 50.8001 -0.100001 51.3001 0.0999987C52.2001 0.299999 53.2001 0.699999 54.1001 1.1C54.1001 1.1 54.3001 1.3 54.3001 1.4C54.5001 2.4 55.0001 3.1 55.8001 3.6C55.9001 3.6 56.0001 3.8 56.1001 4C56.1001 3.7 55.9001 3.5 55.9001 3.3C55.9001 3.1 55.9001 3 56.0001 2.8C56.1001 2.6 56.3001 2.8 56.4001 2.8C56.6001 2.9 56.9001 2.9 57.1001 3C57.2001 3 57.4001 3 57.5001 3C57.9001 3 58.0001 3.3 58.3001 3.5C58.5001 3.3 58.3001 2.9 58.6001 2.8C58.8001 2.8 58.9001 3 59.0001 3.1C59.0001 3.1 59.1001 3.3 59.2001 3.1C59.2001 2.8 59.0001 2.5 59.0001 2.2C59.0001 1.9 59.2001 1.6 59.5001 1.4C59.6001 1.4 59.7001 1.2 59.7001 1C59.7001 0.8 59.9001 0.600001 60.2001 0.700001C60.3001 0.800001 60.2001 0.999999 60.2001 1.1C60.2001 1.8 60.2001 1.9 60.9001 2C61.3001 2 61.4001 2.4 61.6001 2.6C61.6001 2.6 61.6001 2.7 61.6001 2.8C61.6001 3.1 61.6001 3.4 61.3001 3.6C61.0001 3.8 60.8001 4.1 60.8001 4.4C60.4001 4.6 60.3001 4.2 60.0001 4C60.1001 3.8 60.0001 3.6 60.1001 3.4C60.0001 3.6 60.1001 3.7 60.1001 3.8C59.9001 4 60.1001 4.1 60.3001 4.2C60.4001 4.4 60.7001 4.4 60.7001 4.7C60.7001 5 60.3001 5.2 60.4001 5.5C60.4001 5.8 60.1001 6 60.5001 6.4C60.8001 6.6 60.2001 6.7 60.2001 6.9C60.6001 7.2 60.5001 7.7 60.5001 8.1C60.5001 8.2 60.5001 8.4 60.5001 8.5V8.7C60.5001 8.9 60.5001 9.1 60.5001 9.3C60.5001 9.5 60.5001 9.7 60.5001 9.8C60.5001 10.1 60.6001 10.5 60.5001 10.8C60.5001 11 60.5001 11.2 60.7001 11.4C60.9001 11.5 60.9001 11.7 60.9001 11.9C60.9001 12.2 60.9001 12.4 61.2001 12.5C61.6001 12.8 61.6001 13.2 61.2001 13.5C61.0001 13.6 60.9001 13.7 61.0001 13.9C61.0001 14 61.0001 14.2 61.0001 14.4C61.0001 14.4 61.0001 14.5 61.0001 14.6C61.0001 15 60.9001 15.4 61.3001 15.7C61.3001 15.8 61.3001 15.9 61.3001 16C61.0001 16.4 61.1001 16.4 61.4001 16.7C61.6001 16.9 61.6001 17.1 61.6001 17.3C61.6001 17.4 61.6001 17.6 61.6001 17.7C61.7001 17.3 61.8001 17.2 62.2001 17.7C62.5001 18 62.4001 17.7 62.4001 17.7V17.6C62.5001 17.6 62.6001 17.6 62.7001 17.7C62.8001 18 62.9001 18.3 62.8001 18.4C62.8001 18.2 63.1001 18.1 63.3001 18.2C63.5001 18.4 63.6001 18.6 63.3001 18.7C62.9001 18.8 62.8001 19.1 62.8001 19.4C62.8001 19.8 62.7001 20.1 62.8001 20.5C62.8001 20.1 62.8001 19.7 63.0001 19.4C63.0001 19.2 63.1001 19 63.3001 19.1C63.5001 19.1 63.6001 19.3 63.6001 19.4C63.6001 19.5 63.6001 19.7 63.8001 19.8C63.9001 20 63.7001 20.1 63.7001 20.3C63.7001 20.3 63.7001 20.5 63.8001 20.5C63.8001 20.4 63.7001 20.2 63.8001 20.1C63.9001 20 64.1001 19.9 64.2001 20.1C64.4001 20.3 64.7001 20.4 64.9001 20.7C65.2001 20.9 65.1001 21.2 64.9001 21.3C64.5001 21.4 64.6001 21.7 64.5001 22C64.7001 21.7 65.0001 21.7 65.2001 21.7C65.3001 21.7 65.5001 21.7 65.6001 21.6C65.8001 21.3 66.1001 21.6 66.1001 21.7C65.9001 22 66.3001 22.6 65.8001 22.7C66.2001 22.8 66.6001 22.6 67.0001 22.5C67.3001 22.7 67.7001 22.7 68.0001 22.9C68.0001 22.9 68.2001 23 68.2001 23.2C68.2001 23.2 68.1001 23.3 68.0001 23.3C67.5001 23.3 67.2001 23.4 67.1001 24C67.1001 24 67.0001 24 66.9001 24C67.1001 24 67.4001 24.2 67.3001 23.8C67.3001 23.4 67.5001 23.3 67.7001 23.4C68.1001 23.4 68.4001 23.2 68.7001 23.2C69.3001 23.1 69.9001 23.2 70.5001 23.1C70.8001 22.9 70.8001 22.5 70.8001 22.2C70.8001 22 70.8001 21.9 70.8001 21.7C70.6001 21.1 70.3001 21.4 70.0001 21.5C69.8001 21.5 69.5001 21.5 69.3001 21.5H69.2001C69.4001 21.2 69.4001 20.7 69.9001 20.6C69.9001 20.6 70.0001 20.6 70.0001 20.8C70.1001 21.1 70.3001 21 70.5001 20.8C70.7001 20.7 70.5001 20.6 70.5001 20.4C70.4001 20.2 70.1001 20 70.3001 19.7C70.5001 19.6 70.6001 19.7 70.8001 19.7C71.0001 19.7 71.2001 19.5 71.2001 19.3C71.2001 19.1 71.1001 19 70.9001 18.9C70.6001 18.7 70.1001 18.9 70.2001 18.2C70.2001 18.1 69.9001 18.2 69.7001 18.2C69.0001 18.4 68.9001 18.4 68.5001 17.8C68.4001 17.6 68.2001 17.7 68.0001 17.6C67.8001 17.6 67.5001 17.6 67.5001 17.2C67.5001 16.8 67.9001 17 68.0001 16.9C67.8001 16.8 67.5001 16.9 67.3001 16.9C67.3001 16.9 67.3001 16.9 67.2001 16.9C67.1001 16.7 66.7001 16.6 66.7001 16.3C67.0001 15.9 67.2001 16 67.4001 16.3C67.4001 16.5 67.5001 16.7 67.8001 16.5C68.1001 16.4 68.3001 16.1 68.6001 16.5C68.5001 16.1 68.8001 16.2 69.0001 16.1C68.9001 16 68.7001 15.9 68.7001 15.8C68.7001 15.5 68.8001 15.6 69.0001 15.5C69.1001 15.5 69.0001 15 68.7001 14.9C68.5001 14.9 68.3001 14.9 68.2001 14.7C68.0001 14.5 68.0001 14.2 68.2001 14.1C68.1001 14 68.0001 14 67.9001 14C67.7001 14 67.4001 14.1 67.4001 13.8C67.4001 13.6 67.6001 13.5 67.9001 13.5C67.6001 13.3 67.5001 13 67.2001 12.9C67.0001 12.6 66.5001 12.8 66.5001 12.3C66.5001 12.3 66.2001 12.2 66.0001 12.3C65.9001 12.3 65.8001 12.3 65.7001 12.1C65.7001 11.8 65.6001 11.5 65.3001 11.3C65.0001 11.1 65.1001 10.4 65.5001 10.2C65.6001 10.2 65.8001 10.2 65.9001 10C65.9001 9.8 65.6001 9.5 65.7001 9.2C65.8001 9 66.2001 8.7 65.7001 8.5C66.0001 8 65.5001 7.6 65.7001 7.1C65.7001 7.1 65.8001 7.1 65.9001 7.1C66.1001 7.4 66.5001 7.1 66.7001 7.4C66.7001 7.4 66.8001 7.6 66.8001 7.7C66.7001 8.3 66.6001 8.9 66.6001 9.5C67.1001 9.8 67.1001 9.8 67.2001 9.1C67.4001 9.1 67.6001 8.8 67.8001 8.8C67.9001 8.8 68.0001 8.8 68.1001 8.9C68.1001 8.7 68.0001 8.5 67.9001 8.3C67.9001 8.3 67.9001 8.2 67.9001 8.1C67.9001 8 68.0001 7.8 68.1001 7.9C68.4001 8 68.8001 8 68.9001 8.2C69.1001 8.8 69.7001 8.7 70.2001 9C70.5001 9.2 71.5001 9.4 72.0001 9.3C72.2001 9.3 72.4001 9.3 72.5001 9.5C72.5001 9.5 72.5001 9.5 72.5001 9.3C72.5001 9 72.4001 8.6 73.0001 8.8C73.0001 8.8 73.0001 8.6 73.0001 8.5C73.0001 8.3 73.0001 8.2 73.1001 8C73.3001 7.9 73.5001 7.7 73.8001 7.8C73.8001 7.8 73.9001 7.8 73.8001 7.5C73.8001 7.3 73.8001 7.2 73.8001 7C73.7001 6.7 73.5001 6.5 73.2001 6.8C72.8001 7.2 72.8001 7.2 72.5001 6.6C72.5001 6.6 72.5001 6.5 72.5001 6.4C72.7001 6 72.9001 5.5 73.4001 5.3C73.6001 5.2 73.7001 5 73.7001 4.8C73.7001 4.2 73.9001 4 74.5001 3.9C74.8001 3.9 74.8001 3.5 75.1001 3.4C74.7001 2.8 74.3001 2.3 73.8001 1.9C73.8001 1.7 73.8001 1.6 74.0001 1.6C74.3001 1.3 74.6001 1.2 75.0001 1.4C75.0001 1.4 75.2001 1.5 75.1001 1.6C74.8001 2.1 75.4001 2.2 75.6001 2.5C75.5001 2.2 75.3001 1.9 75.5001 1.6C75.5001 1.6 75.7001 1.7 75.7001 1.8C75.7001 1.8 75.9001 1.8 75.9001 2C76.1001 2.4 76.5001 2.5 76.9001 2.5C76.9001 2.5 77.1001 2.6 77.1001 2.7C76.9001 3.6 77.7001 4 77.9001 4.6C77.9001 4.6 77.9001 4.6 77.9001 4.7C77.9001 4.8 77.9001 5.1 78.3001 5C78.3001 5 78.5001 5.1 78.5001 5.2C78.6001 5.2 78.7001 5.6 78.9001 5.2C79.0001 5 79.2001 4.9 79.4001 5.2C80.1001 6.6 80.1001 8.1 80.5001 9.4C80.5001 9 80.3001 8.4 80.2001 7.8C80.2001 7.7 80.2001 7.5 80.1001 7.4C80.1001 7.2 80.1001 7 80.2001 6.9C80.4001 6.9 80.5001 7.1 80.5001 7.2C80.7001 7.8 80.9001 8.4 81.0001 9.1C81.0001 9.3 81.0001 9.4 81.1001 9.6C81.1001 9.9 81.1001 10.3 81.4001 10.6C81.4001 10.1 81.4001 9.7 81.2001 9.3C81.2001 8.9 81.5001 8.5 81.0001 8.2C80.7001 8 80.8001 7.7 80.9001 7.4C81.1001 7.2 81.2001 7.4 81.3001 7.4C81.5001 7.5 81.7001 7.6 81.7001 7.9C81.7001 8 81.7001 8.2 81.7001 8.3C81.7001 8.3 81.7001 8.5 81.8001 8.6C81.8001 8.4 81.8001 8.2 81.8001 8C82.0001 7.6 82.3001 7.6 82.6001 7.8C82.6001 7.8 82.6001 7.8 82.6001 7.9C82.6001 7.9 82.6001 8 82.6001 8.1C82.6001 8.2 82.4001 8.4 82.6001 8.4C82.8001 8.4 82.6001 8.2 82.7001 8.1C82.7001 8 82.7001 7.8 82.7001 7.7C82.7001 7.5 82.4001 7.1 83.0001 7.1C83.4001 7.2 83.2001 7.6 83.2001 7.7C83.2001 7.9 83.0001 8.1 83.4001 8.1C83.4001 8.1 83.5001 8.1 83.5001 8.2C83.5001 8.3 83.5001 8.7 83.8001 8.6C84.0001 8.6 83.9001 8.2 83.8001 8.1C83.5001 7.5 84.0001 7.1 84.3001 6.7C84.5001 7 84.3001 7.4 84.7001 7.4C84.7001 7.4 85.3001 7.4 85.1001 7C85.1001 7 85.1001 6.9 85.1001 6.8C85.1001 6.6 85.1001 6.4 85.3001 6.4C85.5001 6.4 85.5001 6.7 85.5001 6.8C85.5001 6.8 85.5001 6.8 85.5001 6.9C85.4001 7.5 85.5001 8 86.1001 8.2C86.2001 8.3 86.3001 8.6 86.4001 8.8C86.8001 8.4 86.6001 8 86.6001 7.6V7.4C86.6001 7.3 86.8001 7.2 87.0001 7.3C87.2001 7.4 87.2001 7.5 87.3001 7.7C87.1001 8.2 87.5001 8.5 87.7001 8.9C87.5001 8.4 87.7001 7.9 87.7001 7.4C87.7001 6.9 87.8001 6.5 88.4001 6.4C88.4001 6.4 88.4001 6.4 88.5001 6.5C88.5001 6.5 88.6001 6.6 88.7001 6.7C88.7001 6.8 88.9001 6.9 89.0001 7C89.1001 7 89.3001 7 89.5001 7C89.7001 7 89.8001 7.1 89.7001 7.3C89.7001 7.3 89.7001 7.5 89.7001 7.6C89.8001 7.8 90.0001 8 90.3001 8.1C90.3001 8.1 90.5001 8.1 90.6001 8.2C90.8001 8.3 90.9001 8.5 91.0001 8.2C91.0001 8.2 91.1001 8 91.2001 8.1C91.3001 8.1 91.3001 8.2 91.3001 8.3C91.3001 8.5 91.2001 8.8 91.5001 9C91.7001 9 91.7001 9.2 91.6001 9.4C91.5001 9.6 91.4001 9.7 91.6001 9.9C91.6001 10 91.7001 10.1 91.7001 10.3C91.7001 10.5 91.7001 10.6 91.9001 10.8C92.1001 10.8 92.1001 10.6 92.3001 10.6C92.3001 10.6 92.5001 10.6 92.6001 10.6C92.9001 10.8 92.7001 11 92.6001 11.2C92.1001 11.4 92.0001 11.8 92.1001 12.3C92.1001 12.3 92.2001 12.2 92.3001 12.1H92.5001C92.5001 12.2 92.5001 12.3 92.5001 12.4C92.5001 12.6 92.7001 12.7 92.7001 12.9C92.7001 13 92.7001 13.2 92.6001 13.3C92.5001 13.5 92.0001 13.6 92.6001 13.9H92.8001C92.8001 13.9 92.8001 13.9 92.9001 14C92.9001 14.3 93.1001 14.5 92.7001 14.6C92.5001 14.6 92.5001 14.6 92.5001 14.8C92.6001 15.1 92.5001 15.4 92.5001 15.7C92.5001 16 92.8001 16.2 92.7001 16.5C93.0001 16.5 92.9001 16.1 93.1001 16.1C93.6001 16.1 93.8001 16.3 94.1001 16.7C94.3001 16.9 94.3001 17.1 94.1001 17.4C94.4001 17.2 94.5001 17 94.4001 16.8C94.4001 16.6 94.3001 16.4 94.3001 16.2C94.3001 15.9 94.3001 15.8 94.7001 16C94.8001 16.2 94.9001 16.5 95.2001 16.6C95.4001 16.6 95.5001 16.6 95.6001 16.6C95.8001 16.8 95.9001 16.9 95.9001 17.1C95.9001 17.3 95.9001 17.4 96.0001 17.5C96.2001 17.7 96.5001 17.8 96.7001 17.9C96.9001 18.1 96.9001 18.2 96.8001 18.5C97.0001 18.2 97.0001 17.9 97.0001 17.6C97.0001 17.4 96.8001 17.1 97.0001 17C97.2001 17 97.4001 17.1 97.5001 17.3C97.5001 17.3 97.5001 17.4 97.5001 17.5V17.7C97.5001 17.7 97.5001 17.6 97.5001 17.5C97.5001 17.2 97.5001 16.9 97.8001 16.8C97.9001 16.8 98.1001 16.5 98.1001 16.8C98.1001 17.1 98.0001 17.4 98.4001 17.5C98.5001 17.5 98.4001 17.6 98.4001 17.6C98.1001 17.6 98.4001 17.8 98.3001 17.9C98.5001 18.4 98.9001 18.2 99.2001 18.2C99.2001 18.2 99.2001 18.4 99.3001 18.4C99.8001 18.7 99.7001 19.2 99.6001 19.6C99.6001 19.8 99.6001 19.9 99.6001 20C99.8001 20.2 99.7001 20.4 99.6001 20.6C99.6001 20.7 99.6001 20.8 99.7001 20.9C99.7001 21.1 99.8001 21.2 99.6001 21.3C99.3001 21.3 99.4001 21.6 99.2001 21.8C99.0001 22.1 99.3001 22.1 99.4001 22.2C99.6001 22.6 99.6001 23 99.5001 23.4C99.5001 23.4 99.4001 23.5 99.5001 23.6C99.6001 23.7 99.9001 23.7 99.9001 23.9C99.8001 24.1 99.5001 23.9 99.4001 24.1C99.6001 24.1 99.7001 24 99.8001 24.1C99.7001 24.5 99.8001 25 99.8001 25.4C99.8001 25.6 99.8001 25.8 100 26C100 26.1 99.8001 26.4 100.1 26.4C100.2 26.4 100.2 26.5 100.2 26.6C100.2 27.5 100 28.3 99.9001 29.2C99.9001 29.2 99.9001 29.4 99.9001 29.5C100.2 29.8 100.3 30.1 100 30.4C99.9001 30.6 99.9001 30.7 100 30.9C100 31.1 99.8001 31.1 99.7001 31.3C99.7001 31.3 99.7001 31.3 99.6001 31.4C99.6001 31.6 99.1001 31.2 99.4001 31.6C99.4001 31.7 99.4001 31.9 99.4001 32C99.2001 32.2 99.4001 32.3 99.4001 32.4C99.7001 32.7 99.7001 32.9 99.3001 33.2C99.3001 33.3 99.6001 33.3 99.6001 33.5C99.6001 33.8 99.8001 34 99.6001 34.3C99.6001 34.3 99.4001 34.3 99.3001 34.3C98.8001 34.2 98.9001 34.4 99.1001 34.7C98.7001 35.5 98.7001 36.3 99.1001 37.1C99.2001 37.3 99.3001 37.5 99.3001 37.7C99.3001 37.7 99.3001 37.6 99.3001 37.5C99.4001 37.3 99.5001 37.2 99.7001 37.1C99.9001 37.1 100 37.1 100.2 37.1C100.4 37.1 100.4 37.4 100.4 37.5C100.5 37.7 100.5 38 100.8 38H100.9C100.9 38 100.9 38.1 100.9 38.2C100.9 38.4 100.6 38.4 100.7 38.6C100.7 38.6 100.9 38.7 100.9 38.8C100.9 38.9 101 39.1 101 39.2C101 39.2 101 39.3 100.9 39.4C100.7 39.4 100.6 39.7 100.5 39.9C100.8 40.3 101 40.1 101.1 39.8C101.1 39.7 101.1 39.5 101.4 39.6C101.6 39.6 101.5 39.8 101.6 39.9C101.6 40.2 101.8 40.5 101.6 40.7C102 41.2 101.8 41.8 101.8 42.3C101.8 43 101.6 43.8 101.7 44.6C101.7 44.8 101.7 45 102 45C102.3 45 102.4 44.8 102.3 44.7C102.3 44.5 102.3 44.4 102.5 44.3C102.8 44.4 102.3 44.8 102.6 44.8C102.8 44.8 102.7 44.5 102.8 44.3C102.9 44.3 103 44.3 103.1 44.3C103.4 44.4 103.3 44.2 103.3 44.1C103.3 43.8 103.3 43.5 103.5 43.3C103.6 43.3 103.7 43.3 103.8 43.4C104.2 43.4 104 42.9 104.4 42.9C104.2 43 104.4 43.3 104.2 43.4C104.2 43.4 104.1 43.5 104.2 43.5C104.5 44.1 103.7 44.8 104.2 45.4V45.5C103.9 45.8 104 46 104.3 46.2C104.5 46.2 104.3 46.4 104.3 46.6C104.3 46.9 104.3 47.3 104.1 47.7C104.1 48 103.9 48.3 104.1 48.6C104.3 48.8 104.3 49 104.3 49.3C104.3 49.6 104.5 49.7 104.6 49.9C104.7 49.6 104.6 49.2 105 49C105 49 105.1 49 105.2 49C105.2 49.4 105.2 49.8 105.1 50.1C105.1 50.3 104.9 50.4 105.3 50.4C104.9 50.5 105.9 50.6 105.3 50.8C105.3 50.8 105.1 50.9 105.3 51C105.7 51 105.3 51.4 105.6 51.5C105.7 51.5 105.9 51.7 106 51.7C106.8 51.9 106.9 52.2 106.6 53C106.5 53 106.4 53.2 106.4 53.3C106.7 53.7 106.4 54 106.2 54.2C106.1 54.2 106.2 54.4 106.2 54.5C106.2 55 105.8 55.2 105.6 55.6C105.8 55.6 106 55.4 106.1 55.3C106.2 55.3 106.4 55.2 106.4 55.4C106.2 55.4 106.7 55.9 106.2 55.7C106.2 55.7 106 55.7 106.1 55.8C106.1 56.2 105.7 56.3 105.6 56.6C105.1 57.5 104.3 58 103.6 58.7C103.5 58.8 103.4 58.9 103.4 59.1C103.4 59.1 103.4 59.1 103.3 59.2C102.8 59.5 102.4 59.8 102 60.2C101.9 60.4 101.8 60.6 101.7 60.8C101.7 60.8 101.2 60.7 101.5 61.1C101.5 61.3 101.6 61.4 101.4 61.5C101.2 61.5 101 61.5 100.8 61.5C100.7 61.5 100.5 61.6 100.5 61.8C100.5 62.1 100.5 62.4 100.2 62.7C100 62.9 99.9001 63.2 99.8001 63.5C100 63.3 100.1 63.3 100.3 63.4C100.1 63.8 100.5 64 100.5 64.3C100.5 64.6 100.2 64.7 100.4 65.1C100.5 65.3 100.2 65.3 100.1 65.4C100.1 65.4 100 65.6 99.8001 65.4C99.6001 65.4 99.5001 65.4 99.3001 65.4C99.1001 65.4 99.0001 65.3 99.1001 65.1C99.3001 64.7 99.1001 64.3 99.1001 63.9C98.5001 64.1 98.5001 64.1 98.8001 64.6C98.8001 64.7 99.0001 64.8 99.0001 64.9C99.0001 65.1 99.1001 65.3 99.0001 65.5C98.9001 65.7 98.6001 65.5 98.5001 65.5C98.4001 65.5 98.4001 65.6 98.4001 65.7C98.4001 65.9 98.2001 66.2 98.3001 66.4C98.3001 66.6 98.3001 66.7 98.0001 66.8C97.8001 66.8 97.6001 66.8 97.5001 66.8C97.5001 66.8 97.5001 66.8 97.5001 66.7C97.5001 66.7 97.5001 66.8 97.5001 66.9C97.5001 67 97.5001 66.9 97.5001 67C97.3001 67.2 97.3001 67.3 97.5001 67.4C97.8001 67.6 98.1001 67.8 97.5001 68C97.3001 68 97.3001 68.2 97.3001 68.3C97.3001 68.5 97.3001 68.6 97.3001 68.8C97.3001 69.1 96.9001 69.2 96.8001 69.5C96.8001 69.5 96.7001 69.6 96.6001 69.7C96.6001 70.1 96.0001 71.3 95.5001 71.9C95.3001 71.9 95.5001 72.1 95.4001 72.3C95.4001 72.6 95.3001 72.8 95.0001 72.9C94.8001 72.9 94.9001 73.1 94.9001 73.2C94.9001 73.5 94.9001 73.7 94.8001 73.9C94.8001 74.2 94.7001 74.4 94.7001 74.7C94.2001 74.7 94.4001 74.3 94.3001 74.1C94.0001 74.4 94.3001 74.9 94.1001 75.3L90.3001 74.2Z" fill="#EEF4F8"/>
</svg>
