<svg width="160" height="160" viewBox="0 0 160 160" fill="none" xmlns="http://www.w3.org/2000/svg">
<g id="Frame 2087327026-1" clip-path="url(#clip0_751_4182)">
<path id="Vector" d="M81.1925 3.3C79.2049 4.4 73.0434 4.9 67.6769 4.2C62.5092 3.7 57.3415 4 56.149 5.1C55.0558 6.2 52.2732 7.4 49.7887 7.6C47.3043 8.1 42.8322 10.1 39.6521 12.3C36.6707 14.3 32.8943 16.1 31.3043 16.1C29.7142 16.1 28.3229 16.8 28.3229 17.7C28.3229 18.6 23.5527 24.5 17.9875 30.8C5.16762 44.6 3.27942 49.4 2.38501 68.1C1.88812 79.6 2.88191 83.9 6.26079 88.6C9.63967 93.1 11.031 99.7 11.9254 114.1C12.8198 125.4 14.2111 132.8 15.3043 132.2C16.6956 131.3 16.8943 124.1 15.9999 114.6C14.9068 101.3 15.1055 99.2 17.59 102.2C20.7701 105.8 31.1055 111.9 38.1614 114.2C40.8446 115.1 42.0372 117.8 42.0372 123.5C42.0372 132.1 41.5403 132.5 35.0807 129.1C31.7018 127.1 30.8074 127.5 30.8074 130.2C30.8074 132.9 29.7142 133.1 28.1241 132C26.5341 131.1 27.031 133.1 29.2173 136.5C31.2049 139.7 33.0931 144.2 33.0931 146.4C33.0931 148.6 33.9875 152 35.0807 153.6C36.472 155.9 36.8695 153.6 35.9751 147.3C34.8819 139.4 35.2794 137.6 37.7639 138.5C39.5527 139 41.1428 142.3 41.6397 145.5C42.5341 152.9 45.913 153.6 45.7142 146.4C45.5154 142.8 46.8074 141.4 49.9875 141.4C53.1676 141.4 54.7577 143.2 55.1552 148.2C55.6521 151.8 56.944 155.9 58.3353 157.2C59.9254 158.8 60.3229 156.5 59.2297 150C57.8384 140.5 60.621 136.7 63.3043 143.9C65.0931 148.4 69.1676 145.7 69.1676 140.1C69.1676 134.5 70.5589 135.6 74.3353 136.3C77.5154 136.8 79.3043 138.6 79.3043 141.3C79.3043 144 80.6956 146 82.2856 146.5C83.8757 147.2 84.9689 145.4 84.9689 142C84.9689 138.6 86.5589 135.7 89.2422 134.8C95.6024 132.8 101.168 135.9 100.074 140.7C99.3788 143.2 99.8757 144.5 100.969 143.6C102.062 142.9 102.956 143.6 102.956 145C102.956 149.1 108.124 146.4 108.82 141.8C110.211 133 112 135.9 112 146.8C112 157.7 113.093 159 114.683 159.9C116.472 161 116.969 158.1 115.776 148.4C114.882 138.7 115.081 136 117.168 138C121.043 141.8 123.23 140.9 123.23 136C123.23 131.1 124.323 131.5 125.714 131.5C127.106 131.5 127.503 132.4 126.807 133.3C126.112 134.4 126.609 138.3 127.702 141.9L129.491 148.4L129.689 140C129.888 135.5 131.081 131.4 132.373 131C133.963 130.5 135.751 122.6 136.646 113.4C137.54 102.1 139.826 93.1 143.404 86.3C148.571 76.8 149.068 76.6 150.36 81.8C151.751 86.5 151.95 86.3 152.149 79.1C152.348 74.6 153.242 70.3 154.633 69.4C155.727 68.7 156.224 66.7 155.329 64.9C154.633 63.1 155.329 61.5 156.72 61.5C158.112 61.5 158.708 60.1 157.217 57.2C155.826 54.9 155.627 52.5 156.323 51.6C157.019 50.9 156.124 50.2 154.037 50.2C151.95 50.2 150.161 48.8 150.161 47.3C150.161 43.5 132.074 24.9 123.925 20.9C120.348 19.1 116.671 16.6 115.776 15.3C114.882 14.2 113.987 13.9 113.987 15.1C113.987 16.3 111.006 13.7 107.23 9.7C103.652 5.6 100.472 3.2 100.472 4.1C100.472 5 99.0807 4.8 97.4906 3.4C94.1117 0.500002 86.1614 0.700002 80.9937 3.6L81.1925 3.3ZM62.2111 17.1C62.2111 14.2 73.5403 13.7 82.0869 16.4C87.7515 18.2 89.3415 20 89.5403 24.8L89.7391 30.9L91.5279 25.3C92.4223 22.1 93.3167 20.6 93.5154 21.7C93.7142 22.8 95.3043 22.4 97.0931 20.8C99.5776 18.5 101.366 18.5 103.155 20.3C104.547 21.7 107.031 22.1 109.019 21.4C110.807 20.5 113.491 21.4 114.882 23.4C116.273 25.2 120.547 28.6 124.621 30.9C128.497 33.2 132.77 37.4 134.062 40.4C135.453 43.1 137.242 45.6 138.335 45.6C139.428 45.6 139.727 49.2 139.23 53.7C138.534 59.8 137.441 61.4 134.46 60.2C132.472 59.5 133.366 60.9 136.248 63.4C146.385 71.1 143.702 81.2 129.689 88.5C122.733 92.1 121.342 92.1 118.658 89.2C115.677 86 115.081 86 112.298 89.9C109.615 93.7 109.317 93.7 109.317 89.4C109.317 85.1 111.801 84 116.074 82.4C125.317 79 125.317 69.1 116.273 58.9C110.609 52.8 109.019 52.1 106.137 54.4C104.149 56.2 103.155 58.2 103.851 59.4C104.547 60.5 103.354 61.4 101.565 61.4C99.7763 61.4 97.6894 63.2 97.6894 65.2C96.5962 83.7 96.795 87.8 99.4782 86.9C101.267 86.2 102.46 87.8 102.658 91L102.857 96.4L104.646 90.8C105.838 87.2 106.501 87.6667 106.633 92.2C106.832 96.3 108.224 99.9 110.211 100.8C112.199 101.5 113.59 104.9 113.59 108.9C113.59 112.9 114.484 115.4 116.074 114.3C117.466 113.6 118.062 110.9 117.466 108.7C116.77 106.2 117.267 104.4 118.559 104.4C122.137 104.4 118.36 120.9 114.087 124C108.621 128.5 107.13 127.6 105.54 119C103.95 110.4 102.161 109.3 97.8881 114.5C95.9005 117 95.9005 117.9 97.6894 117.9C99.4782 117.9 99.6769 119 98.5838 120.8C97.6894 122.2 96.795 124.4 96.795 125.8C96.795 127.2 94.1117 128.3 90.7328 128.7C85.0682 129.4 84.3726 128.7 84.3726 122.6C84.3726 113.3 80.2981 111.5 79.4036 120.3C78.9068 125.3 77.1179 128 73.739 129.3C68.7701 131.1 68.5714 130.7 68.5714 121.4C68.5714 112.1 67.4782 111 65.1925 110.1C63.4036 109.4 62.0123 109.6 62.0123 110.6C62.2111 111.5 62.2111 115.8 62.0123 120.3C61.8136 127.7 61.1179 128.7 55.2546 129.6L48.4968 130.5L49.59 119.4C50.0869 113.5 50.9813 107.7 51.3788 106.8C52.0745 105.9 49.9875 105 47.1055 104.8C44.1241 104.6 41.0434 105.5 40.149 106.8C39.2546 108.4 36.7701 107.3 33.1925 103.9C30.2111 101 27.3291 98.9 26.6335 99.2C26.1366 99.7 25.739 99.4 25.739 98.7C25.739 98 23.7515 95.5 20.9689 92.8C18.4844 90.3 16.8943 86.7 17.59 85.1C18.2856 83.3 17.7887 81.7 16.4968 81.3C13.8136 80.4 12.0248 55.1 14.708 53.3C15.8012 52.6 16.6956 50.4 16.6956 47.9C16.6956 43.4 34.9813 23.1 39.7515 22.2C41.3415 22 45.8136 20.2 49.4906 18.1C54.2608 15.6 57.1428 15.2 59.2297 16.7C60.621 18.1 61.913 18.3 61.913 17.2L62.2111 17.1ZM108.522 70.4C107.826 71.5 108.025 72.7 109.416 72.7C110.807 72.7 112.099 71.3 112.795 69.8C113.292 68.4 113.491 69.6 112.994 72.7C112.795 76.1 111.205 78.1 109.416 77.7C103.354 76.1 101.963 68.2 107.627 68.2C113.292 68.2 109.217 69.1 108.522 70.5V70.4ZM134.261 106.9C133.764 116.4 131.081 123.4 127.901 124.1C125.615 124.6 125.217 123 126.31 117.6C127.006 113.8 127.702 108.6 127.702 106.3C127.702 104 129.292 102 131.081 102C132.869 102 134.46 104 134.261 107V106.9Z" fill="#00A3FF"/>
<path id="Vector_2" d="M55.4534 31.5C39.1552 36 33.0931 42.1 32 55.9C31.1056 66.5 41.2422 88 48 89.8C50.6832 90.5 53.4658 93.4 53.8633 95.9C54.559 99.7 54.9565 99.5 55.2546 94.5C55.4534 87 60.0248 88.4 60.0248 95.9C60.0248 103.4 60.9192 102.2 61.8136 103.8C62.9068 105.4 63.6025 102 63.6025 96.1C63.4037 89.6 64.4969 85 66.2857 84.6C68.0745 83.9 68.9689 86.9 68.9689 95C68.9689 103.1 70.0621 107 71.2546 107.6C72.6459 108.5 73.5403 103.5 73.7391 94.7L73.9379 80.5L77.118 89.5L80.0993 98.5L79.9006 86.8C79.7018 80 80.795 73.7 82.5838 71.7C86.8571 66.3 84.3726 46.6 78.3105 40.1C75.8261 37.4 74.236 34.2 75.1304 33.1C76.2236 32.2 75.6273 32 74.236 32.9C72.6459 33.8 69.9627 33.8 68.5714 32.9C65.1925 30.6 60.0248 30.2 55.4534 31.5ZM66.9813 39.9C70.559 41.9 73.0434 44.4 72.4472 45.5C71.5528 46.9 71.9503 47.8 72.9441 47.8C75.9254 47.8 80.3975 61.1 77.913 62.7C76.8198 63.4 76.323 64.7 77.0186 65.9C77.7143 66.8 75.4285 69.3 72.2484 71.3C67.9751 74.2 64.0993 74.7 56.4472 73.6C43.8261 71.8 38.1615 66.6 39.5528 58.5C39.7515 57.6 40.0497 55.1 40.4472 52.9C41.8385 44.5 47.2049 40 59.6273 36.9C60.1242 36.7 63.2049 38.3 67.0807 40.1L66.9813 39.9Z" fill="#00A3FF"/>
</g>
<defs>
<clipPath id="clip0_751_4182">
<rect width="160" height="160" fill="white"/>
</clipPath>
</defs>
</svg>
