<svg width="107" height="221" viewBox="0 0 107 221" fill="none" xmlns="http://www.w3.org/2000/svg">
<path id="Vector" d="M16.6999 146.8C16.6999 146.8 16.6999 146.8 16.6999 146.7C16.6999 146.5 16.6999 146.3 16.9999 146.4C17.1999 146.4 17.0999 146.6 17.1999 146.8C17.2999 146.1 17.1999 145.4 17.4999 144.8C17.4999 144.8 17.4999 144.6 17.5999 144.6C17.9999 144.4 18.0999 144.1 18.1999 143.6C18.1999 143.3 18.2999 142.8 18.6999 142.7C18.8999 142.7 19.0999 142.7 19.0999 142.4C19.0999 141.8 19.3999 141.2 19.4999 140.5C19.4999 140.5 19.4999 140.4 19.4999 140.3C19.4999 140.2 19.5999 140 19.6999 139.9C19.6999 139.8 19.8999 139.6 20.0999 139.8C20.0999 139.8 20.0999 139.8 20.0999 139.7C19.8999 139.3 20.0999 138.9 20.2999 138.5C20.2999 138.3 20.4999 138.2 20.6999 138.3C20.8999 138.3 20.8999 138.5 20.8999 138.7C20.8999 138.8 20.6999 139 21.0999 138.9C21.1999 138.9 21.2999 139.1 21.2999 139.2C21.2999 139.5 21.2999 139.7 21.6999 139.8C21.9999 139.9 21.7999 140.2 21.6999 140.3C21.6999 140.3 21.3999 140.3 21.3999 140.4C21.3999 140.6 21.5999 140.6 21.6999 140.6C21.8999 140.6 22.0999 140.7 22.2999 140.6C21.8999 140.4 21.9999 140.2 22.2999 140C22.0999 140 21.8999 140 21.7999 139.8C21.7999 139.6 21.7999 139.5 21.9999 139.4C22.2999 139.3 22.0999 139 22.1999 138.8V138.7C22.7999 138.7 22.4999 139.3 22.5999 139.5C22.5999 139.3 22.5999 139 22.8999 139C23.1999 139.1 23.5999 139.5 23.7999 138.8C23.7999 138.6 24.0999 138.8 24.1999 138.9C24.1999 138.6 24.5999 138.3 24.4999 137.9C24.4999 137.9 24.4999 137.8 24.4999 137.7C24.4999 137.1 24.9999 136.9 25.3999 136.8C25.5999 136.3 25.5999 135.8 25.5999 135.3C25.5999 135.2 25.5999 135.1 25.3999 135C24.9999 135 25.0999 134.7 25.1999 134.4C25.1999 134.2 25.3999 134.1 25.5999 134.1C25.1999 134.1 24.9999 134.1 25.0999 133.6C25.0999 133.6 25.0999 133.6 25.1999 133.6C25.9999 133.6 26.0999 133.3 25.6999 132.5C25.5999 132.3 25.5999 132.1 25.6999 131.9C25.6999 131.9 25.8999 131.9 25.9999 131.8C26.0999 131.4 26.2999 130.9 26.2999 130.4C26.2999 129.9 26.3999 129.5 26.4999 129C26.3999 129.1 26.3999 129.2 26.2999 129.3C26.1999 129.4 26.0999 129.5 25.8999 129.4C25.6999 129.4 25.6999 129.2 25.7999 129C25.7999 128.7 25.9999 128.4 26.1999 128.2C26.3999 128 26.4999 127.8 26.4999 127.5C26.1999 127.8 25.7999 127.9 25.4999 128.1C25.2999 127.7 24.8999 127.8 24.6999 127.4C24.5999 127.7 25.2999 128.2 24.4999 128.3C24.4999 128.3 24.3999 128.3 24.2999 128.3C24.0999 128.3 23.8999 128.4 23.6999 128.3C23.7999 128.7 23.8999 129.1 24.3999 129C24.3999 129.1 24.3999 129.3 24.3999 129.4C24.3999 129.5 24.3999 129.9 24.7999 129.7C24.8999 129.7 25.0999 129.7 25.1999 129.9C25.3999 130.2 25.5999 130.3 25.7999 130.5C25.9999 130.5 26.1999 130.8 25.7999 130.9H25.5999C25.2999 130.9 25.5999 131.1 25.5999 131.2C25.5999 131.2 25.5999 131.3 25.5999 131.4C25.5999 131.6 25.4999 131.7 25.2999 131.7C25.0999 131.7 24.8999 131.7 24.6999 131.9C24.3999 132.1 24.2999 132 24.2999 131.6C24.2999 131.1 24.1999 130.8 23.5999 130.8C23.2999 130.8 22.9999 130.7 22.6999 130.5C22.1999 130.5 22.0999 130.2 22.0999 129.7C22.0999 129.1 21.8999 128.7 21.2999 128.5C21.1999 128.5 20.7999 127.4 20.8999 127.3C20.9999 127.2 21.1999 127.2 21.2999 127.3C21.4999 127.3 21.5999 127.5 21.7999 127.5C22.0999 127.5 21.8999 126.9 22.3999 127.2C22.6999 127.4 22.7999 127.7 22.6999 128.1C22.6999 127.9 22.8999 127.8 23.0999 127.7C22.9999 127.5 22.6999 127.4 22.6999 127.2C22.6999 127 22.7999 126.9 22.9999 126.8C23.2999 126.7 23.5999 126.8 23.8999 126.8C24.0999 126.8 24.3999 126.8 24.1999 126.4V126.3C24.4999 126.3 24.7999 126.1 25.0999 126.3C25.2999 126.5 25.1999 126.3 25.1999 126.3C25.1999 126.2 25.1999 126 24.9999 126C24.7999 126 24.6999 126 24.5999 126.1C24.4999 126.2 24.3999 126.2 24.1999 126.1C23.9999 125.9 23.8999 125.7 23.7999 125.5C23.7999 125.5 23.7999 125.4 23.7999 125.3C23.7999 124.9 23.5999 124.5 23.0999 124.3C22.8999 124.3 22.7999 124.1 22.8999 123.9C22.7999 123.9 22.5999 123.7 22.4999 123.7C22.1999 123.7 22.4999 124.1 22.1999 124.1C21.8999 124.1 21.5999 124.1 21.5999 123.6C21.5999 123.5 21.5999 123.3 21.3999 123.3C21.1999 123.3 20.9999 123.5 20.9999 123.5C20.9999 124 20.5999 124.6 20.9999 125.1C20.7999 125.7 20.7999 125.7 20.0999 125.5C19.9999 125.5 19.7999 125.5 19.7999 125.5C19.5999 125.8 19.0999 125.8 18.8999 126.2C18.6999 126.6 18.1999 126.6 17.7999 126.4C17.7999 126.2 17.6999 126.1 17.5999 125.9C17.3999 125.9 17.2999 125.6 17.1999 125.4C17.1999 125.3 17.3999 125.2 17.3999 125.1C17.1999 124.9 16.9999 125.2 16.8999 125.1C17.0999 124.9 17.0999 124.6 17.4999 124.5C17.6999 124.5 17.7999 124.3 17.8999 124.6C17.8999 124.8 18.0999 124.6 18.1999 124.6C18.4999 124.3 18.7999 124.1 19.1999 124.4C19.3999 124.6 19.5999 124.4 19.5999 124.1C19.5999 123.8 19.5999 123.6 19.8999 123.6C19.8999 123.6 19.8999 123.6 19.9999 123.6C20.2999 123.1 19.5999 122.9 19.6999 122.5C19.6999 122.5 19.2999 122.3 19.1999 122.7C18.9999 122.8 18.9999 122.5 18.8999 122.5C18.6999 122.2 18.5999 122 18.6999 121.6C18.6999 121.5 18.6999 121.3 18.5999 121.3C18.3999 121 18.5999 120.9 18.7999 120.9C19.2999 121 19.8999 120.7 20.0999 121.4C20.3999 120.9 20.5999 120.9 21.0999 121.4C21.0999 120.9 20.3999 120.4 19.8999 120.7C19.5999 120.9 19.2999 121 18.8999 120.9C18.6999 120.9 18.5999 121.1 18.3999 121C17.9999 121.2 17.6999 121 17.2999 121.1H17.0999C17.2999 120.5 16.7999 120.6 16.4999 120.6C16.4999 120.6 16.2999 120.6 16.1999 120.6C15.8999 120.6 15.4999 120.6 15.3999 120.3C15.3999 119.9 15.8999 119.3 16.1999 119.3C16.6999 119.3 17.1999 119.2 17.6999 119.3C17.8999 119.3 18.1999 119.3 17.9999 118.9C17.7999 118.6 17.4999 118.4 17.1999 118.2C17.0999 118.2 16.8999 118.1 17.0999 117.8C17.2999 117.5 17.3999 117.7 17.4999 117.8C17.6999 117.8 17.7999 118.1 17.8999 117.9C17.9999 117.8 18.2999 117.9 18.2999 117.7C18.2999 117.6 18.2999 117.5 18.0999 117.5C17.8999 117.5 17.6999 117.3 17.6999 117.6C17.6999 117.6 17.5999 117.8 17.4999 117.6C17.0999 117 16.5999 117.4 15.8999 117.4C16.4999 116.9 16.1999 116.7 15.8999 116.5C16.5999 116.5 16.8999 115.6 17.7999 116.1C17.6999 115.7 17.3999 115.7 17.2999 115.3C17.2999 114.9 17.0999 114.6 17.4999 114.3C17.8999 114.1 17.7999 113.9 17.4999 113.6C17.8999 113.5 17.9999 114 18.2999 113.9C18.5999 113.4 17.7999 113.3 17.9999 112.8C18.5999 113.2 19.1999 113.3 19.7999 113.3C19.7999 113.3 19.9999 113.3 19.9999 113.5C19.9999 114 19.5999 114.2 18.9999 114.2C18.9999 114.2 18.9999 114.2 18.7999 114.2C18.7999 114.2 18.7999 114.2 18.8999 114.2C19.0999 114.2 19.1999 114.3 19.0999 114.5C18.9999 114.8 18.7999 114.8 18.3999 114.8C18.5999 114.9 18.7999 115 18.9999 115C19.5999 115 19.9999 115.5 19.9999 116.1C19.9999 116.3 19.9999 116.4 19.7999 116.4C19.4999 116.4 19.7999 116.6 19.7999 116.7C19.7999 116.8 19.8999 116.9 20.0999 116.7C20.4999 116.4 20.8999 116.7 20.8999 117.1C20.8999 117.1 20.8999 117.2 20.8999 117.3C20.8999 117.9 20.8999 118.5 21.3999 119C21.3999 119.2 21.3999 119.4 21.3999 119.6C21.5999 119.2 21.7999 119.3 22.0999 119.3C22.1999 119.3 22.3999 119.3 22.4999 119.5C22.4999 119.6 22.4999 119.7 22.4999 119.8C22.4999 119.9 22.2999 120.1 22.4999 120.2C22.5999 120.2 22.6999 120.2 22.7999 120.2C22.9999 120.2 22.9999 120 22.8999 119.8V119.6C22.8999 119.6 22.8999 119.6 22.9999 119.5C23.1999 119.4 23.3999 119.7 23.4999 119.5C23.4999 119.4 23.8999 119.5 23.5999 119.2C23.3999 119 23.3999 119.1 23.1999 119.2C23.1999 119.2 23.0999 119.2 22.9999 119.2C22.7999 119.2 22.5999 119.2 22.3999 119.2C22.1999 119.2 21.9999 119.4 21.7999 119.2C21.6999 119 21.9999 118.8 21.9999 118.6C21.9999 118.6 21.9999 118.6 21.9999 118.5C22.1999 118.3 22.3999 118.5 22.4999 118.5C22.6999 118.5 22.8999 118.5 23.0999 118.5C23.3999 118.4 23.0999 118.2 23.0999 118C23.0999 117.7 23.4999 117.7 23.4999 117.4C23.4999 117.4 23.5999 117.2 23.6999 117.2C23.9999 117 24.1999 116.7 24.5999 116.8C24.8999 116.8 25.2999 116.8 25.4999 116.5C25.4999 116.4 25.6999 116.5 25.7999 116.6C25.7999 116.8 25.8999 116.6 25.9999 116.6C26.3999 116.3 26.3999 115.9 26.4999 115.5C27.0999 115.1 27.1999 115.1 27.4999 115.5C27.4999 115.7 27.2999 115.8 27.2999 116C27.2999 116.1 27.3999 116.2 27.4999 116.3C27.5999 116.5 27.6999 116.6 27.7999 116.8C27.7999 117 27.8999 117.2 27.7999 117.4C27.5999 117.7 28.0999 117.4 27.9999 117.7C27.9999 117.9 27.5999 117.9 27.5999 118.1C27.7999 117.9 28.0999 117.7 28.0999 117.3C28.0999 117.3 28.0999 117.1 28.2999 117.1C28.3999 117.1 28.4999 117.1 28.5999 117.3C28.5999 117.5 28.5999 117.6 28.6999 117.9C28.8999 117.7 28.9999 117.6 29.1999 117.9C28.9999 117.6 28.4999 117.4 28.7999 116.9C28.8999 116.7 29.0999 116.9 29.2999 116.9C29.2999 116.7 29.2999 116.5 29.2999 116.4C29.2999 116.3 29.1999 116.1 28.8999 116.2C28.4999 116.4 28.2999 116.2 28.1999 115.7C28.3999 115.4 27.9999 115.4 27.9999 115.3C27.8999 115.1 27.7999 114.9 27.5999 114.7C27.4999 115.4 26.9999 115.1 26.5999 115.2C25.9999 115 26.0999 115.5 25.8999 115.8C25.5999 116 25.2999 116 24.9999 116.2C24.8999 116.4 24.5999 116.3 24.4999 116.1C24.4999 115.9 24.1999 115.6 24.5999 115.5C24.7999 115.3 24.4999 115.3 24.4999 115.2C24.3999 115 24.1999 115.2 23.9999 115.2C24.4999 115.8 23.7999 116 23.5999 116.4C23.2999 116.9 22.6999 116.9 22.1999 117C21.6999 117.1 21.3999 117 21.3999 116.4C21.3999 116.3 21.3999 116.1 21.3999 116C21.2999 115.7 21.3999 115.6 21.6999 115.6C22.0999 115.6 22.3999 115.6 22.2999 115.1C22.2999 114.9 22.2999 114.8 22.5999 114.8C22.7999 114.8 22.8999 114.8 23.0999 114.6C23.2999 114.4 23.4999 114.5 23.6999 114.4C23.4999 114.4 23.2999 114.2 22.9999 114.2C22.7999 114.2 22.6999 114.1 22.5999 113.9C22.5999 113.7 22.5999 113.6 22.7999 113.6C22.6999 113.6 22.4999 113.6 22.3999 113.6C22.1999 113.6 22.0999 113.4 21.8999 113.4C21.6999 113.4 21.3999 113.2 21.6999 112.9C21.8999 112.8 21.8999 112.6 21.8999 112.4C21.8999 112.1 21.8999 111.9 21.4999 112C21.2999 112 20.9999 112 20.7999 112.1C20.2999 112.1 19.8999 112.3 19.3999 112.1C19.3999 111.6 19.1999 111.4 18.6999 111.5C18.4999 111.5 18.1999 111.7 18.0999 111.4C18.0999 111 18.4999 110.9 18.8999 110.8C18.4999 110.4 18.1999 110.8 17.7999 110.8C17.1999 110.9 16.6999 110.6 16.3999 109.9C16.3999 109.8 16.3999 109.5 16.3999 109.6C16.8999 109.7 16.7999 109.3 16.9999 109.1C17.0999 109.1 17.1999 109.1 17.1999 109.1C17.3999 109 17.5999 109.1 17.6999 109.1C17.8999 109.2 17.6999 109.3 17.6999 109.4C17.6999 109.5 17.5999 109.7 17.7999 109.7C17.9999 109.5 18.3999 109.7 18.3999 109.3C18.3999 108.9 17.9999 109.2 17.7999 109.1C17.7999 108.8 17.4999 108.8 17.4999 108.5C17.8999 107.9 17.2999 108 16.9999 107.9C17.3999 107.5 17.7999 107.8 18.1999 107.7C18.2999 107.7 18.4999 107.7 18.4999 107.6C18.4999 107.6 18.4999 107.5 18.4999 107.4C18.3999 107.3 18.2999 107.4 18.0999 107.4C17.9999 107.4 17.8999 107.4 17.7999 107.5C17.9999 107.1 17.9999 107.1 17.1999 107C17.3999 106.8 17.5999 106.8 17.7999 106.9C18.1999 106.9 18.3999 106.6 18.5999 106.4C18.6999 106.3 18.5999 106.2 18.4999 106.1C18.2999 105.9 18.0999 106.1 17.8999 106.2C17.7999 106.2 17.8999 106.6 17.5999 106.4C17.4999 106.3 17.3999 106 17.5999 105.8C17.7999 105.4 18.1999 105.2 18.4999 104.8C18.6999 104.5 18.8999 104.5 19.1999 104.7C19.1999 104.7 19.1999 104.7 19.2999 104.8C19.2999 105 19.2999 105.3 19.6999 105.2C19.8999 105.2 19.9999 105.3 20.0999 105.5C20.0999 105.7 20.1999 106 19.9999 106.1C19.7999 106.1 19.5999 106 19.3999 106.1C19.2999 106.2 18.9999 106.3 18.9999 106.5C18.9999 106.7 19.2999 106.8 19.5999 106.7H19.7999C19.8999 106.7 20.0999 106.7 20.1999 106.9C20.1999 107 20.1999 107.1 19.9999 107.1C19.7999 107.4 20.0999 107.2 20.1999 107.3C20.3999 107.3 20.4999 107.3 20.6999 107.4C21.0999 107.6 21.1999 108.1 20.8999 108.5C20.7999 108.6 20.4999 108.6 20.7999 108.9C20.9999 109 20.5999 109.1 20.5999 109.3C20.8999 109.3 20.7999 108.8 21.0999 108.8C21.2999 108.8 21.5999 108.8 21.7999 108.6C22.0999 108.4 22.0999 107.9 22.7999 107.9C22.2999 107.8 22.0999 108.4 21.7999 107.9C21.7999 107.9 21.7999 107.8 21.5999 107.8C21.4999 107.8 21.3999 107.8 21.3999 107.7C21.1999 107.3 20.7999 107.1 20.4999 106.9C20.2999 106.6 20.1999 106.4 20.4999 106.1C20.6999 105.9 20.6999 105.6 20.5999 105.4C20.5999 105.2 20.5999 104.9 20.8999 104.7C20.8999 104.7 20.9999 104.5 21.0999 104.5C21.3999 104.4 21.3999 104.6 21.3999 104.8C21.5999 105.4 21.8999 104.9 22.0999 104.8C22.3999 104.4 22.6999 104.5 22.9999 104.8C23.2999 105 23.5999 105.1 23.8999 104.8C24.0999 104.6 24.0999 104.4 23.8999 104.3C23.6999 104.3 23.2999 104.3 23.1999 104C23.1999 103.6 23.1999 103.3 23.4999 103C23.6999 102.8 23.6999 102.6 23.5999 102.3C23.4999 102 23.5999 101.8 23.8999 101.7C23.4999 101.4 23.1999 101.2 22.6999 101.2C21.8999 101.2 21.2999 100.9 20.7999 100.4C20.5999 100.2 20.5999 99.8 20.1999 99.6C19.7999 99.4 19.4999 99.2 18.9999 99.6C18.7999 99.8 18.5999 99.6 18.5999 99.4C18.5999 99 18.1999 99.2 17.9999 99.2C17.7999 99.2 17.6999 99.3 17.4999 99.2C17.1999 98.7 16.5999 98.6 16.0999 98.4C15.7999 98.4 15.4999 98.2 15.3999 97.8C15.2999 97.3 14.8999 97.3 14.3999 97.3C14.6999 97.1 14.8999 97.1 15.0999 97.2C15.5999 97.4 15.8999 97.3 16.1999 96.8C16.2999 96.7 16.5999 96.6 16.7999 96.7C17.3999 96.8 17.1999 96.2 17.4999 96V95.9C16.7999 96.1 16.8999 95.3 16.4999 95.1C16.2999 95.1 16.4999 94.4 16.4999 94.2C16.6999 93.9 16.8999 94.2 17.0999 94.4C17.0999 94.4 17.0999 94.6 17.2999 94.5C17.5999 94.3 17.9999 94.1 18.2999 94C18.4999 93.9 18.7999 94 18.8999 93.7C18.8999 93.5 19.3999 93.5 19.4999 93.9C19.4999 93.9 19.4999 94 19.4999 94.1C19.3999 93.6 19.6999 93.5 19.9999 93.4C19.9999 93.5 20.1999 93.7 20.3999 93.6C20.4999 93.6 20.6999 93.4 20.5999 93.2C20.5999 93.2 20.5999 93.1 20.5999 93C20.5999 93 20.6999 93 20.7999 93C20.9999 93.2 21.0999 93.4 21.2999 93.6C21.5999 94 22.0999 94.1 22.2999 94.5C22.2999 94.6 22.4999 94.6 22.6999 94.5C22.8999 94.5 23.0999 94.5 23.1999 94.7C23.0999 94.4 22.7999 94.4 22.5999 94.4C22.3999 94.4 22.2999 94.4 22.2999 94.1C22.2999 93.9 22.4999 93.9 22.5999 93.9C22.5999 93.9 22.8999 93.9 22.7999 93.8C22.5999 93.3 22.3999 92.8 22.0999 92.3C21.8999 92 21.6999 92.3 21.3999 92.3C21.1999 92.3 21.0999 92.3 20.8999 92.3C20.7999 92.3 20.6999 92.3 20.6999 92.4C20.6999 92.6 20.5999 92.6 20.4999 92.4C20.2999 91.9 19.7999 91.9 19.3999 91.7C19.3999 91.5 20.4999 91.3 19.3999 91.2C19.2999 91.2 19.3999 91.1 19.3999 91C19.5999 91 19.4999 90.6 19.5999 90.7C19.6999 90.9 19.9999 90.7 19.9999 90.9C19.9999 91.5 20.3999 91.7 20.8999 91.8C20.9999 91.6 20.9999 91.3 21.3999 91.5C21.6999 91.6 21.6999 91.4 21.6999 91.1C21.4999 90.6 21.1999 90.4 20.6999 90.4C20.6999 90.2 20.3999 90.1 20.6999 90C21.1999 90 21.1999 89.7 20.9999 89.4C20.0999 87.7 19.4999 85.9 18.6999 84.1C18.3999 83.5 18.0999 82.9 17.7999 82.2C17.4999 81.4 17.5999 81.4 18.4999 81.2C18.5999 81.2 18.6999 81.3 18.6999 81.5C18.6999 81.8 18.6999 81.9 18.2999 81.9C18.7999 82.5 18.7999 83.3 19.3999 83.9C19.1999 83.3 18.5999 82.9 18.8999 82.2C18.8999 82.2 18.9999 82.2 19.0999 82.2C19.5999 82.6 19.8999 83.1 20.3999 83.5C20.5999 83.5 20.5999 84.2 20.9999 83.7C20.9999 83.7 21.1999 83.7 21.1999 83.8C20.7999 84.5 21.4999 84.9 21.6999 85.3C21.8999 85.1 21.5999 85 21.6999 84.7C21.8999 85 22.3999 84.7 22.5999 85.1C20.8999 81.6 19.1999 78.1 17.3999 74.7C17.3999 74.7 17.3999 74.5 17.3999 74.4C17.5999 74.4 17.6999 74.5 17.7999 74.6C18.3999 75 18.4999 75.7 18.8999 76.2C19.6999 77.5 20.4999 78.9 21.0999 80.2C21.5999 81.1 22.0999 82 22.5999 82.9C22.6999 83 22.7999 83.2 22.8999 83.3C23.4999 84.2 23.7999 85.2 24.2999 86.2C24.3999 86.4 24.4999 86.7 24.8999 86.7C24.5999 86.3 24.6999 85.7 24.0999 85.4C23.8999 85.3 23.9999 85 24.0999 84.8C24.2999 84.6 24.4999 84.8 24.6999 85C24.3999 84.6 24.3999 84 23.7999 83.8C23.5999 83.8 23.7999 83.5 23.7999 83.4C24.0999 82.9 24.0999 82.4 23.7999 82C23.7999 82 23.7999 81.9 23.7999 81.8C23.9999 81.8 24.0999 81.8 24.1999 81.8C24.3999 82 24.5999 82.4 24.8999 82.5C24.6999 82.3 24.6999 82.1 24.8999 82.1C25.4999 82 25.0999 81.8 24.8999 81.6C24.3999 81.6 23.8999 81.3 23.3999 81.6C23.1999 81.6 23.1999 81.4 23.0999 81.3C22.8999 81 23.1999 80.5 22.6999 80.4C22.6999 80.4 22.6999 80.2 22.4999 80.4C22.0999 80.9 22.0999 80.5 21.9999 80.2C21.9999 80.1 21.9999 80 21.9999 79.9C21.9999 79.5 22.1999 79.4 22.5999 79.4C23.2999 79.4 23.2999 80.1 23.6999 80.6C23.8999 80 23.6999 79.4 23.1999 79.2C22.9999 79.1 22.8999 78.9 23.0999 78.7C23.2999 78.4 23.1999 78.2 23.0999 78C22.6999 77.6 22.4999 77.1 22.3999 76.6C22.2999 76.2 21.9999 75.9 21.8999 75.5C21.8999 75.3 21.7999 75.1 21.9999 75C22.2999 75 22.3999 75.3 22.4999 75.6C22.9999 76.5 23.5999 77.4 24.0999 78.3C24.0999 78.3 24.0999 78.4 24.1999 78.3C23.6999 77.7 23.4999 76.9 23.0999 76.3C23.0999 76.3 23.0999 76.1 23.0999 76C23.3999 75.7 23.4999 76 23.5999 76.2C23.9999 76.9 24.4999 77.5 24.8999 78.1C25.0999 78.3 24.9999 78.8 25.4999 78.7H25.6999C25.9999 78.7 25.9999 79.2 26.2999 79.4C26.2999 79.4 26.2999 79.5 26.2999 79.6C26.2999 79.6 26.2999 79.5 26.1999 79.4C26.0999 79.2 25.9999 79 26.1999 79C26.4999 79 26.3999 78.8 26.3999 78.6C26.1999 77.7 25.8999 76.8 25.6999 75.9C25.5999 75.3 25.0999 74.9 25.0999 74.3C25.0999 74.2 24.9999 74.1 24.7999 74.1C24.3999 74.1 24.2999 73.8 24.2999 73.5C24.2999 73.2 24.2999 73 24.2999 72.7C24.2999 71.9 23.7999 71.4 22.9999 71.3C22.8999 71.3 22.6999 71.3 22.6999 71.3C22.2999 71.8 21.8999 71.5 21.4999 71.3C21.2999 71.3 21.1999 71.2 21.1999 71.4C21.0999 71.8 20.8999 71.7 20.6999 71.4C20.4999 71.1 20.2999 70.7 20.1999 70.4C20.1999 70.3 20.3999 70.1 20.0999 70.1C19.6999 69.5 19.2999 68.9 18.9999 68.2C18.9999 68 18.8999 67.9 18.6999 67.8C18.6999 67.9 18.8999 68 18.8999 68.1C18.9999 68.9 19.5999 69.5 19.8999 70.2C20.0999 70.6 20.4999 71 20.3999 71.5C20.3999 71.5 20.3999 71.6 20.1999 71.7C19.5999 71.1 19.1999 70.4 18.6999 69.7C18.4999 69.4 18.3999 69.1 18.0999 68.9C17.7999 68.8 18.0999 68.5 18.0999 68.4C18.2999 68 17.7999 67.9 17.6999 67.7C17.3999 67.3 17.0999 66.9 16.8999 66.4C16.6999 66 16.3999 65.6 15.9999 65.5C15.6999 65.5 15.6999 65.2 15.8999 65C16.1999 64.6 16.0999 64.2 15.5999 64.1C15.1999 64 14.8999 63.9 14.9999 63.3C14.9999 63.2 14.9999 63.1 14.7999 63.1C14.5999 63.1 14.3999 63 14.1999 63C13.5999 63 13.5999 63 13.8999 62.4C13.7999 62.4 13.5999 62.4 13.4999 62.4C13.3999 62.4 13.4999 62.2 13.3999 62.1C13.1999 61.9 13.3999 61.6 13.1999 61.4L13.2999 61.2C13.6999 61.4 13.5999 60.9 13.7999 60.8C13.5999 60.6 13.3999 60.9 13.1999 60.8C13.3999 60.6 13.5999 60.5 13.1999 60.4C12.9999 60.4 13.1999 60.3 13.1999 60.2C13.3999 59.7 12.9999 59.6 12.6999 59.5C12.6999 59.5 12.6999 59.5 12.5999 59.4C12.5999 59.3 12.5999 59.2 12.7999 59.2C12.2999 58.7 12.2999 57.9 11.7999 57.5C11.4999 56.9 11.0999 56.3 10.8999 55.6C10.8999 55.5 10.8999 55.4 10.8999 55.3C11.3999 55.5 11.4999 55.9 11.6999 56.3C11.8999 56.6 12.1999 56.9 12.3999 57.3C12.5999 57 12.7999 57 12.9999 57.3C13.0999 57.5 13.1999 57.8 13.3999 58C13.5999 58.2 13.6999 58.3 13.8999 58C14.0999 57.8 14.1999 57.7 13.8999 57.5C13.5999 57.2 13.4999 56.7 12.9999 56.6C12.7999 56.6 12.7999 56.4 12.9999 56.2C13.3999 55.9 13.8999 55.8 14.3999 56.1C14.5999 56.2 14.7999 56.2 15.0999 56.2C15.4999 56.2 15.7999 56.2 15.9999 56.7C16.1999 57.1 16.3999 57.4 16.5999 57.7C16.2999 57.2 15.9999 56.9 15.8999 56.4C16.0999 56.1 16.0999 56.1 16.3999 56.6C16.7999 57.2 17.0999 57.7 17.6999 58.2C17.6999 57.4 17.1999 57 16.8999 56.4C16.3999 55.9 15.8999 55.3 15.2999 54.8C15.2999 54.8 15.2999 54.8 15.1999 54.7C15.0999 54.6 14.8999 54.5 14.8999 54.3C14.6999 53.7 14.3999 53.2 13.9999 52.8C13.9999 52.8 13.7999 52.7 13.7999 52.6C13.7999 52.6 13.7999 52.6 13.7999 52.5C13.7999 52.3 13.6999 52.2 13.5999 52.1C13.5999 52.1 13.5999 52 13.5999 51.9C13.9999 51.7 13.5999 51.5 13.5999 51.3C13.4999 51.2 13.4999 51 13.2999 50.8C12.7999 50.4 12.7999 50.3 13.3999 50C12.8999 50 12.5999 49.7 12.3999 49.3C12.2999 49.2 12.0999 49.1 12.0999 48.8C12.3999 48.4 12.8999 48.5 13.2999 48.5C13.4999 48.5 13.5999 48.7 13.4999 48.9C13.1999 49.7 13.8999 49.3 14.0999 49.6C14.1999 49.3 14.0999 49.2 13.9999 49.1C13.9999 49.1 13.7999 48.9 13.7999 48.8C14.0999 48.4 13.5999 48.4 13.4999 48.2C13.3999 48 13.2999 47.9 13.1999 47.7C13.1999 47.4 12.9999 47.1 13.2999 46.9C13.6999 46.9 13.7999 47.3 13.9999 47.5C13.9999 47.6 14.1999 47.6 14.2999 47.5C15.0999 47.3 15.6999 47.5 15.8999 48.4C15.8999 48.7 16.3999 48.6 16.5999 48.8C16.5999 48.8 16.7999 48.9 16.8999 48.9C17.7999 49.1 17.7999 49.2 17.2999 49.9C17.2999 50.3 17.6999 50.2 17.7999 50.3C17.8999 50.3 17.9999 50.5 18.0999 50.7C18.1999 50.8 18.2999 51.1 18.4999 51C18.6999 51 18.6999 50.7 18.7999 50.5C18.7999 50.5 18.7999 50.5 18.7999 50.4C18.7999 50.4 18.9999 50.4 19.0999 50.4C19.4999 50.1 19.6999 50.2 19.7999 50.6C19.7999 50.8 19.7999 51 19.7999 51.1C19.7999 51.2 19.8999 51.4 19.9999 51.4H20.1999C20.1999 51.3 20.1999 51.1 20.1999 51C19.8999 50.7 19.6999 50.4 19.5999 49.9C19.5999 49.6 19.3999 49.4 19.0999 49.3C18.7999 49.1 18.6999 48.9 18.7999 48.5C18.7999 48.2 18.7999 48 18.6999 47.8C18.6999 47.8 18.6999 47.7 18.4999 47.6C18.1999 47.1 17.7999 46.7 17.6999 46.1C17.5999 45.7 17.2999 45.3 16.7999 45.4C16.4999 45.4 16.2999 45.4 16.2999 45C16.2999 44.7 16.5999 44.7 16.7999 44.7C17.0999 44.7 17.2999 44.6 17.3999 44.2C17.5999 43.8 17.7999 43.4 17.9999 43C18.2999 42.4 19.4999 42.5 19.8999 43C19.8999 43 19.8999 43.1 20.0999 43.1C20.0999 43 20.0999 42.9 19.9999 42.9C19.9999 42.9 19.9999 42.8 19.9999 42.7C19.9999 42.4 20.2999 42.4 20.3999 42.2C20.3999 42 20.1999 41.9 20.1999 41.7C20.1999 41.4 20.1999 41.1 20.6999 41.4C20.2999 40.7 19.9999 40 19.7999 39.3C19.6999 38.8 19.7999 38.8 20.1999 38.7C20.1999 38.7 20.1999 38.6 20.0999 38.6C19.6999 38.6 19.3999 38.4 19.7999 37.9V37.7C19.7999 37.3 20.0999 37.3 20.2999 37.2C20.2999 37 20.2999 36.9 20.2999 36.7C20.2999 36.5 20.4999 36.3 20.2999 36C20.0999 35.8 20.2999 35.5 20.5999 35.3C20.9999 35.3 21.0999 35.8 21.2999 36.1C21.5999 35.5 20.6999 35.3 20.9999 34.8C20.4999 34.6 20.2999 34 19.8999 33.8C19.8999 33.9 20.1999 34 20.2999 34.2C20.5999 34.5 20.5999 34.7 20.2999 35C19.9999 35.1 19.8999 35 19.7999 34.7C19.5999 34.8 19.4999 35.1 19.1999 34.8C18.9999 34.6 18.8999 34.4 18.9999 34.1C19.0999 33.8 18.9999 33.6 18.5999 33.6C18.2999 33.6 17.9999 33.3 17.7999 33.6C17.6999 33.9 18.0999 34 18.2999 34.1C18.4999 34.2 18.6999 34.3 18.5999 34.5C18.5999 35.2 18.9999 35.5 19.3999 35.9C19.3999 35.9 19.4999 36 19.4999 36.1C19.4999 36.3 19.5999 36.5 19.6999 36.6C19.6999 36.8 19.9999 37.1 19.6999 37.3C19.6999 37.7 19.4999 38 18.8999 38C19.5999 38.3 19.4999 38.9 19.6999 39.3C19.8999 39.7 19.9999 40 19.6999 40.4C19.6999 40.4 19.4999 40.5 19.3999 40.4C19.1999 40.2 19.0999 40 19.0999 39.7C19.0999 39.5 18.9999 39.3 18.7999 39.2C18.6999 39.5 18.7999 39.8 18.7999 40.1C18.7999 40.5 18.7999 40.8 18.3999 41C18.6999 41.3 18.9999 41.2 19.2999 41.4C19.4999 41.5 19.6999 41.6 19.5999 41.9C19.5999 42.1 19.2999 42.1 19.1999 42.1C18.4999 42.3 17.8999 41.9 17.2999 41.6C17.0999 41.6 17.0999 41.4 17.0999 41.2C17.0999 41 17.2999 40.9 17.5999 40.9C17.0999 40.9 16.7999 40.7 16.4999 40.5C16.4999 40.5 16.4999 40.5 16.4999 40.4C15.6999 40 15.6999 39.1 15.2999 38.4C15.2999 38.3 15.1999 38.2 14.9999 38.1C14.6999 38.1 14.3999 37.9 14.1999 37.7C13.8999 37.6 13.7999 37.4 14.1999 37.2H14.3999C14.4999 36.4 15.3999 36.7 15.7999 36.3C15.4999 35.7 15.1999 35.2 14.4999 35C13.8999 34.9 13.5999 34.4 13.2999 34C13.2999 33.6 13.6999 33.7 13.9999 33.7C14.0999 33.7 14.1999 33.5 14.3999 33.5C14.7999 33.5 14.5999 33.3 14.3999 33.2C14.3999 33.2 14.3999 33.1 14.3999 33C14.3999 32.8 14.5999 32.7 14.7999 32.7C14.7999 32.7 14.8999 32.7 14.9999 32.7C14.9999 32.7 14.9999 32.8 15.1999 32.7C15.1999 32.7 15.1999 32.6 15.1999 32.5C15.1999 32.4 15.1999 32.4 15.1999 32.3C15.1999 32.1 14.9999 31.8 15.3999 31.7C15.7999 31.7 15.6999 32 15.7999 32.2C15.9999 32.2 16.1999 32.6 16.2999 32.2C16.3999 32.1 16.4999 31.9 16.6999 32C16.9999 32.2 16.9999 32.1 16.8999 31.8C16.8999 31.8 16.6999 31.7 16.8999 31.5C16.9999 31.5 17.1999 31.9 17.3999 31.5C17.3999 31.3 17.5999 31.5 17.6999 31.5C17.3999 31.9 17.9999 31.9 17.9999 32.2C17.9999 32.3 18.1999 32.5 18.3999 32.5C18.5999 32 18.0999 31.7 17.8999 31.4C17.9999 31.4 18.0999 31.4 18.2999 31.3C18.2999 31.3 18.5999 31.3 18.4999 31C18.3999 30.8 18.1999 31 18.1999 31C17.9999 31.1 17.7999 31.4 17.5999 31C17.7999 30.7 17.9999 30.3 17.6999 30C17.3999 29.6 17.6999 29.6 17.8999 29.5C17.9999 29.5 18.1999 29.5 18.2999 29.5C18.3999 29.5 18.5999 29.5 18.5999 29.7C18.5999 30 18.2999 29.6 18.1999 29.7C18.1999 30 18.5999 30.1 18.6999 30.3C18.7999 30.2 18.9999 30.3 18.9999 30.3C18.9999 30.8 19.3999 31.1 19.4999 31.5C19.4999 31.6 19.5999 31.7 19.4999 31.8C19.3999 32.1 19.3999 32.1 19.6999 32.2C19.6999 32 19.4999 31.8 19.6999 31.7C19.7999 31.7 19.6999 31.5 19.6999 31.5C19.0999 31.3 19.1999 30.8 19.0999 30.4C18.9999 30.1 18.8999 30 18.5999 30.1C18.6999 30 18.4999 29.7 18.8999 29.7C19.0999 29.7 18.7999 29.5 18.8999 29.3H19.0999C19.0999 29.3 19.0999 29.5 19.3999 29.5C19.0999 29.1 19.0999 28.7 19.1999 28.3C18.9999 28.2 18.7999 28.1 18.7999 27.8C18.7999 27.8 18.7999 27.8 18.7999 27.7C18.6999 27.4 18.7999 27.5 18.9999 27.5C18.7999 27.3 18.6999 27.1 18.5999 26.7C18.5999 26.3 17.9999 26.1 18.0999 25.6C18.0999 25.5 18.0999 25.4 18.1999 25.4C18.5999 25.7 18.7999 26.1 19.0999 26.5C18.5999 25.8 18.0999 25 17.6999 24.2C17.6999 23.9 17.6999 23.6 17.2999 23.5C17.2999 23.5 17.0999 23.4 17.0999 23.3C16.9999 22.2 16.0999 21.7 15.5999 20.9C15.3999 20.6 15.1999 20.3 14.9999 20C14.7999 19.7 14.7999 19.7 14.9999 19.4C15.1999 19.2 14.9999 19.1 14.8999 19C14.3999 18.4 13.9999 17.7 13.4999 17.1C13.2999 16.8 13.2999 16.4 13.0999 16.2C13.2999 15.9 13.3999 15.9 13.6999 16.2C13.8999 16.2 13.8999 16.5 14.0999 16.6C14.9999 16.9 15.3999 17.4 15.9999 18.3C16.4999 19.1 17.0999 19.9 17.8999 20.5C17.6999 20.2 17.4999 19.9 17.2999 19.6C17.2999 19.6 17.1999 19.4 17.2999 19.3C17.4999 19.3 17.3999 19.3 17.4999 19.5C17.8999 19.9 18.1999 20.3 18.4999 20.7C18.8999 21.1 19.1999 21.6 19.4999 22.1C19.6999 22.1 19.7999 22.3 19.8999 22.4C20.1999 22.7 20.2999 23.2 20.8999 23.3C21.1999 23.3 21.3999 23.8 21.5999 24C21.5999 23.3 21.0999 23 20.6999 22.5C20.4999 22.3 20.3999 22.1 20.3999 21.9C20.6999 21.2 19.8999 20.9 19.7999 20.3C20.2999 20.6 20.3999 21.1 20.7999 21.3C20.6999 20.7 20.1999 20.3 19.9999 19.9C19.7999 19.9 19.7999 19.7 19.6999 19.6C19.3999 18.9 18.7999 18.3 18.3999 17.6C18.1999 17.3 17.9999 17.1 17.7999 16.9C17.7999 16.8 17.7999 16.7 17.8999 16.7C18.8999 18 19.9999 19.2 20.8999 20.6C21.0999 20.4 20.8999 20.3 20.8999 20.1C20.4999 19.3 19.9999 18.5 19.4999 17.8C19.3999 17.6 19.2999 17.4 19.1999 17.2C19.1999 16.7 18.6999 16.3 18.4999 15.8C18.4999 15.7 18.4999 15.6 18.5999 15.6C18.6999 15.6 18.7999 15.6 18.9999 15.6C19.0999 15.6 19.1999 15.7 19.1999 15.9C19.6999 16.6 20.1999 17.3 20.6999 18C21.6999 19.3 22.5999 20.7 23.3999 22C23.8999 22.7 24.2999 23.4 24.5999 23.7C24.1999 23.1 23.5999 22.1 22.9999 21.2C22.8999 21 22.6999 20.8 22.6999 20.5C22.6999 20.3 22.6999 20.2 22.8999 20.4C23.1999 21.1 23.6999 21.7 24.1999 22.3C24.6999 22.8 24.9999 23.4 25.4999 23.9C25.4999 23.9 25.4999 23.9 25.5999 24C25.7999 24.1 25.8999 24.4 26.0999 24.4C26.4999 24.7 26.6999 25.1 26.8999 25.5C27.3999 26.2 27.7999 27 28.3999 27.7C28.5999 27.8 28.6999 28 28.7999 28.2C28.5999 27.9 28.4999 27.7 28.4999 27.4C27.2999 25 25.6999 22.8 24.2999 20.4C24.3999 20.2 24.5999 20.5 24.6999 20.4C24.6999 20.2 24.6999 20.2 24.7999 20.1C24.8999 20.1 24.8999 20.1 24.6999 19.7C24.6999 19.3 24.3999 19 24.1999 18.6C24.1999 18.5 24.1999 18.4 24.0999 18.2C23.5999 17.7 23.2999 17.1 23.0999 16.4C23.2999 16.3 23.3999 16.4 23.6999 16.4C23.2999 16 22.9999 15.6 22.6999 15.1C22.6999 15.1 22.1999 14.9 22.6999 14.8C22.8999 14.8 22.5999 14.4 22.4999 14.3C21.9999 13.7 21.6999 13 21.1999 12.4C20.9999 12.1 20.6999 11.7 20.3999 11.5C20.1999 11.2 20.1999 11.1 20.3999 10.9C20.7999 11.3 20.9999 12.1 21.6999 12.2C20.5999 10.7 19.6999 9.09999 18.4999 7.59999C18.6999 7.39999 18.7999 7.09998 18.4999 6.89998C18.1999 6.59998 18.0999 6.19998 17.8999 5.99998C17.3999 5.39998 16.9999 4.59999 16.2999 4.09999C16.4999 3.89999 16.5999 4.09999 16.6999 4.09999C16.8999 4.2 17.0999 4.49998 17.3999 4.49998C17.4999 4.49998 17.6999 4.59999 17.7999 4.79999C17.9999 5.29999 18.4999 5.59999 18.8999 5.99998C19.2999 6.49998 19.7999 6.99998 20.1999 7.49998C19.8999 6.99998 19.2999 6.7 19.3999 6.09999C18.5999 4.89999 17.4999 3.99998 16.6999 2.89998C16.2999 2.19998 15.6999 1.59998 15.1999 0.899979C15.0999 0.799973 14.8999 0.599976 14.8999 0.399979C14.8999 0.199982 14.8999 0.199997 15.0999 0.199997C15.7999 1.09999 16.5999 1.89998 17.5999 2.49998C17.6999 2.69998 17.7999 2.99998 18.0999 2.79999C18.2999 2.79999 18.3999 2.79999 18.4999 2.99998C18.9999 3.49998 19.5999 3.99998 19.9999 4.59999C20.1999 4.7 20.3999 4.89999 20.4999 5.09999C20.4999 5.09999 20.6999 5.19998 20.7999 5.29999C21.1999 5.79999 21.8999 5.79999 22.2999 6.29999C22.2999 6.29999 22.5999 6.29999 22.6999 6.29999C23.3999 6.99998 24.0999 7.69998 24.6999 8.49998C24.8999 9.09999 25.3999 9.39998 25.8999 9.89998C26.1999 10.2 26.3999 10.4 26.6999 10.7C27.2999 11.3 27.9999 11.9 28.3999 12.7C28.3999 12.7 28.3999 12.6 28.3999 12.5C28.3999 12.5 28.3999 12.4 28.5999 12.3C29.3999 13.2 29.8999 14.3 30.7999 15.1C30.9999 15.3 30.7999 15.8 31.2999 15.6C31.7999 15.7 31.6999 16.2 31.9999 16.4C31.9999 16.3 31.9999 16.2 31.8999 16.1C31.8999 16 31.6999 15.9 31.8999 15.7C31.9999 15.6 32.1999 15.5 32.2999 15.6H32.3999C32.7999 16.1 33.0999 16.7 33.6999 16.9C33.6999 17.2 33.6999 17.5 33.9999 17.4C34.2999 17.4 34.3999 17.6 34.2999 17.8C34.2999 17.9 34.2999 18.1 34.2999 18.2C34.2999 18.4 34.4999 18.4 34.5999 18.6C34.5999 18.4 34.5999 18.3 34.4999 18.2C34.4999 18.2 34.4999 18.1 34.4999 18C34.4999 17.9 34.4999 17.8 34.6999 17.8C35.1999 18 35.2999 18.5 35.4999 18.8C35.4999 18.8 35.6999 19 35.6999 18.9C35.7999 18.7 35.5999 18.6 35.4999 18.5C35.2999 18.3 35.1999 18.1 35.1999 17.9C35.4999 17.2 35.5999 17.2 35.9999 17.6C35.9999 17.6 35.9999 17.6 36.0999 17.7C36.3999 17.9 36.4999 18.3 36.8999 18.4C36.8999 18.2 36.7999 18.1 36.6999 17.9C36.6999 17.7 36.4999 17.5 36.6999 17.4C36.8999 17.4 36.9999 17.5 37.0999 17.7C37.1999 18 37.3999 18.2 37.4999 18.4C37.5999 18.4 37.5999 18.7 37.7999 18.7C37.9999 18.2 37.8999 17.8 37.6999 17.3C37.5999 17 37.6999 16.6 37.6999 16.3C37.4999 16 37.0999 15.9 37.0999 15.5C37.0999 15.2 37.0999 15 36.8999 14.8C36.6999 14.2 36.2999 13.7 35.9999 13.2C35.9999 13 35.7999 12.8 35.7999 12.6C36.2999 12.2 36.2999 12.8 36.4999 12.9C36.3999 12.7 36.2999 12.5 36.4999 12.3C36.6999 12.1 36.8999 12.3 37.0999 12.3C37.1999 12.3 37.2999 12.5 37.2999 12.7C37.7999 13.1 37.9999 13.7 38.0999 14.3C38.0999 14.6 38.4999 14.9 38.7999 14.9C39.2999 15 39.2999 15.3 39.2999 15.7C39.2999 14.8 38.8999 14 38.3999 13.3C38.3999 13.3 38.3999 13.2 38.3999 13.1C38.7999 12.9 38.7999 12.9 39.1999 13.4C39.1999 13.4 39.1999 13.4 39.1999 13.5C39.3999 13.7 39.3999 14 39.5999 14.2C39.6999 14.3 39.7999 14.5 39.8999 14.6C40.1999 14.9 40.3999 15.2 40.5999 15.5C40.5999 15.5 40.7999 15.7 40.8999 15.8C41.0999 15.5 41.0999 15.2 40.9999 14.9V14.8C41.2999 14.6 41.2999 14.4 41.0999 14.2C40.8999 14 40.7999 13.8 40.7999 13.5C40.7999 13.5 40.7999 13.4 40.8999 13.3C41.1999 13.2 41.2999 12.8 41.6999 12.8C41.6999 12.8 41.7999 12.8 41.8999 13C42.0999 13.6 42.4999 14 42.8999 14.5C42.8999 14.6 43.0999 14.8 43.0999 14.8C42.6999 14.5 42.4999 13.8 42.2999 13.2C42.2999 12.9 41.9999 12.8 41.8999 12.6C41.8999 12.5 41.8999 12.4 41.8999 12.3C42.0999 12.2 42.1999 12.3 42.2999 12.4C42.5999 12.6 42.8999 12.9 43.2999 13.1C43.2999 13.1 43.2999 13.1 43.3999 13.1C43.5999 13.4 43.7999 13.6 43.6999 14C43.6999 13.8 43.6999 13.5 43.4999 13C43.4999 12.7 43.6999 12.6 43.9999 12.6C44.1999 12.6 44.2999 12.7 44.2999 12.9C44.2999 12.9 44.2999 13.1 44.4999 13.1L44.3999 12.9C44.3999 12.9 44.3999 12.8 44.3999 12.7C44.4999 12.4 44.6999 12.4 44.9999 12.6C45.0999 12.8 45.1999 12.9 45.2999 13.1C45.3999 13.4 45.5999 13.5 45.9999 13.6C45.9999 13.5 45.8999 13.4 45.7999 13.3C45.7999 13.2 45.6999 13.1 45.6999 13C45.9999 12.5 46.0999 12.9 46.2999 13C46.2999 13.1 46.3999 13.3 46.4999 13.4C46.4999 13.6 46.7999 13.7 46.9999 13.7C46.9999 13.5 46.9999 13.3 46.7999 13.1C46.7999 13 46.4999 12.8 46.7999 12.7C46.8999 12.6 47.0999 12.7 47.1999 12.7C47.6999 13.1 48.2999 13.2 48.6999 13.7C48.9999 14 49.2999 14.1 49.6999 14.2C49.4999 13.9 49.4999 13.6 49.2999 13.3C49.1999 13 49.2999 13 49.5999 13C49.8999 13 49.9999 13.2 50.0999 13.4C50.1999 13.6 50.2999 13.9 50.3999 14C50.3999 13.8 50.0999 13.6 50.3999 13.4C50.7999 13.6 51.1999 13.8 51.2999 14.2C51.2999 14.2 51.2999 14.2 51.1999 14.3C51.1999 14.3 51.1999 14.3 51.1999 14.2C51.4999 14.2 51.5999 14.3 51.7999 14.4C51.9999 14.5 52.0999 14.4 52.0999 14.2C52.2999 14.1 52.4999 14.1 52.4999 14.3C52.4999 14.7 52.7999 14.6 53.0999 14.7C52.8999 14.5 52.6999 14.4 52.7999 14.2C52.8999 14 53.0999 14 53.1999 14.1C53.6999 14.2 53.5999 13.9 53.4999 13.7C53.2999 13.1 53.4999 12.8 53.9999 12.5C53.9999 12.5 54.0999 12.5 54.1999 12.5C54.1999 12.5 54.3999 12.6 54.3999 12.5C54.2999 12.1 53.9999 11.9 53.8999 11.5C53.8999 11.5 53.8999 11.4 53.8999 11.3C53.8999 11.2 53.8999 11 53.8999 10.9C53.8999 10.7 53.7999 10.5 53.5999 10.4C53.2999 10.1 53.1999 9.79999 53.2999 9.49998C53.2999 9.09999 53.6999 8.99998 53.9999 8.79999C53.5999 8.79999 53.4999 8.99998 53.2999 8.89998C53.2999 8.89998 53.2999 8.89998 53.1999 8.89998C53.1999 8.59998 53.5999 8.39999 53.5999 8.09999C53.5999 7.89999 53.3999 7.79999 53.5999 7.59999H53.7999C53.9999 7.7 54.1999 7.89999 54.2999 8.09999C54.4999 8.49998 54.4999 9.09999 55.0999 9.09999H55.1999C55.3999 9.29999 55.4999 9.49998 55.5999 9.69998C55.5999 9.89998 55.5999 9.99998 55.7999 10.2C55.7999 10.9 56.3999 11.4 56.6999 11.9C56.6999 11.9 56.6999 11.9 56.6999 12C56.6999 12.2 56.6999 12.4 56.6999 12.5C56.6999 13 56.8999 13.2 57.3999 13.1C57.7999 13.1 57.9999 13.2 58.1999 13.6C58.3999 14.1 58.5999 14.6 58.6999 15.1C58.6999 15.3 58.6999 15.4 58.8999 15.5C59.2999 15.8 59.2999 16.3 59.4999 16.7C59.4999 16.6 59.4999 16.5 59.4999 16.5C59.4999 16.5 59.5999 16.5 59.6999 16.5C59.9999 16.7 60.2999 16.9 60.3999 17.3C60.4999 17.7 60.8999 17.3 61.0999 17.5C61.0999 17.5 61.1999 17.6 61.2999 17.7C61.2999 17.9 61.2999 18.2 61.5999 18.3C61.5999 18.3 61.5999 18.3 61.5999 18.4C61.5999 18.6 61.8999 18.7 61.8999 18.9V19.1C61.6999 19.1 61.5999 19.1 61.3999 19.1C61.5999 19.3 61.7999 19 61.9999 19.2C61.9999 19.2 61.9999 19.3 61.9999 19.4C61.9999 19.6 61.7999 19.7 61.5999 19.7C61.2999 19.7 61.4999 19.9 61.5999 20.1C61.6999 20.4 61.9999 20.6 62.1999 20.9C62.3999 21.1 62.3999 21.1 62.4999 20.9C62.6999 20.6 62.7999 20.9 62.8999 20.9C63.0999 21.3 63.4999 21.4 63.5999 21.8C63.5999 21.5 63.5999 21.2 63.8999 21.3C64.1999 21.3 64.5999 21.3 64.3999 21.8C64.2999 22.2 64.3999 22.4 64.7999 22.4C64.7999 22.4 64.9999 22.4 65.0999 22.5C65.2999 22.6 65.4999 22.8 65.4999 23C65.4999 23.2 65.0999 23.3 64.8999 23.3C64.6999 23.3 64.4999 23 64.3999 23.3C64.2999 23.6 63.8999 23.8 64.0999 24.2C64.0999 25 64.1999 25.8 64.6999 26.5C64.8999 26.8 64.6999 27 64.0999 27.2C64.4999 27.4 64.7999 27.7 65.1999 27.8C65.1999 27.8 65.1999 27.8 65.1999 27.9C65.1999 28.2 65.5999 28.1 65.5999 28.4C65.5999 28.4 65.5999 28.4 65.4999 28.4C65.1999 28.4 64.7999 28.2 64.6999 28.7C64.8999 28.4 65.1999 28.2 65.4999 28.5C65.6999 28.8 65.7999 28.9 66.1999 28.8C66.4999 28.7 67.0999 28.7 67.2999 29.2C67.2999 29.4 67.4999 29.6 67.0999 29.7C66.6999 29.7 66.1999 29.7 65.8999 30.1C65.8999 30.2 65.6999 30.3 65.5999 30.4C65.2999 30.6 65.2999 30.9 65.2999 31.2C65.2999 31.5 65.5999 31.8 65.2999 32C65.2999 32 65.1999 32 65.0999 32C65.0999 32 65.0999 32 65.0999 32.2C65.0999 32.2 65.0999 32.4 65.0999 32.5C64.6999 32.9 64.4999 33.4 64.2999 33.8C64.0999 34 64.2999 34.1 64.2999 34.3C64.4999 34.6 64.7999 34.8 64.2999 35.1C64.0999 35.1 64.2999 35.4 64.2999 35.5C64.6999 36.2 64.7999 36.9 64.9999 37.6C64.9999 38 65.1999 38.3 65.6999 38.5C65.8999 38.6 65.6999 38.8 65.6999 39C65.6999 39.5 65.5999 40.1 65.8999 40.6C65.7999 40.2 66.3999 40 66.2999 39.6V39.3C66.2999 39.1 66.2999 38.9 66.0999 38.7C66.0999 38.5 65.9999 38.4 66.0999 38.2C66.2999 38 66.3999 38.2 66.4999 38.3C66.4999 38.3 66.4999 38.6 66.7999 38.5C66.7999 38.5 66.7999 38.3 66.8999 38.2C66.8999 38.1 67.0999 37.9 67.1999 37.9C67.4999 37.9 67.5999 38.1 67.4999 38.3C67.3999 38.5 67.2999 38.7 67.4999 38.8C67.5999 38.8 67.7999 39 67.6999 39.2C67.6999 39.2 67.6999 39.2 67.5999 39.2C67.8999 39.6 67.6999 40.1 67.7999 40.5C67.1999 41.1 67.8999 41.6 67.8999 42.2C67.8999 42.4 67.9999 42.5 68.0999 42.7C68.0999 43.1 68.5999 43.1 68.5999 43.5C68.5999 43.7 68.5999 44 68.2999 44C68.3999 44.2 68.6999 44 68.7999 44.2C68.9999 44.3 69.0999 44.4 69.1999 44.5C69.1999 44.5 69.1999 44.6 69.2999 44.5C69.2999 44.5 69.2999 44.3 69.2999 44.2C69.2999 44.2 69.2999 44.1 69.2999 44V43.8C69.4999 43.8 69.6999 43.7 69.8999 43.8C69.9999 43.8 70.0999 44 70.0999 44.2C70.4999 44.9 70.6999 45.8 71.2999 46.4C71.2999 46.3 71.2999 46.1 71.2999 46C71.2999 45.9 71.3999 45.7 71.3999 45.6C71.4999 45.4 71.4999 45.2 71.5999 44.9C71.7999 44.4 71.1999 44.5 71.0999 44.2V44C71.0999 44 71.2999 43.9 71.3999 44C71.7999 44.3 71.7999 44 71.7999 43.7C71.7999 43.4 71.3999 43.2 71.4999 42.8C71.4999 42.8 71.5999 42.8 71.6999 42.8C72.0999 42.8 71.9999 42.5 71.9999 42.2C71.9999 42.1 71.9999 42 71.8999 41.8C71.6999 41.6 71.5999 41.4 71.8999 41.1C71.8999 41 72.0999 40.8 71.9999 40.7C71.6999 40.1 71.7999 39.3 71.2999 38.7C70.8999 38 70.4999 37.3 70.2999 36.5C70.5999 36 70.2999 35.7 70.0999 35.3C69.6999 34.7 69.4999 34 69.3999 33.3C69.3999 32.8 69.0999 32.5 68.9999 32.1C68.6999 31.8 68.6999 31.3 68.3999 30.9C68.3999 31.4 68.7999 31.6 68.7999 31.9C68.5999 32.2 68.3999 32.3 68.0999 32C67.8999 31.5 67.8999 31 67.5999 30.6C67.5999 30.4 67.6999 30.2 67.9999 30.3C68.4999 30.3 68.5999 30.1 68.3999 29.7C68.3999 29.7 68.3999 29.6 68.3999 29.5C68.0999 28.9 67.9999 28.3 67.8999 27.7C67.7999 27.3 67.5999 26.9 67.4999 26.5C67.4999 26.2 67.4999 25.9 67.4999 25.6C67.7999 25.4 67.9999 25.7 68.1999 25.9C68.1999 25.9 68.2999 26 68.3999 26.1C68.7999 26.4 69.0999 26.7 68.6999 27.2C68.6999 27.2 68.6999 27 68.8999 27C69.0999 27 69.0999 27.1 69.1999 27.3C69.1999 27.5 69.3999 27.6 69.5999 27.7C69.5999 28.6 70.2999 29.2 70.3999 30C70.3999 30.7 70.9999 31.1 71.1999 31.8C71.1999 31.9 71.1999 32 71.2999 32.1C71.2999 32.1 71.2999 32.1 71.2999 32C71.2999 31.6 70.8999 31.2 71.2999 30.8C71.4999 30.8 71.4999 30.9 71.5999 31C71.6999 31.2 71.7999 31.4 71.7999 31.6C71.7999 31.8 71.7999 32 72.0999 32H72.2999C72.4999 32.5 72.2999 33 72.2999 33.5C72.2999 33.7 72.2999 33.9 72.2999 34.1C72.2999 34.5 72.4999 34.7 72.8999 34.7C72.8999 34.7 72.9999 34.7 73.0999 34.9C73.0999 35 73.0999 35.2 73.1999 35.3C73.1999 35.6 73.4999 35.6 73.6999 35.5C73.8999 35.9 73.8999 36.4 74.0999 36.8C74.1999 37.1 74.1999 37.4 74.6999 37.3C74.6999 37.1 74.4999 37 74.4999 36.9C74.4999 36.9 74.4999 36.8 74.4999 36.7C74.4999 36.6 74.2999 35.6 74.2999 35.5C74.2999 35.2 74.4999 35.2 74.7999 35.3C74.7999 35.1 74.5999 34.9 74.5999 34.7C74.5999 34.4 74.3999 34.1 74.3999 33.7C74.3999 33.4 74.1999 33.2 74.0999 33C73.9999 32.7 73.8999 32.4 73.7999 32.1C73.7999 31.9 73.7999 31.7 73.6999 31.5C73.4999 31.2 73.2999 30.9 73.1999 30.6C73.0999 30.1 72.9999 29.5 72.7999 29C72.7999 28.8 72.7999 28.7 72.7999 28.5C72.7999 28.3 72.8999 28.1 72.7999 27.9C72.5999 27.6 72.7999 27.2 72.4999 26.9C72.2999 26.6 72.3999 26.3 72.1999 26.1C71.7999 25.8 71.5999 25.4 71.6999 24.8C71.6999 24.5 71.6999 24 71.2999 23.8C70.9999 23.4 70.9999 22.8 70.7999 22.3C70.7999 22.1 70.7999 21.9 70.7999 21.7C70.7999 21.7 70.7999 21.6 70.7999 21.5C70.9999 21.3 70.7999 20.9 71.0999 20.8C71.4999 20.8 71.4999 21.3 71.7999 21.5C71.9999 21.5 72.2999 21.5 72.3999 21.9C72.3999 22.1 72.6999 22 72.7999 22.1C72.9999 22.3 72.9999 22.5 72.9999 22.7C72.9999 22.5 72.7999 22.3 72.9999 22.1C73.1999 22.1 73.2999 22.1 73.3999 22.2C73.3999 22.2 73.4999 22.4 73.4999 22.5C73.4999 23.2 73.8999 23.8 74.0999 24.5C74.0999 24.6 74.1999 24.7 74.2999 24.9C74.3999 25.5 74.6999 26.1 74.9999 26.7C74.8999 26 74.6999 25.4 74.4999 24.7C74.4999 24.4 74.2999 24.1 74.2999 23.8C74.2999 23.8 74.2999 23.7 74.2999 23.6C74.2999 23.4 74.2999 23.1 74.5999 23C74.6999 23 74.7999 23.1 74.7999 23.2C74.9999 24 75.2999 24.8 75.4999 25.6C75.6999 26.2 75.6999 26.8 75.9999 27.3C76.5999 28.8 76.6999 30.4 77.2999 31.9C77.3999 31.7 77.2999 31.4 77.2999 31.2C77.0999 30.6 76.9999 29.9 76.6999 29.4C76.5999 29.2 76.6999 29 76.7999 28.8C76.9999 28.7 77.1999 28.8 77.2999 28.9C77.2999 29.3 77.5999 29.4 77.6999 29.7C77.9999 30.2 78.1999 30.7 78.1999 31.3V31.5C78.1999 31.6 78.2999 31.7 78.2999 31.9C78.2999 32.4 78.3999 32.8 78.7999 33.1C78.8999 33.2 78.7999 33.4 78.9999 33.6C78.7999 33.1 78.7999 33.1 78.9999 32.3C79.2999 32.3 79.4999 31.9 79.8999 32.1C79.9999 32.1 79.9999 32.1 80.0999 31.9C80.0999 31.6 80.2999 31.5 80.6999 31.6C80.8999 31.6 80.9999 31.5 80.9999 30.9C80.9999 31.1 81.1999 31.5 80.6999 31.5C80.1999 31.5 80.3999 31 80.3999 30.8C80.3999 30.6 80.4999 30.5 80.5999 30.4C80.4999 30.3 81.0999 30.4 80.5999 30.2C80.3999 30.2 80.2999 30 80.1999 29.8C80.1999 29.5 80.3999 29.4 80.3999 29.1C80.1999 28.3 80.1999 27.4 79.3999 26.7C79.1999 26.7 78.9999 26.7 78.8999 26.6C78.7999 26.6 78.5999 26.3 78.6999 26.3C79.0999 26.1 78.6999 25.8 78.8999 25.5C79.0999 25.2 78.8999 24.9 78.8999 24.6C78.9999 24.4 78.8999 24 79.0999 23.8C79.2999 23.6 79.5999 23.4 79.8999 23.5C80.1999 23.5 80.1999 23.9 80.2999 24C80.2999 23.5 79.9999 23.1 79.8999 22.6C79.8999 22.4 79.6999 22.2 79.6999 22C79.7999 21.7 79.5999 21.4 79.6999 21.1C79.6999 20.9 79.6999 20.6 79.6999 20.4C80.0999 20.2 79.8999 20 79.8999 19.7C79.8999 19.5 79.5999 19.2 79.8999 19C80.0999 19 80.0999 19.2 80.2999 19.3C80.2999 19.1 80.1999 19 80.1999 18.9C80.1999 18.7 80.3999 18.6 80.3999 18.5C80.5999 18.2 80.7999 18.3 80.8999 18.5C81.0999 19.2 81.5999 19.5 82.1999 19.8C82.3999 20.1 82.3999 20.4 82.4999 20.7C82.4999 21 82.6999 21.2 82.7999 21.5C82.7999 22 83.0999 22.2 83.4999 22.5C83.7999 22.8 84.1999 23.1 84.0999 23.6C84.0999 23.5 84.2999 23.2 84.0999 22.9C83.8999 22.7 84.2999 22.6 84.4999 22.5C84.5999 22.5 84.6999 22.5 84.7999 22.6C84.0999 21.8 84.3999 20.7 84.1999 19.8C84.2999 19.4 84.3999 19.1 84.1999 18.7C84.1999 18.5 83.9999 18.3 83.9999 18.1C83.9999 17.9 84.4999 17.8 83.9999 17.5C83.7999 17 83.4999 16.5 83.3999 15.9C83.3999 15.7 83.1999 15.4 83.4999 15.3C83.8999 15.5 83.9999 15.9 84.0999 16.3C84.0999 16.6 84.2999 16.7 84.2999 17C84.0999 16.3 84.0999 15.5 83.8999 14.8C84.1999 14.4 83.9999 14 83.8999 13.7C83.6999 13.1 83.2999 12.6 83.1999 12C83.1999 11.7 82.8999 11.5 83.1999 11.2C83.4999 11.2 83.5999 11.5 83.7999 11.6C83.9999 11.8 84.0999 12 84.1999 12.2C84.3999 12.5 84.5999 12.7 84.8999 12.8C85.1999 12.8 85.4999 13.1 85.5999 13.4C85.6999 13.6 85.7999 13.9 86.0999 14C86.0999 14 86.0999 14 86.1999 14.1C86.2999 14.3 86.3999 14.5 86.6999 14.6C87.1999 14.8 86.9999 15.3 87.1999 15.7C87.1999 16.2 87.4999 16.4 87.7999 16.6C88.0999 16.8 88.1999 17 88.3999 17.3C88.7999 18.1 88.9999 19 89.4999 19.8C89.4999 19.6 89.3999 19.5 89.2999 19.3C89.1999 19 88.8999 18.7 89.2999 18.5C89.5999 18.3 89.8999 18.5 90.0999 18.7C90.3999 18.8 90.1999 19.1 90.3999 19.4C90.4999 19.2 90.5999 19.1 90.6999 18.9C90.6999 18.9 90.7999 18.9 90.8999 18.9C90.8999 19.5 90.6999 20.2 90.5999 20.8C90.5999 21 90.0999 21.4 90.7999 21.4C90.8999 21.4 90.9999 21.7 90.7999 21.9V22.1C90.7999 22.1 90.9999 22.1 90.9999 21.9C90.9999 21.7 91.0999 21.5 90.9999 21.3C90.8999 21.2 90.7999 21 90.9999 20.9C91.0999 20.8 91.2999 20.8 91.4999 20.9C91.6999 21 91.8999 21.2 92.1999 21.1C91.7999 20.8 91.8999 20.4 91.7999 20C91.7999 20 91.8999 20 91.9999 20C92.0999 20 92.1999 20.3 92.2999 20.4C91.9999 20.1 92.0999 19.5 91.5999 19.4V19.2C92.0999 19 91.6999 18.8 91.5999 18.5C92.1999 18.5 92.0999 19.2 92.3999 19.4C92.5999 19.2 92.5999 19.2 92.3999 18.8C92.3999 18.6 92.0999 18.5 92.1999 18.2C92.4999 17.8 92.6999 18.2 92.7999 18.4C92.9999 18.8 93.2999 19.2 93.3999 19.6C93.2999 18.9 92.5999 18.4 92.8999 17.6C92.8999 17.4 92.4999 17.2 92.8999 17.1C92.8999 17.1 92.8999 16.9 92.8999 16.8C92.7999 16.6 92.7999 16.4 92.8999 16.1C92.8999 16 92.7999 15.8 92.8999 15.8C92.8999 15.8 93.0999 16 93.1999 16C93.5999 16.6 93.7999 17.4 94.4999 17.8C94.4999 17.8 94.5999 18 94.6999 18C94.6999 17.9 94.4999 17.8 94.4999 17.7C94.4999 17.6 94.4999 17.5 94.4999 17.4C94.4999 17.2 94.4999 17 94.6999 17C94.8999 17 94.9999 17.2 95.0999 17.3C94.7999 16.9 94.8999 16.3 94.4999 15.9C94.2999 15.6 94.5999 15.4 94.4999 15.1C94.6999 15.1 94.8999 15.6 95.0999 15.1C95.5999 15.4 95.5999 14.9 95.7999 14.7C95.5999 14.9 95.3999 15 95.0999 15.1C95.0999 14.8 94.6999 14.5 95.0999 14.1C95.0999 13.5 95.4999 13 95.1999 12.4C95.1999 12.4 95.1999 12.2 95.3999 12.2C95.3999 12.6 95.7999 12.7 95.8999 13C95.8999 13.1 96.1999 13.1 96.3999 13.2C96.3999 13 96.4999 12.8 96.3999 12.6C96.2999 12.3 96.1999 12.1 95.9999 11.7C96.3999 11.7 96.3999 12.1 96.4999 12.3C96.6999 12.9 96.8999 12.6 97.0999 12.3C97.3999 12.2 97.2999 12.6 97.4999 12.6C97.5999 12.5 97.6999 12.2 97.9999 12.3C98.1999 12.3 98.1999 12.6 98.2999 12.8C98.2999 13.1 98.2999 13.4 98.4999 13.6C98.4999 13.6 98.4999 13.8 98.4999 13.9C98.7999 14.2 98.8999 14.4 98.4999 14.7C98.5999 14.9 98.7999 14.7 98.8999 14.8C98.8999 15.3 98.7999 15.7 98.5999 16.1C98.3999 16.5 98.0999 16.7 98.0999 17.2C97.5999 17.9 97.4999 17.9 97.8999 18.5C98.0999 18.7 98.0999 19.2 98.4999 18.9C99.0999 18.5 99.1999 18.6 99.3999 19.2C99.5999 19.8 99.7999 20.4 100.4 20.8C100.6 20.9 100.9 21.2 101 20.7C101 20.7 101 20.7 101.2 20.7C101.4 20.7 101.5 20.7 101.7 20.7C101.9 20.6 102.1 20.6 102.2 20.9C102.2 21.1 102.2 21.4 102.1 21.5C101.6 22 101.1 22 100.4 21.8C99.6999 21.6 99.2999 21.1 99.0999 20.5C99.0999 20.3 98.8999 20.2 98.6999 20.2C98.4999 20.2 98.4999 20.4 98.3999 20.5C97.9999 21.1 98.0999 21.7 98.3999 22.3C98.3999 22.4 98.4999 22.5 98.3999 22.7C98.3999 23.1 98.6999 23.1 98.8999 23C99.6999 22.7 99.3999 23.2 99.3999 23.6C99.3999 23.8 99.3999 23.9 99.1999 24C99.1999 24 99.0999 24.2 99.1999 24.2C99.5999 24.2 99.4999 24.6 99.6999 24.8C99.8999 25 100.2 25 100.1 25.4C100.1 25.5 100.3 25.4 100.5 25.4C100.8 25.4 101.1 25.2 101.3 25.4C101.1 25.4 100.9 25.5 100.7 25.4C100.5 25.5 101.1 25.8 100.6 25.9C100.5 25.9 100.1 25.9 100.2 26.1C100.2 26.4 100.5 26.4 100.8 26.4C100.6 26.7 100.5 27 100.8 27.3C100.9 27.4 100.6 27.8 101 28C101.2 28.2 101.5 28.3 101.7 28.5C101.9 28.7 102 28.8 101.7 29.1C101.7 29.2 101.7 29.2 101.7 29.3C101.8 29.3 101.9 29.4 102 29.3C102 29.3 102.1 29.1 102.2 29C102.3 29.2 102.6 29.3 102.5 29.6C102.5 29.9 102.7 29.9 102.9 30C102.9 30 103.1 30 103.1 30.1C103.1 30.1 103.1 30.2 103.1 30.3C102.9 30.5 102.3 30.3 102.1 30.1C101.9 29.9 101.8 29.6 101.5 29.5C101.7 30 101.9 30.5 102 31.1C102 31.2 102 31.4 102.2 31.4C102.8 31.6 102.9 32.1 103.1 32.6H102.9C102.7 32.5 102.4 32.6 102.3 32.6C102.1 32.8 102.4 32.9 102.5 33C102.5 33 102.5 33.2 102.6 33.3C102.6 33.4 102.9 33.5 102.7 33.6C102.6 33.7 102.4 33.6 102.3 33.6C102.1 33.6 101.8 33.2 101.7 33.5C101.5 33.8 102 33.8 102.1 34C102.1 34.1 102.1 34 102.1 34.4C102.1 34.6 102.3 34.8 102.5 34.9C102.5 34.9 102.6 34.9 102.7 35.1C102.7 35.1 102.7 35.2 102.7 35.3C102.3 35.6 102.1 35.8 102.4 36.4C102.6 36.9 102.8 37.6 102.4 38.2C102.3 38.5 102.6 38.8 102.2 39C101.9 39.2 101.7 38.8 101.5 38.6C101.4 38.6 101.3 38.6 101.2 38.6C101.2 38.7 101.2 38.8 101.2 38.9C101.3 39.2 101.6 39.3 101.8 39.5C102.2 40 102.2 40.2 101.6 40.4C101.3 40.5 101.1 40.7 101.2 41.1C101.2 41.3 101.2 41.6 101.3 41.7C101.9 42.5 101.5 43.3 101.2 44.1C101.2 44.3 101.2 44.4 101.2 44.6C101.5 45.1 101.2 45.8 101.8 46.2C102 46.4 101.8 46.7 101.6 46.8C101.3 47 101.1 47.1 101.2 47.5C101.2 47.8 101 48.1 100.8 48.3C100.8 48.5 100.6 48.6 100.8 48.8C101 48.9 101.1 49.1 101.1 49.4C101.1 49.6 101.1 49.9 100.9 50C100.6 50.2 100.6 49.8 100.3 49.7C100.7 49.9 100.7 50.7 101.3 50.6C101.4 50.6 101.5 50.7 101.5 50.8C101.5 50.8 101.5 50.9 101.5 51C101.5 51 101.5 51.2 101.4 51.2C101.1 51.3 101.4 51.7 101.1 51.8C100.8 51.8 100.7 51.5 100.3 51.6C100.7 52.7 101.7 53.2 102.5 53.9C102.6 53.8 102.5 53.8 102.7 53.4C102.7 53.2 102.7 52.8 103.2 53.1C103.5 53.5 103.6 54.1 103.9 54.6C103.9 54.8 103.9 55.1 103.9 55.3C103.9 55.5 103.9 55.7 103.8 55.8C103.4 56.3 103.1 56.9 103 57.5C103 57.9 103.2 57.7 103.4 57.7C103.7 57.7 103.7 57.8 103.8 58.1C103.8 58.5 103.5 58.8 103.3 59.2C103.2 59.4 102.9 59.7 102.6 59.5C102.2 59.3 102.1 59.4 101.9 59.8C101.9 60 101.7 60 101.5 60C101.3 60.3 101.5 60.5 101.6 60.7C101.7 60.9 101.9 61 101.9 61.2C101.9 61.4 101.9 61.5 101.6 61.4C101.5 61.4 101.5 61.2 101.4 61.1C101.4 61.2 101.4 61.4 101.6 61.4C101.9 61.4 101.8 61.9 102.1 61.8C102.4 61.6 102.6 61.4 102.7 61C102.7 60.7 102.7 60.5 102.7 60.2C102.7 60.1 102.7 60 102.8 59.9C102.8 59.8 102.8 59.7 102.8 59.6C102.8 59.5 102.8 59.4 103 59.3C103.2 59.3 103.2 59.3 103.3 59.5C103.5 59.9 103.9 60.2 103.3 60.7C103.5 60.6 103.7 60.5 103.9 60.5H104.1C104.1 60.7 104.1 60.9 104.1 61.1C104.1 61.3 104.1 61.5 104.3 61.5C104.6 61.5 104.6 61.9 104.7 62.1C104.7 62.1 104.7 62.4 104.9 62.3C105.3 62.3 105.6 62.3 105.9 62C106 62 106.1 62.1 106.1 62.2C106.1 62.7 105.9 63.2 105.9 63.7C105.9 64 105.8 64.3 105.5 64.4C105 64.8 104.5 64.6 104 64.4C103.8 64.4 103.8 64.2 103.8 64C103.8 64 103.9 63.8 103.8 63.8C103.8 63.7 103.6 63.8 103.5 63.8C102.9 63.8 103.2 63.4 103 63C103 63.5 103 63.9 102.8 64.2C102.8 64.4 102.7 64.5 102.5 64.6C102.2 64.9 101.7 65.2 101.4 65.5C101.2 65.7 101 65.7 100.9 65.4C100.9 65.2 100.9 65 100.9 64.8C100.9 64.6 100.9 64.4 101.1 64.3C101.4 64.4 101.6 64.3 101.6 64C101.6 63.9 101.6 63.8 101.6 63.7C101.6 63.2 101.2 63.1 101 62.8C100.8 62.7 100.8 62.8 100.8 62.9C100.8 63 100.7 63.3 100.4 63.1C100.2 63.1 100.2 62.8 100.3 62.7C100.3 62.7 100.3 62.5 100.3 62.4C100.3 62.2 100.3 61.9 100.1 61.7C100.1 61.9 100.1 62.2 99.8999 62.4C99.8999 62.4 99.8999 62.4 99.7999 62.4C99.6999 62.4 99.4999 62.4 99.3999 62.5C99.3999 62.7 99.5999 62.7 99.5999 62.7C100.1 63.2 100.3 63.8 100.2 64.5V64.7C100.4 65.2 100.4 65.4 99.9999 66C99.6999 66.5 99.7999 67.1 99.4999 67.6C99.9999 67.3 100.1 67.6 100.2 67.9C100.5 67.5 100.8 67 101.2 66.8C101.6 66.6 101.8 67 102 67.2C102.2 67.4 102.3 67.5 102.3 67.7C102.3 68 102 67.9 101.9 68C101.7 68.2 101.7 68.5 101.6 68.7C101.4 69.1666 101.033 69.3667 100.5 69.3C100.2 69.1 100.1 69.5 99.8999 69.5C99.4999 69.5 99.2999 69.9 98.9999 69.8H98.7999C98.7999 69.8 98.6999 69.7 98.5999 69.6C98.4999 69.6 98.3999 69.5 98.1999 69.6C98.1999 69.7 98.1999 69.8 98.1999 69.9C98.3999 70.3 98.5999 70.8 98.8999 71.1C99.3999 71.1 99.4999 71.7 99.8999 71.8C100.2 71.8 100.3 71.6 100.5 71.4C100.6 71.3 100.7 71.1 100.8 71C100.9 70.9 101.1 70.7 101.2 71C101.3 71.1 101.3 71.3 101.2 71.5C101 71.8 100.7 72 100.4 72.2C100.3 72.3 100.1 72.5 99.9999 72.7C99.9999 72.8 99.7999 72.9 99.6999 72.9C99.3999 72.9 99.4999 73.1 99.4999 73.3C99.4999 73.3 99.4999 73.4 99.4999 73.5C99.1999 73.8 98.8999 73.6 98.5999 73.5C98.8999 73.7 99.3999 73.6 99.6999 73.8C99.8999 73.8 100.1 74 99.6999 74.2C99.4999 74.3 99.2999 74.4 99.1999 74.5C98.7999 74.5 98.5999 74.7 98.6999 75.2C98.9999 75.2 99.2999 74.8 99.5999 75.2C99.5999 75.2 99.5999 75.3 99.5999 75.4C99.5999 75.5 99.5999 75.6 99.5999 75.7C99.5999 75.9 99.1999 75.9 99.2999 76.2C99.1999 76.4 99.0999 76.5 98.8999 76.6C98.6999 76.6 98.5999 76.6 98.3999 76.5C98.3999 76.7 98.3999 76.8 98.3999 76.9C98.2999 77.3 98.0999 77.3 97.7999 76.9C97.7999 76.9 97.7999 76.5 97.4999 76.7C97.4999 76.7 97.4999 76.7 97.4999 76.8C97.4999 76.8 97.4999 77 97.4999 77.1C97.1999 77.7 96.8999 77.8 96.2999 77.3C96.2999 77.6 95.9999 77.6 95.7999 77.8C96.0999 77.6 96.3999 77.6 96.5999 77.8C96.7999 78 96.9999 77.8 97.1999 77.8C97.4999 77.8 97.5999 77.9 97.5999 78.2C97.5999 78.2 97.5999 78.4 97.5999 78.5C97.9999 79 97.6999 79.4 97.4999 79.8C97.2999 80.1 97.0999 80.3 96.9999 80.7C97.3999 80.7 97.8999 80.7 97.8999 81.2C97.8999 81.3 97.6999 81.4 97.5999 81.5C97.0999 81.9 96.4999 82.4 95.7999 82.6C95.5999 82.6 95.4999 82.8 95.3999 83C95.1999 83.3 94.9999 83.5 94.5999 83.6C94.2999 83.6 94.3999 83.4 94.2999 83.2C94.2999 83 94.2999 82.7 94.0999 82.6C93.5999 82.4 93.4999 82.9 93.1999 83.1C93.1999 83.4 92.9999 83.7 93.0999 84C93.0999 84.1 92.9999 84.3 92.8999 84.3C92.3999 84.2 92.3999 84.5 92.2999 84.8C92.2999 85 92.1999 85.4 91.8999 85.4C91.5999 85.4 91.4999 85.1 91.2999 84.9C91.2999 84.9 91.1999 84.7 91.0999 84.7C90.9999 84.5 90.9999 84.3 91.0999 84.1C91.0999 83.8 91.0999 83.7 90.8999 83.5C90.6999 83 90.3999 83.3 90.0999 83.3C89.7999 83.3 89.4999 83.4 89.1999 83.6C88.9999 83.6 88.8999 83.5 88.8999 83.3C89.1999 83.1 88.8999 82.6 89.1999 82.4C89.3999 82.4 89.4999 82.4 89.6999 82.4C90.1999 82.5 90.0999 82.1 90.0999 81.9C90.0999 81.6 90.2999 81.5 90.5999 81.5C90.6999 81.5 90.8999 81.5 90.8999 81.2C90.8999 81 90.6999 81 90.5999 81.2C90.5999 81.2 90.4999 81.3 90.3999 81.3C89.9999 81.3 90.1999 81 90.1999 80.9C90.1999 80.6 90.4999 80.4 90.7999 80.5C91.0999 80.8 91.1999 80.5 91.2999 80.3C91.3999 80.3 91.4999 80.3 91.5999 80.3C91.7999 80.5 91.7999 80.7 91.8999 80.9C92.0999 80.6 92.8999 81 92.4999 80.2C92.4999 80.1 92.4999 79.9 92.5999 79.8C92.9999 79.5 93.3999 79.2 93.6999 78.8C93.6999 78.7 93.8999 78.8 94.0999 78.7C93.6999 78.7 93.2999 78.4 92.8999 78.3C92.8999 78.5 93.0999 78.6 93.1999 78.6C93.4999 78.9 93.4999 79.1 93.1999 79.3C92.7999 79.4 92.3999 79.6 91.9999 79.4C91.9999 79.2 91.9999 79 92.1999 78.9C91.8999 79.1 91.6999 78.9 91.3999 78.9C91.1999 79.4 90.9999 79.5 90.8999 79.1C90.8999 78.9 90.8999 78.7 90.5999 78.5C90.5999 78.7 90.2999 78.8 90.0999 78.9C89.7999 79.2 89.5999 79.6 89.3999 80C89.3999 80.1 89.3999 80.3 89.3999 80.4C89.3999 80.9 88.9999 81.2 88.4999 81C88.3999 80.9 88.2999 80.8 88.0999 80.8C88.0999 80.8 87.8999 80.8 87.8999 80.7C87.5999 80.4 87.5999 80.6 87.4999 80.8C87.2999 81.3 86.8999 81.6 86.8999 82.2C86.8999 82.3 86.8999 82.4 86.6999 82.4C86.4999 82.4 86.3999 82.3 86.2999 82.1C86.2999 81.9 86.2999 81.7 86.2999 81.4C86.1999 81.1 86.2999 80.8 86.4999 80.4C86.0999 80.4 85.8999 80.6 85.5999 80.4C85.7999 80.9 85.8999 81.3 85.9999 81.8C85.9999 82.1 86.2999 82.3 86.2999 82.7C86.2999 82.9 85.9999 83.1 86.0999 83.3C86.0999 83.4 86.0999 83.5 86.0999 83.7C86.2999 84 86.4999 83.5 86.5999 83.7C86.7999 84 86.9999 84.3 86.8999 84.7C86.5999 84.9 86.3999 84.9 86.1999 84.4C86.2999 85 86.5999 84.8 86.8999 84.7C86.8999 84.7 86.9999 84.7 87.0999 84.7C87.2999 84.9 87.1999 85.3 87.5999 85.2H87.6999C87.7999 85.2 87.9999 85.2 88.0999 85.2H88.2999C88.3999 85.2 88.4999 85.2 88.4999 85.4C88.4999 85.5 88.4999 85.6 88.5999 85.8C88.5999 85.9 88.5999 86 88.5999 86.1C88.5999 86.2 88.5999 86.3 88.5999 86.5C88.5999 86.8 88.5999 87 88.1999 87C88.0999 87 87.9999 86.8 87.8999 86.8C87.7999 86.8 87.6999 86.6 87.5999 86.8C87.3999 87.5 87.5999 88.2 87.2999 88.9C87.0999 89.6 86.8999 90.3 86.5999 91C86.5999 91.2 86.5999 91.3 86.5999 91.5C86.3999 91.5 86.0999 91.5 85.9999 91.7C85.6999 92.1 85.5999 91.7 85.3999 91.5C85.1999 91.4 84.9999 91.4 84.7999 91.5C84.4999 91.5 84.2999 91.7 84.1999 92C84.1999 92.1 84.0999 92.2 83.8999 92.3C83.4999 92.5 83.1999 92.3 82.8999 92.1C82.7999 92.1 82.5999 91.9 82.4999 92.1C82.3999 92.2 82.4999 92.3 82.4999 92.5C82.5999 92.9 82.9999 93.3 82.7999 93.6C82.5999 94 82.8999 94 83.0999 94.2C83.0999 94.2 83.1999 94.4 83.2999 94.4C83.2999 94.8 83.4999 95.1 83.4999 95.5C83.4999 95.5 83.3999 95.5 83.2999 95.5C83.3999 95.5 83.3999 95.5 83.4999 95.4C83.6999 95.4 83.6999 95.6 83.7999 95.7C83.7999 96.1 84.1999 96.4 84.0999 96.8C84.0999 96.8 84.0999 97 83.9999 97C83.5999 97 83.6999 97.2 83.6999 97.4C83.3999 97.9 83.8999 98.3 83.9999 98.7C83.9999 98.7 83.9999 98.8 83.9999 98.9C83.8999 99.2 83.7999 99.4 83.9999 99.7C83.9999 100.1 83.7999 100.5 84.0999 100.8C84.1999 101 84.4999 100.8 84.5999 101C84.5999 101.4 84.1999 101.7 84.3999 102.2V102.4C84.3999 102.7 83.7999 102.5 83.7999 103C83.9999 103 84.2999 102.2 84.4999 103V103.2C84.4999 103.4 84.4999 103.5 84.4999 103.7C84.4999 104.2 84.2999 104.4 83.7999 104.3C83.9999 104.4 84.1999 104.5 84.3999 104.6C84.3999 104.6 84.3999 104.7 84.3999 104.8C84.3999 105.2 84.0999 105.4 83.6999 105.3C83.4999 105.1 83.3999 104.8 83.2999 104.6C82.9999 104.2 82.9999 103.8 83.4999 103.5C83.5999 103.5 83.6999 103.7 83.8999 103.5C83.8999 103.4 83.6999 103.5 83.5999 103.5C83.2999 103.4 83.1999 103.1 83.0999 102.6C82.7999 103.2 83.2999 103.6 83.0999 104.2C83.0999 104.6 83.3999 105.1 83.5999 105.6C83.5999 105.8 83.5999 106 83.6999 106.2C83.6999 106 83.6999 105.8 83.6999 105.6C83.6999 105.6 83.6999 105.6 83.6999 105.5C83.8999 105.3 84.0999 105.4 84.1999 105.7C84.1999 105.9 84.1999 106 84.1999 106.2C84.1999 106.5 84.1999 106.8 84.3999 107.1C84.3999 106.8 84.3999 106.5 84.6999 106.3C84.8999 106.2 85.0999 106.3 85.1999 106.5C85.1999 106.7 85.1999 106.9 85.2999 107C85.2999 107 85.1999 107.4 85.4999 107.3C85.6999 107.3 85.7999 107.2 85.6999 106.9C85.6999 106.7 85.6999 106.5 85.6999 106.3C85.7999 106.2 85.5999 105.9 85.8999 105.8C86.1999 105.8 86.1999 106 86.2999 106.2C86.2999 106.6 86.3999 106.9 86.7999 107.2C86.8999 107.2 86.9999 107.5 86.7999 107.7C86.6999 107.8 86.5999 107.7 86.4999 107.7C86.1999 107.5 86.4999 107.7 86.4999 107.8C86.4999 107.8 86.4999 107.8 86.4999 107.9C86.4999 108 86.4999 108.2 86.4999 108.3C86.4999 108.6 86.2999 108.8 85.9999 108.7C85.9999 108.7 85.9999 108.9 85.8999 108.9C85.6999 108.9 85.5999 108.7 85.5999 108.6C85.4999 108.6 85.5999 108.5 85.5999 108.6C85.7999 109.4 85.5999 110.3 85.9999 111.1C86.0999 111.4 85.7999 111.6 85.9999 111.9C85.9999 111.5 86.1999 111.3 86.4999 111.2C86.6999 111.2 86.7999 111.2 86.7999 111.5C86.6999 111.7 86.4999 111.5 86.2999 111.6C86.2999 112.2 86.9999 112.7 86.4999 113.3C86.4999 113.4 86.7999 113.6 86.5999 113.9C86.5999 113.9 86.5999 114.1 86.4999 114.2C86.2999 114.2 86.2999 114.2 86.1999 114.1C86.1999 114 85.9999 113.9 85.8999 114C85.6999 114 85.8999 114.3 85.8999 114.4C85.7999 114.4 85.5999 114.4 85.3999 114.2C85.3999 114.2 85.3999 114.3 85.3999 114.4C84.8999 115.1 84.9999 115.8 85.0999 116.6C85.1999 117.1 85.0999 117.3 84.4999 117.4C84.6999 117.7 84.9999 117.7 85.0999 118C85.2999 118.3 85.1999 118.6 84.8999 118.8C85.0999 118.8 85.1999 118.8 85.2999 118.6C85.2999 118.3 85.5999 118.2 85.8999 118.2C86.0999 118.2 86.1999 118.4 86.0999 118.9C86.4999 118.5 86.4999 118.5 86.9999 119C86.9999 119 86.9999 119.1 86.9999 119.2C86.9999 119.2 86.9999 119.1 86.9999 119C86.9999 118.9 87.1999 118.8 87.2999 118.8C87.5999 118.6 87.7999 118.6 87.6999 119.1C87.6999 119.3 87.5999 119.2 87.4999 119.2C87.2999 119.2 87.4999 119.6 87.0999 119.5C86.4999 119.8 86.7999 120.2 86.9999 120.6C86.9999 120.7 86.7999 120.6 86.6999 120.6C86.2999 120.8 86.4999 121.2 86.4999 121.5C86.4999 122.1 86.1999 122.7 85.8999 123.2C85.6999 123.6 85.2999 123.8 84.8999 123.5C84.5999 123.3 84.2999 123.3 83.8999 123.3C83.6999 123.3 83.4999 123.3 83.1999 123.1C83.2999 123.6 83.2999 124 83.7999 124.1C83.7999 124.1 83.7999 124.1 83.8999 124.2C83.8999 124.5 83.6999 124.7 83.6999 125C83.6999 125.3 83.6999 125.1 83.6999 125.2C83.6999 125.2 83.5999 125.4 83.4999 125.4C82.5999 125.1 82.6999 126 82.2999 126.4C82.2999 126.2 82.3999 126.1 82.5999 126.2C82.7999 126.5 82.7999 126.7 82.5999 127C82.2999 127 81.7999 127 81.9999 127.6V127.8C81.9999 128.2 82.0999 128.6 81.7999 128.9C81.7999 128.9 81.7999 129 81.7999 129.1C81.7999 129.3 81.7999 129.5 82.0999 129.4C82.3999 129.4 82.6999 129.4 82.8999 129.7C82.9999 129.9 83.0999 130.1 82.9999 130.3C82.7999 130.8 82.9999 131.3 83.2999 131.7C83.2999 131.9 83.4999 131.9 83.6999 131.9C83.8999 131.9 84.1999 131.7 84.2999 132.1H84.4999C84.6999 131.8 84.8999 131.7 85.1999 131.7C85.1999 131.4 84.6999 131.2 84.9999 130.9C85.2999 130.7 85.4999 131 85.6999 131.2C85.8999 131.4 85.9999 131.5 86.2999 131.3C86.4999 131.2 86.5999 131.3 86.6999 131.3C86.8999 131.4 86.7999 131.6 86.6999 131.8C86.6999 132 86.5999 132.2 86.4999 132.3C86.2999 132.6 86.4999 132.8 86.4999 133.1C86.4999 133.6 86.2999 133.8 85.7999 133.6C85.3999 133.5 85.3999 133.5 85.1999 134C85.4999 134 85.6999 134 85.9999 133.9C86.1999 133.9 86.4999 133.8 86.5999 134.1C86.5999 134.4 86.5999 134.7 86.2999 134.7C85.8999 134.7 85.5999 135.1 85.0999 134.9C85.2999 135.2 85.5999 134.9 85.6999 135.2C85.6999 135.4 85.8999 135.5 86.0999 135.5C86.0999 135.5 86.1999 135.5 86.0999 135.7C86.0999 135.8 85.8999 135.9 85.7999 136C85.6999 136 85.6999 136.2 85.4999 136.3C85.6999 136.3 85.9999 136.3 86.0999 136.4C86.2999 136.5 86.5999 136.4 86.8999 136.4C86.4999 136.8 86.5999 137.1 87.0999 137.4C87.0999 137.7 87.1999 137.9 87.4999 138.1C87.6999 138.3 87.7999 138.1 87.7999 137.9C87.9999 137.8 88.1999 137.9 88.2999 137.9C88.4999 138 88.5999 138.2 88.2999 138.4C87.7999 138.8 87.4999 139.2 87.6999 139.9C87.6999 140.2 87.3999 140.5 87.1999 140.8C86.9999 141.1 87.1999 141.6 86.8999 141.9C86.8999 142 86.8999 142.1 86.9999 142.1C86.9999 142.1 87.1999 142.3 87.0999 142.4C86.7999 142.7 87.0999 143 87.0999 143.3C87.2999 142.8 87.3999 142.2 88.0999 142.4C88.2999 142.4 88.4999 142.4 88.5999 142.2C88.5999 142.2 88.5999 142.2 88.6999 142.2C88.9999 142.4 88.7999 142.6 88.6999 142.7C88.5999 142.9 88.6999 142.9 88.6999 142.8C89.1999 142.5 89.5999 142.5 89.9999 143C89.9999 143 89.9999 143.1 89.9999 143.2C89.6999 143.7 89.8999 144.2 90.1999 144.7C89.9999 144.8 89.7999 144.7 89.6999 144.7C88.9999 144.7 88.5999 145.1 88.7999 145.7C88.7999 146 88.6999 146.2 88.7999 146.5C89.0999 146.3 89.5999 146.4 89.6999 145.9L89.8999 145.8C90.2999 146 90.4999 145.5 90.7999 145.6C90.7999 145.9 90.7999 146.1 91.0999 146.4C91.3999 146.7 91.0999 147 90.6999 147.1C90.6999 147.1 90.6999 147.1 90.5999 147.1C90.3999 146.9 90.2999 146.7 90.1999 146.5C90.1999 146.8 90.1999 147.1 89.9999 147.4C89.7999 147.7 89.5999 148 89.0999 148C88.8999 148 88.7999 147.9 88.6999 147.7C88.6999 147.5 88.6999 147.3 88.6999 147C87.8999 147.3 87.4999 146.8 87.0999 146.3C86.8999 146.1 86.6999 146 86.4999 146.3C86.2999 146.2 86.1999 146 85.9999 145.8C85.9999 146.2 86.2999 146 86.3999 146.2C87.1999 146.2 87.2999 146.5 86.9999 147.2C86.9999 147.3 86.9999 147.4 86.9999 147.5C87.1999 147.7 86.9999 147.9 86.9999 148.1C87.1999 148.6 87.2999 148.6 87.7999 148.2C87.8999 148.2 88.0999 148.1 88.1999 148.2C88.1999 148.6 88.1999 149 87.7999 149.3C87.4999 149.5 87.5999 149.7 87.5999 150C87.5999 150.2 87.8999 150 87.9999 150.1C87.9999 150.1 87.9999 150.3 87.9999 150.4C88.1999 150.7 88.4999 150.6 88.6999 150.5C88.9999 150.4 89.1999 150.5 89.3999 150.8C89.4999 151 89.3999 151.2 89.1999 151.3C89.4999 151.1 89.6999 150.9 89.4999 150.6C89.2999 150.3 88.9999 150.4 88.7999 150.4C88.5999 150.4 88.3999 150.6 88.0999 150.4C87.7999 150.2 88.0999 149.9 88.0999 149.7C88.3999 149.4 88.5999 149 89.0999 149.1C89.2999 149.1 89.3999 149.2 89.4999 149.3C89.5999 149.3 89.6999 149.3 89.6999 149.2C90.1999 149.1 90.6999 148.8 91.1999 148.9C91.2999 148.9 91.4999 148.9 91.5999 148.9C92.2999 149.1 92.0999 148.5 91.9999 148.4C91.5999 148 92.2999 147.8 92.1999 147.5H92.3999C92.6999 147.6 92.7999 147.6 92.8999 147.3C92.8999 147.1 92.8999 147 93.1999 146.9C93.3999 146.9 93.2999 146.7 93.1999 146.5C93.0999 146 93.1999 145.7 93.7999 145.6C93.6999 146.1 93.7999 146.5 93.9999 146.8C94.0999 147 94.1999 146.6 94.3999 146.7C94.6999 147.3 94.1999 147.6 93.8999 148C93.8999 148 93.8999 148 93.6999 148C93.2999 148 92.8999 148 92.4999 147.9C92.0999 147.9 91.9999 148 92.0999 148.4C92.0999 148.6 92.0999 148.8 92.0999 149C92.0999 149 92.1999 148.9 92.1999 148.8C92.2999 148.3 92.9999 148 93.4999 148.3C93.5999 148.3 93.7999 148.6 93.7999 148.3H93.8999V148.4C93.6999 148.6 93.8999 148.8 93.8999 149C93.9999 149.3 94.0999 149.5 93.5999 149.5C93.0999 149.5 93.3999 149.9 93.5999 150.2C93.5999 150.3 93.7999 150.5 93.5999 150.6C93.4999 150.7 93.2999 150.6 93.1999 150.6C92.9999 150.6 92.9999 150.4 93.1999 150.3C93.3999 150.1 93.2999 150 93.1999 149.9C92.8999 149.7 92.5999 149.7 92.6999 149.9C92.6999 150.1 92.7999 150.2 92.7999 150.4C92.5999 150.4 92.4999 150.4 92.4999 150.2C92.4999 149.6 92.1999 149.9 91.8999 149.8C91.6999 149.8 91.5999 149.8 91.5999 150C91.5999 150.2 91.7999 150 91.8999 150C92.1999 149.8 92.1999 150.3 92.1999 150.3C92.1999 150.6 92.2999 150.7 92.5999 150.7C92.5999 150.7 92.7999 150.7 92.7999 150.8C92.7999 151.1 93.1999 151.1 93.2999 151.3C93.4999 151.6 93.8999 151.3 93.8999 151.4C93.8999 151.6 93.4999 151.6 93.3999 151.8C93.5999 152 93.8999 152.2 93.9999 152.5C93.9999 152.6 94.2999 152.5 94.3999 152.5C94.5999 152.3 94.5999 151.9 94.8999 151.8C95.0999 151.8 95.3999 151.8 95.5999 152C95.5999 152 95.5999 152.1 95.5999 152.2C96.1999 152.9 95.3999 153 95.1999 153.4C95.1999 153.5 94.9999 153.6 95.1999 153.7C95.2999 153.9 95.3999 153.7 95.4999 153.7C95.8999 153.6 96.0999 153.7 96.3999 154.2C95.7999 154.5 95.0999 154.2 94.3999 154.2C94.2999 154.2 94.1999 154.2 94.1999 154.1C93.9999 153.8 93.8999 153.9 93.6999 154.1C93.4999 154.4 93.6999 154.4 93.8999 154.4C93.9999 154.4 94.0999 154.5 94.0999 154.8C93.4999 154.3 92.5999 154.4 92.0999 153.6C92.0999 153.6 91.8999 153.4 91.7999 153.6C91.7999 153.6 91.5999 153.8 91.5999 153.9C91.5999 154.1 91.6999 154.1 91.7999 154.1C92.1999 154.1 92.1999 154.3 92.0999 154.6C91.9999 154.8 92.0999 155.1 92.1999 155.3C92.1999 155.5 92.4999 155.3 92.4999 155.2C92.6999 154.5 93.1999 154.8 93.5999 154.9C93.8999 155 94.3999 155.2 93.8999 155.7C93.8999 155.7 93.6999 156 93.8999 156.1C94.0999 156.1 94.1999 156.1 94.0999 155.9C94.0999 155.7 94.1999 155.6 94.2999 155.6C94.4999 155.6 94.5999 155.6 94.6999 155.8C94.7999 155.9 94.7999 156.2 95.0999 156.2C95.0999 156.2 95.0999 156.2 95.0999 156.3C95.0999 156.8 94.8999 157.1 94.6999 157.5C94.6999 157.9 94.2999 158.3 94.1999 158.7C94.0999 159 93.7999 159.2 93.3999 159.1C93.3999 159.1 93.3999 159.1 93.3999 159C93.3999 159 93.3999 158.9 93.3999 158.8C93.3999 158.6 93.6999 158.3 93.3999 158.2C93.1999 158.2 92.8999 158.4 92.8999 158.8C92.8999 158.9 92.8999 159.1 92.6999 159.1C92.4999 158.9 92.2999 159 92.1999 159.3C92.1999 159.5 92.0999 159.4 91.9999 159.4C91.7999 159.4 91.9999 159.3 91.9999 159.2C91.9999 158.9 91.7999 159.1 91.7999 159.2C91.3999 159.7 90.7999 159.3 90.2999 159.5C90.1999 159.5 90.0999 159.5 90.0999 159.3C90.0999 159.2 90.0999 159.1 90.1999 159.1C90.2999 159.1 90.6999 158.7 90.1999 158.7C90.1999 158.5 90.1999 158.4 90.1999 158.3C90.3999 158.1 90.5999 157.9 90.1999 157.6C89.8999 157.4 90.3999 157.3 90.3999 157.1C90.1999 156.9 89.7999 157.1 89.4999 156.9C89.4999 156.9 89.3999 156.7 89.2999 156.6C89.2999 156.4 89.4999 156.2 89.5999 156C89.7999 155.8 89.8999 155.6 89.5999 155.5C89.2999 155.5 89.1999 155.3 89.1999 155C89.4999 154.8 89.3999 154.5 89.5999 154.3C89.7999 154 89.8999 153.7 89.8999 153.3C89.8999 153.1 90.0999 152.9 89.8999 152.9C89.6999 152.9 89.3999 152.9 89.2999 153.2C89.2999 153.6 88.9999 153.9 88.8999 154.2C88.6999 154.8 88.1999 155.1 87.6999 155.3C87.9999 155.3 88.1999 155.1 88.4999 155.2C88.6999 155.5 88.2999 155.6 88.2999 155.9C88.2999 156.1 88.2999 156.3 88.2999 156.5C88.2999 156.7 88.2999 156.9 88.2999 157C88.2999 157.2 88.2999 157.3 88.0999 157.5C87.9999 158.1 88.4999 157.7 88.5999 157.8C88.7999 158 88.9999 158.3 89.2999 158.4C89.2999 158.4 89.3999 158.5 89.2999 158.6C89.2999 159.1 88.6999 159 88.4999 159.3C88.0999 159.7 88.1999 160.1 88.2999 160.6C88.2999 160.8 88.2999 161.3 88.7999 161.1C88.9999 161.1 88.9999 161.3 88.7999 161.4C88.6999 161.6 88.4999 161.6 88.3999 161.8C88.2999 162 88.1999 162.2 88.3999 162.4C88.4999 162.6 88.5999 162.8 88.5999 163C88.5999 163 88.5999 163 88.4999 163.1C88.1999 163.2 88.3999 163.8 87.8999 163.7H87.6999C87.6999 164.1 87.5999 164.5 87.8999 164.8C88.0999 164.9 88.1999 165.1 87.9999 165.3C87.6999 165.6 87.9999 166 87.7999 166.3C87.7999 166.8 87.5999 167 87.0999 166.9C86.8999 166.9 86.6999 166.9 86.4999 167.1C86.4999 167.1 86.2999 167.3 86.1999 167.3C85.9999 167.3 85.0999 166.4 85.0999 166.1C85.0999 165.8 85.3999 165.8 85.5999 165.9C85.5999 165.5 85.4999 165.2 85.0999 165.1C84.8999 165.1 84.7999 165.2 84.6999 165.3C84.4999 165.3 84.2999 165.3 84.2999 165.6C84.2999 165.8 84.2999 165.9 84.2999 166.1C84.2999 166.8 84.2999 166.8 84.9999 166.6C85.1999 166.6 85.3999 166.6 85.4999 166.8C85.6999 167.2 85.9999 167.5 86.1999 167.9C86.4999 168.3 86.5999 168.9 86.4999 169.4C86.3999 170 86.6999 170.4 87.0999 170.7C87.3999 171 87.4999 171.1 87.3999 171.5C87.3999 171.7 87.3999 171.9 87.3999 172.1C87.7999 172.7 87.3999 173.2 87.0999 173.6C86.7999 174 86.2999 174.4 86.0999 174.9C85.6999 174.9 85.5999 174.6 85.5999 174.3C85.5999 174 85.5999 173.7 85.5999 173.5C85.5999 173.5 85.4999 173.5 85.3999 173.5C84.7999 173.9 84.0999 173.5 83.9999 172.8C83.9999 172.2 83.7999 171.6 83.6999 171C83.4999 171.5 83.4999 171.9 83.5999 172.4C83.5999 173.1 83.5999 173.2 82.8999 173.2C82.8999 173.4 83.1999 173.4 83.2999 173.5C83.4999 173.5 83.6999 173.8 83.6999 174C83.6999 174.5 83.8999 175 83.7999 175.5C83.7999 175.7 83.7999 175.8 83.9999 175.9C83.9999 175.9 84.0999 175.9 84.1999 176C84.3999 176.2 84.8999 176.3 84.9999 176.6C85.0999 177 84.6999 177.1 84.4999 177.4C84.1999 177.9 84.1999 178.4 84.3999 179C84.5999 179.4 84.6999 179.9 84.3999 180.3C84.3999 180.3 84.3999 180.5 84.3999 180.6C84.8999 181 84.3999 181.5 84.4999 181.9C84.4999 182.3 84.2999 182.3 83.9999 182.2C83.9999 182.2 83.8999 182 83.7999 182.2C83.7999 182.4 83.7999 182.6 83.5999 182.8C83.3999 183 83.1999 183.1 82.8999 182.9C82.6999 182.7 82.6999 182.4 82.4999 182.1C82.4999 182.4 82.6999 182.6 82.4999 182.8C82.3999 183 82.1999 183.1 81.9999 182.8C81.7999 182.6 81.5999 182.6 81.3999 182.5C81.0999 182.7 81.0999 182.9 81.2999 183.2C81.2999 183 81.2999 182.8 81.4999 182.8C81.8999 182.8 81.9999 183 82.0999 183.3C82.0999 183.8 82.3999 184.1 82.7999 184.4C82.9999 184.4 83.2999 185 83.2999 184.3C83.2999 183.9 83.4999 183.7 83.8999 183.9C83.9999 183.9 84.0999 184.2 84.2999 183.9C84.3999 183.7 84.4999 183.4 84.7999 183.4C85.0999 183.4 85.2999 183.7 85.2999 184C85.2999 184.3 85.3999 184.5 85.7999 184.5C86.1999 184.5 86.1999 184.9 86.3999 185.2C86.6999 185 86.5999 184.5 86.9999 184.5C87.4999 184.5 87.9999 184.5 88.3999 184.7C88.4999 185 88.7999 185 88.9999 184.9C89.1999 184.9 89.3999 184.9 89.3999 184.6C89.3999 184.3 89.3999 184.3 89.5999 184.3C89.7999 184.3 89.8999 184.3 89.8999 184.5C89.8999 184.7 90.0999 184.9 90.0999 185.1C90.0999 186 90.4999 186.8 90.8999 187.6C90.8999 187.8 91.1999 188.1 90.8999 188.2C90.5999 188.3 90.1999 188.4 90.0999 188C89.8999 187.7 89.7999 187.3 89.4999 187.8C89.3999 188 89.1999 187.9 88.9999 187.8C88.7999 187.6 88.5999 187.6 88.2999 187.8C88.7999 187.7 88.9999 187.9 88.9999 188.3C88.9999 188.6 89.1999 188.9 89.2999 189.3C89.2999 189.5 89.2999 189.8 89.6999 189.8C90.0999 189.8 90.1999 189.6 90.1999 189.3C90.1999 189.3 90.1999 189.3 90.1999 189.2C90.2999 189.2 90.3999 189 90.4999 188.9C90.7999 188.4 90.9999 188.4 91.3999 188.8C91.8999 189.3 91.8999 189.7 91.3999 190.2C91.3999 190.3 91.1999 190.4 91.1999 190.5C90.9999 190.9 90.6999 191.1 90.2999 190.8C90.0999 190.9 90.1999 191.1 90.1999 191.2C90.1999 191.8 89.9999 191.9 89.4999 191.5C89.2999 191.4 89.1999 191.4 89.0999 191.5C88.8999 191.6 88.9999 191.8 89.0999 191.9C89.2999 192.3 89.1999 192.6 88.7999 192.7C88.3999 192.9 88.1999 192.7 87.9999 192.2C87.9999 192.1 87.8999 192 87.8999 191.8C87.8999 191.9 87.9999 192 87.9999 192.1C87.9999 192.6 87.9999 192.9 88.6999 192.7C88.9999 192.6 89.1999 193 89.3999 193.3C89.6999 193.8 89.7999 194.5 89.9999 195C89.9999 195.2 90.1999 195.5 90.4999 195.4C90.7999 195.4 90.8999 195.1 90.8999 194.8C90.8999 194.5 90.8999 194.1 90.8999 193.8C90.9999 193.2 91.4999 193 91.8999 193.5C92.1999 193.8 92.3999 193.9 92.7999 193.7C93.0999 193.5 93.3999 193.8 93.4999 194.1C93.6999 194.4 93.9999 194.6 94.2999 194.8C94.8999 195 95.0999 195.5 94.8999 196.1C94.3999 197.3 93.7999 197.4 92.7999 196.6C92.4999 196.3 92.0999 196.2 91.7999 196C91.4999 195.8 91.1999 196 91.1999 196.3C91.1999 196.7 91.1999 197.1 90.9999 197.6C90.9999 197.9 90.9999 198.1 91.1999 198.3C91.4999 198.8 91.2999 199.5 91.5999 200.1C91.5999 200.1 91.5999 200.1 91.5999 200.2C91.5999 200.7 91.7999 201.2 91.8999 201.7C91.8999 201.9 91.8999 202.1 91.7999 202.1C91.5999 202.1 91.3999 202 91.3999 201.8C91.3999 201.5 91.1999 201.2 91.1999 201C91.1999 201.5 91.5999 202 91.1999 202.5C91.1999 202.6 91.1999 202.9 91.1999 203.1C91.1999 203.3 91.2999 203.6 91.1999 203.8C90.9999 204.1 90.8999 204.4 90.3999 204.2C90.2999 204 90.1999 203.9 90.0999 203.7C89.9999 203.3 89.9999 202.8 89.6999 202.3C89.7999 202.6 89.9999 202.8 89.8999 203.1C89.7999 203.3 89.5999 203.3 89.3999 203.2C89.2999 203.2 89.1999 203 89.1999 202.8C89.1999 202.4 89.1999 201.9 88.7999 201.6C88.7999 201.7 88.7999 201.9 88.7999 202V202.2C89.1999 203.1 89.1999 204.1 89.3999 205C89.3999 205.1 89.3999 205.2 89.3999 205.3C89.4999 205.7 89.5999 206 89.1999 206.3C88.9999 206.4 88.8999 206.3 88.8999 206.1C88.8999 205.9 88.8999 205.7 88.8999 205.6C88.8999 205.2 88.4999 204.9 88.4999 204.5C88.4999 204.4 88.4999 204.2 88.3999 204.2C88.3999 204.5 88.0999 204.7 88.5999 204.9C88.7999 204.9 88.7999 205.3 88.8999 205.5C88.8999 205.6 88.8999 205.7 88.8999 205.9C88.8999 206.2 88.8999 206.4 88.3999 206.3C88.3999 206.3 88.1999 206.3 88.0999 206.3C88.1999 206.9 88.5999 207.4 88.6999 208C88.6999 208.1 88.6999 208.3 88.6999 208.4C88.3999 208.7 88.2999 208.4 88.0999 208.2C87.8999 207.6 87.7999 207.5 87.2999 207.9C87.0999 208 86.9999 208.1 86.7999 208.1C86.7999 208.1 86.6999 208.1 86.5999 208.1C86.0999 207.9 86.1999 207.2 85.8999 206.8C85.8999 207.4 86.0999 208.1 86.2999 208.7C86.2999 208.9 86.3999 209.1 86.1999 209.2C85.8999 209.4 85.9999 209.6 86.1999 209.7C86.6999 210 86.7999 210.6 86.9999 211.1C86.9999 211.4 86.8999 211.6 86.6999 211.8C86.6999 212.2 86.4999 212.4 86.0999 212C86.0999 212.3 85.8999 212.5 85.8999 212.8C85.8999 213 85.6999 213 85.4999 212.9C84.9999 212.7 84.4999 212.6 84.1999 212.1C84.3999 211.7 84.3999 211.4 83.9999 211.2C84.1999 211.4 84.3999 211.6 84.1999 211.9C84.1999 212 84.0999 212.2 84.1999 212.2C84.5999 212.5 84.3999 212.9 84.1999 213.2C83.6999 213.2 83.4999 212.9 83.3999 212.5C83.3999 212.3 83.2999 212.1 82.9999 211.9C82.9999 211.9 82.7999 211.9 82.6999 211.8C82.5999 211.8 82.4999 211.7 82.3999 211.6C82.1999 211.5 82.1999 211.2 81.8999 211.6C81.7999 211.8 81.5999 211.5 81.4999 211.4C80.7999 211.4 80.7999 211.4 81.0999 210.6C81.2999 210.4 81.5999 210.6 81.8999 210.6C81.8999 210.4 81.8999 210.3 81.7999 210.2C81.7999 210.2 81.7999 210 81.7999 209.9C82.0999 209.5 81.7999 209.3 81.4999 209C81.4999 209 81.3999 209 81.2999 208.9C81.2999 208.7 81.2999 208.5 81.0999 208.4C80.8999 208.4 80.7999 208.6 80.7999 208.7L80.5999 208.8C80.3999 208.8 80.0999 208.5 80.0999 209C80.0999 209.2 79.9999 209.3 79.7999 209.2C79.0999 208.9 78.6999 208.9 78.1999 208.9C77.5999 208.8 77.4999 208.2 77.8999 207.7C78.0999 207.7 78.3999 207.7 78.2999 207.3C78.2999 207.1 78.4999 207.1 78.6999 207.1C78.4999 207 78.3999 207.1 78.2999 207.1C78.0999 207.2 77.9999 207.3 77.7999 207.1C77.5999 206.9 77.7999 206.7 77.7999 206.6C77.9999 206.4 77.7999 206.3 77.7999 206.1C77.5999 205.9 77.3999 205.9 77.1999 205.8C77.1999 205.8 77.0999 206 76.9999 206C76.7999 205.8 76.4999 206 76.2999 205.9C76.2999 205.6 76.2999 205.3 76.0999 205.1C75.9999 204.9 75.7999 204.6 76.0999 204.4C76.3999 204.1 76.0999 203.9 75.8999 203.7C75.8999 203.7 75.8999 203.6 75.8999 203.5C75.9999 203.3 76.3999 203.2 76.2999 202.9C76.2999 202.7 76.1999 202.5 75.9999 202.4C75.9999 202.3 75.9999 202.2 75.9999 202.1C76.2999 201.8 76.6999 201.6 76.6999 201.2C76.6999 201 77.1999 201.2 76.9999 200.8C76.9999 200.7 76.9999 200.6 76.9999 200.5C76.9999 200.2 76.9999 199.8 76.7999 199.6C76.4999 199.1 76.4999 198.7 76.5999 198.2C76.6999 197.8 76.5999 197.5 76.0999 197.6C75.9999 197.6 75.7999 197.6 75.6999 197.6C75.5999 197.6 75.4999 197.5 75.3999 197.4C75.3999 197.4 75.2999 197.2 75.1999 197.1C75.1999 196.7 74.8999 196.7 74.5999 196.8C74.3999 196.8 74.1999 196.8 73.9999 196.9C73.9999 197.2 74.1999 196.9 74.2999 197C74.4999 197 74.5999 196.9 74.7999 196.9C75.0999 196.9 75.1999 197.1 74.9999 197.3C74.8999 197.5 74.9999 197.7 74.9999 197.9C74.9999 198.2 75.3999 198.4 74.9999 198.7C74.4999 199 74.4999 199 74.1999 198.5V198.3C74.2999 198.1 74.3999 197.9 73.9999 197.9C73.5999 197.9 73.2999 197.9 73.0999 198.2C72.8999 198.5 72.6999 198.3 72.3999 198.2C72.5999 198.4 72.3999 198.6 72.3999 198.8C72.2999 199 72.3999 199.1 72.3999 199.3C71.7999 199.3 71.1999 199 71.0999 198.2C71.0999 198.6 71.2999 198.8 71.2999 199.1C71.2999 199.3 71.3999 199.4 71.2999 199.5C71.0999 199.6 70.9999 199.5 70.8999 199.4C70.2999 198.9 69.5999 199 68.9999 198.7C68.3999 198.7 68.6999 199.2 68.5999 199.5C68.5999 199.5 68.5999 199.5 68.4999 199.6C68.2999 199.6 68.0999 199.7 67.8999 199.4C67.8999 199.4 67.7999 199.4 67.6999 199.4C67.6999 199.4 67.5999 199.4 67.4999 199.4C67.2999 199.4 66.9999 199.6 66.7999 199.2C66.7999 199 67.0999 199 67.1999 198.8C67.1999 198.7 67.3999 198.6 67.4999 198.5C67.4999 198.5 67.5999 198.5 67.6999 198.4C67.7999 198.4 68.1999 198.4 67.7999 198.1C67.6999 198.1 67.5999 197.9 67.4999 197.9C67.3999 197.9 67.2999 197.7 67.2999 197.6V197.5C67.2999 197.5 67.6999 197.6 67.5999 197.3C67.5999 197.1 67.4999 197.1 67.2999 197.2C66.9999 197.2 66.7999 197 66.5999 196.8C66.5999 196.8 66.5999 196.8 66.5999 196.7C66.5999 196.5 66.5999 196.4 66.5999 196.2C66.5999 195.6 66.5999 195.2 66.9999 194.8C66.9999 194.8 66.9999 194.8 66.9999 194.7C67.1999 194.4 66.9999 194 67.1999 193.8C67.3999 193.8 67.6999 193.8 67.3999 193.4C67.3999 193.1 67.5999 192.9 67.7999 192.7C67.8999 192.6 67.9999 192.4 68.1999 192.3C68.2999 192.3 68.3999 192.2 68.5999 192.1C68.5999 192.1 68.7999 192 68.8999 192C68.5999 191.7 68.3999 191.4 67.8999 191.4C67.5999 191.4 67.4999 191.1 67.4999 190.8C67.5999 190.4 67.2999 190.2 67.1999 189.9C67.2999 189.5 66.8999 189.5 66.6999 189.3C66.6999 189.1 66.4999 188.8 66.6999 188.5C66.3999 188.9 66.0999 188.5 65.6999 188.6C65.7999 188.9 65.8999 189.1 65.5999 189.3C65.3999 189.4 65.4999 189.6 65.4999 189.8C65.4999 190.1 65.5999 190.5 65.4999 190.8C65.4999 190.9 65.3999 191 65.1999 191.1C65.1999 191.1 65.0999 191.1 64.9999 191.2C64.8999 191.4 64.9999 191.8 64.6999 191.8C64.1999 191.9 63.7999 192.3 63.2999 192.1C63.0999 192.1 62.9999 191.9 62.9999 191.7C62.9999 191.5 62.7999 191.4 62.5999 191.3C62.1999 191.3 62.0999 191.1 62.2999 190.7C62.4999 190.1 62.4999 189.5 62.0999 189C61.9999 188.9 61.7999 188.6 61.5999 188.8C61.3999 188.9 61.3999 189.1 61.5999 189.3C61.6999 189.6 61.6999 189.6 61.2999 189.7C61.5999 189.9 61.6999 190.2 61.5999 190.5C61.5999 190.7 61.3999 190.7 61.2999 190.5C61.9999 190.5 61.7999 191.2 61.7999 191.6C61.7999 191.8 61.7999 191.9 61.7999 192.1C61.6999 192.4 61.3999 192.4 61.0999 192.5C60.8999 192.5 60.6999 192.5 60.6999 192.9C60.6999 193.1 60.6999 193.2 60.6999 193.4C60.6999 194.1 60.8999 194.7 60.6999 195.4C60.6999 195.6 60.7999 195.6 60.9999 195.4C61.0999 195.2 61.2999 195 61.4999 195.4C61.5999 195.7 61.8999 196.1 61.4999 196.2C60.8999 196.4 61.0999 196.7 61.1999 197.1C61.1999 197.2 61.1999 197.3 61.1999 197.4C60.9999 197.8 60.7999 198.2 60.9999 198.6C60.9999 199.1 60.8999 199.7 61.3999 200C61.3999 200.2 61.3999 200.3 61.1999 200.3C60.9999 200.5 61.0999 200.7 61.1999 200.9C61.2999 201.4 61.3999 202 61.4999 202.6C61.4999 202.8 61.4999 202.9 61.6999 203C61.8999 203.2 62.0999 203.5 61.7999 203.8C61.7999 203.9 61.7999 204 61.8999 204.1C61.4999 204.6 61.5999 205.2 61.8999 205.7C61.8999 205.7 61.8999 205.9 61.9999 205.9C61.9999 206.5 62.1999 207.1 62.0999 207.7C62.0999 207.7 62.0999 207.9 61.8999 207.9H61.6999C61.3999 207.7 60.9999 207.9 60.8999 207.5C60.8999 207.3 60.9999 207.3 61.0999 207.1C61.3999 206.7 61.2999 206.6 60.8999 206.5C60.7999 206.5 60.5999 206.5 60.4999 206.3C60.4999 206.1 60.6999 206.1 60.7999 206.1C61.0999 206.1 61.0999 205.8 60.9999 205.7C60.6999 205.3 60.7999 204.9 60.5999 204.5C60.5999 204.3 60.7999 204.1 60.5999 203.9C60.5999 203.8 60.3999 203.6 60.2999 203.4C60.2999 203.2 60.2999 202.8 59.7999 202.8C59.6999 202.8 59.7999 202.5 59.5999 202.4C59.0999 202.7 58.9999 203.1 59.5999 203.5C59.5999 203.5 59.5999 203.7 59.5999 203.8C59.7999 203.8 59.6999 203.5 59.6999 203.4C59.6999 203.2 59.8999 203.1 60.0999 203.1C60.2999 203.1 60.2999 203.3 60.2999 203.4C60.2999 203.9 60.2999 204.4 60.2999 204.9C60.2999 205.2 60.4999 205.4 60.2999 205.7C60.1999 205.9 60.1999 206.2 59.7999 206.1C59.4999 206.1 59.3999 205.9 59.3999 205.6C59.3999 205.4 59.3999 205.2 59.3999 205.1C59.3999 204.9 59.3999 204.6 59.3999 204.3C59.1999 204.3 58.9999 204.4 58.7999 204.3C59.5999 205.1 59.5999 205.2 58.9999 205.6C58.8999 205.6 58.8999 205.8 58.7999 206C58.7999 206.2 58.5999 206.2 58.4999 206.1C58.2999 206.2 58.4999 206.3 58.4999 206.5C58.4999 206.6 58.4999 206.7 58.5999 206.8C58.8999 207.4 58.7999 208.1 59.0999 208.7C59.1999 209 58.8999 209.4 59.0999 209.8C58.9999 210.6 59.0999 211.4 59.5999 212.1C59.5999 212.3 59.7999 212.6 59.3999 212.6C59.5999 212.6 59.6999 212.4 59.5999 212.1C59.5999 212 59.5999 211.9 59.4999 211.8C59.0999 211.4 59.1999 210.9 59.4999 210.5C59.4999 210.4 59.6999 210.4 59.7999 210.3C59.8999 210.3 59.9999 210.3 60.0999 210.3C60.0999 210.9 59.9999 211.5 60.1999 212C60.1999 212.2 60.3999 212.3 60.4999 212.4C60.4999 212.4 60.4999 212.4 60.5999 212.5C60.7999 212.8 60.7999 213.1 60.9999 213.4C61.1999 213.6 61.3999 213.7 61.2999 214C61.1999 214.2 60.8999 214.3 60.6999 214.2C60.4999 214.2 60.3999 214 60.1999 213.9C60.1999 213.9 60.1999 213.6 60.0999 213.7C59.5999 213.7 59.5999 213.4 59.6999 213.1C59.4999 213.3 59.4999 213.5 59.6999 213.7C59.6999 213.7 59.8999 213.8 59.8999 213.9C59.8999 214.2 59.6999 214.6 60.2999 214.3C60.2999 214.3 60.3999 214.5 60.4999 214.6C60.4999 214.8 60.4999 215 60.4999 215.2C60.4999 215 60.4999 214.8 60.7999 214.8C60.9999 214.8 60.9999 215 60.9999 215.2C60.9999 215.5 61.1999 215.9 60.9999 216.2H60.7999C60.5999 215.8 60.2999 216 59.9999 216.1C59.6999 215.9 59.3999 216.1 59.2999 216.3C59.2999 216.5 59.3999 216.8 59.6999 216.8C59.6999 216.8 59.8999 216.8 59.8999 217C60.1999 217.4 59.9999 217.7 59.5999 217.8C59.4999 218.1 59.1999 218 58.9999 218C58.3999 218.6 57.8999 218.6 57.4999 217.8C57.2999 217.4 57.2999 217.1 57.2999 216.7V216.4C57.2999 216.1 57.1999 215.7 57.0999 215.4C57.0999 215.6 57.1999 215.7 57.0999 215.9C56.6999 216.1 56.7999 216.6 56.3999 216.7C56.1999 216.7 56.0999 216.7 56.0999 216.9C55.5999 217.3 56.2999 217.4 56.2999 217.7C56.2999 217.9 56.3999 218 56.2999 218.2C56.2999 218.3 56.0999 218.4 56.0999 218.6C56.0999 218.9 56.0999 219.1 56.3999 219.2C56.7999 219.7 56.7999 219.7 56.3999 220C56.0999 220.2 56.3999 220.3 56.3999 220.4C56.3999 220.8 56.1999 221.1 55.6999 220.9C54.7999 220.7 53.7999 220.3 52.8999 219.9C52.8999 219.9 52.6999 219.7 52.6999 219.6C52.4999 218.6 51.9999 217.9 51.1999 217.4C51.0999 217.4 50.9999 217.2 50.8999 217C50.8999 217.3 51.0999 217.5 51.0999 217.7C51.0999 217.9 51.0999 218 50.9999 218.2C50.8999 218.4 50.6999 218.2 50.5999 218.2C50.3999 218.1 50.0999 218.1 49.8999 218C49.7999 218 49.5999 218 49.4999 218C49.0999 218 48.9999 217.7 48.6999 217.5C48.4999 217.7 48.6999 218.1 48.3999 218.2C48.1999 218.2 48.0999 218 47.9999 217.9C47.9999 217.9 47.8999 217.7 47.7999 217.9C47.7999 218.2 47.9999 218.5 47.9999 218.8C47.9999 219.1 47.7999 219.4 47.4999 219.6C47.3999 219.6 47.2999 219.8 47.2999 220C47.2999 220.2 47.0999 220.4 46.7999 220.3C46.6999 220.2 46.7999 220 46.7999 219.9C46.7999 219.2 46.7999 219.1 46.0999 219C45.6999 219 45.5999 218.6 45.3999 218.4C45.3999 218.4 45.3999 218.3 45.3999 218.2C45.3999 217.9 45.3999 217.6 45.6999 217.4C45.9999 217.2 46.1999 216.9 46.1999 216.6C46.5999 216.4 46.6999 216.8 46.9999 217C46.8999 217.2 46.9999 217.4 46.8999 217.6C46.9999 217.4 46.8999 217.3 46.8999 217.2C47.0999 217 46.8999 216.9 46.6999 216.8C46.5999 216.6 46.2999 216.6 46.2999 216.3C46.2999 216 46.6999 215.8 46.5999 215.5C46.5999 215.2 46.8999 215 46.4999 214.6C46.1999 214.4 46.7999 214.3 46.7999 214.1C46.3999 213.8 46.4999 213.3 46.4999 212.9C46.4999 212.8 46.4999 212.6 46.4999 212.5V212.3C46.4999 212.1 46.4999 211.9 46.4999 211.7C46.4999 211.5 46.4999 211.3 46.4999 211.2C46.4999 210.9 46.3999 210.5 46.4999 210.2C46.4999 210 46.4999 209.8 46.2999 209.6C46.0999 209.5 46.0999 209.3 46.0999 209.1C46.0999 208.8 46.0999 208.6 45.7999 208.5C45.3999 208.2 45.3999 207.8 45.7999 207.5C45.9999 207.4 46.0999 207.3 45.9999 207.1C45.9999 207 45.9999 206.8 45.9999 206.6C45.9999 206.6 45.9999 206.5 45.9999 206.4C45.9999 206 46.0999 205.6 45.6999 205.3C45.6999 205.2 45.6999 205.1 45.6999 205C45.9999 204.6 45.8999 204.6 45.5999 204.3C45.3999 204.1 45.3999 203.9 45.3999 203.7C45.3999 203.6 45.3999 203.4 45.3999 203.3C45.2999 203.7 45.1999 203.8 44.7999 203.3C44.4999 203 44.5999 203.3 44.5999 203.3V203.4C44.4999 203.4 44.3999 203.4 44.2999 203.3C44.1999 203 44.0999 202.7 44.1999 202.6C44.1999 202.8 43.8999 202.9 43.6999 202.8C43.4999 202.6 43.3999 202.4 43.6999 202.3C44.0999 202.2 44.1999 201.9 44.1999 201.6C44.1999 201.2 44.2999 200.9 44.1999 200.5C44.1999 200.9 44.1999 201.3 43.9999 201.6C43.9999 201.8 43.8999 202 43.6999 201.9C43.4999 201.9 43.3999 201.7 43.3999 201.6C43.3999 201.5 43.3999 201.3 43.1999 201.2C43.0999 201 43.2999 200.9 43.2999 200.7C43.2999 200.7 43.2999 200.5 43.1999 200.5C43.1999 200.6 43.2999 200.8 43.1999 200.9C43.0999 201 42.8999 201.1 42.7999 200.9C42.5999 200.7 42.2999 200.6 42.0999 200.3C41.7999 200.1 41.8999 199.8 42.0999 199.7C42.4999 199.6 42.3999 199.3 42.4999 199C42.2999 199.3 41.9999 199.3 41.7999 199.3C41.6999 199.3 41.4999 199.3 41.3999 199.4C41.1999 199.7 40.8999 199.4 40.8999 199.3C41.0999 199 40.6999 198.4 41.1999 198.3C40.7999 198.2 40.3999 198.4 39.9999 198.5C39.6999 198.3 39.2999 198.3 38.9999 198.1C38.9999 198.1 38.7999 198 38.7999 197.8C38.7999 197.8 38.8999 197.7 38.9999 197.7C39.4999 197.7 39.7999 197.6 39.8999 197C39.8999 197 39.9999 197 40.0999 197C39.8999 197 39.5999 196.8 39.6999 197.2C39.6999 197.6 39.4999 197.7 39.2999 197.6C38.8999 197.6 38.5999 197.8 38.2999 197.8C37.6999 197.9 37.0999 197.8 36.4999 197.9C36.1999 198.1 36.1999 198.5 36.1999 198.8C36.1999 199 36.1999 199.1 36.1999 199.3C36.3999 199.9 36.6999 199.6 36.9999 199.5C37.1999 199.5 37.4999 199.5 37.6999 199.5H37.7999C37.5999 199.8 37.5999 200.3 37.0999 200.4C37.0999 200.4 36.9999 200.4 36.9999 200.2C36.8999 199.9 36.6999 200 36.4999 200.2C36.2999 200.3 36.4999 200.4 36.4999 200.6C36.5999 200.8 36.8999 201 36.6999 201.3C36.4999 201.4 36.3999 201.3 36.1999 201.3C35.9999 201.3 35.7999 201.5 35.7999 201.7C35.7999 201.9 35.8999 202 36.0999 202.1C36.3999 202.3 36.8999 202.1 36.7999 202.8C36.7999 202.9 37.0999 202.8 37.2999 202.8C37.9999 202.6 38.0999 202.6 38.4999 203.2C38.5999 203.4 38.7999 203.3 38.9999 203.4C39.1999 203.4 39.4999 203.4 39.4999 203.8C39.4999 204.2 39.0999 204 38.9999 204.1C39.1999 204.2 39.4999 204.1 39.6999 204.1C39.6999 204.1 39.6999 204.1 39.7999 204.1C39.8999 204.3 40.2999 204.4 40.2999 204.7C39.9999 205.1 39.7999 205 39.5999 204.7C39.5999 204.5 39.4999 204.3 39.1999 204.5C38.8999 204.6 38.6999 204.9 38.3999 204.5C38.4999 204.9 38.1999 204.8 37.9999 204.9C38.0999 205 38.2999 205.1 38.2999 205.2C38.2999 205.5 38.1999 205.4 37.9999 205.5C37.8999 205.5 37.9999 206 38.2999 206.1C38.4999 206.1 38.6999 206.1 38.7999 206.3C38.9999 206.5 38.9999 206.8 38.7999 206.9C38.8999 207 38.9999 207 39.0999 207C39.2999 207 39.5999 206.9 39.5999 207.2C39.5999 207.4 39.3999 207.5 39.0999 207.5C39.3999 207.7 39.4999 208 39.7999 208.1C39.9999 208.4 40.4999 208.2 40.4999 208.7C40.4999 208.7 40.7999 208.8 40.9999 208.7C41.0999 208.7 41.1999 208.7 41.2999 208.9C41.2999 209.2 41.3999 209.5 41.6999 209.7C41.9999 209.9 41.8999 210.6 41.4999 210.8C41.3999 210.8 41.1999 210.8 41.0999 211C41.0999 211.2 41.3999 211.5 41.2999 211.8C41.1999 212 40.7999 212.3 41.2999 212.5C40.9999 213 41.4999 213.4 41.2999 213.9C41.2999 213.9 41.1999 213.9 41.0999 213.9C40.8999 213.6 40.4999 213.9 40.2999 213.6C40.2999 213.6 40.1999 213.4 40.1999 213.3C40.2999 212.7 40.3999 212.1 40.3999 211.5C39.8999 211.2 39.8999 211.2 39.7999 211.9C39.5999 211.9 39.3999 212.2 39.1999 212.2C39.0999 212.2 38.9999 212.2 38.8999 212.1C38.8999 212.3 38.9999 212.5 39.0999 212.7C39.0999 212.7 39.0999 212.8 39.0999 212.9C39.0999 213 38.9999 213.2 38.8999 213.1C38.5999 213 38.1999 213 38.0999 212.8C37.8999 212.2 37.2999 212.3 36.7999 212C36.4999 211.8 35.4999 211.6 34.9999 211.7C34.7999 211.7 34.5999 211.7 34.4999 211.5C34.4999 211.5 34.4999 211.5 34.4999 211.7C34.4999 212 34.5999 212.4 33.9999 212.2C33.9999 212.2 33.9999 212.4 33.9999 212.5C33.9999 212.7 33.9999 212.8 33.8999 213C33.6999 213.1 33.4999 213.3 33.1999 213.2C33.1999 213.2 33.0999 213.2 33.1999 213.5C33.1999 213.7 33.1999 213.8 33.1999 214C33.2999 214.3 33.4999 214.5 33.7999 214.2C34.1999 213.8 34.1999 213.8 34.4999 214.4C34.4999 214.4 34.4999 214.5 34.4999 214.6C34.2999 215 34.0999 215.5 33.5999 215.7C33.3999 215.8 33.2999 216 33.2999 216.2C33.2999 216.8 33.0999 217 32.4999 217.1C32.1999 217.1 32.1999 217.5 31.8999 217.6C32.2999 218.2 32.6999 218.7 33.1999 219.1C33.1999 219.3 33.1999 219.4 32.9999 219.4C32.6999 219.7 32.3999 219.8 31.9999 219.6C31.9999 219.6 31.7999 219.5 31.8999 219.4C32.1999 218.9 31.5999 218.8 31.3999 218.5C31.4999 218.8 31.6999 219.1 31.4999 219.4C31.4999 219.4 31.2999 219.3 31.2999 219.2C31.2999 219.2 31.0999 219.2 31.0999 219C30.8999 218.6 30.4999 218.5 30.0999 218.5C30.0999 218.5 29.8999 218.4 29.8999 218.3C30.0999 217.4 29.2999 217 29.0999 216.4C29.0999 216.4 29.0999 216.4 29.0999 216.3C29.0999 216.2 29.0999 215.9 28.6999 216C28.6999 216 28.4999 215.9 28.4999 215.8C28.3999 215.8 28.2999 215.4 28.0999 215.8C27.9999 216 27.7999 216.1 27.5999 215.8C26.8999 214.4 26.8999 212.9 26.4999 211.6C26.4999 212 26.6999 212.6 26.7999 213.2C26.7999 213.3 26.7999 213.5 26.8999 213.6C26.8999 213.8 26.8999 214 26.7999 214.1C26.5999 214.1 26.4999 213.9 26.4999 213.8C26.2999 213.2 26.0999 212.6 25.9999 211.9C25.9999 211.7 25.9999 211.6 25.8999 211.4C25.8999 211.1 25.8999 210.7 25.5999 210.4C25.5999 210.9 25.5999 211.3 25.7999 211.7C25.7999 212.1 25.4999 212.5 25.9999 212.8C26.2999 213 26.1999 213.3 26.0999 213.6C25.8999 213.8 25.7999 213.6 25.6999 213.6C25.4999 213.5 25.2999 213.4 25.2999 213.1C25.2999 213 25.2999 212.8 25.2999 212.7C25.2999 212.7 25.2999 212.5 25.1999 212.4C25.1999 212.6 25.1999 212.8 25.1999 213C24.9999 213.4 24.6999 213.4 24.3999 213.2C24.3999 213.2 24.3999 213.2 24.3999 213.1C24.3999 213.1 24.3999 213 24.3999 212.9C24.3999 212.8 24.5999 212.6 24.3999 212.6C24.1999 212.6 24.3999 212.8 24.2999 212.9C24.2999 213 24.2999 213.2 24.2999 213.3C24.2999 213.5 24.5999 213.9 23.9999 213.9C23.5999 213.8 23.7999 213.4 23.7999 213.3C23.7999 213.1 23.9999 212.9 23.5999 212.9C23.5999 212.9 23.4999 212.9 23.4999 212.8C23.4999 212.7 23.4999 212.3 23.1999 212.4C22.9999 212.4 23.0999 212.8 23.1999 212.9C23.4999 213.5 22.9999 213.9 22.6999 214.3C22.4999 214 22.6999 213.6 22.2999 213.6C22.2999 213.6 21.6999 213.6 21.8999 214C21.8999 214 21.8999 214.1 21.8999 214.2C21.8999 214.4 21.8999 214.6 21.6999 214.6C21.4999 214.6 21.4999 214.3 21.4999 214.2C21.4999 214.2 21.4999 214.2 21.4999 214.1C21.5999 213.5 21.4999 213 20.8999 212.8C20.7999 212.7 20.6999 212.4 20.5999 212.2C20.1999 212.6 20.3999 213 20.3999 213.4V213.6C20.3999 213.7 20.1999 213.8 19.9999 213.7C19.7999 213.6 19.7999 213.5 19.6999 213.3C19.8999 212.8 19.4999 212.5 19.2999 212.1C19.4999 212.6 19.2999 213.1 19.2999 213.6C19.2999 214.1 19.1999 214.5 18.5999 214.6C18.5999 214.6 18.5999 214.6 18.4999 214.5C18.4999 214.5 18.3999 214.4 18.2999 214.3C18.2999 214.2 18.0999 214.1 17.9999 214C17.8999 214 17.6999 214 17.4999 214C17.2999 214 17.1999 213.9 17.2999 213.7C17.2999 213.7 17.2999 213.5 17.2999 213.4C17.1999 213.2 16.9999 213 16.6999 212.9C16.6999 212.9 16.4999 212.9 16.3999 212.8C16.1999 212.7 16.0999 212.5 15.9999 212.8C15.9999 212.8 15.8999 213 15.7999 212.9C15.6999 212.9 15.6999 212.8 15.6999 212.7C15.6999 212.5 15.7999 212.2 15.4999 212C15.2999 212 15.2999 211.8 15.3999 211.6C15.4999 211.4 15.5999 211.3 15.3999 211.1C15.3999 211 15.2999 210.9 15.2999 210.7C15.2999 210.5 15.2999 210.4 15.0999 210.2C14.8999 210.2 14.8999 210.4 14.6999 210.4C14.6999 210.4 14.4999 210.4 14.3999 210.4C14.0999 210.2 14.2999 210 14.3999 209.8C14.8999 209.6 14.9999 209.2 14.8999 208.7C14.8999 208.7 14.7999 208.8 14.6999 208.9H14.4999C14.4999 208.8 14.4999 208.7 14.4999 208.6C14.4999 208.4 14.2999 208.3 14.2999 208.1C14.2999 208 14.2999 207.8 14.3999 207.7C14.4999 207.5 14.9999 207.4 14.3999 207.1H14.1999C14.1999 207.1 14.1999 207.1 14.0999 207C14.0999 206.7 13.8999 206.5 14.2999 206.4C14.4999 206.4 14.4999 206.4 14.4999 206.2C14.3999 205.9 14.4999 205.6 14.4999 205.3C14.4999 205 14.1999 204.8 14.2999 204.5C13.9999 204.5 14.0999 204.9 13.8999 204.9C13.3999 204.9 13.1999 204.7 12.8999 204.3C12.6999 204.1 12.6999 203.9 12.8999 203.6C12.5999 203.8 12.4999 204 12.5999 204.2C12.5999 204.4 12.6999 204.6 12.6999 204.8C12.6999 205.1 12.6999 205.2 12.2999 205C12.1999 204.8 12.0999 204.5 11.7999 204.4C11.5999 204.4 11.4999 204.4 11.3999 204.4C11.1999 204.2 11.0999 204.1 11.0999 203.9C11.0999 203.7 11.0999 203.6 10.9999 203.5C10.7999 203.3 10.4999 203.2 10.2999 203.1C10.0999 202.9 10.0999 202.8 10.1999 202.5C9.99994 202.8 9.99994 203.1 9.99994 203.4C9.99994 203.6 10.1999 203.9 9.99994 204C9.79994 204 9.59994 203.9 9.49994 203.7C9.49994 203.7 9.49994 203.6 9.49994 203.5V203.3C9.49994 203.3 9.49994 203.4 9.49994 203.5C9.49994 203.8 9.49994 204.1 9.19994 204.2C9.09994 204.2 8.89994 204.5 8.89994 204.2C8.89994 203.9 8.99994 203.6 8.59994 203.5C8.49994 203.5 8.59994 203.4 8.59994 203.4C8.89994 203.4 8.59994 203.2 8.69994 203.1C8.49994 202.6 8.09994 202.8 7.79994 202.8C7.79994 202.8 7.79994 202.6 7.69994 202.6C7.19994 202.3 7.29994 201.8 7.39994 201.4C7.39994 201.2 7.39994 201.1 7.39994 201C7.19994 200.8 7.29994 200.6 7.39994 200.4C7.39994 200.3 7.39994 200.2 7.29994 200.1C7.29994 199.9 7.19994 199.8 7.39994 199.7C7.69994 199.7 7.59994 199.4 7.79994 199.2C7.99994 198.9 7.69994 198.9 7.59994 198.8C7.39994 198.4 7.39994 198 7.49994 197.6C7.49994 197.6 7.59994 197.5 7.49994 197.4C7.39994 197.3 7.09994 197.3 7.09994 197.1C7.19994 196.9 7.49994 197.1 7.59994 196.9C7.39994 196.9 7.29994 197 7.19994 196.9C7.29994 196.5 7.19994 196 7.19994 195.6C7.19994 195.4 7.19994 195.2 6.99994 195C6.99994 194.9 7.19994 194.6 6.89994 194.6C6.79994 194.6 6.79994 194.5 6.79994 194.4C6.79994 193.5 6.99994 192.7 7.09994 191.8C7.09994 191.8 7.09994 191.6 7.09994 191.5C6.79994 191.2 6.69994 190.9 6.99994 190.6C7.09994 190.4 7.09994 190.3 6.99994 190.1C6.99994 189.9 7.19994 189.9 7.29994 189.7C7.29994 189.7 7.29994 189.7 7.39994 189.6C7.39994 189.4 7.89994 189.8 7.59994 189.4C7.59994 189.3 7.59994 189.1 7.59994 189C7.79994 188.8 7.59994 188.7 7.59994 188.6C7.29994 188.3 7.29994 188.1 7.69994 187.8C7.69994 187.7 7.39994 187.7 7.39994 187.5C7.39994 187.2 7.19994 187 7.39994 186.7C7.39994 186.7 7.59994 186.7 7.69994 186.7C8.19994 186.8 8.09994 186.6 7.89994 186.3C8.29994 185.5 8.29994 184.7 7.89994 183.9C7.79994 183.7 7.69994 183.5 7.69994 183.3C7.69994 183.3 7.69994 183.4 7.69994 183.5C7.59994 183.7 7.49994 183.8 7.29994 183.9C7.09994 183.9 6.99994 183.9 6.79994 183.9C6.59994 183.9 6.59994 183.6 6.59994 183.5C6.49994 183.3 6.49994 183 6.19994 183H6.09994C6.09994 183 6.09994 182.9 6.09994 182.8C6.09994 182.6 6.39994 182.6 6.29994 182.4C6.29994 182.4 6.09994 182.3 6.09994 182.2C6.09994 182.1 5.99994 181.9 5.99994 181.8C5.99994 181.8 5.99994 181.7 6.09994 181.6C6.29994 181.6 6.39994 181.3 6.49994 181.1C6.19994 180.7 5.99994 180.9 5.89994 181.2C5.89994 181.3 5.89994 181.5 5.59994 181.4C5.39994 181.4 5.49994 181.2 5.39994 181.1C5.39994 180.8 5.19994 180.5 5.39994 180.3C4.99994 179.8 5.19994 179.2 5.19994 178.7C5.19994 178 5.39994 177.2 5.29994 176.4C5.29994 176.2 5.29994 176 4.99994 176C4.69994 176 4.59994 176.2 4.69994 176.3C4.69994 176.5 4.69994 176.6 4.49994 176.7C4.19994 176.6 4.69994 176.2 4.39994 176.2C4.19994 176.2 4.29994 176.5 4.19994 176.7C4.09994 176.7 3.99994 176.7 3.89994 176.7C3.59994 176.6 3.69994 176.8 3.69994 176.9C3.69994 177.2 3.69994 177.5 3.49994 177.7C3.39994 177.7 3.29994 177.7 3.19994 177.6C2.79994 177.6 2.99994 178.1 2.59994 178.1C2.79994 178 2.59994 177.7 2.79994 177.6C2.79994 177.6 2.89994 177.5 2.79994 177.5C2.49994 176.9 3.29994 176.2 2.79994 175.6V175.5C3.09994 175.2 2.99994 175 2.69994 174.8C2.49994 174.8 2.69994 174.6 2.69994 174.4C2.69994 174.1 2.69994 173.7 2.89994 173.3C2.89994 173 3.09994 172.7 2.89994 172.4C2.69994 172.2 2.69994 172 2.69994 171.7C2.69994 171.4 2.49994 171.3 2.39994 171.1C2.29994 171.4 2.39994 171.8 1.99994 172C1.99994 172 1.89994 172 1.79994 172C1.79994 171.6 1.79994 171.2 1.89994 170.9C1.89994 170.7 2.09994 170.6 1.69994 170.6C2.09994 170.5 1.09994 170.4 1.69994 170.2C1.69994 170.2 1.89994 170.1 1.69994 170C1.29994 170 1.69994 169.6 1.39994 169.5C1.29994 169.5 1.09994 169.3 0.999941 169.3C0.199941 169.1 0.0999402 168.8 0.39994 168C0.49994 168 0.599941 167.8 0.599941 167.7C0.299941 167.3 0.599941 167 0.799941 166.8C0.899941 166.8 0.799941 166.6 0.799941 166.5C0.799941 166 1.19994 165.8 1.39994 165.4C1.19994 165.4 0.99994 165.6 0.89994 165.7C0.79994 165.7 0.599941 165.8 0.599941 165.6C0.799941 165.6 0.299941 165.1 0.799941 165.3C0.799941 165.3 0.99994 165.3 0.89994 165.2C0.89994 164.8 1.29994 164.7 1.39994 164.4C1.89994 163.5 2.69994 163 3.39994 162.3C3.49994 162.2 3.59994 162.1 3.59994 161.9C3.59994 161.9 3.59994 161.9 3.69994 161.8C4.19994 161.5 4.59994 161.2 4.99994 160.8C5.09994 160.6 5.19994 160.4 5.29994 160.2C5.29994 160.2 5.79994 160.3 5.49994 159.9C5.49994 159.7 5.39994 159.6 5.59994 159.5C5.79994 159.5 5.99994 159.5 6.19994 159.5C6.29994 159.5 6.49994 159.4 6.49994 159.2C6.49994 158.9 6.49994 158.6 6.79994 158.3C6.99994 158.1 7.09994 157.8 7.19994 157.5C6.99994 157.7 6.89994 157.7 6.69994 157.6C6.89994 157.2 6.49994 157 6.49994 156.7C6.49994 156.4 6.79994 156.3 6.59994 155.9C6.49994 155.7 6.79994 155.7 6.89994 155.6C6.89994 155.6 6.99994 155.4 7.19994 155.6C7.39994 155.6 7.49994 155.6 7.69994 155.6C7.89994 155.6 7.99994 155.7 7.89994 155.9C7.69994 156.3 7.89994 156.7 7.89994 157.1C8.49994 156.9 8.49994 156.9 8.19994 156.4C8.19994 156.3 7.99994 156.2 7.99994 156.1C7.99994 155.9 7.89994 155.7 7.99994 155.5C8.09994 155.3 8.39994 155.5 8.49994 155.5C8.59994 155.5 8.59994 155.4 8.59994 155.3C8.59994 155.1 8.79994 154.8 8.69994 154.6C8.69994 154.4 8.69994 154.3 8.99994 154.2C9.19994 154.2 9.39994 154.2 9.49994 154.2C9.49994 154.2 9.49994 154.2 9.49994 154.3C9.49994 154.3 9.49994 154.2 9.49994 154.1C9.49994 154 9.49994 154.1 9.49994 154C9.69994 153.8 9.69994 153.7 9.49994 153.6C9.19994 153.4 8.89994 153.2 9.49994 153C9.69994 153 9.69994 152.8 9.69994 152.7C9.69994 152.5 9.69994 152.4 9.69994 152.2C9.69994 151.9 10.0999 151.8 10.1999 151.5C10.1999 151.5 10.2999 151.4 10.3999 151.3C10.3999 150.9 10.9999 149.7 11.4999 149.1C11.6999 149.1 11.4999 148.9 11.5999 148.7C11.5999 148.4 11.6999 148.2 11.9999 148.1C12.1999 148.1 12.0999 147.9 12.0999 147.8C12.0999 147.5 12.0999 147.3 12.1999 147.1C12.1999 146.8 12.2999 146.6 12.2999 146.3C12.7999 146.3 12.5999 146.7 12.6999 146.9C12.9999 146.6 12.6999 146.1 12.8999 145.7L16.6999 146.8Z" fill="#EEF4F8"/>
</svg>
