<svg width="107" height="221" viewBox="0 0 107 221" fill="none" xmlns="http://www.w3.org/2000/svg">
<path id="Vector" d="M90.3001 146.8C90.3001 146.8 90.3001 146.8 90.3001 146.7C90.3001 146.5 90.3001 146.3 90.0001 146.4C89.8001 146.4 89.9001 146.6 89.8001 146.8C89.7001 146.1 89.8001 145.4 89.5001 144.8C89.5001 144.8 89.5001 144.6 89.4001 144.6C89.0001 144.4 88.9001 144.1 88.8001 143.6C88.8001 143.3 88.7001 142.8 88.3001 142.7C88.1001 142.7 87.9001 142.7 87.9001 142.4C87.9001 141.8 87.6001 141.2 87.5001 140.5C87.5001 140.5 87.5001 140.4 87.5001 140.3C87.5001 140.2 87.4001 140 87.3001 139.9C87.3001 139.8 87.1001 139.6 86.9001 139.8C86.9001 139.8 86.9001 139.8 86.9001 139.7C87.1001 139.3 86.9001 138.9 86.7001 138.5C86.7001 138.3 86.5001 138.2 86.3001 138.3C86.1001 138.3 86.1001 138.5 86.1001 138.7C86.1001 138.8 86.3001 139 85.9001 138.9C85.8001 138.9 85.7001 139.1 85.7001 139.2C85.7001 139.5 85.7001 139.7 85.3001 139.8C85.0001 139.9 85.2001 140.2 85.3001 140.3C85.3001 140.3 85.6001 140.3 85.6001 140.4C85.6001 140.6 85.4001 140.6 85.3001 140.6C85.1001 140.6 84.9001 140.7 84.7001 140.6C85.1001 140.4 85.0001 140.2 84.7001 140C84.9001 140 85.1001 140 85.2001 139.8C85.2001 139.6 85.2001 139.5 85.0001 139.4C84.7001 139.3 84.9001 139 84.8001 138.8V138.7C84.2001 138.7 84.5001 139.3 84.4001 139.5C84.4001 139.3 84.4001 139 84.1001 139C83.8001 139.1 83.4001 139.5 83.2001 138.8C83.2001 138.6 82.9001 138.8 82.8001 138.9C82.8001 138.6 82.4001 138.3 82.5001 137.9C82.5001 137.9 82.5001 137.8 82.5001 137.7C82.5001 137.1 82.0001 136.9 81.6001 136.8C81.4001 136.3 81.4001 135.8 81.4001 135.3C81.4001 135.2 81.4001 135.1 81.6001 135C82.0001 135 81.9001 134.7 81.8001 134.4C81.8001 134.2 81.6001 134.1 81.4001 134.1C81.8001 134.1 82.0001 134.1 81.9001 133.6C81.9001 133.6 81.9001 133.6 81.8001 133.6C81.0001 133.6 80.9001 133.3 81.3001 132.5C81.4001 132.3 81.4001 132.1 81.3001 131.9C81.3001 131.9 81.1001 131.9 81.0001 131.8C80.9001 131.4 80.7001 130.9 80.7001 130.4C80.7001 129.9 80.6001 129.5 80.5001 129C80.6001 129.1 80.6001 129.2 80.7001 129.3C80.8001 129.4 80.9001 129.5 81.1001 129.4C81.3001 129.4 81.3001 129.2 81.2001 129C81.2001 128.7 81.0001 128.4 80.8001 128.2C80.6001 128 80.5001 127.8 80.5001 127.5C80.8001 127.8 81.2001 127.9 81.5001 128.1C81.7001 127.7 82.1001 127.8 82.3001 127.4C82.4001 127.7 81.7001 128.2 82.5001 128.3C82.5001 128.3 82.6001 128.3 82.7001 128.3C82.9001 128.3 83.1001 128.4 83.3001 128.3C83.2001 128.7 83.1001 129.1 82.6001 129C82.6001 129.1 82.6001 129.3 82.6001 129.4C82.6001 129.5 82.6001 129.9 82.2001 129.7C82.1001 129.7 81.9001 129.7 81.8001 129.9C81.6001 130.2 81.4001 130.3 81.2001 130.5C81.0001 130.5 80.8001 130.8 81.2001 130.9H81.4001C81.7001 130.9 81.4001 131.1 81.4001 131.2C81.4001 131.2 81.4001 131.3 81.4001 131.4C81.4001 131.6 81.5001 131.7 81.7001 131.7C81.9001 131.7 82.1001 131.7 82.3001 131.9C82.6001 132.1 82.7001 132 82.7001 131.6C82.7001 131.1 82.8001 130.8 83.4001 130.8C83.7001 130.8 84.0001 130.7 84.3001 130.5C84.8001 130.5 84.9001 130.2 84.9001 129.7C84.9001 129.1 85.1001 128.7 85.7001 128.5C85.8001 128.5 86.2001 127.4 86.1001 127.3C86.0001 127.2 85.8001 127.2 85.7001 127.3C85.5001 127.3 85.4001 127.5 85.2001 127.5C84.9001 127.5 85.1001 126.9 84.6001 127.2C84.3001 127.4 84.2001 127.7 84.3001 128.1C84.3001 127.9 84.1001 127.8 83.9001 127.7C84.0001 127.5 84.3001 127.4 84.3001 127.2C84.3001 127 84.2001 126.9 84.0001 126.8C83.7001 126.7 83.4001 126.8 83.1001 126.8C82.9001 126.8 82.6001 126.8 82.8001 126.4V126.3C82.5001 126.3 82.2001 126.1 81.9001 126.3C81.7001 126.5 81.8001 126.3 81.8001 126.3C81.8001 126.2 81.8001 126 82.0001 126C82.2001 126 82.3001 126 82.4001 126.1C82.5001 126.2 82.6001 126.2 82.8001 126.1C83.0001 125.9 83.1001 125.7 83.2001 125.5C83.2001 125.5 83.2001 125.4 83.2001 125.3C83.2001 124.9 83.4001 124.5 83.9001 124.3C84.1001 124.3 84.2001 124.1 84.1001 123.9C84.2001 123.9 84.4001 123.7 84.5001 123.7C84.8001 123.7 84.5001 124.1 84.8001 124.1C85.1001 124.1 85.4001 124.1 85.4001 123.6C85.4001 123.5 85.4001 123.3 85.6001 123.3C85.8001 123.3 86.0001 123.5 86.0001 123.5C86.0001 124 86.4001 124.6 86.0001 125.1C86.2001 125.7 86.2001 125.7 86.9001 125.5C87.0001 125.5 87.2001 125.5 87.2001 125.5C87.4001 125.8 87.9001 125.8 88.1001 126.2C88.3001 126.6 88.8001 126.6 89.2001 126.4C89.2001 126.2 89.3001 126.1 89.4001 125.9C89.6001 125.9 89.7001 125.6 89.8001 125.4C89.8001 125.3 89.6001 125.2 89.6001 125.1C89.8001 124.9 90.0001 125.2 90.1001 125.1C89.9001 124.9 89.9001 124.6 89.5001 124.5C89.3001 124.5 89.2001 124.3 89.1001 124.6C89.1001 124.8 88.9001 124.6 88.8001 124.6C88.5001 124.3 88.2001 124.1 87.8001 124.4C87.6001 124.6 87.4001 124.4 87.4001 124.1C87.4001 123.8 87.4001 123.6 87.1001 123.6C87.1001 123.6 87.1001 123.6 87.0001 123.6C86.7001 123.1 87.4001 122.9 87.3001 122.5C87.3001 122.5 87.7001 122.3 87.8001 122.7C88.0001 122.8 88.0001 122.5 88.1001 122.5C88.3001 122.2 88.4001 122 88.3001 121.6C88.3001 121.5 88.3001 121.3 88.4001 121.3C88.6001 121 88.4001 120.9 88.2001 120.9C87.7001 121 87.1001 120.7 86.9001 121.4C86.6001 120.9 86.4001 120.9 85.9001 121.4C85.9001 120.9 86.6001 120.4 87.1001 120.7C87.4001 120.9 87.7001 121 88.1001 120.9C88.3001 120.9 88.4001 121.1 88.6001 121C89.0001 121.2 89.3001 121 89.7001 121.1H89.9001C89.7001 120.5 90.2001 120.6 90.5001 120.6C90.5001 120.6 90.7001 120.6 90.8001 120.6C91.1001 120.6 91.5001 120.6 91.6001 120.3C91.6001 119.9 91.1001 119.3 90.8001 119.3C90.3001 119.3 89.8001 119.2 89.3001 119.3C89.1001 119.3 88.8001 119.3 89.0001 118.9C89.2001 118.6 89.5001 118.4 89.8001 118.2C89.9001 118.2 90.1001 118.1 89.9001 117.8C89.7001 117.5 89.6001 117.7 89.5001 117.8C89.3001 117.8 89.2001 118.1 89.1001 117.9C89.0001 117.8 88.7001 117.9 88.7001 117.7C88.7001 117.6 88.7001 117.5 88.9001 117.5C89.1001 117.5 89.3001 117.3 89.3001 117.6C89.3001 117.6 89.4001 117.8 89.5001 117.6C89.9001 117 90.4001 117.4 91.1001 117.4C90.5001 116.9 90.8001 116.7 91.1001 116.5C90.4001 116.5 90.1001 115.6 89.2001 116.1C89.3001 115.7 89.6001 115.7 89.7001 115.3C89.7001 114.9 89.9001 114.6 89.5001 114.3C89.1001 114.1 89.2001 113.9 89.5001 113.6C89.1001 113.5 89.0001 114 88.7001 113.9C88.4001 113.4 89.2001 113.3 89.0001 112.8C88.4001 113.2 87.8001 113.3 87.2001 113.3C87.2001 113.3 87.0001 113.3 87.0001 113.5C87.0001 114 87.4001 114.2 88.0001 114.2C88.0001 114.2 88.0001 114.2 88.2001 114.2C88.2001 114.2 88.2001 114.2 88.1001 114.2C87.9001 114.2 87.8001 114.3 87.9001 114.5C88.0001 114.8 88.2001 114.8 88.6001 114.8C88.4001 114.9 88.2001 115 88.0001 115C87.4001 115 87.0001 115.5 87.0001 116.1C87.0001 116.3 87.0001 116.4 87.2001 116.4C87.5001 116.4 87.2001 116.6 87.2001 116.7C87.2001 116.8 87.1001 116.9 86.9001 116.7C86.5001 116.4 86.1001 116.7 86.1001 117.1C86.1001 117.1 86.1001 117.2 86.1001 117.3C86.1001 117.9 86.1001 118.5 85.6001 119C85.6001 119.2 85.6001 119.4 85.6001 119.6C85.4001 119.2 85.2001 119.3 84.9001 119.3C84.8001 119.3 84.6001 119.3 84.5001 119.5C84.5001 119.6 84.5001 119.7 84.5001 119.8C84.5001 119.9 84.7001 120.1 84.5001 120.2C84.4001 120.2 84.3001 120.2 84.2001 120.2C84.0001 120.2 84.0001 120 84.1001 119.8V119.6C84.1001 119.6 84.1001 119.6 84.0001 119.5C83.8001 119.4 83.6001 119.7 83.5001 119.5C83.5001 119.4 83.1001 119.5 83.4001 119.2C83.6001 119 83.6001 119.1 83.8001 119.2C83.8001 119.2 83.9001 119.2 84.0001 119.2C84.2001 119.2 84.4001 119.2 84.6001 119.2C84.8001 119.2 85.0001 119.4 85.2001 119.2C85.3001 119 85.0001 118.8 85.0001 118.6C85.0001 118.6 85.0001 118.6 85.0001 118.5C84.8001 118.3 84.6001 118.5 84.5001 118.5C84.3001 118.5 84.1001 118.5 83.9001 118.5C83.6001 118.4 83.9001 118.2 83.9001 118C83.9001 117.7 83.5001 117.7 83.5001 117.4C83.5001 117.4 83.4001 117.2 83.3001 117.2C83.0001 117 82.8001 116.7 82.4001 116.8C82.1001 116.8 81.7001 116.8 81.5001 116.5C81.5001 116.4 81.3001 116.5 81.2001 116.6C81.2001 116.8 81.1001 116.6 81.0001 116.6C80.6001 116.3 80.6001 115.9 80.5001 115.5C79.9001 115.1 79.8001 115.1 79.5001 115.5C79.5001 115.7 79.7001 115.8 79.7001 116C79.7001 116.1 79.6001 116.2 79.5001 116.3C79.4001 116.5 79.3001 116.6 79.2001 116.8C79.2001 117 79.1001 117.2 79.2001 117.4C79.4001 117.7 78.9001 117.4 79.0001 117.7C79.0001 117.9 79.4001 117.9 79.4001 118.1C79.2001 117.9 78.9001 117.7 78.9001 117.3C78.9001 117.3 78.9001 117.1 78.7001 117.1C78.6001 117.1 78.5001 117.1 78.4001 117.3C78.4001 117.5 78.4001 117.6 78.3001 117.9C78.1001 117.7 78.0001 117.6 77.8001 117.9C78.0001 117.6 78.5001 117.4 78.2001 116.9C78.1001 116.7 77.9001 116.9 77.7001 116.9C77.7001 116.7 77.7001 116.5 77.7001 116.4C77.7001 116.3 77.8001 116.1 78.1001 116.2C78.5001 116.4 78.7001 116.2 78.8001 115.7C78.6001 115.4 79.0001 115.4 79.0001 115.3C79.1001 115.1 79.2001 114.9 79.4001 114.7C79.5001 115.4 80.0001 115.1 80.4001 115.2C81.0001 115 80.9001 115.5 81.1001 115.8C81.4001 116 81.7001 116 82.0001 116.2C82.1001 116.4 82.4001 116.3 82.5001 116.1C82.5001 115.9 82.8001 115.6 82.4001 115.5C82.2001 115.3 82.5001 115.3 82.5001 115.2C82.6001 115 82.8001 115.2 83.0001 115.2C82.5001 115.8 83.2001 116 83.4001 116.4C83.7001 116.9 84.3001 116.9 84.8001 117C85.3001 117.1 85.6001 117 85.6001 116.4C85.6001 116.3 85.6001 116.1 85.6001 116C85.7001 115.7 85.6001 115.6 85.3001 115.6C84.9001 115.6 84.6001 115.6 84.7001 115.1C84.7001 114.9 84.7001 114.8 84.4001 114.8C84.2001 114.8 84.1001 114.8 83.9001 114.6C83.7001 114.4 83.5001 114.5 83.3001 114.4C83.5001 114.4 83.7001 114.2 84.0001 114.2C84.2001 114.2 84.3001 114.1 84.4001 113.9C84.4001 113.7 84.4001 113.6 84.2001 113.6C84.3001 113.6 84.5001 113.6 84.6001 113.6C84.8001 113.6 84.9001 113.4 85.1001 113.4C85.3001 113.4 85.6001 113.2 85.3001 112.9C85.1001 112.8 85.1001 112.6 85.1001 112.4C85.1001 112.1 85.1001 111.9 85.5001 112C85.7001 112 86.0001 112 86.2001 112.1C86.7001 112.1 87.1001 112.3 87.6001 112.1C87.6001 111.6 87.8001 111.4 88.3001 111.5C88.5001 111.5 88.8001 111.7 88.9001 111.4C88.9001 111 88.5001 110.9 88.1001 110.8C88.5001 110.4 88.8001 110.8 89.2001 110.8C89.8001 110.9 90.3001 110.6 90.6001 109.9C90.6001 109.8 90.6001 109.5 90.6001 109.6C90.1001 109.7 90.2001 109.3 90.0001 109.1C89.9001 109.1 89.8001 109.1 89.8001 109.1C89.6001 109 89.4001 109.1 89.3001 109.1C89.1001 109.2 89.3001 109.3 89.3001 109.4C89.3001 109.5 89.4001 109.7 89.2001 109.7C89.0001 109.5 88.6001 109.7 88.6001 109.3C88.6001 108.9 89.0001 109.2 89.2001 109.1C89.2001 108.8 89.5001 108.8 89.5001 108.5C89.1001 107.9 89.7001 108 90.0001 107.9C89.6001 107.5 89.2001 107.8 88.8001 107.7C88.7001 107.7 88.5001 107.7 88.5001 107.6C88.5001 107.6 88.5001 107.5 88.5001 107.4C88.6001 107.3 88.7001 107.4 88.9001 107.4C89.0001 107.4 89.1001 107.4 89.2001 107.5C89.0001 107.1 89.0001 107.1 89.8001 107C89.6001 106.8 89.4001 106.8 89.2001 106.9C88.8001 106.9 88.6001 106.6 88.4001 106.4C88.3001 106.3 88.4001 106.2 88.5001 106.1C88.7001 105.9 88.9001 106.1 89.1001 106.2C89.2001 106.2 89.1001 106.6 89.4001 106.4C89.5001 106.3 89.6001 106 89.4001 105.8C89.2001 105.4 88.8001 105.2 88.5001 104.8C88.3001 104.5 88.1001 104.5 87.8001 104.7C87.8001 104.7 87.8001 104.7 87.7001 104.8C87.7001 105 87.7001 105.3 87.3001 105.2C87.1001 105.2 87.0001 105.3 86.9001 105.5C86.9001 105.7 86.8001 106 87.0001 106.1C87.2001 106.1 87.4001 106 87.6001 106.1C87.7001 106.2 88.0001 106.3 88.0001 106.5C88.0001 106.7 87.7001 106.8 87.4001 106.7H87.2001C87.1001 106.7 86.9001 106.7 86.8001 106.9C86.8001 107 86.8001 107.1 87.0001 107.1C87.2001 107.4 86.9001 107.2 86.8001 107.3C86.6001 107.3 86.5001 107.3 86.3001 107.4C85.9001 107.6 85.8001 108.1 86.1001 108.5C86.2001 108.6 86.5001 108.6 86.2001 108.9C86.0001 109 86.4001 109.1 86.4001 109.3C86.1001 109.3 86.2001 108.8 85.9001 108.8C85.7001 108.8 85.4001 108.8 85.2001 108.6C84.9001 108.4 84.9001 107.9 84.2001 107.9C84.7001 107.8 84.9001 108.4 85.2001 107.9C85.2001 107.9 85.2001 107.8 85.4001 107.8C85.5001 107.8 85.6001 107.8 85.6001 107.7C85.8001 107.3 86.2001 107.1 86.5001 106.9C86.7001 106.6 86.8001 106.4 86.5001 106.1C86.3001 105.9 86.3001 105.6 86.4001 105.4C86.4001 105.2 86.4001 104.9 86.1001 104.7C86.1001 104.7 86.0001 104.5 85.9001 104.5C85.6001 104.4 85.6001 104.6 85.6001 104.8C85.4001 105.4 85.1001 104.9 84.9001 104.8C84.6001 104.4 84.3001 104.5 84.0001 104.8C83.7001 105 83.4001 105.1 83.1001 104.8C82.9001 104.6 82.9001 104.4 83.1001 104.3C83.3001 104.3 83.7001 104.3 83.8001 104C83.8001 103.6 83.8001 103.3 83.5001 103C83.3001 102.8 83.3001 102.6 83.4001 102.3C83.5001 102 83.4001 101.8 83.1001 101.7C83.5001 101.4 83.8001 101.2 84.3001 101.2C85.1001 101.2 85.7001 100.9 86.2001 100.4C86.4001 100.2 86.4001 99.8 86.8001 99.6C87.2001 99.4 87.5001 99.2 88.0001 99.6C88.2001 99.8 88.4001 99.6 88.4001 99.4C88.4001 99 88.8001 99.2 89.0001 99.2C89.2001 99.2 89.3001 99.3 89.5001 99.2C89.8001 98.7 90.4001 98.6 90.9001 98.4C91.2001 98.4 91.5001 98.2 91.6001 97.8C91.7001 97.3 92.1001 97.3 92.6001 97.3C92.3001 97.1 92.1001 97.1 91.9001 97.2C91.4001 97.4 91.1001 97.3 90.8001 96.8C90.7001 96.7 90.4001 96.6 90.2001 96.7C89.6001 96.8 89.8001 96.2 89.5001 96V95.9C90.2001 96.1 90.1001 95.3 90.5001 95.1C90.7001 95.1 90.5001 94.4 90.5001 94.2C90.3001 93.9 90.1001 94.2 89.9001 94.4C89.9001 94.4 89.9001 94.6 89.7001 94.5C89.4001 94.3 89.0001 94.1 88.7001 94C88.5001 93.9 88.2001 94 88.1001 93.7C88.1001 93.5 87.6001 93.5 87.5001 93.9C87.5001 93.9 87.5001 94 87.5001 94.1C87.6001 93.6 87.3001 93.5 87.0001 93.4C87.0001 93.5 86.8001 93.7 86.6001 93.6C86.5001 93.6 86.3001 93.4 86.4001 93.2C86.4001 93.2 86.4001 93.1 86.4001 93C86.4001 93 86.3001 93 86.2001 93C86.0001 93.2 85.9001 93.4 85.7001 93.6C85.4001 94 84.9001 94.1 84.7001 94.5C84.7001 94.6 84.5001 94.6 84.3001 94.5C84.1001 94.5 83.9001 94.5 83.8001 94.7C83.9001 94.4 84.2001 94.4 84.4001 94.4C84.6001 94.4 84.7001 94.4 84.7001 94.1C84.7001 93.9 84.5001 93.9 84.4001 93.9C84.4001 93.9 84.1001 93.9 84.2001 93.8C84.4001 93.3 84.6001 92.8 84.9001 92.3C85.1001 92 85.3001 92.3 85.6001 92.3C85.8001 92.3 85.9001 92.3 86.1001 92.3C86.2001 92.3 86.3001 92.3 86.3001 92.4C86.3001 92.6 86.4001 92.6 86.5001 92.4C86.7001 91.9 87.2001 91.9 87.6001 91.7C87.6001 91.5 86.5001 91.3 87.6001 91.2C87.7001 91.2 87.6001 91.1 87.6001 91C87.4001 91 87.5001 90.6 87.4001 90.7C87.3001 90.9 87.0001 90.7 87.0001 90.9C87.0001 91.5 86.6001 91.7 86.1001 91.8C86.0001 91.6 86.0001 91.3 85.6001 91.5C85.3001 91.6 85.3001 91.4 85.3001 91.1C85.5001 90.6 85.8001 90.4 86.3001 90.4C86.3001 90.2 86.6001 90.1 86.3001 90C85.8001 90 85.8001 89.7 86.0001 89.4C86.9001 87.7 87.5001 85.9 88.3001 84.1C88.6001 83.5 88.9001 82.9 89.2001 82.2C89.5001 81.4 89.4001 81.4 88.5001 81.2C88.4001 81.2 88.3001 81.3 88.3001 81.5C88.3001 81.8 88.3001 81.9 88.7001 81.9C88.2001 82.5 88.2001 83.3 87.6001 83.9C87.8001 83.3 88.4001 82.9 88.1001 82.2C88.1001 82.2 88.0001 82.2 87.9001 82.2C87.4001 82.6 87.1001 83.1 86.6001 83.5C86.4001 83.5 86.4001 84.2 86.0001 83.7C86.0001 83.7 85.8001 83.7 85.8001 83.8C86.2001 84.5 85.5001 84.9 85.3001 85.3C85.1001 85.1 85.4001 85 85.3001 84.7C85.1001 85 84.6001 84.7 84.4001 85.1C86.1001 81.6 87.8001 78.1 89.6001 74.7C89.6001 74.7 89.6001 74.5 89.6001 74.4C89.4001 74.4 89.3001 74.5 89.2001 74.6C88.6001 75 88.5001 75.7 88.1001 76.2C87.3001 77.5 86.5001 78.9 85.9001 80.2C85.4001 81.1 84.9001 82 84.4001 82.9C84.3001 83 84.2001 83.2 84.1001 83.3C83.5001 84.2 83.2001 85.2 82.7001 86.2C82.6001 86.4 82.5001 86.7 82.1001 86.7C82.4001 86.3 82.3001 85.7 82.9001 85.4C83.1001 85.3 83.0001 85 82.9001 84.8C82.7001 84.6 82.5001 84.8 82.3001 85C82.6001 84.6 82.6001 84 83.2001 83.8C83.4001 83.8 83.2001 83.5 83.2001 83.4C82.9001 82.9 82.9001 82.4 83.2001 82C83.2001 82 83.2001 81.9 83.2001 81.8C83.0001 81.8 82.9001 81.8 82.8001 81.8C82.6001 82 82.4001 82.4 82.1001 82.5C82.3001 82.3 82.3001 82.1 82.1001 82.1C81.5001 82 81.9001 81.8 82.1001 81.6C82.6001 81.6 83.1001 81.3 83.6001 81.6C83.8001 81.6 83.8001 81.4 83.9001 81.3C84.1001 81 83.8001 80.5 84.3001 80.4C84.3001 80.4 84.3001 80.2 84.5001 80.4C84.9001 80.9 84.9001 80.5 85.0001 80.2C85.0001 80.1 85.0001 80 85.0001 79.9C85.0001 79.5 84.8001 79.4 84.4001 79.4C83.7001 79.4 83.7001 80.1 83.3001 80.6C83.1001 80 83.3001 79.4 83.8001 79.2C84.0001 79.1 84.1001 78.9 83.9001 78.7C83.7001 78.4 83.8001 78.2 83.9001 78C84.3001 77.6 84.5001 77.1 84.6001 76.6C84.7001 76.2 85.0001 75.9 85.1001 75.5C85.1001 75.3 85.2001 75.1 85.0001 75C84.7001 75 84.6001 75.3 84.5001 75.6C84.0001 76.5 83.4001 77.4 82.9001 78.3C82.9001 78.3 82.9001 78.4 82.8001 78.3C83.3001 77.7 83.5001 76.9 83.9001 76.3C83.9001 76.3 83.9001 76.1 83.9001 76C83.6001 75.7 83.5001 76 83.4001 76.2C83.0001 76.9 82.5001 77.5 82.1001 78.1C81.9001 78.3 82.0001 78.8 81.5001 78.7H81.3001C81.0001 78.7 81.0001 79.2 80.7001 79.4C80.7001 79.4 80.7001 79.5 80.7001 79.6C80.7001 79.6 80.7001 79.5 80.8001 79.4C80.9001 79.2 81.0001 79 80.8001 79C80.5001 79 80.6001 78.8 80.6001 78.6C80.8001 77.7 81.1001 76.8 81.3001 75.9C81.4001 75.3 81.9001 74.9 81.9001 74.3C81.9001 74.2 82.0001 74.1 82.2001 74.1C82.6001 74.1 82.7001 73.8 82.7001 73.5C82.7001 73.2 82.7001 73 82.7001 72.7C82.7001 71.9 83.2001 71.4 84.0001 71.3C84.1001 71.3 84.3001 71.3 84.3001 71.3C84.7001 71.8 85.1001 71.5 85.5001 71.3C85.7001 71.3 85.8001 71.2 85.8001 71.4C85.9001 71.8 86.1001 71.7 86.3001 71.4C86.5001 71.1 86.7001 70.7 86.8001 70.4C86.8001 70.3 86.6001 70.1 86.9001 70.1C87.3001 69.5 87.7001 68.9 88.0001 68.2C88.0001 68 88.1001 67.9 88.3001 67.8C88.3001 67.9 88.1001 68 88.1001 68.1C88.0001 68.9 87.4001 69.5 87.1001 70.2C86.9001 70.6 86.5001 71 86.6001 71.5C86.6001 71.5 86.6001 71.6 86.8001 71.7C87.4001 71.1 87.8001 70.4 88.3001 69.7C88.5001 69.4 88.6001 69.1 88.9001 68.9C89.2001 68.8 88.9001 68.5 88.9001 68.4C88.7001 68 89.2001 67.9 89.3001 67.7C89.6001 67.3 89.9001 66.9 90.1001 66.4C90.3001 66 90.6001 65.6 91.0001 65.5C91.3001 65.5 91.3001 65.2 91.1001 65C90.8001 64.6 90.9001 64.2 91.4001 64.1C91.8001 64 92.1001 63.9 92.0001 63.3C92.0001 63.2 92.0001 63.1 92.2001 63.1C92.4001 63.1 92.6001 63 92.8001 63C93.4001 63 93.4001 63 93.1001 62.4C93.2001 62.4 93.4001 62.4 93.5001 62.4C93.6001 62.4 93.5001 62.2 93.6001 62.1C93.8001 61.9 93.6001 61.6 93.8001 61.4L93.7001 61.2C93.3001 61.4 93.4001 60.9 93.2001 60.8C93.4001 60.6 93.6001 60.9 93.8001 60.8C93.6001 60.6 93.4001 60.5 93.8001 60.4C94.0001 60.4 93.8001 60.3 93.8001 60.2C93.6001 59.7 94.0001 59.6 94.3001 59.5C94.3001 59.5 94.3001 59.5 94.4001 59.4C94.4001 59.3 94.4001 59.2 94.2001 59.2C94.7001 58.7 94.7001 57.9 95.2001 57.5C95.5001 56.9 95.9001 56.3 96.1001 55.6C96.1001 55.5 96.1001 55.4 96.1001 55.3C95.6001 55.5 95.5001 55.9 95.3001 56.3C95.1001 56.6 94.8001 56.9 94.6001 57.3C94.4001 57 94.2001 57 94.0001 57.3C93.9001 57.5 93.8001 57.8 93.6001 58C93.4001 58.2 93.3001 58.3 93.1001 58C92.9001 57.8 92.8001 57.7 93.1001 57.5C93.4001 57.2 93.5001 56.7 94.0001 56.6C94.2001 56.6 94.2001 56.4 94.0001 56.2C93.6001 55.9 93.1001 55.8 92.6001 56.1C92.4001 56.2 92.2001 56.2 91.9001 56.2C91.5001 56.2 91.2001 56.2 91.0001 56.7C90.8001 57.1 90.6001 57.4 90.4001 57.7C90.7001 57.2 91.0001 56.9 91.1001 56.4C90.9001 56.1 90.9001 56.1 90.6001 56.6C90.2001 57.2 89.9001 57.7 89.3001 58.2C89.3001 57.4 89.8001 57 90.1001 56.4C90.6001 55.9 91.1001 55.3 91.7001 54.8C91.7001 54.8 91.7001 54.8 91.8001 54.7C91.9001 54.6 92.1001 54.5 92.1001 54.3C92.3001 53.7 92.6001 53.2 93.0001 52.8C93.0001 52.8 93.2001 52.7 93.2001 52.6C93.2001 52.6 93.2001 52.6 93.2001 52.5C93.2001 52.3 93.3001 52.2 93.4001 52.1C93.4001 52.1 93.4001 52 93.4001 51.9C93.0001 51.7 93.4001 51.5 93.4001 51.3C93.5001 51.2 93.5001 51 93.7001 50.8C94.2001 50.4 94.2001 50.3 93.6001 50C94.1001 50 94.4001 49.7 94.6001 49.3C94.7001 49.2 94.9001 49.1 94.9001 48.8C94.6001 48.4 94.1001 48.5 93.7001 48.5C93.5001 48.5 93.4001 48.7 93.5001 48.9C93.8001 49.7 93.1001 49.3 92.9001 49.6C92.8001 49.3 92.9001 49.2 93.0001 49.1C93.0001 49.1 93.2001 48.9 93.2001 48.8C92.9001 48.4 93.4001 48.4 93.5001 48.2C93.6001 48 93.7001 47.9 93.8001 47.7C93.8001 47.4 94.0001 47.1 93.7001 46.9C93.3001 46.9 93.2001 47.3 93.0001 47.5C93.0001 47.6 92.8001 47.6 92.7001 47.5C91.9001 47.3 91.3001 47.5 91.1001 48.4C91.1001 48.7 90.6001 48.6 90.4001 48.8C90.4001 48.8 90.2001 48.9 90.1001 48.9C89.2001 49.1 89.2001 49.2 89.7001 49.9C89.7001 50.3 89.3001 50.2 89.2001 50.3C89.1001 50.3 89.0001 50.5 88.9001 50.7C88.8001 50.8 88.7001 51.1 88.5001 51C88.3001 51 88.3001 50.7 88.2001 50.5C88.2001 50.5 88.2001 50.5 88.2001 50.4C88.2001 50.4 88.0001 50.4 87.9001 50.4C87.5001 50.1 87.3001 50.2 87.2001 50.6C87.2001 50.8 87.2001 51 87.2001 51.1C87.2001 51.2 87.1001 51.4 87.0001 51.4H86.8001C86.8001 51.3 86.8001 51.1 86.8001 51C87.1001 50.7 87.3001 50.4 87.4001 49.9C87.4001 49.6 87.6001 49.4 87.9001 49.3C88.2001 49.1 88.3001 48.9 88.2001 48.5C88.2001 48.2 88.2001 48 88.3001 47.8C88.3001 47.8 88.3001 47.7 88.5001 47.6C88.8001 47.1 89.2001 46.7 89.3001 46.1C89.4001 45.7 89.7001 45.3 90.2001 45.4C90.5001 45.4 90.7001 45.4 90.7001 45C90.7001 44.7 90.4001 44.7 90.2001 44.7C89.9001 44.7 89.7001 44.6 89.6001 44.2C89.4001 43.8 89.2001 43.4 89.0001 43C88.7001 42.4 87.5001 42.5 87.1001 43C87.1001 43 87.1001 43.1 86.9001 43.1C86.9001 43 86.9001 42.9 87.0001 42.9C87.0001 42.9 87.0001 42.8 87.0001 42.7C87.0001 42.4 86.7001 42.4 86.6001 42.2C86.6001 42 86.8001 41.9 86.8001 41.7C86.8001 41.4 86.8001 41.1 86.3001 41.4C86.7001 40.7 87.0001 40 87.2001 39.3C87.3001 38.8 87.2001 38.8 86.8001 38.7C86.8001 38.7 86.8001 38.6 86.9001 38.6C87.3001 38.6 87.6001 38.4 87.2001 37.9V37.7C87.2001 37.3 86.9001 37.3 86.7001 37.2C86.7001 37 86.7001 36.9 86.7001 36.7C86.7001 36.5 86.5001 36.3 86.7001 36C86.9001 35.8 86.7001 35.5 86.4001 35.3C86.0001 35.3 85.9001 35.8 85.7001 36.1C85.4001 35.5 86.3001 35.3 86.0001 34.8C86.5001 34.6 86.7001 34 87.1001 33.8C87.1001 33.9 86.8001 34 86.7001 34.2C86.4001 34.5 86.4001 34.7 86.7001 35C87.0001 35.1 87.1001 35 87.2001 34.7C87.4001 34.8 87.5001 35.1 87.8001 34.8C88.0001 34.6 88.1001 34.4 88.0001 34.1C87.9001 33.8 88.0001 33.6 88.4001 33.6C88.7001 33.6 89.0001 33.3 89.2001 33.6C89.3001 33.9 88.9001 34 88.7001 34.1C88.5001 34.2 88.3001 34.3 88.4001 34.5C88.4001 35.2 88.0001 35.5 87.6001 35.9C87.6001 35.9 87.5001 36 87.5001 36.1C87.5001 36.3 87.4001 36.5 87.3001 36.6C87.3001 36.8 87.0001 37.1 87.3001 37.3C87.3001 37.7 87.5001 38 88.1001 38C87.4001 38.3 87.5001 38.9 87.3001 39.3C87.1001 39.7 87.0001 40 87.3001 40.4C87.3001 40.4 87.5001 40.5 87.6001 40.4C87.8001 40.2 87.9001 40 87.9001 39.7C87.9001 39.5 88.0001 39.3 88.2001 39.2C88.3001 39.5 88.2001 39.8 88.2001 40.1C88.2001 40.5 88.2001 40.8 88.6001 41C88.3001 41.3 88.0001 41.2 87.7001 41.4C87.5001 41.5 87.3001 41.6 87.4001 41.9C87.4001 42.1 87.7001 42.1 87.8001 42.1C88.5001 42.3 89.1001 41.9 89.7001 41.6C89.9001 41.6 89.9001 41.4 89.9001 41.2C89.9001 41 89.7001 40.9 89.4001 40.9C89.9001 40.9 90.2001 40.7 90.5001 40.5C90.5001 40.5 90.5001 40.5 90.5001 40.4C91.3001 40 91.3001 39.1 91.7001 38.4C91.7001 38.3 91.8001 38.2 92.0001 38.1C92.3001 38.1 92.6001 37.9 92.8001 37.7C93.1001 37.6 93.2001 37.4 92.8001 37.2H92.6001C92.5001 36.4 91.6001 36.7 91.2001 36.3C91.5001 35.7 91.8001 35.2 92.5001 35C93.1001 34.9 93.4001 34.4 93.7001 34C93.7001 33.6 93.3001 33.7 93.0001 33.7C92.9001 33.7 92.8001 33.5 92.6001 33.5C92.2001 33.5 92.4001 33.3 92.6001 33.2C92.6001 33.2 92.6001 33.1 92.6001 33C92.6001 32.8 92.4001 32.7 92.2001 32.7C92.2001 32.7 92.1001 32.7 92.0001 32.7C92.0001 32.7 92.0001 32.8 91.8001 32.7C91.8001 32.7 91.8001 32.6 91.8001 32.5C91.8001 32.4 91.8001 32.4 91.8001 32.3C91.8001 32.1 92.0001 31.8 91.6001 31.7C91.2001 31.7 91.3001 32 91.2001 32.2C91.0001 32.2 90.8001 32.6 90.7001 32.2C90.6001 32.1 90.5001 31.9 90.3001 32C90.0001 32.2 90.0001 32.1 90.1001 31.8C90.1001 31.8 90.3001 31.7 90.1001 31.5C90.0001 31.5 89.8001 31.9 89.6001 31.5C89.6001 31.3 89.4001 31.5 89.3001 31.5C89.6001 31.9 89.0001 31.9 89.0001 32.2C89.0001 32.3 88.8001 32.5 88.6001 32.5C88.4001 32 88.9001 31.7 89.1001 31.4C89.0001 31.4 88.9001 31.4 88.7001 31.3C88.7001 31.3 88.4001 31.3 88.5001 31C88.6001 30.8 88.8001 31 88.8001 31C89.0001 31.1 89.2001 31.4 89.4001 31C89.2001 30.7 89.0001 30.3 89.3001 30C89.6001 29.6 89.3001 29.6 89.1001 29.5C89.0001 29.5 88.8001 29.5 88.7001 29.5C88.6001 29.5 88.4001 29.5 88.4001 29.7C88.4001 30 88.7001 29.6 88.8001 29.7C88.8001 30 88.4001 30.1 88.3001 30.3C88.2001 30.2 88.0001 30.3 88.0001 30.3C88.0001 30.8 87.6001 31.1 87.5001 31.5C87.5001 31.6 87.4001 31.7 87.5001 31.8C87.6001 32.1 87.6001 32.1 87.3001 32.2C87.3001 32 87.5001 31.8 87.3001 31.7C87.2001 31.7 87.3001 31.5 87.3001 31.5C87.9001 31.3 87.8001 30.8 87.9001 30.4C88.0001 30.1 88.1001 30 88.4001 30.1C88.3001 30 88.5001 29.7 88.1001 29.7C87.9001 29.7 88.2001 29.5 88.1001 29.3H87.9001C87.9001 29.3 87.9001 29.5 87.6001 29.5C87.9001 29.1 87.9001 28.7 87.8001 28.3C88.0001 28.2 88.2001 28.1 88.2001 27.8C88.2001 27.8 88.2001 27.8 88.2001 27.7C88.3001 27.4 88.2001 27.5 88.0001 27.5C88.2001 27.3 88.3001 27.1 88.4001 26.7C88.4001 26.3 89.0001 26.1 88.9001 25.6C88.9001 25.5 88.9001 25.4 88.8001 25.4C88.4001 25.7 88.2001 26.1 87.9001 26.5C88.4001 25.8 88.9001 25 89.3001 24.2C89.3001 23.9 89.3001 23.6 89.7001 23.5C89.7001 23.5 89.9001 23.4 89.9001 23.3C90.0001 22.2 90.9001 21.7 91.4001 20.9C91.6001 20.6 91.8001 20.3 92.0001 20C92.2001 19.7 92.2001 19.7 92.0001 19.4C91.8001 19.2 92.0001 19.1 92.1001 19C92.6001 18.4 93.0001 17.7 93.5001 17.1C93.7001 16.8 93.7001 16.4 93.9001 16.2C93.7001 15.9 93.6001 15.9 93.3001 16.2C93.1001 16.2 93.1001 16.5 92.9001 16.6C92.0001 16.9 91.6001 17.4 91.0001 18.3C90.5001 19.1 89.9001 19.9 89.1001 20.5C89.3001 20.2 89.5001 19.9 89.7001 19.6C89.7001 19.6 89.8001 19.4 89.7001 19.3C89.5001 19.3 89.6001 19.3 89.5001 19.5C89.1001 19.9 88.8001 20.3 88.5001 20.7C88.1001 21.1 87.8001 21.6 87.5001 22.1C87.3001 22.1 87.2001 22.3 87.1001 22.4C86.8001 22.7 86.7001 23.2 86.1001 23.3C85.8001 23.3 85.6001 23.8 85.4001 24C85.4001 23.3 85.9001 23 86.3001 22.5C86.5001 22.3 86.6001 22.1 86.6001 21.9C86.3001 21.2 87.1001 20.9 87.2001 20.3C86.7001 20.6 86.6001 21.1 86.2001 21.3C86.3001 20.7 86.8001 20.3 87.0001 19.9C87.2001 19.9 87.2001 19.7 87.3001 19.6C87.6001 18.9 88.2001 18.3 88.6001 17.6C88.8001 17.3 89.0001 17.1 89.2001 16.9C89.2001 16.8 89.2001 16.7 89.1001 16.7C88.1001 18 87.0001 19.2 86.1001 20.6C85.9001 20.4 86.1001 20.3 86.1001 20.1C86.5001 19.3 87.0001 18.5 87.5001 17.8C87.6001 17.6 87.7001 17.4 87.8001 17.2C87.8001 16.7 88.3001 16.3 88.5001 15.8C88.5001 15.7 88.5001 15.6 88.4001 15.6C88.3001 15.6 88.2001 15.6 88.0001 15.6C87.9001 15.6 87.8001 15.7 87.8001 15.9C87.3001 16.6 86.8001 17.3 86.3001 18C85.3001 19.3 84.4001 20.7 83.6001 22C83.1001 22.7 82.7001 23.4 82.4001 23.7C82.8001 23.1 83.4001 22.1 84.0001 21.2C84.1001 21 84.3001 20.8 84.3001 20.5C84.3001 20.3 84.3001 20.2 84.1001 20.4C83.8001 21.1 83.3001 21.7 82.8001 22.3C82.3001 22.8 82.0001 23.4 81.5001 23.9C81.5001 23.9 81.5001 23.9 81.4001 24C81.2001 24.1 81.1001 24.4 80.9001 24.4C80.5001 24.7 80.3001 25.1 80.1001 25.5C79.6001 26.2 79.2001 27 78.6001 27.7C78.4001 27.8 78.3001 28 78.2001 28.2C78.4001 27.9 78.5001 27.7 78.5001 27.4C79.7001 25 81.3001 22.8 82.7001 20.4C82.6001 20.2 82.4001 20.5 82.3001 20.4C82.3001 20.2 82.3001 20.2 82.2001 20.1C82.1001 20.1 82.1001 20.1 82.3001 19.7C82.3001 19.3 82.6001 19 82.8001 18.6C82.8001 18.5 82.8001 18.4 82.9001 18.2C83.4001 17.7 83.7001 17.1 83.9001 16.4C83.7001 16.3 83.6001 16.4 83.3001 16.4C83.7001 16 84.0001 15.6 84.3001 15.1C84.3001 15.1 84.8001 14.9 84.3001 14.8C84.1001 14.8 84.4001 14.4 84.5001 14.3C85.0001 13.7 85.3001 13 85.8001 12.4C86.0001 12.1 86.3001 11.7 86.6001 11.5C86.8001 11.2 86.8001 11.1 86.6001 10.9C86.2001 11.3 86.0001 12.1 85.3001 12.2C86.4001 10.7 87.3001 9.10002 88.5001 7.60002C88.3001 7.40002 88.2001 7.10001 88.5001 6.90001C88.8001 6.60001 88.9001 6.20001 89.1001 6.00002C89.6001 5.40001 90.0001 4.60002 90.7001 4.10002C90.5001 3.90002 90.4001 4.10002 90.3001 4.10002C90.1001 4.20003 89.9001 4.50002 89.6001 4.50002C89.5001 4.50002 89.3001 4.60002 89.2001 4.80002C89.0001 5.30002 88.5001 5.60002 88.1001 6.00002C87.7001 6.50002 87.2001 7.00002 86.8001 7.50002C87.1001 7.00002 87.7001 6.70003 87.6001 6.10002C88.4001 4.90002 89.5001 4.00002 90.3001 2.90001C90.7001 2.20001 91.3001 1.60001 91.8001 0.900009C91.9001 0.800003 92.1001 0.600006 92.1001 0.400009C92.1001 0.200012 92.1001 0.200027 91.9001 0.200027C91.2001 1.10002 90.4001 1.90001 89.4001 2.50002C89.3001 2.70001 89.2001 3.00002 88.9001 2.80002C88.7001 2.80002 88.6001 2.80002 88.5001 3.00002C88.0001 3.50002 87.4001 4.00002 87.0001 4.60002C86.8001 4.70003 86.6001 4.90002 86.5001 5.10002C86.5001 5.10002 86.3001 5.20001 86.2001 5.30002C85.8001 5.80002 85.1001 5.80002 84.7001 6.30002C84.7001 6.30002 84.4001 6.30002 84.3001 6.30002C83.6001 7.00002 82.9001 7.70001 82.3001 8.50002C82.1001 9.10002 81.6001 9.40001 81.1001 9.90001C80.8001 10.2 80.6001 10.4 80.3001 10.7C79.7001 11.3 79.0001 11.9 78.6001 12.7C78.6001 12.7 78.6001 12.6 78.6001 12.5C78.6001 12.5 78.6001 12.4 78.4001 12.3C77.6001 13.2 77.1001 14.3 76.2001 15.1C76.0001 15.3 76.2001 15.8 75.7001 15.6C75.2001 15.7 75.3001 16.2 75.0001 16.4C75.0001 16.3 75.0001 16.2 75.1001 16.1C75.1001 16 75.3001 15.9 75.1001 15.7C75.0001 15.6 74.8001 15.5 74.7001 15.6H74.6001C74.2001 16.1 73.9001 16.7 73.3001 16.9C73.3001 17.2 73.3001 17.5 73.0001 17.4C72.7001 17.4 72.6001 17.6 72.7001 17.8C72.7001 17.9 72.7001 18.1 72.7001 18.2C72.7001 18.4 72.5001 18.4 72.4001 18.6C72.4001 18.4 72.4001 18.3 72.5001 18.2C72.5001 18.2 72.5001 18.1 72.5001 18C72.5001 17.9 72.5001 17.8 72.3001 17.8C71.8001 18 71.7001 18.5 71.5001 18.8C71.5001 18.8 71.3001 19 71.3001 18.9C71.2001 18.7 71.4001 18.6 71.5001 18.5C71.7001 18.3 71.8001 18.1 71.8001 17.9C71.5001 17.2 71.4001 17.2 71.0001 17.6C71.0001 17.6 71.0001 17.6 70.9001 17.7C70.6001 17.9 70.5001 18.3 70.1001 18.4C70.1001 18.2 70.2001 18.1 70.3001 17.9C70.3001 17.7 70.5001 17.5 70.3001 17.4C70.1001 17.4 70.0001 17.5 69.9001 17.7C69.8001 18 69.6001 18.2 69.5001 18.4C69.4001 18.4 69.4001 18.7 69.2001 18.7C69.0001 18.2 69.1001 17.8 69.3001 17.3C69.4001 17 69.3001 16.6 69.3001 16.3C69.5001 16 69.9001 15.9 69.9001 15.5C69.9001 15.2 69.9001 15 70.1001 14.8C70.3001 14.2 70.7001 13.7 71.0001 13.2C71.0001 13 71.2001 12.8 71.2001 12.6C70.7001 12.2 70.7001 12.8 70.5001 12.9C70.6001 12.7 70.7001 12.5 70.5001 12.3C70.3001 12.1 70.1001 12.3 69.9001 12.3C69.8001 12.3 69.7001 12.5 69.7001 12.7C69.2001 13.1 69.0001 13.7 68.9001 14.3C68.9001 14.6 68.5001 14.9 68.2001 14.9C67.7001 15 67.7001 15.3 67.7001 15.7C67.7001 14.8 68.1001 14 68.6001 13.3C68.6001 13.3 68.6001 13.2 68.6001 13.1C68.2001 12.9 68.2001 12.9 67.8001 13.4C67.8001 13.4 67.8001 13.4 67.8001 13.5C67.6001 13.7 67.6001 14 67.4001 14.2C67.3001 14.3 67.2001 14.5 67.1001 14.6C66.8001 14.9 66.6001 15.2 66.4001 15.5C66.4001 15.5 66.2001 15.7 66.1001 15.8C65.9001 15.5 65.9001 15.2 66.0001 14.9V14.8C65.7001 14.6 65.7001 14.4 65.9001 14.2C66.1001 14 66.2001 13.8 66.2001 13.5C66.2001 13.5 66.2001 13.4 66.1001 13.3C65.8001 13.2 65.7001 12.8 65.3001 12.8C65.3001 12.8 65.2001 12.8 65.1001 13C64.9001 13.6 64.5001 14 64.1001 14.5C64.1001 14.6 63.9001 14.8 63.9001 14.8C64.3001 14.5 64.5001 13.8 64.7001 13.2C64.7001 12.9 65.0001 12.8 65.1001 12.6C65.1001 12.5 65.1001 12.4 65.1001 12.3C64.9001 12.2 64.8001 12.3 64.7001 12.4C64.4001 12.6 64.1001 12.9 63.7001 13.1C63.7001 13.1 63.7001 13.1 63.6001 13.1C63.4001 13.4 63.2001 13.6 63.3001 14C63.3001 13.8 63.3001 13.5 63.5001 13C63.5001 12.7 63.3001 12.6 63.0001 12.6C62.8001 12.6 62.7001 12.7 62.7001 12.9C62.7001 12.9 62.7001 13.1 62.5001 13.1L62.6001 12.9C62.6001 12.9 62.6001 12.8 62.6001 12.7C62.5001 12.4 62.3001 12.4 62.0001 12.6C61.9001 12.8 61.8001 12.9 61.7001 13.1C61.6001 13.4 61.4001 13.5 61.0001 13.6C61.0001 13.5 61.1001 13.4 61.2001 13.3C61.2001 13.2 61.3001 13.1 61.3001 13C61.0001 12.5 60.9001 12.9 60.7001 13C60.7001 13.1 60.6001 13.3 60.5001 13.4C60.5001 13.6 60.2001 13.7 60.0001 13.7C60.0001 13.5 60.0001 13.3 60.2001 13.1C60.2001 13 60.5001 12.8 60.2001 12.7C60.1001 12.6 59.9001 12.7 59.8001 12.7C59.3001 13.1 58.7001 13.2 58.3001 13.7C58.0001 14 57.7001 14.1 57.3001 14.2C57.5001 13.9 57.5001 13.6 57.7001 13.3C57.8001 13 57.7001 13 57.4001 13C57.1001 13 57.0001 13.2 56.9001 13.4C56.8001 13.6 56.7001 13.9 56.6001 14C56.6001 13.8 56.9001 13.6 56.6001 13.4C56.2001 13.6 55.8001 13.8 55.7001 14.2C55.7001 14.2 55.7001 14.2 55.8001 14.3C55.8001 14.3 55.8001 14.3 55.8001 14.2C55.5001 14.2 55.4001 14.3 55.2001 14.4C55.0001 14.5 54.9001 14.4 54.9001 14.2C54.7001 14.1 54.5001 14.1 54.5001 14.3C54.5001 14.7 54.2001 14.6 53.9001 14.7C54.1001 14.5 54.3001 14.4 54.2001 14.2C54.1001 14 53.9001 14 53.8001 14.1C53.3001 14.2 53.4001 13.9 53.5001 13.7C53.7001 13.1 53.5001 12.8 53.0001 12.5C53.0001 12.5 52.9001 12.5 52.8001 12.5C52.8001 12.5 52.6001 12.6 52.6001 12.5C52.7001 12.1 53.0001 11.9 53.1001 11.5C53.1001 11.5 53.1001 11.4 53.1001 11.3C53.1001 11.2 53.1001 11 53.1001 10.9C53.1001 10.7 53.2001 10.5 53.4001 10.4C53.7001 10.1 53.8001 9.80002 53.7001 9.50002C53.7001 9.10002 53.3001 9.00002 53.0001 8.80002C53.4001 8.80002 53.5001 9.00002 53.7001 8.90001C53.7001 8.90001 53.7001 8.90001 53.8001 8.90001C53.8001 8.60001 53.4001 8.40002 53.4001 8.10002C53.4001 7.90002 53.6001 7.80002 53.4001 7.60002H53.2001C53.0001 7.70003 52.8001 7.90002 52.7001 8.10002C52.5001 8.50002 52.5001 9.10002 51.9001 9.10002H51.8001C51.6001 9.30002 51.5001 9.50002 51.4001 9.70001C51.4001 9.90001 51.4001 10 51.2001 10.2C51.2001 10.9 50.6001 11.4 50.3001 11.9C50.3001 11.9 50.3001 11.9 50.3001 12C50.3001 12.2 50.3001 12.4 50.3001 12.5C50.3001 13 50.1001 13.2 49.6001 13.1C49.2001 13.1 49.0001 13.2 48.8001 13.6C48.6001 14.1 48.4001 14.6 48.3001 15.1C48.3001 15.3 48.3001 15.4 48.1001 15.5C47.7001 15.8 47.7001 16.3 47.5001 16.7C47.5001 16.6 47.5001 16.5 47.5001 16.5C47.5001 16.5 47.4001 16.5 47.3001 16.5C47.0001 16.7 46.7001 16.9 46.6001 17.3C46.5001 17.7 46.1001 17.3 45.9001 17.5C45.9001 17.5 45.8001 17.6 45.7001 17.7C45.7001 17.9 45.7001 18.2 45.4001 18.3C45.4001 18.3 45.4001 18.3 45.4001 18.4C45.4001 18.6 45.1001 18.7 45.1001 18.9V19.1C45.3001 19.1 45.4001 19.1 45.6001 19.1C45.4001 19.3 45.2001 19 45.0001 19.2C45.0001 19.2 45.0001 19.3 45.0001 19.4C45.0001 19.6 45.2001 19.7 45.4001 19.7C45.7001 19.7 45.5001 19.9 45.4001 20.1C45.3001 20.4 45.0001 20.6 44.8001 20.9C44.6001 21.1 44.6001 21.1 44.5001 20.9C44.3001 20.6 44.2001 20.9 44.1001 20.9C43.9001 21.3 43.5001 21.4 43.4001 21.8C43.4001 21.5 43.4001 21.2 43.1001 21.3C42.8001 21.3 42.4001 21.3 42.6001 21.8C42.7001 22.2 42.6001 22.4 42.2001 22.4C42.2001 22.4 42.0001 22.4 41.9001 22.5C41.7001 22.6 41.5001 22.8 41.5001 23C41.5001 23.2 41.9001 23.3 42.1001 23.3C42.3001 23.3 42.5001 23 42.6001 23.3C42.7001 23.6 43.1001 23.8 42.9001 24.2C42.9001 25 42.8001 25.8 42.3001 26.5C42.1001 26.8 42.3001 27 42.9001 27.2C42.5001 27.4 42.2001 27.7 41.8001 27.8C41.8001 27.8 41.8001 27.8 41.8001 27.9C41.8001 28.2 41.4001 28.1 41.4001 28.4C41.4001 28.4 41.4001 28.4 41.5001 28.4C41.8001 28.4 42.2001 28.2 42.3001 28.7C42.1001 28.4 41.8001 28.2 41.5001 28.5C41.3001 28.8 41.2001 28.9 40.8001 28.8C40.5001 28.7 39.9001 28.7 39.7001 29.2C39.7001 29.4 39.5001 29.6 39.9001 29.7C40.3001 29.7 40.8001 29.7 41.1001 30.1C41.1001 30.2 41.3001 30.3 41.4001 30.4C41.7001 30.6 41.7001 30.9 41.7001 31.2C41.7001 31.5 41.4001 31.8 41.7001 32C41.7001 32 41.8001 32 41.9001 32C41.9001 32 41.9001 32 41.9001 32.2C41.9001 32.2 41.9001 32.4 41.9001 32.5C42.3001 32.9 42.5001 33.4 42.7001 33.8C42.9001 34 42.7001 34.1 42.7001 34.3C42.5001 34.6 42.2001 34.8 42.7001 35.1C42.9001 35.1 42.7001 35.4 42.7001 35.5C42.3001 36.2 42.2001 36.9 42.0001 37.6C42.0001 38 41.8001 38.3 41.3001 38.5C41.1001 38.6 41.3001 38.8 41.3001 39C41.3001 39.5 41.4001 40.1 41.1001 40.6C41.2001 40.2 40.6001 40 40.7001 39.6V39.3C40.7001 39.1 40.7001 38.9 40.9001 38.7C40.9001 38.5 41.0001 38.4 40.9001 38.2C40.7001 38 40.6001 38.2 40.5001 38.3C40.5001 38.3 40.5001 38.6 40.2001 38.5C40.2001 38.5 40.2001 38.3 40.1001 38.2C40.1001 38.1 39.9001 37.9 39.8001 37.9C39.5001 37.9 39.4001 38.1 39.5001 38.3C39.6001 38.5 39.7001 38.7 39.5001 38.8C39.4001 38.8 39.2001 39 39.3001 39.2C39.3001 39.2 39.3001 39.2 39.4001 39.2C39.1001 39.6 39.3001 40.1 39.2001 40.5C39.8001 41.1 39.1001 41.6 39.1001 42.2C39.1001 42.4 39.0001 42.5 38.9001 42.7C38.9001 43.1 38.4001 43.1 38.4001 43.5C38.4001 43.7 38.4001 44 38.7001 44C38.6001 44.2 38.3001 44 38.2001 44.2C38.0001 44.3 37.9001 44.4 37.8001 44.5C37.8001 44.5 37.8001 44.6 37.7001 44.5C37.7001 44.5 37.7001 44.3 37.7001 44.2C37.7001 44.2 37.7001 44.1 37.7001 44V43.8C37.5001 43.8 37.3001 43.7 37.1001 43.8C37.0001 43.8 36.9001 44 36.9001 44.2C36.5001 44.9 36.3001 45.8 35.7001 46.4C35.7001 46.3 35.7001 46.1 35.7001 46C35.7001 45.9 35.6001 45.7 35.6001 45.6C35.5001 45.4 35.5001 45.2 35.4001 44.9C35.2001 44.4 35.8001 44.5 35.9001 44.2V44C35.9001 44 35.7001 43.9 35.6001 44C35.2001 44.3 35.2001 44 35.2001 43.7C35.2001 43.4 35.6001 43.2 35.5001 42.8C35.5001 42.8 35.4001 42.8 35.3001 42.8C34.9001 42.8 35.0001 42.5 35.0001 42.2C35.0001 42.1 35.0001 42 35.1001 41.8C35.3001 41.6 35.4001 41.4 35.1001 41.1C35.1001 41 34.9001 40.8 35.0001 40.7C35.3001 40.1 35.2001 39.3 35.7001 38.7C36.1001 38 36.5001 37.3 36.7001 36.5C36.4001 36 36.7001 35.7 36.9001 35.3C37.3001 34.7 37.5001 34 37.6001 33.3C37.6001 32.8 37.9001 32.5 38.0001 32.1C38.3001 31.8 38.3001 31.3 38.6001 30.9C38.6001 31.4 38.2001 31.6 38.2001 31.9C38.4001 32.2 38.6001 32.3 38.9001 32C39.1001 31.5 39.1001 31 39.4001 30.6C39.4001 30.4 39.3001 30.2 39.0001 30.3C38.5001 30.3 38.4001 30.1 38.6001 29.7C38.6001 29.7 38.6001 29.6 38.6001 29.5C38.9001 28.9 39.0001 28.3 39.1001 27.7C39.2001 27.3 39.4001 26.9 39.5001 26.5C39.5001 26.2 39.5001 25.9 39.5001 25.6C39.2001 25.4 39.0001 25.7 38.8001 25.9C38.8001 25.9 38.7001 26 38.6001 26.1C38.2001 26.4 37.9001 26.7 38.3001 27.2C38.3001 27.2 38.3001 27 38.1001 27C37.9001 27 37.9001 27.1 37.8001 27.3C37.8001 27.5 37.6001 27.6 37.4001 27.7C37.4001 28.6 36.7001 29.2 36.6001 30C36.6001 30.7 36.0001 31.1 35.8001 31.8C35.8001 31.9 35.8001 32 35.7001 32.1C35.7001 32.1 35.7001 32.1 35.7001 32C35.7001 31.6 36.1001 31.2 35.7001 30.8C35.5001 30.8 35.5001 30.9 35.4001 31C35.3001 31.2 35.2001 31.4 35.2001 31.6C35.2001 31.8 35.2001 32 34.9001 32H34.7001C34.5001 32.5 34.7001 33 34.7001 33.5C34.7001 33.7 34.7001 33.9 34.7001 34.1C34.7001 34.5 34.5001 34.7 34.1001 34.7C34.1001 34.7 34.0001 34.7 33.9001 34.9C33.9001 35 33.9001 35.2 33.8001 35.3C33.8001 35.6 33.5001 35.6 33.3001 35.5C33.1001 35.9 33.1001 36.4 32.9001 36.8C32.8001 37.1 32.8001 37.4 32.3001 37.3C32.3001 37.1 32.5001 37 32.5001 36.9C32.5001 36.9 32.5001 36.8 32.5001 36.7C32.5001 36.6 32.7001 35.6 32.7001 35.5C32.7001 35.2 32.5001 35.2 32.2001 35.3C32.2001 35.1 32.4001 34.9 32.4001 34.7C32.4001 34.4 32.6001 34.1 32.6001 33.7C32.6001 33.4 32.8001 33.2 32.9001 33C33.0001 32.7 33.1001 32.4 33.2001 32.1C33.2001 31.9 33.2001 31.7 33.3001 31.5C33.5001 31.2 33.7001 30.9 33.8001 30.6C33.9001 30.1 34.0001 29.5 34.2001 29C34.2001 28.8 34.2001 28.7 34.2001 28.5C34.2001 28.3 34.1001 28.1 34.2001 27.9C34.4001 27.6 34.2001 27.2 34.5001 26.9C34.7001 26.6 34.6001 26.3 34.8001 26.1C35.2001 25.8 35.4001 25.4 35.3001 24.8C35.3001 24.5 35.3001 24 35.7001 23.8C36.0001 23.4 36.0001 22.8 36.2001 22.3C36.2001 22.1 36.2001 21.9 36.2001 21.7C36.2001 21.7 36.2001 21.6 36.2001 21.5C36.0001 21.3 36.2001 20.9 35.9001 20.8C35.5001 20.8 35.5001 21.3 35.2001 21.5C35.0001 21.5 34.7001 21.5 34.6001 21.9C34.6001 22.1 34.3001 22 34.2001 22.1C34.0001 22.3 34.0001 22.5 34.0001 22.7C34.0001 22.5 34.2001 22.3 34.0001 22.1C33.8001 22.1 33.7001 22.1 33.6001 22.2C33.6001 22.2 33.5001 22.4 33.5001 22.5C33.5001 23.2 33.1001 23.8 32.9001 24.5C32.9001 24.6 32.8001 24.7 32.7001 24.9C32.6001 25.5 32.3001 26.1 32.0001 26.7C32.1001 26 32.3001 25.4 32.5001 24.7C32.5001 24.4 32.7001 24.1 32.7001 23.8C32.7001 23.8 32.7001 23.7 32.7001 23.6C32.7001 23.4 32.7001 23.1 32.4001 23C32.3001 23 32.2001 23.1 32.2001 23.2C32.0001 24 31.7001 24.8 31.5001 25.6C31.3001 26.2 31.3001 26.8 31.0001 27.3C30.4001 28.8 30.3001 30.4 29.7001 31.9C29.6001 31.7 29.7001 31.4 29.7001 31.2C29.9001 30.6 30.0001 29.9 30.3001 29.4C30.4001 29.2 30.3001 29 30.2001 28.8C30.0001 28.7 29.8001 28.8 29.7001 28.9C29.7001 29.3 29.4001 29.4 29.3001 29.7C29.0001 30.2 28.8001 30.7 28.8001 31.3V31.5C28.8001 31.6 28.7001 31.7 28.7001 31.9C28.7001 32.4 28.6001 32.8 28.2001 33.1C28.1001 33.2 28.2001 33.4 28.0001 33.6C28.2001 33.1 28.2001 33.1 28.0001 32.3C27.7001 32.3 27.5001 31.9 27.1001 32.1C27.0001 32.1 27.0001 32.1 26.9001 31.9C26.9001 31.6 26.7001 31.5 26.3001 31.6C26.1001 31.6 26.0001 31.5 26.0001 30.9C26.0001 31.1 25.8001 31.5 26.3001 31.5C26.8001 31.5 26.6001 31 26.6001 30.8C26.6001 30.6 26.5001 30.5 26.4001 30.4C26.5001 30.3 25.9001 30.4 26.4001 30.2C26.6001 30.2 26.7001 30 26.8001 29.8C26.8001 29.5 26.6001 29.4 26.6001 29.1C26.8001 28.3 26.8001 27.4 27.6001 26.7C27.8001 26.7 28.0001 26.7 28.1001 26.6C28.2001 26.6 28.4001 26.3 28.3001 26.3C27.9001 26.1 28.3001 25.8 28.1001 25.5C27.9001 25.2 28.1001 24.9 28.1001 24.6C28.0001 24.4 28.1001 24 27.9001 23.8C27.7001 23.6 27.4001 23.4 27.1001 23.5C26.8001 23.5 26.8001 23.9 26.7001 24C26.7001 23.5 27.0001 23.1 27.1001 22.6C27.1001 22.4 27.3001 22.2 27.3001 22C27.2001 21.7 27.4001 21.4 27.3001 21.1C27.3001 20.9 27.3001 20.6 27.3001 20.4C26.9001 20.2 27.1001 20 27.1001 19.7C27.1001 19.5 27.4001 19.2 27.1001 19C26.9001 19 26.9001 19.2 26.7001 19.3C26.7001 19.1 26.8001 19 26.8001 18.9C26.8001 18.7 26.6001 18.6 26.6001 18.5C26.4001 18.2 26.2001 18.3 26.1001 18.5C25.9001 19.2 25.4001 19.5 24.8001 19.8C24.6001 20.1 24.6001 20.4 24.5001 20.7C24.5001 21 24.3001 21.2 24.2001 21.5C24.2001 22 23.9001 22.2 23.5001 22.5C23.2001 22.8 22.8001 23.1 22.9001 23.6C22.9001 23.5 22.7001 23.2 22.9001 22.9C23.1001 22.7 22.7001 22.6 22.5001 22.5C22.4001 22.5 22.3001 22.5 22.2001 22.6C22.9001 21.8 22.6001 20.7 22.8001 19.8C22.7001 19.4 22.6001 19.1 22.8001 18.7C22.8001 18.5 23.0001 18.3 23.0001 18.1C23.0001 17.9 22.5001 17.8 23.0001 17.5C23.2001 17 23.5001 16.5 23.6001 15.9C23.6001 15.7 23.8001 15.4 23.5001 15.3C23.1001 15.5 23.0001 15.9 22.9001 16.3C22.9001 16.6 22.7001 16.7 22.7001 17C22.9001 16.3 22.9001 15.5 23.1001 14.8C22.8001 14.4 23.0001 14 23.1001 13.7C23.3001 13.1 23.7001 12.6 23.8001 12C23.8001 11.7 24.1001 11.5 23.8001 11.2C23.5001 11.2 23.4001 11.5 23.2001 11.6C23.0001 11.8 22.9001 12 22.8001 12.2C22.6001 12.5 22.4001 12.7 22.1001 12.8C21.8001 12.8 21.5001 13.1 21.4001 13.4C21.3001 13.6 21.2001 13.9 20.9001 14C20.9001 14 20.9001 14 20.8001 14.1C20.7001 14.3 20.6001 14.5 20.3001 14.6C19.8001 14.8 20.0001 15.3 19.8001 15.7C19.8001 16.2 19.5001 16.4 19.2001 16.6C18.9001 16.8 18.8001 17 18.6001 17.3C18.2001 18.1 18.0001 19 17.5001 19.8C17.5001 19.6 17.6001 19.5 17.7001 19.3C17.8001 19 18.1001 18.7 17.7001 18.5C17.4001 18.3 17.1001 18.5 16.9001 18.7C16.6001 18.8 16.8001 19.1 16.6001 19.4C16.5001 19.2 16.4001 19.1 16.3001 18.9C16.3001 18.9 16.2001 18.9 16.1001 18.9C16.1001 19.5 16.3001 20.2 16.4001 20.8C16.4001 21 16.9001 21.4 16.2001 21.4C16.1001 21.4 16.0001 21.7 16.2001 21.9V22.1C16.2001 22.1 16.0001 22.1 16.0001 21.9C16.0001 21.7 15.9001 21.5 16.0001 21.3C16.1001 21.2 16.2001 21 16.0001 20.9C15.9001 20.8 15.7001 20.8 15.5001 20.9C15.3001 21 15.1001 21.2 14.8001 21.1C15.2001 20.8 15.1001 20.4 15.2001 20C15.2001 20 15.1001 20 15.0001 20C14.9001 20 14.8001 20.3 14.7001 20.4C15.0001 20.1 14.9001 19.5 15.4001 19.4V19.2C14.9001 19 15.3001 18.8 15.4001 18.5C14.8001 18.5 14.9001 19.2 14.6001 19.4C14.4001 19.2 14.4001 19.2 14.6001 18.8C14.6001 18.6 14.9001 18.5 14.8001 18.2C14.5001 17.8 14.3001 18.2 14.2001 18.4C14.0001 18.8 13.7001 19.2 13.6001 19.6C13.7001 18.9 14.4001 18.4 14.1001 17.6C14.1001 17.4 14.5001 17.2 14.1001 17.1C14.1001 17.1 14.1001 16.9 14.1001 16.8C14.2001 16.6 14.2001 16.4 14.1001 16.1C14.1001 16 14.2001 15.8 14.1001 15.8C14.1001 15.8 13.9001 16 13.8001 16C13.4001 16.6 13.2001 17.4 12.5001 17.8C12.5001 17.8 12.4001 18 12.3001 18C12.3001 17.9 12.5001 17.8 12.5001 17.7C12.5001 17.6 12.5001 17.5 12.5001 17.4C12.5001 17.2 12.5001 17 12.3001 17C12.1001 17 12.0001 17.2 11.9001 17.3C12.2001 16.9 12.1001 16.3 12.5001 15.9C12.7001 15.6 12.4001 15.4 12.5001 15.1C12.3001 15.1 12.1001 15.6 11.9001 15.1C11.4001 15.4 11.4001 14.9 11.2001 14.7C11.4001 14.9 11.6001 15 11.9001 15.1C11.9001 14.8 12.3001 14.5 11.9001 14.1C11.9001 13.5 11.5001 13 11.8001 12.4C11.8001 12.4 11.8001 12.2 11.6001 12.2C11.6001 12.6 11.2001 12.7 11.1001 13C11.1001 13.1 10.8001 13.1 10.6001 13.2C10.6001 13 10.5001 12.8 10.6001 12.6C10.7001 12.3 10.8001 12.1 11.0001 11.7C10.6001 11.7 10.6001 12.1 10.5001 12.3C10.3001 12.9 10.1001 12.6 9.90006 12.3C9.60006 12.2 9.70006 12.6 9.50006 12.6C9.40006 12.5 9.30006 12.2 9.00006 12.3C8.80006 12.3 8.80006 12.6 8.70006 12.8C8.70006 13.1 8.70006 13.4 8.50006 13.6C8.50006 13.6 8.50006 13.8 8.50006 13.9C8.20006 14.2 8.10006 14.4 8.50006 14.7C8.40006 14.9 8.20006 14.7 8.10006 14.8C8.10006 15.3 8.20007 15.7 8.40006 16.1C8.60006 16.5 8.90006 16.7 8.90006 17.2C9.40006 17.9 9.50006 17.9 9.10006 18.5C8.90006 18.7 8.90006 19.2 8.50006 18.9C7.90006 18.5 7.80006 18.6 7.60006 19.2C7.40006 19.8 7.20006 20.4 6.60006 20.8C6.40006 20.9 6.10006 21.2 6.00006 20.7C6.00006 20.7 6.00006 20.7 5.80006 20.7C5.60007 20.7 5.50006 20.7 5.30006 20.7C5.10007 20.6 4.90006 20.6 4.80006 20.9C4.80006 21.1 4.80006 21.4 4.90006 21.5C5.40006 22 5.90006 22 6.60006 21.8C7.30006 21.6 7.70007 21.1 7.90006 20.5C7.90006 20.3 8.10007 20.2 8.30006 20.2C8.50006 20.2 8.50006 20.4 8.60006 20.5C9.00006 21.1 8.90006 21.7 8.60006 22.3C8.60006 22.4 8.50006 22.5 8.60006 22.7C8.60006 23.1 8.30006 23.1 8.10006 23C7.30006 22.7 7.60006 23.2 7.60006 23.6C7.60006 23.8 7.60007 23.9 7.80006 24C7.80006 24 7.90006 24.2 7.80006 24.2C7.40006 24.2 7.50006 24.6 7.30006 24.8C7.10007 25 6.80006 25 6.90006 25.4C6.90006 25.5 6.70006 25.4 6.50006 25.4C6.20006 25.4 5.90005 25.2 5.70006 25.4C5.90005 25.4 6.10007 25.5 6.30006 25.4C6.50006 25.5 5.90006 25.8 6.40006 25.9C6.50006 25.9 6.90006 25.9 6.80006 26.1C6.80006 26.4 6.50006 26.4 6.20006 26.4C6.40005 26.7 6.50006 27 6.20006 27.3C6.10006 27.4 6.40006 27.8 6.00006 28C5.80006 28.2 5.50006 28.3 5.30006 28.5C5.10007 28.7 5.00006 28.8 5.30006 29.1C5.30006 29.2 5.30006 29.2 5.30006 29.3C5.20007 29.3 5.10006 29.4 5.00006 29.3C5.00006 29.3 4.90006 29.1 4.80006 29C4.70007 29.2 4.40006 29.3 4.50006 29.6C4.50006 29.9 4.30006 29.9 4.10006 30C4.10006 30 3.90006 30 3.90006 30.1C3.90006 30.1 3.90006 30.2 3.90006 30.3C4.10006 30.5 4.70007 30.3 4.90006 30.1C5.10006 29.9 5.20006 29.6 5.50006 29.5C5.30006 30 5.10006 30.5 5.00006 31.1C5.00006 31.2 5.00006 31.4 4.80006 31.4C4.20007 31.6 4.10006 32.1 3.90006 32.6H4.10006C4.30006 32.5 4.60006 32.6 4.70006 32.6C4.90005 32.8 4.60006 32.9 4.50006 33C4.50006 33 4.50006 33.2 4.40006 33.3C4.40006 33.4 4.10007 33.5 4.30006 33.6C4.40006 33.7 4.60006 33.6 4.70006 33.6C4.90005 33.6 5.20007 33.2 5.30006 33.5C5.50006 33.8 5.00006 33.8 4.90006 34C4.90006 34.1 4.90006 34 4.90006 34.4C4.90006 34.6 4.70006 34.8 4.50006 34.9C4.50006 34.9 4.40006 34.9 4.30006 35.1C4.30006 35.1 4.30006 35.2 4.30006 35.3C4.70007 35.6 4.90006 35.8 4.60006 36.4C4.40006 36.9 4.20006 37.6 4.60006 38.2C4.70006 38.5 4.40006 38.8 4.80006 39C5.10007 39.2 5.30006 38.8 5.50006 38.6C5.60006 38.6 5.70007 38.6 5.80006 38.6C5.80006 38.7 5.80006 38.8 5.80006 38.9C5.70007 39.2 5.40005 39.3 5.20006 39.5C4.80006 40 4.80006 40.2 5.40006 40.4C5.70007 40.5 5.90006 40.7 5.80006 41.1C5.80006 41.3 5.80006 41.6 5.70006 41.7C5.10006 42.5 5.50006 43.3 5.80006 44.1C5.80006 44.3 5.80006 44.4 5.80006 44.6C5.50006 45.1 5.80006 45.8 5.20006 46.2C5.00006 46.4 5.20007 46.7 5.40006 46.8C5.70007 47 5.90006 47.1 5.80006 47.5C5.80006 47.8 6.00006 48.1 6.20006 48.3C6.20006 48.5 6.40005 48.6 6.20006 48.8C6.00006 48.9 5.90006 49.1 5.90006 49.4C5.90006 49.6 5.90006 49.9 6.10006 50C6.40006 50.2 6.40005 49.8 6.70006 49.7C6.30006 49.9 6.30006 50.7 5.70006 50.6C5.60006 50.6 5.50006 50.7 5.50006 50.8C5.50006 50.8 5.50006 50.9 5.50006 51C5.50006 51 5.50006 51.2 5.60006 51.2C5.90006 51.3 5.60006 51.7 5.90006 51.8C6.20007 51.8 6.30006 51.5 6.70006 51.6C6.30006 52.7 5.30006 53.2 4.50006 53.9C4.40006 53.8 4.50006 53.8 4.30006 53.4C4.30006 53.2 4.30006 52.8 3.80006 53.1C3.50006 53.5 3.40006 54.1 3.10006 54.6C3.10006 54.8 3.10006 55.1 3.10006 55.3C3.10006 55.5 3.10006 55.7 3.20006 55.8C3.60006 56.3 3.90006 56.9 4.00006 57.5C4.00006 57.9 3.80006 57.7 3.60006 57.7C3.30006 57.7 3.30006 57.8 3.20006 58.1C3.20006 58.5 3.50006 58.8 3.70006 59.2C3.80006 59.4 4.10006 59.7 4.40006 59.5C4.80006 59.3 4.90006 59.4 5.10006 59.8C5.10006 60 5.30006 60 5.50006 60C5.70006 60.3 5.50006 60.5 5.40006 60.7C5.30006 60.9 5.10006 61 5.10006 61.2C5.10006 61.4 5.10006 61.5 5.40006 61.4C5.50006 61.4 5.50006 61.2 5.60006 61.1C5.60006 61.2 5.60006 61.4 5.40006 61.4C5.10006 61.4 5.20007 61.9 4.90006 61.8C4.60006 61.6 4.40006 61.4 4.30006 61C4.30006 60.7 4.30006 60.5 4.30006 60.2C4.30006 60.1 4.30006 60 4.20006 59.9C4.20006 59.8 4.20006 59.7 4.20006 59.6C4.20006 59.5 4.20006 59.4 4.00006 59.3C3.80006 59.3 3.80006 59.3 3.70006 59.5C3.50006 59.9 3.10006 60.2 3.70006 60.7C3.50006 60.6 3.30006 60.5 3.10006 60.5H2.90006C2.90006 60.7 2.90006 60.9 2.90006 61.1C2.90006 61.3 2.90005 61.5 2.70006 61.5C2.40005 61.5 2.40006 61.9 2.30006 62.1C2.30006 62.1 2.30006 62.4 2.10006 62.3C1.70006 62.3 1.40006 62.3 1.10006 62C1.00006 62 0.900063 62.1 0.900063 62.2C0.900063 62.7 1.10006 63.2 1.10006 63.7C1.10006 64 1.20006 64.3 1.50006 64.4C2.00006 64.8 2.50006 64.6 3.00006 64.4C3.20006 64.4 3.20006 64.2 3.20006 64C3.20006 64 3.10006 63.8 3.20006 63.8C3.20006 63.7 3.40006 63.8 3.50006 63.8C4.10006 63.8 3.80006 63.4 4.00006 63C4.00006 63.5 4.00006 63.9 4.20006 64.2C4.20006 64.4 4.30006 64.5 4.50006 64.6C4.80006 64.9 5.30006 65.2 5.60006 65.5C5.80006 65.7 6.00006 65.7 6.10006 65.4C6.10006 65.2 6.10006 65 6.10006 64.8C6.10006 64.6 6.10006 64.4 5.90006 64.3C5.60006 64.4 5.40006 64.3 5.40006 64C5.40006 63.9 5.40006 63.8 5.40006 63.7C5.40006 63.2 5.80006 63.1 6.00006 62.8C6.20006 62.7 6.20006 62.8 6.20006 62.9C6.20006 63 6.30006 63.3 6.60006 63.1C6.80006 63.1 6.80006 62.8 6.70006 62.7C6.70006 62.7 6.70006 62.5 6.70006 62.4C6.70006 62.2 6.70007 61.9 6.90006 61.7C6.90006 61.9 6.90006 62.2 7.10006 62.4C7.10006 62.4 7.10006 62.4 7.20006 62.4C7.30006 62.4 7.50006 62.4 7.60006 62.5C7.60006 62.7 7.40006 62.7 7.40006 62.7C6.90006 63.2 6.70007 63.8 6.80006 64.5V64.7C6.60007 65.2 6.60006 65.4 7.00006 66C7.30006 66.5 7.20006 67.1 7.50006 67.6C7.00006 67.3 6.90006 67.6 6.80006 67.9C6.50006 67.5 6.20007 67 5.80006 66.8C5.40006 66.6 5.20006 67 5.00006 67.2C4.80006 67.4 4.70006 67.5 4.70006 67.7C4.70006 68 5.00006 67.9 5.10006 68C5.30006 68.2 5.30006 68.5 5.40006 68.7C5.60006 69.1667 5.96673 69.3667 6.50006 69.3C6.80006 69.1 6.90006 69.5 7.10006 69.5C7.50006 69.5 7.70006 69.9 8.00006 69.8H8.20006C8.20006 69.8 8.30006 69.7 8.40006 69.6C8.50006 69.6 8.60007 69.5 8.80006 69.6C8.80006 69.7 8.80006 69.8 8.80006 69.9C8.60007 70.3 8.40006 70.8 8.10006 71.1C7.60006 71.1 7.50006 71.7 7.10006 71.8C6.80006 71.8 6.70006 71.6 6.50006 71.4C6.40006 71.3 6.30006 71.1 6.20006 71C6.10006 70.9 5.90006 70.7 5.80006 71C5.70007 71.1 5.70007 71.3 5.80006 71.5C6.00006 71.8 6.30006 72 6.60006 72.2C6.70006 72.3 6.90006 72.5 7.00006 72.7C7.00006 72.8 7.20007 72.9 7.30006 72.9C7.60007 72.9 7.50006 73.1 7.50006 73.3C7.50006 73.3 7.50006 73.4 7.50006 73.5C7.80006 73.8 8.10006 73.6 8.40006 73.5C8.10006 73.7 7.60007 73.6 7.30006 73.8C7.10007 73.8 6.90006 74 7.30006 74.2C7.50006 74.3 7.70007 74.4 7.80006 74.5C8.20007 74.5 8.40006 74.7 8.30006 75.2C8.00006 75.2 7.70007 74.8 7.40006 75.2C7.40006 75.2 7.40006 75.3 7.40006 75.4C7.40006 75.5 7.40006 75.6 7.40006 75.7C7.40006 75.9 7.80006 75.9 7.70006 76.2C7.80006 76.4 7.90006 76.5 8.10006 76.6C8.30006 76.6 8.40006 76.6 8.60006 76.5C8.60006 76.7 8.60006 76.8 8.60006 76.9C8.70006 77.3 8.90005 77.3 9.20006 76.9C9.20006 76.9 9.20006 76.5 9.50006 76.7C9.50006 76.7 9.50006 76.7 9.50006 76.8C9.50006 76.8 9.50006 77 9.50006 77.1C9.80006 77.7 10.1001 77.8 10.7001 77.3C10.7001 77.6 11.0001 77.6 11.2001 77.8C10.9001 77.6 10.6001 77.6 10.4001 77.8C10.2001 78 10.0001 77.8 9.80006 77.8C9.50006 77.8 9.40006 77.9 9.40006 78.2C9.40006 78.2 9.40006 78.4 9.40006 78.5C9.00006 79 9.30006 79.4 9.50006 79.8C9.70006 80.1 9.90006 80.3 10.0001 80.7C9.60006 80.7 9.10006 80.7 9.10006 81.2C9.10006 81.3 9.30006 81.4 9.40006 81.5C9.90006 81.9 10.5001 82.4 11.2001 82.6C11.4001 82.6 11.5001 82.8 11.6001 83C11.8001 83.3 12.0001 83.5 12.4001 83.6C12.7001 83.6 12.6001 83.4 12.7001 83.2C12.7001 83 12.7001 82.7 12.9001 82.6C13.4001 82.4 13.5001 82.9 13.8001 83.1C13.8001 83.4 14.0001 83.7 13.9001 84C13.9001 84.1 14.0001 84.3 14.1001 84.3C14.6001 84.2 14.6001 84.5 14.7001 84.8C14.7001 85 14.8001 85.4 15.1001 85.4C15.4001 85.4 15.5001 85.1 15.7001 84.9C15.7001 84.9 15.8001 84.7 15.9001 84.7C16.0001 84.5 16.0001 84.3 15.9001 84.1C15.9001 83.8 15.9001 83.7 16.1001 83.5C16.3001 83 16.6001 83.3 16.9001 83.3C17.2001 83.3 17.5001 83.4 17.8001 83.6C18.0001 83.6 18.1001 83.5 18.1001 83.3C17.8001 83.1 18.1001 82.6 17.8001 82.4C17.6001 82.4 17.5001 82.4 17.3001 82.4C16.8001 82.5 16.9001 82.1 16.9001 81.9C16.9001 81.6 16.7001 81.5 16.4001 81.5C16.3001 81.5 16.1001 81.5 16.1001 81.2C16.1001 81 16.3001 81 16.4001 81.2C16.4001 81.2 16.5001 81.3 16.6001 81.3C17.0001 81.3 16.8001 81 16.8001 80.9C16.8001 80.6 16.5001 80.4 16.2001 80.5C15.9001 80.8 15.8001 80.5 15.7001 80.3C15.6001 80.3 15.5001 80.3 15.4001 80.3C15.2001 80.5 15.2001 80.7 15.1001 80.9C14.9001 80.6 14.1001 81 14.5001 80.2C14.5001 80.1 14.5001 79.9 14.4001 79.8C14.0001 79.5 13.6001 79.2 13.3001 78.8C13.3001 78.7 13.1001 78.8 12.9001 78.7C13.3001 78.7 13.7001 78.4 14.1001 78.3C14.1001 78.5 13.9001 78.6 13.8001 78.6C13.5001 78.9 13.5001 79.1 13.8001 79.3C14.2001 79.4 14.6001 79.6 15.0001 79.4C15.0001 79.2 15.0001 79 14.8001 78.9C15.1001 79.1 15.3001 78.9 15.6001 78.9C15.8001 79.4 16.0001 79.5 16.1001 79.1C16.1001 78.9 16.1001 78.7 16.4001 78.5C16.4001 78.7 16.7001 78.8 16.9001 78.9C17.2001 79.2 17.4001 79.6 17.6001 80C17.6001 80.1 17.6001 80.3 17.6001 80.4C17.6001 80.9 18.0001 81.2 18.5001 81C18.6001 80.9 18.7001 80.8 18.9001 80.8C18.9001 80.8 19.1001 80.8 19.1001 80.7C19.4001 80.4 19.4001 80.6 19.5001 80.8C19.7001 81.3 20.1001 81.6 20.1001 82.2C20.1001 82.3 20.1001 82.4 20.3001 82.4C20.5001 82.4 20.6001 82.3 20.7001 82.1C20.7001 81.9 20.7001 81.7 20.7001 81.4C20.8001 81.1 20.7001 80.8 20.5001 80.4C20.9001 80.4 21.1001 80.6 21.4001 80.4C21.2001 80.9 21.1001 81.3 21.0001 81.8C21.0001 82.1 20.7001 82.3 20.7001 82.7C20.7001 82.9 21.0001 83.1 20.9001 83.3C20.9001 83.4 20.9001 83.5 20.9001 83.7C20.7001 84 20.5001 83.5 20.4001 83.7C20.2001 84 20.0001 84.3 20.1001 84.7C20.4001 84.9 20.6001 84.9 20.8001 84.4C20.7001 85 20.4001 84.8 20.1001 84.7C20.1001 84.7 20.0001 84.7 19.9001 84.7C19.7001 84.9 19.8001 85.3 19.4001 85.2H19.3001C19.2001 85.2 19.0001 85.2 18.9001 85.2H18.7001C18.6001 85.2 18.5001 85.2 18.5001 85.4C18.5001 85.5 18.5001 85.6 18.4001 85.8C18.4001 85.9 18.4001 86 18.4001 86.1C18.4001 86.2 18.4001 86.3 18.4001 86.5C18.4001 86.8 18.4001 87 18.8001 87C18.9001 87 19.0001 86.8 19.1001 86.8C19.2001 86.8 19.3001 86.6 19.4001 86.8C19.6001 87.5 19.4001 88.2 19.7001 88.9C19.9001 89.6 20.1001 90.3 20.4001 91C20.4001 91.2 20.4001 91.3 20.4001 91.5C20.6001 91.5 20.9001 91.5 21.0001 91.7C21.3001 92.1 21.4001 91.7 21.6001 91.5C21.8001 91.4 22.0001 91.4 22.2001 91.5C22.5001 91.5 22.7001 91.7 22.8001 92C22.8001 92.1 22.9001 92.2 23.1001 92.3C23.5001 92.5 23.8001 92.3 24.1001 92.1C24.2001 92.1 24.4001 91.9 24.5001 92.1C24.6001 92.2 24.5001 92.3 24.5001 92.5C24.4001 92.9 24.0001 93.3 24.2001 93.6C24.4001 94 24.1001 94 23.9001 94.2C23.9001 94.2 23.8001 94.4 23.7001 94.4C23.7001 94.8 23.5001 95.1 23.5001 95.5C23.5001 95.5 23.6001 95.5 23.7001 95.5C23.6001 95.5 23.6001 95.5 23.5001 95.4C23.3001 95.4 23.3001 95.6 23.2001 95.7C23.2001 96.1 22.8001 96.4 22.9001 96.8C22.9001 96.8 22.9001 97 23.0001 97C23.4001 97 23.3001 97.2 23.3001 97.4C23.6001 97.9 23.1001 98.3 23.0001 98.7C23.0001 98.7 23.0001 98.8 23.0001 98.9C23.1001 99.2 23.2001 99.4 23.0001 99.7C23.0001 100.1 23.2001 100.5 22.9001 100.8C22.8001 101 22.5001 100.8 22.4001 101C22.4001 101.4 22.8001 101.7 22.6001 102.2V102.4C22.6001 102.7 23.2001 102.5 23.2001 103C23.0001 103 22.7001 102.2 22.5001 103V103.2C22.5001 103.4 22.5001 103.5 22.5001 103.7C22.5001 104.2 22.7001 104.4 23.2001 104.3C23.0001 104.4 22.8001 104.5 22.6001 104.6C22.6001 104.6 22.6001 104.7 22.6001 104.8C22.6001 105.2 22.9001 105.4 23.3001 105.3C23.5001 105.1 23.6001 104.8 23.7001 104.6C24.0001 104.2 24.0001 103.8 23.5001 103.5C23.4001 103.5 23.3001 103.7 23.1001 103.5C23.1001 103.4 23.3001 103.5 23.4001 103.5C23.7001 103.4 23.8001 103.1 23.9001 102.6C24.2001 103.2 23.7001 103.6 23.9001 104.2C23.9001 104.6 23.6001 105.1 23.4001 105.6C23.4001 105.8 23.4001 106 23.3001 106.2C23.3001 106 23.3001 105.8 23.3001 105.6C23.3001 105.6 23.3001 105.6 23.3001 105.5C23.1001 105.3 22.9001 105.4 22.8001 105.7C22.8001 105.9 22.8001 106 22.8001 106.2C22.8001 106.5 22.8001 106.8 22.6001 107.1C22.6001 106.8 22.6001 106.5 22.3001 106.3C22.1001 106.2 21.9001 106.3 21.8001 106.5C21.8001 106.7 21.8001 106.9 21.7001 107C21.7001 107 21.8001 107.4 21.5001 107.3C21.3001 107.3 21.2001 107.2 21.3001 106.9C21.3001 106.7 21.3001 106.5 21.3001 106.3C21.2001 106.2 21.4001 105.9 21.1001 105.8C20.8001 105.8 20.8001 106 20.7001 106.2C20.7001 106.6 20.6001 106.9 20.2001 107.2C20.1001 107.2 20.0001 107.5 20.2001 107.7C20.3001 107.8 20.4001 107.7 20.5001 107.7C20.8001 107.5 20.5001 107.7 20.5001 107.8C20.5001 107.8 20.5001 107.8 20.5001 107.9C20.5001 108 20.5001 108.2 20.5001 108.3C20.5001 108.6 20.7001 108.8 21.0001 108.7C21.0001 108.7 21.0001 108.9 21.1001 108.9C21.3001 108.9 21.4001 108.7 21.4001 108.6C21.5001 108.6 21.4001 108.5 21.4001 108.6C21.2001 109.4 21.4001 110.3 21.0001 111.1C20.9001 111.4 21.2001 111.6 21.0001 111.9C21.0001 111.5 20.8001 111.3 20.5001 111.2C20.3001 111.2 20.2001 111.2 20.2001 111.5C20.3001 111.7 20.5001 111.5 20.7001 111.6C20.7001 112.2 20.0001 112.7 20.5001 113.3C20.5001 113.4 20.2001 113.6 20.4001 113.9C20.4001 113.9 20.4001 114.1 20.5001 114.2C20.7001 114.2 20.7001 114.2 20.8001 114.1C20.8001 114 21.0001 113.9 21.1001 114C21.3001 114 21.1001 114.3 21.1001 114.4C21.2001 114.4 21.4001 114.4 21.6001 114.2C21.6001 114.2 21.6001 114.3 21.6001 114.4C22.1001 115.1 22.0001 115.8 21.9001 116.6C21.8001 117.1 21.9001 117.3 22.5001 117.4C22.3001 117.7 22.0001 117.7 21.9001 118C21.7001 118.3 21.8001 118.6 22.1001 118.8C21.9001 118.8 21.8001 118.8 21.7001 118.6C21.7001 118.3 21.4001 118.2 21.1001 118.2C20.9001 118.2 20.8001 118.4 20.9001 118.9C20.5001 118.5 20.5001 118.5 20.0001 119C20.0001 119 20.0001 119.1 20.0001 119.2C20.0001 119.2 20.0001 119.1 20.0001 119C20.0001 118.9 19.8001 118.8 19.7001 118.8C19.4001 118.6 19.2001 118.6 19.3001 119.1C19.3001 119.3 19.4001 119.2 19.5001 119.2C19.7001 119.2 19.5001 119.6 19.9001 119.5C20.5001 119.8 20.2001 120.2 20.0001 120.6C20.0001 120.7 20.2001 120.6 20.3001 120.6C20.7001 120.8 20.5001 121.2 20.5001 121.5C20.5001 122.1 20.8001 122.7 21.1001 123.2C21.3001 123.6 21.7001 123.8 22.1001 123.5C22.4001 123.3 22.7001 123.3 23.1001 123.3C23.3001 123.3 23.5001 123.3 23.8001 123.1C23.7001 123.6 23.7001 124 23.2001 124.1C23.2001 124.1 23.2001 124.1 23.1001 124.2C23.1001 124.5 23.3001 124.7 23.3001 125C23.3001 125.3 23.3001 125.1 23.3001 125.2C23.3001 125.2 23.4001 125.4 23.5001 125.4C24.4001 125.1 24.3001 126 24.7001 126.4C24.7001 126.2 24.6001 126.1 24.4001 126.2C24.2001 126.5 24.2001 126.7 24.4001 127C24.7001 127 25.2001 127 25.0001 127.6V127.8C25.0001 128.2 24.9001 128.6 25.2001 128.9C25.2001 128.9 25.2001 129 25.2001 129.1C25.2001 129.3 25.2001 129.5 24.9001 129.4C24.6001 129.4 24.3001 129.4 24.1001 129.7C24.0001 129.9 23.9001 130.1 24.0001 130.3C24.2001 130.8 24.0001 131.3 23.7001 131.7C23.7001 131.9 23.5001 131.9 23.3001 131.9C23.1001 131.9 22.8001 131.7 22.7001 132.1H22.5001C22.3001 131.8 22.1001 131.7 21.8001 131.7C21.8001 131.4 22.3001 131.2 22.0001 130.9C21.7001 130.7 21.5001 131 21.3001 131.2C21.1001 131.4 21.0001 131.5 20.7001 131.3C20.5001 131.2 20.4001 131.3 20.3001 131.3C20.1001 131.4 20.2001 131.6 20.3001 131.8C20.3001 132 20.4001 132.2 20.5001 132.3C20.7001 132.6 20.5001 132.8 20.5001 133.1C20.5001 133.6 20.7001 133.8 21.2001 133.6C21.6001 133.5 21.6001 133.5 21.8001 134C21.5001 134 21.3001 134 21.0001 133.9C20.8001 133.9 20.5001 133.8 20.4001 134.1C20.4001 134.4 20.4001 134.7 20.7001 134.7C21.1001 134.7 21.4001 135.1 21.9001 134.9C21.7001 135.2 21.4001 134.9 21.3001 135.2C21.3001 135.4 21.1001 135.5 20.9001 135.5C20.9001 135.5 20.8001 135.5 20.9001 135.7C20.9001 135.8 21.1001 135.9 21.2001 136C21.3001 136 21.3001 136.2 21.5001 136.3C21.3001 136.3 21.0001 136.3 20.9001 136.4C20.7001 136.5 20.4001 136.4 20.1001 136.4C20.5001 136.8 20.4001 137.1 19.9001 137.4C19.9001 137.7 19.8001 137.9 19.5001 138.1C19.3001 138.3 19.2001 138.1 19.2001 137.9C19.0001 137.8 18.8001 137.9 18.7001 137.9C18.5001 138 18.4001 138.2 18.7001 138.4C19.2001 138.8 19.5001 139.2 19.3001 139.9C19.3001 140.2 19.6001 140.5 19.8001 140.8C20.0001 141.1 19.8001 141.6 20.1001 141.9C20.1001 142 20.1001 142.1 20.0001 142.1C20.0001 142.1 19.8001 142.3 19.9001 142.4C20.2001 142.7 19.9001 143 19.9001 143.3C19.7001 142.8 19.6001 142.2 18.9001 142.4C18.7001 142.4 18.5001 142.4 18.4001 142.2C18.4001 142.2 18.4001 142.2 18.3001 142.2C18.0001 142.4 18.2001 142.6 18.3001 142.7C18.4001 142.9 18.3001 142.9 18.3001 142.8C17.8001 142.5 17.4001 142.5 17.0001 143C17.0001 143 17.0001 143.1 17.0001 143.2C17.3001 143.7 17.1001 144.2 16.8001 144.7C17.0001 144.8 17.2001 144.7 17.3001 144.7C18.0001 144.7 18.4001 145.1 18.2001 145.7C18.2001 146 18.3001 146.2 18.2001 146.5C17.9001 146.3 17.4001 146.4 17.3001 145.9L17.1001 145.8C16.7001 146 16.5001 145.5 16.2001 145.6C16.2001 145.9 16.2001 146.1 15.9001 146.4C15.6001 146.7 15.9001 147 16.3001 147.1C16.3001 147.1 16.3001 147.1 16.4001 147.1C16.6001 146.9 16.7001 146.7 16.8001 146.5C16.8001 146.8 16.8001 147.1 17.0001 147.4C17.2001 147.7 17.4001 148 17.9001 148C18.1001 148 18.2001 147.9 18.3001 147.7C18.3001 147.5 18.3001 147.3 18.3001 147C19.1001 147.3 19.5001 146.8 19.9001 146.3C20.1001 146.1 20.3001 146 20.5001 146.3C20.7001 146.2 20.8001 146 21.0001 145.8C21.0001 146.2 20.7001 146 20.6001 146.2C19.8001 146.2 19.7001 146.5 20.0001 147.2C20.0001 147.3 20.0001 147.4 20.0001 147.5C19.8001 147.7 20.0001 147.9 20.0001 148.1C19.8001 148.6 19.7001 148.6 19.2001 148.2C19.1001 148.2 18.9001 148.1 18.8001 148.2C18.8001 148.6 18.8001 149 19.2001 149.3C19.5001 149.5 19.4001 149.7 19.4001 150C19.4001 150.2 19.1001 150 19.0001 150.1C19.0001 150.1 19.0001 150.3 19.0001 150.4C18.8001 150.7 18.5001 150.6 18.3001 150.5C18.0001 150.4 17.8001 150.5 17.6001 150.8C17.5001 151 17.6001 151.2 17.8001 151.3C17.5001 151.1 17.3001 150.9 17.5001 150.6C17.7001 150.3 18.0001 150.4 18.2001 150.4C18.4001 150.4 18.6001 150.6 18.9001 150.4C19.2001 150.2 18.9001 149.9 18.9001 149.7C18.6001 149.4 18.4001 149 17.9001 149.1C17.7001 149.1 17.6001 149.2 17.5001 149.3C17.4001 149.3 17.3001 149.3 17.3001 149.2C16.8001 149.1 16.3001 148.8 15.8001 148.9C15.7001 148.9 15.5001 148.9 15.4001 148.9C14.7001 149.1 14.9001 148.5 15.0001 148.4C15.4001 148 14.7001 147.8 14.8001 147.5H14.6001C14.3001 147.6 14.2001 147.6 14.1001 147.3C14.1001 147.1 14.1001 147 13.8001 146.9C13.6001 146.9 13.7001 146.7 13.8001 146.5C13.9001 146 13.8001 145.7 13.2001 145.6C13.3001 146.1 13.2001 146.5 13.0001 146.8C12.9001 147 12.8001 146.6 12.6001 146.7C12.3001 147.3 12.8001 147.6 13.1001 148C13.1001 148 13.1001 148 13.3001 148C13.7001 148 14.1001 148 14.5001 147.9C14.9001 147.9 15.0001 148 14.9001 148.4C14.9001 148.6 14.9001 148.8 14.9001 149C14.9001 149 14.8001 148.9 14.8001 148.8C14.7001 148.3 14.0001 148 13.5001 148.3C13.4001 148.3 13.2001 148.6 13.2001 148.3H13.1001V148.4C13.3001 148.6 13.1001 148.8 13.1001 149C13.0001 149.3 12.9001 149.5 13.4001 149.5C13.9001 149.5 13.6001 149.9 13.4001 150.2C13.4001 150.3 13.2001 150.5 13.4001 150.6C13.5001 150.7 13.7001 150.6 13.8001 150.6C14.0001 150.6 14.0001 150.4 13.8001 150.3C13.6001 150.1 13.7001 150 13.8001 149.9C14.1001 149.7 14.4001 149.7 14.3001 149.9C14.3001 150.1 14.2001 150.2 14.2001 150.4C14.4001 150.4 14.5001 150.4 14.5001 150.2C14.5001 149.6 14.8001 149.9 15.1001 149.8C15.3001 149.8 15.4001 149.8 15.4001 150C15.4001 150.2 15.2001 150 15.1001 150C14.8001 149.8 14.8001 150.3 14.8001 150.3C14.8001 150.6 14.7001 150.7 14.4001 150.7C14.4001 150.7 14.2001 150.7 14.2001 150.8C14.2001 151.1 13.8001 151.1 13.7001 151.3C13.5001 151.6 13.1001 151.3 13.1001 151.4C13.1001 151.6 13.5001 151.6 13.6001 151.8C13.4001 152 13.1001 152.2 13.0001 152.5C13.0001 152.6 12.7001 152.5 12.6001 152.5C12.4001 152.3 12.4001 151.9 12.1001 151.8C11.9001 151.8 11.6001 151.8 11.4001 152C11.4001 152 11.4001 152.1 11.4001 152.2C10.8001 152.9 11.6001 153 11.8001 153.4C11.8001 153.5 12.0001 153.6 11.8001 153.7C11.7001 153.9 11.6001 153.7 11.5001 153.7C11.1001 153.6 10.9001 153.7 10.6001 154.2C11.2001 154.5 11.9001 154.2 12.6001 154.2C12.7001 154.2 12.8001 154.2 12.8001 154.1C13.0001 153.8 13.1001 153.9 13.3001 154.1C13.5001 154.4 13.3001 154.4 13.1001 154.4C13.0001 154.4 12.9001 154.5 12.9001 154.8C13.5001 154.3 14.4001 154.4 14.9001 153.6C14.9001 153.6 15.1001 153.4 15.2001 153.6C15.2001 153.6 15.4001 153.8 15.4001 153.9C15.4001 154.1 15.3001 154.1 15.2001 154.1C14.8001 154.1 14.8001 154.3 14.9001 154.6C15.0001 154.8 14.9001 155.1 14.8001 155.3C14.8001 155.5 14.5001 155.3 14.5001 155.2C14.3001 154.5 13.8001 154.8 13.4001 154.9C13.1001 155 12.6001 155.2 13.1001 155.7C13.1001 155.7 13.3001 156 13.1001 156.1C12.9001 156.1 12.8001 156.1 12.9001 155.9C12.9001 155.7 12.8001 155.6 12.7001 155.6C12.5001 155.6 12.4001 155.6 12.3001 155.8C12.2001 155.9 12.2001 156.2 11.9001 156.2C11.9001 156.2 11.9001 156.2 11.9001 156.3C11.9001 156.8 12.1001 157.1 12.3001 157.5C12.3001 157.9 12.7001 158.3 12.8001 158.7C12.9001 159 13.2001 159.2 13.6001 159.1C13.6001 159.1 13.6001 159.1 13.6001 159C13.6001 159 13.6001 158.9 13.6001 158.8C13.6001 158.6 13.3001 158.3 13.6001 158.2C13.8001 158.2 14.1001 158.4 14.1001 158.8C14.1001 158.9 14.1001 159.1 14.3001 159.1C14.5001 158.9 14.7001 159 14.8001 159.3C14.8001 159.5 14.9001 159.4 15.0001 159.4C15.2001 159.4 15.0001 159.3 15.0001 159.2C15.0001 158.9 15.2001 159.1 15.2001 159.2C15.6001 159.7 16.2001 159.3 16.7001 159.5C16.8001 159.5 16.9001 159.5 16.9001 159.3C16.9001 159.2 16.9001 159.1 16.8001 159.1C16.7001 159.1 16.3001 158.7 16.8001 158.7C16.8001 158.5 16.8001 158.4 16.8001 158.3C16.6001 158.1 16.4001 157.9 16.8001 157.6C17.1001 157.4 16.6001 157.3 16.6001 157.1C16.8001 156.9 17.2001 157.1 17.5001 156.9C17.5001 156.9 17.6001 156.7 17.7001 156.6C17.7001 156.4 17.5001 156.2 17.4001 156C17.2001 155.8 17.1001 155.6 17.4001 155.5C17.7001 155.5 17.8001 155.3 17.8001 155C17.5001 154.8 17.6001 154.5 17.4001 154.3C17.2001 154 17.1001 153.7 17.1001 153.3C17.1001 153.1 16.9001 152.9 17.1001 152.9C17.3001 152.9 17.6001 152.9 17.7001 153.2C17.7001 153.6 18.0001 153.9 18.1001 154.2C18.3001 154.8 18.8001 155.1 19.3001 155.3C19.0001 155.3 18.8001 155.1 18.5001 155.2C18.3001 155.5 18.7001 155.6 18.7001 155.9C18.7001 156.1 18.7001 156.3 18.7001 156.5C18.7001 156.7 18.7001 156.9 18.7001 157C18.7001 157.2 18.7001 157.3 18.9001 157.5C19.0001 158.1 18.5001 157.7 18.4001 157.8C18.2001 158 18.0001 158.3 17.7001 158.4C17.7001 158.4 17.6001 158.5 17.7001 158.6C17.7001 159.1 18.3001 159 18.5001 159.3C18.9001 159.7 18.8001 160.1 18.7001 160.6C18.7001 160.8 18.7001 161.3 18.2001 161.1C18.0001 161.1 18.0001 161.3 18.2001 161.4C18.3001 161.6 18.5001 161.6 18.6001 161.8C18.7001 162 18.8001 162.2 18.6001 162.4C18.5001 162.6 18.4001 162.8 18.4001 163C18.4001 163 18.4001 163 18.5001 163.1C18.8001 163.2 18.6001 163.8 19.1001 163.7H19.3001C19.3001 164.1 19.4001 164.5 19.1001 164.8C18.9001 164.9 18.8001 165.1 19.0001 165.3C19.3001 165.6 19.0001 166 19.2001 166.3C19.2001 166.8 19.4001 167 19.9001 166.9C20.1001 166.9 20.3001 166.9 20.5001 167.1C20.5001 167.1 20.7001 167.3 20.8001 167.3C21.0001 167.3 21.9001 166.4 21.9001 166.1C21.9001 165.8 21.6001 165.8 21.4001 165.9C21.4001 165.5 21.5001 165.2 21.9001 165.1C22.1001 165.1 22.2001 165.2 22.3001 165.3C22.5001 165.3 22.7001 165.3 22.7001 165.6C22.7001 165.8 22.7001 165.9 22.7001 166.1C22.7001 166.8 22.7001 166.8 22.0001 166.6C21.8001 166.6 21.6001 166.6 21.5001 166.8C21.3001 167.2 21.0001 167.5 20.8001 167.9C20.5001 168.3 20.4001 168.9 20.5001 169.4C20.6001 170 20.3001 170.4 19.9001 170.7C19.6001 171 19.5001 171.1 19.6001 171.5C19.6001 171.7 19.6001 171.9 19.6001 172.1C19.2001 172.7 19.6001 173.2 19.9001 173.6C20.2001 174 20.7001 174.4 20.9001 174.9C21.3001 174.9 21.4001 174.6 21.4001 174.3C21.4001 174 21.4001 173.7 21.4001 173.5C21.4001 173.5 21.5001 173.5 21.6001 173.5C22.2001 173.9 22.9001 173.5 23.0001 172.8C23.0001 172.2 23.2001 171.6 23.3001 171C23.5001 171.5 23.5001 171.9 23.4001 172.4C23.4001 173.1 23.4001 173.2 24.1001 173.2C24.1001 173.4 23.8001 173.4 23.7001 173.5C23.5001 173.5 23.3001 173.8 23.3001 174C23.3001 174.5 23.1001 175 23.2001 175.5C23.2001 175.7 23.2001 175.8 23.0001 175.9C23.0001 175.9 22.9001 175.9 22.8001 176C22.6001 176.2 22.1001 176.3 22.0001 176.6C21.9001 177 22.3001 177.1 22.5001 177.4C22.8001 177.9 22.8001 178.4 22.6001 179C22.4001 179.4 22.3001 179.9 22.6001 180.3C22.6001 180.3 22.6001 180.5 22.6001 180.6C22.1001 181 22.6001 181.5 22.5001 181.9C22.5001 182.3 22.7001 182.3 23.0001 182.2C23.0001 182.2 23.1001 182 23.2001 182.2C23.2001 182.4 23.2001 182.6 23.4001 182.8C23.6001 183 23.8001 183.1 24.1001 182.9C24.3001 182.7 24.3001 182.4 24.5001 182.1C24.5001 182.4 24.3001 182.6 24.5001 182.8C24.6001 183 24.8001 183.1 25.0001 182.8C25.2001 182.6 25.4001 182.6 25.6001 182.5C25.9001 182.7 25.9001 182.9 25.7001 183.2C25.7001 183 25.7001 182.8 25.5001 182.8C25.1001 182.8 25.0001 183 24.9001 183.3C24.9001 183.8 24.6001 184.1 24.2001 184.4C24.0001 184.4 23.7001 185 23.7001 184.3C23.7001 183.9 23.5001 183.7 23.1001 183.9C23.0001 183.9 22.9001 184.2 22.7001 183.9C22.6001 183.7 22.5001 183.4 22.2001 183.4C21.9001 183.4 21.7001 183.7 21.7001 184C21.7001 184.3 21.6001 184.5 21.2001 184.5C20.8001 184.5 20.8001 184.9 20.6001 185.2C20.3001 185 20.4001 184.5 20.0001 184.5C19.5001 184.5 19.0001 184.5 18.6001 184.7C18.5001 185 18.2001 185 18.0001 184.9C17.8001 184.9 17.6001 184.9 17.6001 184.6C17.6001 184.3 17.6001 184.3 17.4001 184.3C17.2001 184.3 17.1001 184.3 17.1001 184.5C17.1001 184.7 16.9001 184.9 16.9001 185.1C16.9001 186 16.5001 186.8 16.1001 187.6C16.1001 187.8 15.8001 188.1 16.1001 188.2C16.4001 188.3 16.8001 188.4 16.9001 188C17.1001 187.7 17.2001 187.3 17.5001 187.8C17.6001 188 17.8001 187.9 18.0001 187.8C18.2001 187.6 18.4001 187.6 18.7001 187.8C18.2001 187.7 18.0001 187.9 18.0001 188.3C18.0001 188.6 17.8001 188.9 17.7001 189.3C17.7001 189.5 17.7001 189.8 17.3001 189.8C16.9001 189.8 16.8001 189.6 16.8001 189.3C16.8001 189.3 16.8001 189.3 16.8001 189.2C16.7001 189.2 16.6001 189 16.5001 188.9C16.2001 188.4 16.0001 188.4 15.6001 188.8C15.1001 189.3 15.1001 189.7 15.6001 190.2C15.6001 190.3 15.8001 190.4 15.8001 190.5C16.0001 190.9 16.3001 191.1 16.7001 190.8C16.9001 190.9 16.8001 191.1 16.8001 191.2C16.8001 191.8 17.0001 191.9 17.5001 191.5C17.7001 191.4 17.8001 191.4 17.9001 191.5C18.1001 191.6 18.0001 191.8 17.9001 191.9C17.7001 192.3 17.8001 192.6 18.2001 192.7C18.6001 192.9 18.8001 192.7 19.0001 192.2C19.0001 192.1 19.1001 192 19.1001 191.8C19.1001 191.9 19.0001 192 19.0001 192.1C19.0001 192.6 19.0001 192.9 18.3001 192.7C18.0001 192.6 17.8001 193 17.6001 193.3C17.3001 193.8 17.2001 194.5 17.0001 195C17.0001 195.2 16.8001 195.5 16.5001 195.4C16.2001 195.4 16.1001 195.1 16.1001 194.8C16.1001 194.5 16.1001 194.1 16.1001 193.8C16.0001 193.2 15.5001 193 15.1001 193.5C14.8001 193.8 14.6001 193.9 14.2001 193.7C13.9001 193.5 13.6001 193.8 13.5001 194.1C13.3001 194.4 13.0001 194.6 12.7001 194.8C12.1001 195 11.9001 195.5 12.1001 196.1C12.6001 197.3 13.2001 197.4 14.2001 196.6C14.5001 196.3 14.9001 196.2 15.2001 196C15.5001 195.8 15.8001 196 15.8001 196.3C15.8001 196.7 15.8001 197.1 16.0001 197.6C16.0001 197.9 16.0001 198.1 15.8001 198.3C15.5001 198.8 15.7001 199.5 15.4001 200.1C15.4001 200.1 15.4001 200.1 15.4001 200.2C15.4001 200.7 15.2001 201.2 15.1001 201.7C15.1001 201.9 15.1001 202.1 15.2001 202.1C15.4001 202.1 15.6001 202 15.6001 201.8C15.6001 201.5 15.8001 201.2 15.8001 201C15.8001 201.5 15.4001 202 15.8001 202.5C15.8001 202.6 15.8001 202.9 15.8001 203.1C15.8001 203.3 15.7001 203.6 15.8001 203.8C16.0001 204.1 16.1001 204.4 16.6001 204.2C16.7001 204 16.8001 203.9 16.9001 203.7C17.0001 203.3 17.0001 202.8 17.3001 202.3C17.2001 202.6 17.0001 202.8 17.1001 203.1C17.2001 203.3 17.4001 203.3 17.6001 203.2C17.7001 203.2 17.8001 203 17.8001 202.8C17.8001 202.4 17.8001 201.9 18.2001 201.6C18.2001 201.7 18.2001 201.9 18.2001 202V202.2C17.8001 203.1 17.8001 204.1 17.6001 205C17.6001 205.1 17.6001 205.2 17.6001 205.3C17.5001 205.7 17.4001 206 17.8001 206.3C18.0001 206.4 18.1001 206.3 18.1001 206.1C18.1001 205.9 18.1001 205.7 18.1001 205.6C18.1001 205.2 18.5001 204.9 18.5001 204.5C18.5001 204.4 18.5001 204.2 18.6001 204.2C18.6001 204.5 18.9001 204.7 18.4001 204.9C18.2001 204.9 18.2001 205.3 18.1001 205.5C18.1001 205.6 18.1001 205.7 18.1001 205.9C18.1001 206.2 18.1001 206.4 18.6001 206.3C18.6001 206.3 18.8001 206.3 18.9001 206.3C18.8001 206.9 18.4001 207.4 18.3001 208C18.3001 208.1 18.3001 208.3 18.3001 208.4C18.6001 208.7 18.7001 208.4 18.9001 208.2C19.1001 207.6 19.2001 207.5 19.7001 207.9C19.9001 208 20.0001 208.1 20.2001 208.1C20.2001 208.1 20.3001 208.1 20.4001 208.1C20.9001 207.9 20.8001 207.2 21.1001 206.8C21.1001 207.4 20.9001 208.1 20.7001 208.7C20.7001 208.9 20.6001 209.1 20.8001 209.2C21.1001 209.4 21.0001 209.6 20.8001 209.7C20.3001 210 20.2001 210.6 20.0001 211.1C20.0001 211.4 20.1001 211.6 20.3001 211.8C20.3001 212.2 20.5001 212.4 20.9001 212C20.9001 212.3 21.1001 212.5 21.1001 212.8C21.1001 213 21.3001 213 21.5001 212.9C22.0001 212.7 22.5001 212.6 22.8001 212.1C22.6001 211.7 22.6001 211.4 23.0001 211.2C22.8001 211.4 22.6001 211.6 22.8001 211.9C22.8001 212 22.9001 212.2 22.8001 212.2C22.4001 212.5 22.6001 212.9 22.8001 213.2C23.3001 213.2 23.5001 212.9 23.6001 212.5C23.6001 212.3 23.7001 212.1 24.0001 211.9C24.0001 211.9 24.2001 211.9 24.3001 211.8C24.4001 211.8 24.5001 211.7 24.6001 211.6C24.8001 211.5 24.8001 211.2 25.1001 211.6C25.2001 211.8 25.4001 211.5 25.5001 211.4C26.2001 211.4 26.2001 211.4 25.9001 210.6C25.7001 210.4 25.4001 210.6 25.1001 210.6C25.1001 210.4 25.1001 210.3 25.2001 210.2C25.2001 210.2 25.2001 210 25.2001 209.9C24.9001 209.5 25.2001 209.3 25.5001 209C25.5001 209 25.6001 209 25.7001 208.9C25.7001 208.7 25.7001 208.5 25.9001 208.4C26.1001 208.4 26.2001 208.6 26.2001 208.7L26.4001 208.8C26.6001 208.8 26.9001 208.5 26.9001 209C26.9001 209.2 27.0001 209.3 27.2001 209.2C27.9001 208.9 28.3001 208.9 28.8001 208.9C29.4001 208.8 29.5001 208.2 29.1001 207.7C28.9001 207.7 28.6001 207.7 28.7001 207.3C28.7001 207.1 28.5001 207.1 28.3001 207.1C28.5001 207 28.6001 207.1 28.7001 207.1C28.9001 207.2 29.0001 207.3 29.2001 207.1C29.4001 206.9 29.2001 206.7 29.2001 206.6C29.0001 206.4 29.2001 206.3 29.2001 206.1C29.4001 205.9 29.6001 205.9 29.8001 205.8C29.8001 205.8 29.9001 206 30.0001 206C30.2001 205.8 30.5001 206 30.7001 205.9C30.7001 205.6 30.7001 205.3 30.9001 205.1C31.0001 204.9 31.2001 204.6 30.9001 204.4C30.6001 204.1 30.9001 203.9 31.1001 203.7C31.1001 203.7 31.1001 203.6 31.1001 203.5C31.0001 203.3 30.6001 203.2 30.7001 202.9C30.7001 202.7 30.8001 202.5 31.0001 202.4C31.0001 202.3 31.0001 202.2 31.0001 202.1C30.7001 201.8 30.3001 201.6 30.3001 201.2C30.3001 201 29.8001 201.2 30.0001 200.8C30.0001 200.7 30.0001 200.6 30.0001 200.5C30.0001 200.2 30.0001 199.8 30.2001 199.6C30.5001 199.1 30.5001 198.7 30.4001 198.2C30.3001 197.8 30.4001 197.5 30.9001 197.6C31.0001 197.6 31.2001 197.6 31.3001 197.6C31.4001 197.6 31.5001 197.5 31.6001 197.4C31.6001 197.4 31.7001 197.2 31.8001 197.1C31.8001 196.7 32.1001 196.7 32.4001 196.8C32.6001 196.8 32.8001 196.8 33.0001 196.9C33.0001 197.2 32.8001 196.9 32.7001 197C32.5001 197 32.4001 196.9 32.2001 196.9C31.9001 196.9 31.8001 197.1 32.0001 197.3C32.1001 197.5 32.0001 197.7 32.0001 197.9C32.0001 198.2 31.6001 198.4 32.0001 198.7C32.5001 199 32.5001 199 32.8001 198.5V198.3C32.7001 198.1 32.6001 197.9 33.0001 197.9C33.4001 197.9 33.7001 197.9 33.9001 198.2C34.1001 198.5 34.3001 198.3 34.6001 198.2C34.4001 198.4 34.6001 198.6 34.6001 198.8C34.7001 199 34.6001 199.1 34.6001 199.3C35.2001 199.3 35.8001 199 35.9001 198.2C35.9001 198.6 35.7001 198.8 35.7001 199.1C35.7001 199.3 35.6001 199.4 35.7001 199.5C35.9001 199.6 36.0001 199.5 36.1001 199.4C36.7001 198.9 37.4001 199 38.0001 198.7C38.6001 198.7 38.3001 199.2 38.4001 199.5C38.4001 199.5 38.4001 199.5 38.5001 199.6C38.7001 199.6 38.9001 199.7 39.1001 199.4C39.1001 199.4 39.2001 199.4 39.3001 199.4C39.3001 199.4 39.4001 199.4 39.5001 199.4C39.7001 199.4 40.0001 199.6 40.2001 199.2C40.2001 199 39.9001 199 39.8001 198.8C39.8001 198.7 39.6001 198.6 39.5001 198.5C39.5001 198.5 39.4001 198.5 39.3001 198.4C39.2001 198.4 38.8001 198.4 39.2001 198.1C39.3001 198.1 39.4001 197.9 39.5001 197.9C39.6001 197.9 39.7001 197.7 39.7001 197.6V197.5C39.7001 197.5 39.3001 197.6 39.4001 197.3C39.4001 197.1 39.5001 197.1 39.7001 197.2C40.0001 197.2 40.2001 197 40.4001 196.8C40.4001 196.8 40.4001 196.8 40.4001 196.7C40.4001 196.5 40.4001 196.4 40.4001 196.2C40.4001 195.6 40.4001 195.2 40.0001 194.8C40.0001 194.8 40.0001 194.8 40.0001 194.7C39.8001 194.4 40.0001 194 39.8001 193.8C39.6001 193.8 39.3001 193.8 39.6001 193.4C39.6001 193.1 39.4001 192.9 39.2001 192.7C39.1001 192.6 39.0001 192.4 38.8001 192.3C38.7001 192.3 38.6001 192.2 38.4001 192.1C38.4001 192.1 38.2001 192 38.1001 192C38.4001 191.7 38.6001 191.4 39.1001 191.4C39.4001 191.4 39.5001 191.1 39.5001 190.8C39.4001 190.4 39.7001 190.2 39.8001 189.9C39.7001 189.5 40.1001 189.5 40.3001 189.3C40.3001 189.1 40.5001 188.8 40.3001 188.5C40.6001 188.9 40.9001 188.5 41.3001 188.6C41.2001 188.9 41.1001 189.1 41.4001 189.3C41.6001 189.4 41.5001 189.6 41.5001 189.8C41.5001 190.1 41.4001 190.5 41.5001 190.8C41.5001 190.9 41.6001 191 41.8001 191.1C41.8001 191.1 41.9001 191.1 42.0001 191.2C42.1001 191.4 42.0001 191.8 42.3001 191.8C42.8001 191.9 43.2001 192.3 43.7001 192.1C43.9001 192.1 44.0001 191.9 44.0001 191.7C44.0001 191.5 44.2001 191.4 44.4001 191.3C44.8001 191.3 44.9001 191.1 44.7001 190.7C44.5001 190.1 44.5001 189.5 44.9001 189C45.0001 188.9 45.2001 188.6 45.4001 188.8C45.6001 188.9 45.6001 189.1 45.4001 189.3C45.3001 189.6 45.3001 189.6 45.7001 189.7C45.4001 189.9 45.3001 190.2 45.4001 190.5C45.4001 190.7 45.6001 190.7 45.7001 190.5C45.0001 190.5 45.2001 191.2 45.2001 191.6C45.2001 191.8 45.2001 191.9 45.2001 192.1C45.3001 192.4 45.6001 192.4 45.9001 192.5C46.1001 192.5 46.3001 192.5 46.3001 192.9C46.3001 193.1 46.3001 193.2 46.3001 193.4C46.3001 194.1 46.1001 194.7 46.3001 195.4C46.3001 195.6 46.2001 195.6 46.0001 195.4C45.9001 195.2 45.7001 195 45.5001 195.4C45.4001 195.7 45.1001 196.1 45.5001 196.2C46.1001 196.4 45.9001 196.7 45.8001 197.1C45.8001 197.2 45.8001 197.3 45.8001 197.4C46.0001 197.8 46.2001 198.2 46.0001 198.6C46.0001 199.1 46.1001 199.7 45.6001 200C45.6001 200.2 45.6001 200.3 45.8001 200.3C46.0001 200.5 45.9001 200.7 45.8001 200.9C45.7001 201.4 45.6001 202 45.5001 202.6C45.5001 202.8 45.5001 202.9 45.3001 203C45.1001 203.2 44.9001 203.5 45.2001 203.8C45.2001 203.9 45.2001 204 45.1001 204.1C45.5001 204.6 45.4001 205.2 45.1001 205.7C45.1001 205.7 45.1001 205.9 45.0001 205.9C45.0001 206.5 44.8001 207.1 44.9001 207.7C44.9001 207.7 44.9001 207.9 45.1001 207.9H45.3001C45.6001 207.7 46.0001 207.9 46.1001 207.5C46.1001 207.3 46.0001 207.3 45.9001 207.1C45.6001 206.7 45.7001 206.6 46.1001 206.5C46.2001 206.5 46.4001 206.5 46.5001 206.3C46.5001 206.1 46.3001 206.1 46.2001 206.1C45.9001 206.1 45.9001 205.8 46.0001 205.7C46.3001 205.3 46.2001 204.9 46.4001 204.5C46.4001 204.3 46.2001 204.1 46.4001 203.9C46.4001 203.8 46.6001 203.6 46.7001 203.4C46.7001 203.2 46.7001 202.8 47.2001 202.8C47.3001 202.8 47.2001 202.5 47.4001 202.4C47.9001 202.7 48.0001 203.1 47.4001 203.5C47.4001 203.5 47.4001 203.7 47.4001 203.8C47.2001 203.8 47.3001 203.5 47.3001 203.4C47.3001 203.2 47.1001 203.1 46.9001 203.1C46.7001 203.1 46.7001 203.3 46.7001 203.4C46.7001 203.9 46.7001 204.4 46.7001 204.9C46.7001 205.2 46.5001 205.4 46.7001 205.7C46.8001 205.9 46.8001 206.2 47.2001 206.1C47.5001 206.1 47.6001 205.9 47.6001 205.6C47.6001 205.4 47.6001 205.2 47.6001 205.1C47.6001 204.9 47.6001 204.6 47.6001 204.3C47.8001 204.3 48.0001 204.4 48.2001 204.3C47.4001 205.1 47.4001 205.2 48.0001 205.6C48.1001 205.6 48.1001 205.8 48.2001 206C48.2001 206.2 48.4001 206.2 48.5001 206.1C48.7001 206.2 48.5001 206.3 48.5001 206.5C48.5001 206.6 48.5001 206.7 48.4001 206.8C48.1001 207.4 48.2001 208.1 47.9001 208.7C47.8001 209 48.1001 209.4 47.9001 209.8C48.0001 210.6 47.9001 211.4 47.4001 212.1C47.4001 212.3 47.2001 212.6 47.6001 212.6C47.4001 212.6 47.3001 212.4 47.4001 212.1C47.4001 212 47.4001 211.9 47.5001 211.8C47.9001 211.4 47.8001 210.9 47.5001 210.5C47.5001 210.4 47.3001 210.4 47.2001 210.3C47.1001 210.3 47.0001 210.3 46.9001 210.3C46.9001 210.9 47.0001 211.5 46.8001 212C46.8001 212.2 46.6001 212.3 46.5001 212.4C46.5001 212.4 46.5001 212.4 46.4001 212.5C46.2001 212.8 46.2001 213.1 46.0001 213.4C45.8001 213.6 45.6001 213.7 45.7001 214C45.8001 214.2 46.1001 214.3 46.3001 214.2C46.5001 214.2 46.6001 214 46.8001 213.9C46.8001 213.9 46.8001 213.6 46.9001 213.7C47.4001 213.7 47.4001 213.4 47.3001 213.1C47.5001 213.3 47.5001 213.5 47.3001 213.7C47.3001 213.7 47.1001 213.8 47.1001 213.9C47.1001 214.2 47.3001 214.6 46.7001 214.3C46.7001 214.3 46.6001 214.5 46.5001 214.6C46.5001 214.8 46.5001 215 46.5001 215.2C46.5001 215 46.5001 214.8 46.2001 214.8C46.0001 214.8 46.0001 215 46.0001 215.2C46.0001 215.5 45.8001 215.9 46.0001 216.2H46.2001C46.4001 215.8 46.7001 216 47.0001 216.1C47.3001 215.9 47.6001 216.1 47.7001 216.3C47.7001 216.5 47.6001 216.8 47.3001 216.8C47.3001 216.8 47.1001 216.8 47.1001 217C46.8001 217.4 47.0001 217.7 47.4001 217.8C47.5001 218.1 47.8001 218 48.0001 218C48.6001 218.6 49.1001 218.6 49.5001 217.8C49.7001 217.4 49.7001 217.1 49.7001 216.7V216.4C49.7001 216.1 49.8001 215.7 49.9001 215.4C49.9001 215.6 49.8001 215.7 49.9001 215.9C50.3001 216.1 50.2001 216.6 50.6001 216.7C50.8001 216.7 50.9001 216.7 50.9001 216.9C51.4001 217.3 50.7001 217.4 50.7001 217.7C50.7001 217.9 50.6001 218 50.7001 218.2C50.7001 218.3 50.9001 218.4 50.9001 218.6C50.9001 218.9 50.9001 219.1 50.6001 219.2C50.2001 219.7 50.2001 219.7 50.6001 220C50.9001 220.2 50.6001 220.3 50.6001 220.4C50.6001 220.8 50.8001 221.1 51.3001 220.9C52.2001 220.7 53.2001 220.3 54.1001 219.9C54.1001 219.9 54.3001 219.7 54.3001 219.6C54.5001 218.6 55.0001 217.9 55.8001 217.4C55.9001 217.4 56.0001 217.2 56.1001 217C56.1001 217.3 55.9001 217.5 55.9001 217.7C55.9001 217.9 55.9001 218 56.0001 218.2C56.1001 218.4 56.3001 218.2 56.4001 218.2C56.6001 218.1 56.9001 218.1 57.1001 218C57.2001 218 57.4001 218 57.5001 218C57.9001 218 58.0001 217.7 58.3001 217.5C58.5001 217.7 58.3001 218.1 58.6001 218.2C58.8001 218.2 58.9001 218 59.0001 217.9C59.0001 217.9 59.1001 217.7 59.2001 217.9C59.2001 218.2 59.0001 218.5 59.0001 218.8C59.0001 219.1 59.2001 219.4 59.5001 219.6C59.6001 219.6 59.7001 219.8 59.7001 220C59.7001 220.2 59.9001 220.4 60.2001 220.3C60.3001 220.2 60.2001 220 60.2001 219.9C60.2001 219.2 60.2001 219.1 60.9001 219C61.3001 219 61.4001 218.6 61.6001 218.4C61.6001 218.4 61.6001 218.3 61.6001 218.2C61.6001 217.9 61.6001 217.6 61.3001 217.4C61.0001 217.2 60.8001 216.9 60.8001 216.6C60.4001 216.4 60.3001 216.8 60.0001 217C60.1001 217.2 60.0001 217.4 60.1001 217.6C60.0001 217.4 60.1001 217.3 60.1001 217.2C59.9001 217 60.1001 216.9 60.3001 216.8C60.4001 216.6 60.7001 216.6 60.7001 216.3C60.7001 216 60.3001 215.8 60.4001 215.5C60.4001 215.2 60.1001 215 60.5001 214.6C60.8001 214.4 60.2001 214.3 60.2001 214.1C60.6001 213.8 60.5001 213.3 60.5001 212.9C60.5001 212.8 60.5001 212.6 60.5001 212.5V212.3C60.5001 212.1 60.5001 211.9 60.5001 211.7C60.5001 211.5 60.5001 211.3 60.5001 211.2C60.5001 210.9 60.6001 210.5 60.5001 210.2C60.5001 210 60.5001 209.8 60.7001 209.6C60.9001 209.5 60.9001 209.3 60.9001 209.1C60.9001 208.8 60.9001 208.6 61.2001 208.5C61.6001 208.2 61.6001 207.8 61.2001 207.5C61.0001 207.4 60.9001 207.3 61.0001 207.1C61.0001 207 61.0001 206.8 61.0001 206.6C61.0001 206.6 61.0001 206.5 61.0001 206.4C61.0001 206 60.9001 205.6 61.3001 205.3C61.3001 205.2 61.3001 205.1 61.3001 205C61.0001 204.6 61.1001 204.6 61.4001 204.3C61.6001 204.1 61.6001 203.9 61.6001 203.7C61.6001 203.6 61.6001 203.4 61.6001 203.3C61.7001 203.7 61.8001 203.8 62.2001 203.3C62.5001 203 62.4001 203.3 62.4001 203.3V203.4C62.5001 203.4 62.6001 203.4 62.7001 203.3C62.8001 203 62.9001 202.7 62.8001 202.6C62.8001 202.8 63.1001 202.9 63.3001 202.8C63.5001 202.6 63.6001 202.4 63.3001 202.3C62.9001 202.2 62.8001 201.9 62.8001 201.6C62.8001 201.2 62.7001 200.9 62.8001 200.5C62.8001 200.9 62.8001 201.3 63.0001 201.6C63.0001 201.8 63.1001 202 63.3001 201.9C63.5001 201.9 63.6001 201.7 63.6001 201.6C63.6001 201.5 63.6001 201.3 63.8001 201.2C63.9001 201 63.7001 200.9 63.7001 200.7C63.7001 200.7 63.7001 200.5 63.8001 200.5C63.8001 200.6 63.7001 200.8 63.8001 200.9C63.9001 201 64.1001 201.1 64.2001 200.9C64.4001 200.7 64.7001 200.6 64.9001 200.3C65.2001 200.1 65.1001 199.8 64.9001 199.7C64.5001 199.6 64.6001 199.3 64.5001 199C64.7001 199.3 65.0001 199.3 65.2001 199.3C65.3001 199.3 65.5001 199.3 65.6001 199.4C65.8001 199.7 66.1001 199.4 66.1001 199.3C65.9001 199 66.3001 198.4 65.8001 198.3C66.2001 198.2 66.6001 198.4 67.0001 198.5C67.3001 198.3 67.7001 198.3 68.0001 198.1C68.0001 198.1 68.2001 198 68.2001 197.8C68.2001 197.8 68.1001 197.7 68.0001 197.7C67.5001 197.7 67.2001 197.6 67.1001 197C67.1001 197 67.0001 197 66.9001 197C67.1001 197 67.4001 196.8 67.3001 197.2C67.3001 197.6 67.5001 197.7 67.7001 197.6C68.1001 197.6 68.4001 197.8 68.7001 197.8C69.3001 197.9 69.9001 197.8 70.5001 197.9C70.8001 198.1 70.8001 198.5 70.8001 198.8C70.8001 199 70.8001 199.1 70.8001 199.3C70.6001 199.9 70.3001 199.6 70.0001 199.5C69.8001 199.5 69.5001 199.5 69.3001 199.5H69.2001C69.4001 199.8 69.4001 200.3 69.9001 200.4C69.9001 200.4 70.0001 200.4 70.0001 200.2C70.1001 199.9 70.3001 200 70.5001 200.2C70.7001 200.3 70.5001 200.4 70.5001 200.6C70.4001 200.8 70.1001 201 70.3001 201.3C70.5001 201.4 70.6001 201.3 70.8001 201.3C71.0001 201.3 71.2001 201.5 71.2001 201.7C71.2001 201.9 71.1001 202 70.9001 202.1C70.6001 202.3 70.1001 202.1 70.2001 202.8C70.2001 202.9 69.9001 202.8 69.7001 202.8C69.0001 202.6 68.9001 202.6 68.5001 203.2C68.4001 203.4 68.2001 203.3 68.0001 203.4C67.8001 203.4 67.5001 203.4 67.5001 203.8C67.5001 204.2 67.9001 204 68.0001 204.1C67.8001 204.2 67.5001 204.1 67.3001 204.1C67.3001 204.1 67.3001 204.1 67.2001 204.1C67.1001 204.3 66.7001 204.4 66.7001 204.7C67.0001 205.1 67.2001 205 67.4001 204.7C67.4001 204.5 67.5001 204.3 67.8001 204.5C68.1001 204.6 68.3001 204.9 68.6001 204.5C68.5001 204.9 68.8001 204.8 69.0001 204.9C68.9001 205 68.7001 205.1 68.7001 205.2C68.7001 205.5 68.8001 205.4 69.0001 205.5C69.1001 205.5 69.0001 206 68.7001 206.1C68.5001 206.1 68.3001 206.1 68.2001 206.3C68.0001 206.5 68.0001 206.8 68.2001 206.9C68.1001 207 68.0001 207 67.9001 207C67.7001 207 67.4001 206.9 67.4001 207.2C67.4001 207.4 67.6001 207.5 67.9001 207.5C67.6001 207.7 67.5001 208 67.2001 208.1C67.0001 208.4 66.5001 208.2 66.5001 208.7C66.5001 208.7 66.2001 208.8 66.0001 208.7C65.9001 208.7 65.8001 208.7 65.7001 208.9C65.7001 209.2 65.6001 209.5 65.3001 209.7C65.0001 209.9 65.1001 210.6 65.5001 210.8C65.6001 210.8 65.8001 210.8 65.9001 211C65.9001 211.2 65.6001 211.5 65.7001 211.8C65.8001 212 66.2001 212.3 65.7001 212.5C66.0001 213 65.5001 213.4 65.7001 213.9C65.7001 213.9 65.8001 213.9 65.9001 213.9C66.1001 213.6 66.5001 213.9 66.7001 213.6C66.7001 213.6 66.8001 213.4 66.8001 213.3C66.7001 212.7 66.6001 212.1 66.6001 211.5C67.1001 211.2 67.1001 211.2 67.2001 211.9C67.4001 211.9 67.6001 212.2 67.8001 212.2C67.9001 212.2 68.0001 212.2 68.1001 212.1C68.1001 212.3 68.0001 212.5 67.9001 212.7C67.9001 212.7 67.9001 212.8 67.9001 212.9C67.9001 213 68.0001 213.2 68.1001 213.1C68.4001 213 68.8001 213 68.9001 212.8C69.1001 212.2 69.7001 212.3 70.2001 212C70.5001 211.8 71.5001 211.6 72.0001 211.7C72.2001 211.7 72.4001 211.7 72.5001 211.5C72.5001 211.5 72.5001 211.5 72.5001 211.7C72.5001 212 72.4001 212.4 73.0001 212.2C73.0001 212.2 73.0001 212.4 73.0001 212.5C73.0001 212.7 73.0001 212.8 73.1001 213C73.3001 213.1 73.5001 213.3 73.8001 213.2C73.8001 213.2 73.9001 213.2 73.8001 213.5C73.8001 213.7 73.8001 213.8 73.8001 214C73.7001 214.3 73.5001 214.5 73.2001 214.2C72.8001 213.8 72.8001 213.8 72.5001 214.4C72.5001 214.4 72.5001 214.5 72.5001 214.6C72.7001 215 72.9001 215.5 73.4001 215.7C73.6001 215.8 73.7001 216 73.7001 216.2C73.7001 216.8 73.9001 217 74.5001 217.1C74.8001 217.1 74.8001 217.5 75.1001 217.6C74.7001 218.2 74.3001 218.7 73.8001 219.1C73.8001 219.3 73.8001 219.4 74.0001 219.4C74.3001 219.7 74.6001 219.8 75.0001 219.6C75.0001 219.6 75.2001 219.5 75.1001 219.4C74.8001 218.9 75.4001 218.8 75.6001 218.5C75.5001 218.8 75.3001 219.1 75.5001 219.4C75.5001 219.4 75.7001 219.3 75.7001 219.2C75.7001 219.2 75.9001 219.2 75.9001 219C76.1001 218.6 76.5001 218.5 76.9001 218.5C76.9001 218.5 77.1001 218.4 77.1001 218.3C76.9001 217.4 77.7001 217 77.9001 216.4C77.9001 216.4 77.9001 216.4 77.9001 216.3C77.9001 216.2 77.9001 215.9 78.3001 216C78.3001 216 78.5001 215.9 78.5001 215.8C78.6001 215.8 78.7001 215.4 78.9001 215.8C79.0001 216 79.2001 216.1 79.4001 215.8C80.1001 214.4 80.1001 212.9 80.5001 211.6C80.5001 212 80.3001 212.6 80.2001 213.2C80.2001 213.3 80.2001 213.5 80.1001 213.6C80.1001 213.8 80.1001 214 80.2001 214.1C80.4001 214.1 80.5001 213.9 80.5001 213.8C80.7001 213.2 80.9001 212.6 81.0001 211.9C81.0001 211.7 81.0001 211.6 81.1001 211.4C81.1001 211.1 81.1001 210.7 81.4001 210.4C81.4001 210.9 81.4001 211.3 81.2001 211.7C81.2001 212.1 81.5001 212.5 81.0001 212.8C80.7001 213 80.8001 213.3 80.9001 213.6C81.1001 213.8 81.2001 213.6 81.3001 213.6C81.5001 213.5 81.7001 213.4 81.7001 213.1C81.7001 213 81.7001 212.8 81.7001 212.7C81.7001 212.7 81.7001 212.5 81.8001 212.4C81.8001 212.6 81.8001 212.8 81.8001 213C82.0001 213.4 82.3001 213.4 82.6001 213.2C82.6001 213.2 82.6001 213.2 82.6001 213.1C82.6001 213.1 82.6001 213 82.6001 212.9C82.6001 212.8 82.4001 212.6 82.6001 212.6C82.8001 212.6 82.6001 212.8 82.7001 212.9C82.7001 213 82.7001 213.2 82.7001 213.3C82.7001 213.5 82.4001 213.9 83.0001 213.9C83.4001 213.8 83.2001 213.4 83.2001 213.3C83.2001 213.1 83.0001 212.9 83.4001 212.9C83.4001 212.9 83.5001 212.9 83.5001 212.8C83.5001 212.7 83.5001 212.3 83.8001 212.4C84.0001 212.4 83.9001 212.8 83.8001 212.9C83.5001 213.5 84.0001 213.9 84.3001 214.3C84.5001 214 84.3001 213.6 84.7001 213.6C84.7001 213.6 85.3001 213.6 85.1001 214C85.1001 214 85.1001 214.1 85.1001 214.2C85.1001 214.4 85.1001 214.6 85.3001 214.6C85.5001 214.6 85.5001 214.3 85.5001 214.2C85.5001 214.2 85.5001 214.2 85.5001 214.1C85.4001 213.5 85.5001 213 86.1001 212.8C86.2001 212.7 86.3001 212.4 86.4001 212.2C86.8001 212.6 86.6001 213 86.6001 213.4V213.6C86.6001 213.7 86.8001 213.8 87.0001 213.7C87.2001 213.6 87.2001 213.5 87.3001 213.3C87.1001 212.8 87.5001 212.5 87.7001 212.1C87.5001 212.6 87.7001 213.1 87.7001 213.6C87.7001 214.1 87.8001 214.5 88.4001 214.6C88.4001 214.6 88.4001 214.6 88.5001 214.5C88.5001 214.5 88.6001 214.4 88.7001 214.3C88.7001 214.2 88.9001 214.1 89.0001 214C89.1001 214 89.3001 214 89.5001 214C89.7001 214 89.8001 213.9 89.7001 213.7C89.7001 213.7 89.7001 213.5 89.7001 213.4C89.8001 213.2 90.0001 213 90.3001 212.9C90.3001 212.9 90.5001 212.9 90.6001 212.8C90.8001 212.7 90.9001 212.5 91.0001 212.8C91.0001 212.8 91.1001 213 91.2001 212.9C91.3001 212.9 91.3001 212.8 91.3001 212.7C91.3001 212.5 91.2001 212.2 91.5001 212C91.7001 212 91.7001 211.8 91.6001 211.6C91.5001 211.4 91.4001 211.3 91.6001 211.1C91.6001 211 91.7001 210.9 91.7001 210.7C91.7001 210.5 91.7001 210.4 91.9001 210.2C92.1001 210.2 92.1001 210.4 92.3001 210.4C92.3001 210.4 92.5001 210.4 92.6001 210.4C92.9001 210.2 92.7001 210 92.6001 209.8C92.1001 209.6 92.0001 209.2 92.1001 208.7C92.1001 208.7 92.2001 208.8 92.3001 208.9H92.5001C92.5001 208.8 92.5001 208.7 92.5001 208.6C92.5001 208.4 92.7001 208.3 92.7001 208.1C92.7001 208 92.7001 207.8 92.6001 207.7C92.5001 207.5 92.0001 207.4 92.6001 207.1H92.8001C92.8001 207.1 92.8001 207.1 92.9001 207C92.9001 206.7 93.1001 206.5 92.7001 206.4C92.5001 206.4 92.5001 206.4 92.5001 206.2C92.6001 205.9 92.5001 205.6 92.5001 205.3C92.5001 205 92.8001 204.8 92.7001 204.5C93.0001 204.5 92.9001 204.9 93.1001 204.9C93.6001 204.9 93.8001 204.7 94.1001 204.3C94.3001 204.1 94.3001 203.9 94.1001 203.6C94.4001 203.8 94.5001 204 94.4001 204.2C94.4001 204.4 94.3001 204.6 94.3001 204.8C94.3001 205.1 94.3001 205.2 94.7001 205C94.8001 204.8 94.9001 204.5 95.2001 204.4C95.4001 204.4 95.5001 204.4 95.6001 204.4C95.8001 204.2 95.9001 204.1 95.9001 203.9C95.9001 203.7 95.9001 203.6 96.0001 203.5C96.2001 203.3 96.5001 203.2 96.7001 203.1C96.9001 202.9 96.9001 202.8 96.8001 202.5C97.0001 202.8 97.0001 203.1 97.0001 203.4C97.0001 203.6 96.8001 203.9 97.0001 204C97.2001 204 97.4001 203.9 97.5001 203.7C97.5001 203.7 97.5001 203.6 97.5001 203.5V203.3C97.5001 203.3 97.5001 203.4 97.5001 203.5C97.5001 203.8 97.5001 204.1 97.8001 204.2C97.9001 204.2 98.1001 204.5 98.1001 204.2C98.1001 203.9 98.0001 203.6 98.4001 203.5C98.5001 203.5 98.4001 203.4 98.4001 203.4C98.1001 203.4 98.4001 203.2 98.3001 203.1C98.5001 202.6 98.9001 202.8 99.2001 202.8C99.2001 202.8 99.2001 202.6 99.3001 202.6C99.8001 202.3 99.7001 201.8 99.6001 201.4C99.6001 201.2 99.6001 201.1 99.6001 201C99.8001 200.8 99.7001 200.6 99.6001 200.4C99.6001 200.3 99.6001 200.2 99.7001 200.1C99.7001 199.9 99.8001 199.8 99.6001 199.7C99.3001 199.7 99.4001 199.4 99.2001 199.2C99.0001 198.9 99.3001 198.9 99.4001 198.8C99.6001 198.4 99.6001 198 99.5001 197.6C99.5001 197.6 99.4001 197.5 99.5001 197.4C99.6001 197.3 99.9001 197.3 99.9001 197.1C99.8001 196.9 99.5001 197.1 99.4001 196.9C99.6001 196.9 99.7001 197 99.8001 196.9C99.7001 196.5 99.8001 196 99.8001 195.6C99.8001 195.4 99.8001 195.2 100 195C100 194.9 99.8001 194.6 100.1 194.6C100.2 194.6 100.2 194.5 100.2 194.4C100.2 193.5 100 192.7 99.9001 191.8C99.9001 191.8 99.9001 191.6 99.9001 191.5C100.2 191.2 100.3 190.9 100 190.6C99.9001 190.4 99.9001 190.3 100 190.1C100 189.9 99.8001 189.9 99.7001 189.7C99.7001 189.7 99.7001 189.7 99.6001 189.6C99.6001 189.4 99.1001 189.8 99.4001 189.4C99.4001 189.3 99.4001 189.1 99.4001 189C99.2001 188.8 99.4001 188.7 99.4001 188.6C99.7001 188.3 99.7001 188.1 99.3001 187.8C99.3001 187.7 99.6001 187.7 99.6001 187.5C99.6001 187.2 99.8001 187 99.6001 186.7C99.6001 186.7 99.4001 186.7 99.3001 186.7C98.8001 186.8 98.9001 186.6 99.1001 186.3C98.7001 185.5 98.7001 184.7 99.1001 183.9C99.2001 183.7 99.3001 183.5 99.3001 183.3C99.3001 183.3 99.3001 183.4 99.3001 183.5C99.4001 183.7 99.5001 183.8 99.7001 183.9C99.9001 183.9 100 183.9 100.2 183.9C100.4 183.9 100.4 183.6 100.4 183.5C100.5 183.3 100.5 183 100.8 183H100.9C100.9 183 100.9 182.9 100.9 182.8C100.9 182.6 100.6 182.6 100.7 182.4C100.7 182.4 100.9 182.3 100.9 182.2C100.9 182.1 101 181.9 101 181.8C101 181.8 101 181.7 100.9 181.6C100.7 181.6 100.6 181.3 100.5 181.1C100.8 180.7 101 180.9 101.1 181.2C101.1 181.3 101.1 181.5 101.4 181.4C101.6 181.4 101.5 181.2 101.6 181.1C101.6 180.8 101.8 180.5 101.6 180.3C102 179.8 101.8 179.2 101.8 178.7C101.8 178 101.6 177.2 101.7 176.4C101.7 176.2 101.7 176 102 176C102.3 176 102.4 176.2 102.3 176.3C102.3 176.5 102.3 176.6 102.5 176.7C102.8 176.6 102.3 176.2 102.6 176.2C102.8 176.2 102.7 176.5 102.8 176.7C102.9 176.7 103 176.7 103.1 176.7C103.4 176.6 103.3 176.8 103.3 176.9C103.3 177.2 103.3 177.5 103.5 177.7C103.6 177.7 103.7 177.7 103.8 177.6C104.2 177.6 104 178.1 104.4 178.1C104.2 178 104.4 177.7 104.2 177.6C104.2 177.6 104.1 177.5 104.2 177.5C104.5 176.9 103.7 176.2 104.2 175.6V175.5C103.9 175.2 104 175 104.3 174.8C104.5 174.8 104.3 174.6 104.3 174.4C104.3 174.1 104.3 173.7 104.1 173.3C104.1 173 103.9 172.7 104.1 172.4C104.3 172.2 104.3 172 104.3 171.7C104.3 171.4 104.5 171.3 104.6 171.1C104.7 171.4 104.6 171.8 105 172C105 172 105.1 172 105.2 172C105.2 171.6 105.2 171.2 105.1 170.9C105.1 170.7 104.9 170.6 105.3 170.6C104.9 170.5 105.9 170.4 105.3 170.2C105.3 170.2 105.1 170.1 105.3 170C105.7 170 105.3 169.6 105.6 169.5C105.7 169.5 105.9 169.3 106 169.3C106.8 169.1 106.9 168.8 106.6 168C106.5 168 106.4 167.8 106.4 167.7C106.7 167.3 106.4 167 106.2 166.8C106.1 166.8 106.2 166.6 106.2 166.5C106.2 166 105.8 165.8 105.6 165.4C105.8 165.4 106 165.6 106.1 165.7C106.2 165.7 106.4 165.8 106.4 165.6C106.2 165.6 106.7 165.1 106.2 165.3C106.2 165.3 106 165.3 106.1 165.2C106.1 164.8 105.7 164.7 105.6 164.4C105.1 163.5 104.3 163 103.6 162.3C103.5 162.2 103.4 162.1 103.4 161.9C103.4 161.9 103.4 161.9 103.3 161.8C102.8 161.5 102.4 161.2 102 160.8C101.9 160.6 101.8 160.4 101.7 160.2C101.7 160.2 101.2 160.3 101.5 159.9C101.5 159.7 101.6 159.6 101.4 159.5C101.2 159.5 101 159.5 100.8 159.5C100.7 159.5 100.5 159.4 100.5 159.2C100.5 158.9 100.5 158.6 100.2 158.3C100 158.1 99.9001 157.8 99.8001 157.5C100 157.7 100.1 157.7 100.3 157.6C100.1 157.2 100.5 157 100.5 156.7C100.5 156.4 100.2 156.3 100.4 155.9C100.5 155.7 100.2 155.7 100.1 155.6C100.1 155.6 100 155.4 99.8001 155.6C99.6001 155.6 99.5001 155.6 99.3001 155.6C99.1001 155.6 99.0001 155.7 99.1001 155.9C99.3001 156.3 99.1001 156.7 99.1001 157.1C98.5001 156.9 98.5001 156.9 98.8001 156.4C98.8001 156.3 99.0001 156.2 99.0001 156.1C99.0001 155.9 99.1001 155.7 99.0001 155.5C98.9001 155.3 98.6001 155.5 98.5001 155.5C98.4001 155.5 98.4001 155.4 98.4001 155.3C98.4001 155.1 98.2001 154.8 98.3001 154.6C98.3001 154.4 98.3001 154.3 98.0001 154.2C97.8001 154.2 97.6001 154.2 97.5001 154.2C97.5001 154.2 97.5001 154.2 97.5001 154.3C97.5001 154.3 97.5001 154.2 97.5001 154.1C97.5001 154 97.5001 154.1 97.5001 154C97.3001 153.8 97.3001 153.7 97.5001 153.6C97.8001 153.4 98.1001 153.2 97.5001 153C97.3001 153 97.3001 152.8 97.3001 152.7C97.3001 152.5 97.3001 152.4 97.3001 152.2C97.3001 151.9 96.9001 151.8 96.8001 151.5C96.8001 151.5 96.7001 151.4 96.6001 151.3C96.6001 150.9 96.0001 149.7 95.5001 149.1C95.3001 149.1 95.5001 148.9 95.4001 148.7C95.4001 148.4 95.3001 148.2 95.0001 148.1C94.8001 148.1 94.9001 147.9 94.9001 147.8C94.9001 147.5 94.9001 147.3 94.8001 147.1C94.8001 146.8 94.7001 146.6 94.7001 146.3C94.2001 146.3 94.4001 146.7 94.3001 146.9C94.0001 146.6 94.3001 146.1 94.1001 145.7L90.3001 146.8Z" fill="#EEF4F8"/>
</svg>
