<svg width="160" height="160" viewBox="0 0 160 160" fill="none" xmlns="http://www.w3.org/2000/svg">
<g id="Frame 2087327027">
<path id="Vector" d="M84.3642 4.67943C81.5561 10.5069 79.684 16.1014 75.9398 33.3508L74.0678 42.2086L64.0833 36.8473C48.1707 28.2226 33.8181 18.6655 24.7697 10.5069C21.0255 7.01044 20.0895 7.01044 14.4733 11.6724C8.85698 16.3345 8.54497 17.9662 11.6651 29.8543C13.5372 37.0804 14.7852 56.4278 14.4733 72.7448C14.1612 97.6866 13.5372 101.882 9.48101 100.717C5.73685 99.7845 5.11282 100.717 6.9849 106.311C8.23296 110.041 10.7291 113.77 12.6012 114.47C14.4733 115.402 16.3453 125.192 16.9694 136.614C17.5934 147.803 19.7774 158.293 21.6495 159.691C24.1456 161.323 24.7697 156.661 23.5216 141.509L21.9616 120.764L31.946 116.335C43.8025 110.973 58.7791 110.507 58.7791 115.402C58.7791 119.598 63.7713 120.064 65.9554 115.868C67.2035 113.537 67.8275 113.537 67.8275 115.868C68.1395 117.5 70.3236 118.899 72.8197 118.899C76.2518 118.899 77.4999 121.696 77.4999 129.388C77.4999 135.216 79.06 139.878 80.62 139.878C82.4921 139.878 83.1161 136.381 81.868 131.02C80.62 124.493 81.244 121.463 84.9882 119.132C87.7964 117.5 89.9804 116.801 89.9804 117.966C89.9804 119.132 91.5405 118.433 93.1005 116.568C97.1567 111.673 115.254 111.673 124.614 116.801C128.982 119.132 133.663 120.53 134.911 119.598C135.847 118.899 136.782 124.493 136.782 132.419C136.782 150.6 142.087 151.3 143.959 133.351C146.455 112.139 147.391 108.409 150.823 106.544C153.007 105.612 152.696 104.213 150.511 103.048C148.639 102.115 147.703 98.8521 148.327 95.5887C148.951 92.3252 149.575 81.6026 149.887 71.5793C149.887 61.7891 151.447 53.6305 153.007 53.6305C156.751 53.6305 154.879 43.6072 150.823 41.5093C148.951 40.3438 148.951 39.6445 151.447 39.6445C153.631 39.6445 154.879 35.6818 154.879 29.155C154.879 22.6282 153.631 18.6655 151.135 18.6655C144.582 18.6655 133.975 25.6585 135.535 28.9219C136.47 30.7867 133.975 34.0501 129.606 36.3811C125.55 38.9452 122.118 41.2762 121.806 41.9755C120.245 47.3368 116.814 51.0664 114.629 50.134C110.885 48.2692 99.3408 18.1993 101.525 15.6352C102.461 14.2366 101.836 14.0035 99.9651 14.9359C97.4687 16.1014 96.2207 14.2366 96.2207 9.34144C96.2207 5.37873 94.9726 2.58152 93.4126 3.28083C91.8525 4.21323 89.9804 3.28083 89.0444 1.88222C88.1083 0.0174152 86.2362 1.18292 84.3642 4.67943ZM93.1005 30.3205C93.1005 31.486 93.1005 33.1177 93.1005 33.817C93.1005 34.5163 94.9726 38.7121 97.4687 43.141C99.9651 47.5699 101.213 51.2995 100.277 51.2995C99.3408 51.2995 100.277 52.9312 102.461 54.796C104.645 56.894 105.581 58.9919 104.645 59.9243C101.213 62.2553 109.014 67.6166 115.254 67.6166C118.686 67.6166 121.182 65.9849 121.182 63.4208C121.494 61.3229 125.55 55.7285 130.854 51.2995L140.215 43.141L138.03 49.6678C137.094 53.3974 135.535 63.1877 135.223 71.8124C134.911 80.4371 133.35 91.859 132.102 97.2204L129.918 106.777L115.566 103.747C107.765 101.882 100.589 100.484 99.6531 100.717C98.7168 100.717 97.1567 100.717 96.2207 100.484C89.3564 98.8521 58.7791 98.8521 58.7791 100.484C58.7791 101.649 55.347 102.115 51.2908 101.183C47.2346 100.484 42.8664 100.95 41.9304 102.115C40.9944 103.514 37.5623 103.98 34.4421 103.281C29.4499 102.349 28.8259 99.3183 29.1378 73.9103C29.1378 58.2926 30.3859 44.0734 31.946 42.2086C33.8181 39.8776 33.8181 39.4114 31.322 40.5769C28.8259 41.7424 27.5778 40.1107 27.5778 36.3811V30.5536L38.4982 35.2156C44.7385 38.0128 50.9788 42.2086 52.8509 44.5396C54.4109 47.1037 57.8431 48.9685 60.3392 48.9685C62.8353 48.9685 65.9554 50.3671 67.2035 51.7657C72.1957 57.8264 86.5483 53.6305 86.2362 46.4044C85.3002 36.6142 87.1723 27.9895 89.9804 27.9895C91.8525 27.9895 93.1005 28.9219 93.1005 30.3205Z" fill="#00A3FF"/>
</g>
</svg>
