<svg width="107" height="221" viewBox="0 0 107 221" fill="none" xmlns="http://www.w3.org/2000/svg">
<path id="Vector" d="M16.6999 74.2C16.6999 74.2 16.6999 74.2 16.6999 74.3C16.6999 74.5 16.6999 74.7 16.9999 74.6C17.1999 74.6 17.0999 74.4 17.1999 74.2C17.2999 74.9 17.1999 75.6 17.4999 76.2C17.4999 76.2 17.4999 76.4 17.5999 76.4C17.9999 76.6 18.0999 76.9 18.1999 77.4C18.1999 77.7 18.2999 78.2 18.6999 78.3C18.8999 78.3 19.0999 78.3 19.0999 78.6C19.0999 79.2 19.3999 79.8 19.4999 80.5C19.4999 80.5 19.4999 80.6 19.4999 80.7C19.4999 80.8 19.5999 81 19.6999 81.1C19.6999 81.2 19.8999 81.4 20.0999 81.2C20.0999 81.2 20.0999 81.2 20.0999 81.3C19.8999 81.7 20.0999 82.1 20.2999 82.5C20.2999 82.7 20.4999 82.8 20.6999 82.7C20.8999 82.7 20.8999 82.5 20.8999 82.3C20.8999 82.2 20.6999 82 21.0999 82.1C21.1999 82.1 21.2999 81.9 21.2999 81.8C21.2999 81.5 21.2999 81.3 21.6999 81.2C21.9999 81.1 21.7999 80.8 21.6999 80.7C21.6999 80.7 21.3999 80.7 21.3999 80.6C21.3999 80.4 21.5999 80.4 21.6999 80.4C21.8999 80.4 22.0999 80.3 22.2999 80.4C21.8999 80.6 21.9999 80.8 22.2999 81C22.0999 81 21.8999 81 21.7999 81.2C21.7999 81.4 21.7999 81.5 21.9999 81.6C22.2999 81.7 22.0999 82 22.1999 82.2V82.3C22.7999 82.3 22.4999 81.7 22.5999 81.5C22.5999 81.7 22.5999 82 22.8999 82C23.1999 81.9 23.5999 81.5 23.7999 82.2C23.7999 82.4 24.0999 82.2 24.1999 82.1C24.1999 82.4 24.5999 82.7 24.4999 83.1C24.4999 83.1 24.4999 83.2 24.4999 83.3C24.4999 83.9 24.9999 84.1 25.3999 84.2C25.5999 84.7 25.5999 85.2 25.5999 85.7C25.5999 85.8 25.5999 85.9 25.3999 86C24.9999 86 25.0999 86.3 25.1999 86.6C25.1999 86.8 25.3999 86.9 25.5999 86.9C25.1999 86.9 24.9999 86.9 25.0999 87.4C25.0999 87.4 25.0999 87.4 25.1999 87.4C25.9999 87.4 26.0999 87.7 25.6999 88.5C25.5999 88.7 25.5999 88.9 25.6999 89.1C25.6999 89.1 25.8999 89.1 25.9999 89.2C26.0999 89.6 26.2999 90.1 26.2999 90.6C26.2999 91.1 26.3999 91.5 26.4999 92C26.3999 91.9 26.3999 91.8 26.2999 91.7C26.1999 91.6 26.0999 91.5 25.8999 91.6C25.6999 91.6 25.6999 91.8 25.7999 92C25.7999 92.3 25.9999 92.6 26.1999 92.8C26.3999 93 26.4999 93.2 26.4999 93.5C26.1999 93.2 25.7999 93.1 25.4999 92.9C25.2999 93.3 24.8999 93.2 24.6999 93.6C24.5999 93.3 25.2999 92.8 24.4999 92.7C24.4999 92.7 24.3999 92.7 24.2999 92.7C24.0999 92.7 23.8999 92.6 23.6999 92.7C23.7999 92.3 23.8999 91.9 24.3999 92C24.3999 91.9 24.3999 91.7 24.3999 91.6C24.3999 91.5 24.3999 91.1 24.7999 91.3C24.8999 91.3 25.0999 91.3 25.1999 91.1C25.3999 90.8 25.5999 90.7 25.7999 90.5C25.9999 90.5 26.1999 90.2 25.7999 90.1H25.5999C25.2999 90.1 25.5999 89.9 25.5999 89.8C25.5999 89.8 25.5999 89.7 25.5999 89.6C25.5999 89.4 25.4999 89.3 25.2999 89.3C25.0999 89.3 24.8999 89.3 24.6999 89.1C24.3999 88.9 24.2999 89 24.2999 89.4C24.2999 89.9 24.1999 90.2 23.5999 90.2C23.2999 90.2 22.9999 90.3 22.6999 90.5C22.1999 90.5 22.0999 90.8 22.0999 91.3C22.0999 91.9 21.8999 92.3 21.2999 92.5C21.1999 92.5 20.7999 93.6 20.8999 93.7C20.9999 93.8 21.1999 93.8 21.2999 93.7C21.4999 93.7 21.5999 93.5 21.7999 93.5C22.0999 93.5 21.8999 94.1 22.3999 93.8C22.6999 93.6 22.7999 93.3 22.6999 92.9C22.6999 93.1 22.8999 93.2 23.0999 93.3C22.9999 93.5 22.6999 93.6 22.6999 93.8C22.6999 94 22.7999 94.1 22.9999 94.2C23.2999 94.3 23.5999 94.2 23.8999 94.2C24.0999 94.2 24.3999 94.2 24.1999 94.6V94.7C24.4999 94.7 24.7999 94.9 25.0999 94.7C25.2999 94.5 25.1999 94.7 25.1999 94.7C25.1999 94.8 25.1999 95 24.9999 95C24.7999 95 24.6999 95 24.5999 94.9C24.4999 94.8 24.3999 94.8 24.1999 94.9C23.9999 95.1 23.8999 95.3 23.7999 95.5C23.7999 95.5 23.7999 95.6 23.7999 95.7C23.7999 96.1 23.5999 96.5 23.0999 96.7C22.8999 96.7 22.7999 96.9 22.8999 97.1C22.7999 97.1 22.5999 97.3 22.4999 97.3C22.1999 97.3 22.4999 96.9 22.1999 96.9C21.8999 96.9 21.5999 96.9 21.5999 97.4C21.5999 97.5 21.5999 97.7 21.3999 97.7C21.1999 97.7 20.9999 97.5 20.9999 97.5C20.9999 97 20.5999 96.4 20.9999 95.9C20.7999 95.3 20.7999 95.3 20.0999 95.5C19.9999 95.5 19.7999 95.5 19.7999 95.5C19.5999 95.2 19.0999 95.2 18.8999 94.8C18.6999 94.4 18.1999 94.4 17.7999 94.6C17.7999 94.8 17.6999 94.9 17.5999 95.1C17.3999 95.1 17.2999 95.4 17.1999 95.6C17.1999 95.7 17.3999 95.8 17.3999 95.9C17.1999 96.1 16.9999 95.8 16.8999 95.9C17.0999 96.1 17.0999 96.4 17.4999 96.5C17.6999 96.5 17.7999 96.7 17.8999 96.4C17.8999 96.2 18.0999 96.4 18.1999 96.4C18.4999 96.7 18.7999 96.9 19.1999 96.6C19.3999 96.4 19.5999 96.6 19.5999 96.9C19.5999 97.2 19.5999 97.4 19.8999 97.4C19.8999 97.4 19.8999 97.4 19.9999 97.4C20.2999 97.9 19.5999 98.1 19.6999 98.5C19.6999 98.5 19.2999 98.7 19.1999 98.3C18.9999 98.2 18.9999 98.5 18.8999 98.5C18.6999 98.8 18.5999 99 18.6999 99.4C18.6999 99.5 18.6999 99.7 18.5999 99.7C18.3999 100 18.5999 100.1 18.7999 100.1C19.2999 100 19.8999 100.3 20.0999 99.6C20.3999 100.1 20.5999 100.1 21.0999 99.6C21.0999 100.1 20.3999 100.6 19.8999 100.3C19.5999 100.1 19.2999 100 18.8999 100.1C18.6999 100.1 18.5999 99.9 18.3999 100C17.9999 99.8 17.6999 100 17.2999 99.9H17.0999C17.2999 100.5 16.7999 100.4 16.4999 100.4C16.4999 100.4 16.2999 100.4 16.1999 100.4C15.8999 100.4 15.4999 100.4 15.3999 100.7C15.3999 101.1 15.8999 101.7 16.1999 101.7C16.6999 101.7 17.1999 101.8 17.6999 101.7C17.8999 101.7 18.1999 101.7 17.9999 102.1C17.7999 102.4 17.4999 102.6 17.1999 102.8C17.0999 102.8 16.8999 102.9 17.0999 103.2C17.2999 103.5 17.3999 103.3 17.4999 103.2C17.6999 103.2 17.7999 102.9 17.8999 103.1C17.9999 103.2 18.2999 103.1 18.2999 103.3C18.2999 103.4 18.2999 103.5 18.0999 103.5C17.8999 103.5 17.6999 103.7 17.6999 103.4C17.6999 103.4 17.5999 103.2 17.4999 103.4C17.0999 104 16.5999 103.6 15.8999 103.6C16.4999 104.1 16.1999 104.3 15.8999 104.5C16.5999 104.5 16.8999 105.4 17.7999 104.9C17.6999 105.3 17.3999 105.3 17.2999 105.7C17.2999 106.1 17.0999 106.4 17.4999 106.7C17.8999 106.9 17.7999 107.1 17.4999 107.4C17.8999 107.5 17.9999 107 18.2999 107.1C18.5999 107.6 17.7999 107.7 17.9999 108.2C18.5999 107.8 19.1999 107.7 19.7999 107.7C19.7999 107.7 19.9999 107.7 19.9999 107.5C19.9999 107 19.5999 106.8 18.9999 106.8C18.9999 106.8 18.9999 106.8 18.7999 106.8C18.7999 106.8 18.7999 106.8 18.8999 106.8C19.0999 106.8 19.1999 106.7 19.0999 106.5C18.9999 106.2 18.7999 106.2 18.3999 106.2C18.5999 106.1 18.7999 106 18.9999 106C19.5999 106 19.9999 105.5 19.9999 104.9C19.9999 104.7 19.9999 104.6 19.7999 104.6C19.4999 104.6 19.7999 104.4 19.7999 104.3C19.7999 104.2 19.8999 104.1 20.0999 104.3C20.4999 104.6 20.8999 104.3 20.8999 103.9C20.8999 103.9 20.8999 103.8 20.8999 103.7C20.8999 103.1 20.8999 102.5 21.3999 102C21.3999 101.8 21.3999 101.6 21.3999 101.4C21.5999 101.8 21.7999 101.7 22.0999 101.7C22.1999 101.7 22.3999 101.7 22.4999 101.5C22.4999 101.4 22.4999 101.3 22.4999 101.2C22.4999 101.1 22.2999 100.9 22.4999 100.8C22.5999 100.8 22.6999 100.8 22.7999 100.8C22.9999 100.8 22.9999 101 22.8999 101.2V101.4C22.8999 101.4 22.8999 101.4 22.9999 101.5C23.1999 101.6 23.3999 101.3 23.4999 101.5C23.4999 101.6 23.8999 101.5 23.5999 101.8C23.3999 102 23.3999 101.9 23.1999 101.8C23.1999 101.8 23.0999 101.8 22.9999 101.8C22.7999 101.8 22.5999 101.8 22.3999 101.8C22.1999 101.8 21.9999 101.6 21.7999 101.8C21.6999 102 21.9999 102.2 21.9999 102.4C21.9999 102.4 21.9999 102.4 21.9999 102.5C22.1999 102.7 22.3999 102.5 22.4999 102.5C22.6999 102.5 22.8999 102.5 23.0999 102.5C23.3999 102.6 23.0999 102.8 23.0999 103C23.0999 103.3 23.4999 103.3 23.4999 103.6C23.4999 103.6 23.5999 103.8 23.6999 103.8C23.9999 104 24.1999 104.3 24.5999 104.2C24.8999 104.2 25.2999 104.2 25.4999 104.5C25.4999 104.6 25.6999 104.5 25.7999 104.4C25.7999 104.2 25.8999 104.4 25.9999 104.4C26.3999 104.7 26.3999 105.1 26.4999 105.5C27.0999 105.9 27.1999 105.9 27.4999 105.5C27.4999 105.3 27.2999 105.2 27.2999 105C27.2999 104.9 27.3999 104.8 27.4999 104.7C27.5999 104.5 27.6999 104.4 27.7999 104.2C27.7999 104 27.8999 103.8 27.7999 103.6C27.5999 103.3 28.0999 103.6 27.9999 103.3C27.9999 103.1 27.5999 103.1 27.5999 102.9C27.7999 103.1 28.0999 103.3 28.0999 103.7C28.0999 103.7 28.0999 103.9 28.2999 103.9C28.3999 103.9 28.4999 103.9 28.5999 103.7C28.5999 103.5 28.5999 103.4 28.6999 103.1C28.8999 103.3 28.9999 103.4 29.1999 103.1C28.9999 103.4 28.4999 103.6 28.7999 104.1C28.8999 104.3 29.0999 104.1 29.2999 104.1C29.2999 104.3 29.2999 104.5 29.2999 104.6C29.2999 104.7 29.1999 104.9 28.8999 104.8C28.4999 104.6 28.2999 104.8 28.1999 105.3C28.3999 105.6 27.9999 105.6 27.9999 105.7C27.8999 105.9 27.7999 106.1 27.5999 106.3C27.4999 105.6 26.9999 105.9 26.5999 105.8C25.9999 106 26.0999 105.5 25.8999 105.2C25.5999 105 25.2999 105 24.9999 104.8C24.8999 104.6 24.5999 104.7 24.4999 104.9C24.4999 105.1 24.1999 105.4 24.5999 105.5C24.7999 105.7 24.4999 105.7 24.4999 105.8C24.3999 106 24.1999 105.8 23.9999 105.8C24.4999 105.2 23.7999 105 23.5999 104.6C23.2999 104.1 22.6999 104.1 22.1999 104C21.6999 103.9 21.3999 104 21.3999 104.6C21.3999 104.7 21.3999 104.9 21.3999 105C21.2999 105.3 21.3999 105.4 21.6999 105.4C22.0999 105.4 22.3999 105.4 22.2999 105.9C22.2999 106.1 22.2999 106.2 22.5999 106.2C22.7999 106.2 22.8999 106.2 23.0999 106.4C23.2999 106.6 23.4999 106.5 23.6999 106.6C23.4999 106.6 23.2999 106.8 22.9999 106.8C22.7999 106.8 22.6999 106.9 22.5999 107.1C22.5999 107.3 22.5999 107.4 22.7999 107.4C22.6999 107.4 22.4999 107.4 22.3999 107.4C22.1999 107.4 22.0999 107.6 21.8999 107.6C21.6999 107.6 21.3999 107.8 21.6999 108.1C21.8999 108.2 21.8999 108.4 21.8999 108.6C21.8999 108.9 21.8999 109.1 21.4999 109C21.2999 109 20.9999 109 20.7999 108.9C20.2999 108.9 19.8999 108.7 19.3999 108.9C19.3999 109.4 19.1999 109.6 18.6999 109.5C18.4999 109.5 18.1999 109.3 18.0999 109.6C18.0999 110 18.4999 110.1 18.8999 110.2C18.4999 110.6 18.1999 110.2 17.7999 110.2C17.1999 110.1 16.6999 110.4 16.3999 111.1C16.3999 111.2 16.3999 111.5 16.3999 111.4C16.8999 111.3 16.7999 111.7 16.9999 111.9C17.0999 111.9 17.1999 111.9 17.1999 111.9C17.3999 112 17.5999 111.9 17.6999 111.9C17.8999 111.8 17.6999 111.7 17.6999 111.6C17.6999 111.5 17.5999 111.3 17.7999 111.3C17.9999 111.5 18.3999 111.3 18.3999 111.7C18.3999 112.1 17.9999 111.8 17.7999 111.9C17.7999 112.2 17.4999 112.2 17.4999 112.5C17.8999 113.1 17.2999 113 16.9999 113.1C17.3999 113.5 17.7999 113.2 18.1999 113.3C18.2999 113.3 18.4999 113.3 18.4999 113.4C18.4999 113.4 18.4999 113.5 18.4999 113.6C18.3999 113.7 18.2999 113.6 18.0999 113.6C17.9999 113.6 17.8999 113.6 17.7999 113.5C17.9999 113.9 17.9999 113.9 17.1999 114C17.3999 114.2 17.5999 114.2 17.7999 114.1C18.1999 114.1 18.3999 114.4 18.5999 114.6C18.6999 114.7 18.5999 114.8 18.4999 114.9C18.2999 115.1 18.0999 114.9 17.8999 114.8C17.7999 114.8 17.8999 114.4 17.5999 114.6C17.4999 114.7 17.3999 115 17.5999 115.2C17.7999 115.6 18.1999 115.8 18.4999 116.2C18.6999 116.5 18.8999 116.5 19.1999 116.3C19.1999 116.3 19.1999 116.3 19.2999 116.2C19.2999 116 19.2999 115.7 19.6999 115.8C19.8999 115.8 19.9999 115.7 20.0999 115.5C20.0999 115.3 20.1999 115 19.9999 114.9C19.7999 114.9 19.5999 115 19.3999 114.9C19.2999 114.8 18.9999 114.7 18.9999 114.5C18.9999 114.3 19.2999 114.2 19.5999 114.3H19.7999C19.8999 114.3 20.0999 114.3 20.1999 114.1C20.1999 114 20.1999 113.9 19.9999 113.9C19.7999 113.6 20.0999 113.8 20.1999 113.7C20.3999 113.7 20.4999 113.7 20.6999 113.6C21.0999 113.4 21.1999 112.9 20.8999 112.5C20.7999 112.4 20.4999 112.4 20.7999 112.1C20.9999 112 20.5999 111.9 20.5999 111.7C20.8999 111.7 20.7999 112.2 21.0999 112.2C21.2999 112.2 21.5999 112.2 21.7999 112.4C22.0999 112.6 22.0999 113.1 22.7999 113.1C22.2999 113.2 22.0999 112.6 21.7999 113.1C21.7999 113.1 21.7999 113.2 21.5999 113.2C21.4999 113.2 21.3999 113.2 21.3999 113.3C21.1999 113.7 20.7999 113.9 20.4999 114.1C20.2999 114.4 20.1999 114.6 20.4999 114.9C20.6999 115.1 20.6999 115.4 20.5999 115.6C20.5999 115.8 20.5999 116.1 20.8999 116.3C20.8999 116.3 20.9999 116.5 21.0999 116.5C21.3999 116.6 21.3999 116.4 21.3999 116.2C21.5999 115.6 21.8999 116.1 22.0999 116.2C22.3999 116.6 22.6999 116.5 22.9999 116.2C23.2999 116 23.5999 115.9 23.8999 116.2C24.0999 116.4 24.0999 116.6 23.8999 116.7C23.6999 116.7 23.2999 116.7 23.1999 117C23.1999 117.4 23.1999 117.7 23.4999 118C23.6999 118.2 23.6999 118.4 23.5999 118.7C23.4999 119 23.5999 119.2 23.8999 119.3C23.4999 119.6 23.1999 119.8 22.6999 119.8C21.8999 119.8 21.2999 120.1 20.7999 120.6C20.5999 120.8 20.5999 121.2 20.1999 121.4C19.7999 121.6 19.4999 121.8 18.9999 121.4C18.7999 121.2 18.5999 121.4 18.5999 121.6C18.5999 122 18.1999 121.8 17.9999 121.8C17.7999 121.8 17.6999 121.7 17.4999 121.8C17.1999 122.3 16.5999 122.4 16.0999 122.6C15.7999 122.6 15.4999 122.8 15.3999 123.2C15.2999 123.7 14.8999 123.7 14.3999 123.7C14.6999 123.9 14.8999 123.9 15.0999 123.8C15.5999 123.6 15.8999 123.7 16.1999 124.2C16.2999 124.3 16.5999 124.4 16.7999 124.3C17.3999 124.2 17.1999 124.8 17.4999 125V125.1C16.7999 124.9 16.8999 125.7 16.4999 125.9C16.2999 125.9 16.4999 126.6 16.4999 126.8C16.6999 127.1 16.8999 126.8 17.0999 126.6C17.0999 126.6 17.0999 126.4 17.2999 126.5C17.5999 126.7 17.9999 126.9 18.2999 127C18.4999 127.1 18.7999 127 18.8999 127.3C18.8999 127.5 19.3999 127.5 19.4999 127.1C19.4999 127.1 19.4999 127 19.4999 126.9C19.3999 127.4 19.6999 127.5 19.9999 127.6C19.9999 127.5 20.1999 127.3 20.3999 127.4C20.4999 127.4 20.6999 127.6 20.5999 127.8C20.5999 127.8 20.5999 127.9 20.5999 128C20.5999 128 20.6999 128 20.7999 128C20.9999 127.8 21.0999 127.6 21.2999 127.4C21.5999 127 22.0999 126.9 22.2999 126.5C22.2999 126.4 22.4999 126.4 22.6999 126.5C22.8999 126.5 23.0999 126.5 23.1999 126.3C23.0999 126.6 22.7999 126.6 22.5999 126.6C22.3999 126.6 22.2999 126.6 22.2999 126.9C22.2999 127.1 22.4999 127.1 22.5999 127.1C22.5999 127.1 22.8999 127.1 22.7999 127.2C22.5999 127.7 22.3999 128.2 22.0999 128.7C21.8999 129 21.6999 128.7 21.3999 128.7C21.1999 128.7 21.0999 128.7 20.8999 128.7C20.7999 128.7 20.6999 128.7 20.6999 128.6C20.6999 128.4 20.5999 128.4 20.4999 128.6C20.2999 129.1 19.7999 129.1 19.3999 129.3C19.3999 129.5 20.4999 129.7 19.3999 129.8C19.2999 129.8 19.3999 129.9 19.3999 130C19.5999 130 19.4999 130.4 19.5999 130.3C19.6999 130.1 19.9999 130.3 19.9999 130.1C19.9999 129.5 20.3999 129.3 20.8999 129.2C20.9999 129.4 20.9999 129.7 21.3999 129.5C21.6999 129.4 21.6999 129.6 21.6999 129.9C21.4999 130.4 21.1999 130.6 20.6999 130.6C20.6999 130.8 20.3999 130.9 20.6999 131C21.1999 131 21.1999 131.3 20.9999 131.6C20.0999 133.3 19.4999 135.1 18.6999 136.9C18.3999 137.5 18.0999 138.1 17.7999 138.8C17.4999 139.6 17.5999 139.6 18.4999 139.8C18.5999 139.8 18.6999 139.7 18.6999 139.5C18.6999 139.2 18.6999 139.1 18.2999 139.1C18.7999 138.5 18.7999 137.7 19.3999 137.1C19.1999 137.7 18.5999 138.1 18.8999 138.8C18.8999 138.8 18.9999 138.8 19.0999 138.8C19.5999 138.4 19.8999 137.9 20.3999 137.5C20.5999 137.5 20.5999 136.8 20.9999 137.3C20.9999 137.3 21.1999 137.3 21.1999 137.2C20.7999 136.5 21.4999 136.1 21.6999 135.7C21.8999 135.9 21.5999 136 21.6999 136.3C21.8999 136 22.3999 136.3 22.5999 135.9C20.8999 139.4 19.1999 142.9 17.3999 146.3C17.3999 146.3 17.3999 146.5 17.3999 146.6C17.5999 146.6 17.6999 146.5 17.7999 146.4C18.3999 146 18.4999 145.3 18.8999 144.8C19.6999 143.5 20.4999 142.1 21.0999 140.8C21.5999 139.9 22.0999 139 22.5999 138.1C22.6999 138 22.7999 137.8 22.8999 137.7C23.4999 136.8 23.7999 135.8 24.2999 134.8C24.3999 134.6 24.4999 134.3 24.8999 134.3C24.5999 134.7 24.6999 135.3 24.0999 135.6C23.8999 135.7 23.9999 136 24.0999 136.2C24.2999 136.4 24.4999 136.2 24.6999 136C24.3999 136.4 24.3999 137 23.7999 137.2C23.5999 137.2 23.7999 137.5 23.7999 137.6C24.0999 138.1 24.0999 138.6 23.7999 139C23.7999 139 23.7999 139.1 23.7999 139.2C23.9999 139.2 24.0999 139.2 24.1999 139.2C24.3999 139 24.5999 138.6 24.8999 138.5C24.6999 138.7 24.6999 138.9 24.8999 138.9C25.4999 139 25.0999 139.2 24.8999 139.4C24.3999 139.4 23.8999 139.7 23.3999 139.4C23.1999 139.4 23.1999 139.6 23.0999 139.7C22.8999 140 23.1999 140.5 22.6999 140.6C22.6999 140.6 22.6999 140.8 22.4999 140.6C22.0999 140.1 22.0999 140.5 21.9999 140.8C21.9999 140.9 21.9999 141 21.9999 141.1C21.9999 141.5 22.1999 141.6 22.5999 141.6C23.2999 141.6 23.2999 140.9 23.6999 140.4C23.8999 141 23.6999 141.6 23.1999 141.8C22.9999 141.9 22.8999 142.1 23.0999 142.3C23.2999 142.6 23.1999 142.8 23.0999 143C22.6999 143.4 22.4999 143.9 22.3999 144.4C22.2999 144.8 21.9999 145.1 21.8999 145.5C21.8999 145.7 21.7999 145.9 21.9999 146C22.2999 146 22.3999 145.7 22.4999 145.4C22.9999 144.5 23.5999 143.6 24.0999 142.7C24.0999 142.7 24.0999 142.6 24.1999 142.7C23.6999 143.3 23.4999 144.1 23.0999 144.7C23.0999 144.7 23.0999 144.9 23.0999 145C23.3999 145.3 23.4999 145 23.5999 144.8C23.9999 144.1 24.4999 143.5 24.8999 142.9C25.0999 142.7 24.9999 142.2 25.4999 142.3H25.6999C25.9999 142.3 25.9999 141.8 26.2999 141.6C26.2999 141.6 26.2999 141.5 26.2999 141.4C26.2999 141.4 26.2999 141.5 26.1999 141.6C26.0999 141.8 25.9999 142 26.1999 142C26.4999 142 26.3999 142.2 26.3999 142.4C26.1999 143.3 25.8999 144.2 25.6999 145.1C25.5999 145.7 25.0999 146.1 25.0999 146.7C25.0999 146.8 24.9999 146.9 24.7999 146.9C24.3999 146.9 24.2999 147.2 24.2999 147.5C24.2999 147.8 24.2999 148 24.2999 148.3C24.2999 149.1 23.7999 149.6 22.9999 149.7C22.8999 149.7 22.6999 149.7 22.6999 149.7C22.2999 149.2 21.8999 149.5 21.4999 149.7C21.2999 149.7 21.1999 149.8 21.1999 149.6C21.0999 149.2 20.8999 149.3 20.6999 149.6C20.4999 149.9 20.2999 150.3 20.1999 150.6C20.1999 150.7 20.3999 150.9 20.0999 150.9C19.6999 151.5 19.2999 152.1 18.9999 152.8C18.9999 153 18.8999 153.1 18.6999 153.2C18.6999 153.1 18.8999 153 18.8999 152.9C18.9999 152.1 19.5999 151.5 19.8999 150.8C20.0999 150.4 20.4999 150 20.3999 149.5C20.3999 149.5 20.3999 149.4 20.1999 149.3C19.5999 149.9 19.1999 150.6 18.6999 151.3C18.4999 151.6 18.3999 151.9 18.0999 152.1C17.7999 152.2 18.0999 152.5 18.0999 152.6C18.2999 153 17.7999 153.1 17.6999 153.3C17.3999 153.7 17.0999 154.1 16.8999 154.6C16.6999 155 16.3999 155.4 15.9999 155.5C15.6999 155.5 15.6999 155.8 15.8999 156C16.1999 156.4 16.0999 156.8 15.5999 156.9C15.1999 157 14.8999 157.1 14.9999 157.7C14.9999 157.8 14.9999 157.9 14.7999 157.9C14.5999 157.9 14.3999 158 14.1999 158C13.5999 158 13.5999 158 13.8999 158.6C13.7999 158.6 13.5999 158.6 13.4999 158.6C13.3999 158.6 13.4999 158.8 13.3999 158.9C13.1999 159.1 13.3999 159.4 13.1999 159.6L13.2999 159.8C13.6999 159.6 13.5999 160.1 13.7999 160.2C13.5999 160.4 13.3999 160.1 13.1999 160.2C13.3999 160.4 13.5999 160.5 13.1999 160.6C12.9999 160.6 13.1999 160.7 13.1999 160.8C13.3999 161.3 12.9999 161.4 12.6999 161.5C12.6999 161.5 12.6999 161.5 12.5999 161.6C12.5999 161.7 12.5999 161.8 12.7999 161.8C12.2999 162.3 12.2999 163.1 11.7999 163.5C11.4999 164.1 11.0999 164.7 10.8999 165.4C10.8999 165.5 10.8999 165.6 10.8999 165.7C11.3999 165.5 11.4999 165.1 11.6999 164.7C11.8999 164.4 12.1999 164.1 12.3999 163.7C12.5999 164 12.7999 164 12.9999 163.7C13.0999 163.5 13.1999 163.2 13.3999 163C13.5999 162.8 13.6999 162.7 13.8999 163C14.0999 163.2 14.1999 163.3 13.8999 163.5C13.5999 163.8 13.4999 164.3 12.9999 164.4C12.7999 164.4 12.7999 164.6 12.9999 164.8C13.3999 165.1 13.8999 165.2 14.3999 164.9C14.5999 164.8 14.7999 164.8 15.0999 164.8C15.4999 164.8 15.7999 164.8 15.9999 164.3C16.1999 163.9 16.3999 163.6 16.5999 163.3C16.2999 163.8 15.9999 164.1 15.8999 164.6C16.0999 164.9 16.0999 164.9 16.3999 164.4C16.7999 163.8 17.0999 163.3 17.6999 162.8C17.6999 163.6 17.1999 164 16.8999 164.6C16.3999 165.1 15.8999 165.7 15.2999 166.2C15.2999 166.2 15.2999 166.2 15.1999 166.3C15.0999 166.4 14.8999 166.5 14.8999 166.7C14.6999 167.3 14.3999 167.8 13.9999 168.2C13.9999 168.2 13.7999 168.3 13.7999 168.4C13.7999 168.4 13.7999 168.4 13.7999 168.5C13.7999 168.7 13.6999 168.8 13.5999 168.9C13.5999 168.9 13.5999 169 13.5999 169.1C13.9999 169.3 13.5999 169.5 13.5999 169.7C13.4999 169.8 13.4999 170 13.2999 170.2C12.7999 170.6 12.7999 170.7 13.3999 171C12.8999 171 12.5999 171.3 12.3999 171.7C12.2999 171.8 12.0999 171.9 12.0999 172.2C12.3999 172.6 12.8999 172.5 13.2999 172.5C13.4999 172.5 13.5999 172.3 13.4999 172.1C13.1999 171.3 13.8999 171.7 14.0999 171.4C14.1999 171.7 14.0999 171.8 13.9999 171.9C13.9999 171.9 13.7999 172.1 13.7999 172.2C14.0999 172.6 13.5999 172.6 13.4999 172.8C13.3999 173 13.2999 173.1 13.1999 173.3C13.1999 173.6 12.9999 173.9 13.2999 174.1C13.6999 174.1 13.7999 173.7 13.9999 173.5C13.9999 173.4 14.1999 173.4 14.2999 173.5C15.0999 173.7 15.6999 173.5 15.8999 172.6C15.8999 172.3 16.3999 172.4 16.5999 172.2C16.5999 172.2 16.7999 172.1 16.8999 172.1C17.7999 171.9 17.7999 171.8 17.2999 171.1C17.2999 170.7 17.6999 170.8 17.7999 170.7C17.8999 170.7 17.9999 170.5 18.0999 170.3C18.1999 170.2 18.2999 169.9 18.4999 170C18.6999 170 18.6999 170.3 18.7999 170.5C18.7999 170.5 18.7999 170.5 18.7999 170.6C18.7999 170.6 18.9999 170.6 19.0999 170.6C19.4999 170.9 19.6999 170.8 19.7999 170.4C19.7999 170.2 19.7999 170 19.7999 169.9C19.7999 169.8 19.8999 169.6 19.9999 169.6H20.1999C20.1999 169.7 20.1999 169.9 20.1999 170C19.8999 170.3 19.6999 170.6 19.5999 171.1C19.5999 171.4 19.3999 171.6 19.0999 171.7C18.7999 171.9 18.6999 172.1 18.7999 172.5C18.7999 172.8 18.7999 173 18.6999 173.2C18.6999 173.2 18.6999 173.3 18.4999 173.4C18.1999 173.9 17.7999 174.3 17.6999 174.9C17.5999 175.3 17.2999 175.7 16.7999 175.6C16.4999 175.6 16.2999 175.6 16.2999 176C16.2999 176.3 16.5999 176.3 16.7999 176.3C17.0999 176.3 17.2999 176.4 17.3999 176.8C17.5999 177.2 17.7999 177.6 17.9999 178C18.2999 178.6 19.4999 178.5 19.8999 178C19.8999 178 19.8999 177.9 20.0999 177.9C20.0999 178 20.0999 178.1 19.9999 178.1C19.9999 178.1 19.9999 178.2 19.9999 178.3C19.9999 178.6 20.2999 178.6 20.3999 178.8C20.3999 179 20.1999 179.1 20.1999 179.3C20.1999 179.6 20.1999 179.9 20.6999 179.6C20.2999 180.3 19.9999 181 19.7999 181.7C19.6999 182.2 19.7999 182.2 20.1999 182.3C20.1999 182.3 20.1999 182.4 20.0999 182.4C19.6999 182.4 19.3999 182.6 19.7999 183.1V183.3C19.7999 183.7 20.0999 183.7 20.2999 183.8C20.2999 184 20.2999 184.1 20.2999 184.3C20.2999 184.5 20.4999 184.7 20.2999 185C20.0999 185.2 20.2999 185.5 20.5999 185.7C20.9999 185.7 21.0999 185.2 21.2999 184.9C21.5999 185.5 20.6999 185.7 20.9999 186.2C20.4999 186.4 20.2999 187 19.8999 187.2C19.8999 187.1 20.1999 187 20.2999 186.8C20.5999 186.5 20.5999 186.3 20.2999 186C19.9999 185.9 19.8999 186 19.7999 186.3C19.5999 186.2 19.4999 185.9 19.1999 186.2C18.9999 186.4 18.8999 186.6 18.9999 186.9C19.0999 187.2 18.9999 187.4 18.5999 187.4C18.2999 187.4 17.9999 187.7 17.7999 187.4C17.6999 187.1 18.0999 187 18.2999 186.9C18.4999 186.8 18.6999 186.7 18.5999 186.5C18.5999 185.8 18.9999 185.5 19.3999 185.1C19.3999 185.1 19.4999 185 19.4999 184.9C19.4999 184.7 19.5999 184.5 19.6999 184.4C19.6999 184.2 19.9999 183.9 19.6999 183.7C19.6999 183.3 19.4999 183 18.8999 183C19.5999 182.7 19.4999 182.1 19.6999 181.7C19.8999 181.3 19.9999 181 19.6999 180.6C19.6999 180.6 19.4999 180.5 19.3999 180.6C19.1999 180.8 19.0999 181 19.0999 181.3C19.0999 181.5 18.9999 181.7 18.7999 181.8C18.6999 181.5 18.7999 181.2 18.7999 180.9C18.7999 180.5 18.7999 180.2 18.3999 180C18.6999 179.7 18.9999 179.8 19.2999 179.6C19.4999 179.5 19.6999 179.4 19.5999 179.1C19.5999 178.9 19.2999 178.9 19.1999 178.9C18.4999 178.7 17.8999 179.1 17.2999 179.4C17.0999 179.4 17.0999 179.6 17.0999 179.8C17.0999 180 17.2999 180.1 17.5999 180.1C17.0999 180.1 16.7999 180.3 16.4999 180.5C16.4999 180.5 16.4999 180.5 16.4999 180.6C15.6999 181 15.6999 181.9 15.2999 182.6C15.2999 182.7 15.1999 182.8 14.9999 182.9C14.6999 182.9 14.3999 183.1 14.1999 183.3C13.8999 183.4 13.7999 183.6 14.1999 183.8H14.3999C14.4999 184.6 15.3999 184.3 15.7999 184.7C15.4999 185.3 15.1999 185.8 14.4999 186C13.8999 186.1 13.5999 186.6 13.2999 187C13.2999 187.4 13.6999 187.3 13.9999 187.3C14.0999 187.3 14.1999 187.5 14.3999 187.5C14.7999 187.5 14.5999 187.7 14.3999 187.8C14.3999 187.8 14.3999 187.9 14.3999 188C14.3999 188.2 14.5999 188.3 14.7999 188.3C14.7999 188.3 14.8999 188.3 14.9999 188.3C14.9999 188.3 14.9999 188.2 15.1999 188.3C15.1999 188.3 15.1999 188.4 15.1999 188.5C15.1999 188.6 15.1999 188.6 15.1999 188.7C15.1999 188.9 14.9999 189.2 15.3999 189.3C15.7999 189.3 15.6999 189 15.7999 188.8C15.9999 188.8 16.1999 188.4 16.2999 188.8C16.3999 188.9 16.4999 189.1 16.6999 189C16.9999 188.8 16.9999 188.9 16.8999 189.2C16.8999 189.2 16.6999 189.3 16.8999 189.5C16.9999 189.5 17.1999 189.1 17.3999 189.5C17.3999 189.7 17.5999 189.5 17.6999 189.5C17.3999 189.1 17.9999 189.1 17.9999 188.8C17.9999 188.7 18.1999 188.5 18.3999 188.5C18.5999 189 18.0999 189.3 17.8999 189.6C17.9999 189.6 18.0999 189.6 18.2999 189.7C18.2999 189.7 18.5999 189.7 18.4999 190C18.3999 190.2 18.1999 190 18.1999 190C17.9999 189.9 17.7999 189.6 17.5999 190C17.7999 190.3 17.9999 190.7 17.6999 191C17.3999 191.4 17.6999 191.4 17.8999 191.5C17.9999 191.5 18.1999 191.5 18.2999 191.5C18.3999 191.5 18.5999 191.5 18.5999 191.3C18.5999 191 18.2999 191.4 18.1999 191.3C18.1999 191 18.5999 190.9 18.6999 190.7C18.7999 190.8 18.9999 190.7 18.9999 190.7C18.9999 190.2 19.3999 189.9 19.4999 189.5C19.4999 189.4 19.5999 189.3 19.4999 189.2C19.3999 188.9 19.3999 188.9 19.6999 188.8C19.6999 189 19.4999 189.2 19.6999 189.3C19.7999 189.3 19.6999 189.5 19.6999 189.5C19.0999 189.7 19.1999 190.2 19.0999 190.6C18.9999 190.9 18.8999 191 18.5999 190.9C18.6999 191 18.4999 191.3 18.8999 191.3C19.0999 191.3 18.7999 191.5 18.8999 191.7H19.0999C19.0999 191.7 19.0999 191.5 19.3999 191.5C19.0999 191.9 19.0999 192.3 19.1999 192.7C18.9999 192.8 18.7999 192.9 18.7999 193.2C18.7999 193.2 18.7999 193.2 18.7999 193.3C18.6999 193.6 18.7999 193.5 18.9999 193.5C18.7999 193.7 18.6999 193.9 18.5999 194.3C18.5999 194.7 17.9999 194.9 18.0999 195.4C18.0999 195.5 18.0999 195.6 18.1999 195.6C18.5999 195.3 18.7999 194.9 19.0999 194.5C18.5999 195.2 18.0999 196 17.6999 196.8C17.6999 197.1 17.6999 197.4 17.2999 197.5C17.2999 197.5 17.0999 197.6 17.0999 197.7C16.9999 198.8 16.0999 199.3 15.5999 200.1C15.3999 200.4 15.1999 200.7 14.9999 201C14.7999 201.3 14.7999 201.3 14.9999 201.6C15.1999 201.8 14.9999 201.9 14.8999 202C14.3999 202.6 13.9999 203.3 13.4999 203.9C13.2999 204.2 13.2999 204.6 13.0999 204.8C13.2999 205.1 13.3999 205.1 13.6999 204.8C13.8999 204.8 13.8999 204.5 14.0999 204.4C14.9999 204.1 15.3999 203.6 15.9999 202.7C16.4999 201.9 17.0999 201.1 17.8999 200.5C17.6999 200.8 17.4999 201.1 17.2999 201.4C17.2999 201.4 17.1999 201.6 17.2999 201.7C17.4999 201.7 17.3999 201.7 17.4999 201.5C17.8999 201.1 18.1999 200.7 18.4999 200.3C18.8999 199.9 19.1999 199.4 19.4999 198.9C19.6999 198.9 19.7999 198.7 19.8999 198.6C20.1999 198.3 20.2999 197.8 20.8999 197.7C21.1999 197.7 21.3999 197.2 21.5999 197C21.5999 197.7 21.0999 198 20.6999 198.5C20.4999 198.7 20.3999 198.9 20.3999 199.1C20.6999 199.8 19.8999 200.1 19.7999 200.7C20.2999 200.4 20.3999 199.9 20.7999 199.7C20.6999 200.3 20.1999 200.7 19.9999 201.1C19.7999 201.1 19.7999 201.3 19.6999 201.4C19.3999 202.1 18.7999 202.7 18.3999 203.4C18.1999 203.7 17.9999 203.9 17.7999 204.1C17.7999 204.2 17.7999 204.3 17.8999 204.3C18.8999 203 19.9999 201.8 20.8999 200.4C21.0999 200.6 20.8999 200.7 20.8999 200.9C20.4999 201.7 19.9999 202.5 19.4999 203.2C19.3999 203.4 19.2999 203.6 19.1999 203.8C19.1999 204.3 18.6999 204.7 18.4999 205.2C18.4999 205.3 18.4999 205.4 18.5999 205.4C18.6999 205.4 18.7999 205.4 18.9999 205.4C19.0999 205.4 19.1999 205.3 19.1999 205.1C19.6999 204.4 20.1999 203.7 20.6999 203C21.6999 201.7 22.5999 200.3 23.3999 199C23.8999 198.3 24.2999 197.6 24.5999 197.3C24.1999 197.9 23.5999 198.9 22.9999 199.8C22.8999 200 22.6999 200.2 22.6999 200.5C22.6999 200.7 22.6999 200.8 22.8999 200.6C23.1999 199.9 23.6999 199.3 24.1999 198.7C24.6999 198.2 24.9999 197.6 25.4999 197.1C25.4999 197.1 25.4999 197.1 25.5999 197C25.7999 196.9 25.8999 196.6 26.0999 196.6C26.4999 196.3 26.6999 195.9 26.8999 195.5C27.3999 194.8 27.7999 194 28.3999 193.3C28.5999 193.2 28.6999 193 28.7999 192.8C28.5999 193.1 28.4999 193.3 28.4999 193.6C27.2999 196 25.6999 198.2 24.2999 200.6C24.3999 200.8 24.5999 200.5 24.6999 200.6C24.6999 200.8 24.6999 200.8 24.7999 200.9C24.8999 200.9 24.8999 200.9 24.6999 201.3C24.6999 201.7 24.3999 202 24.1999 202.4C24.1999 202.5 24.1999 202.6 24.0999 202.8C23.5999 203.3 23.2999 203.9 23.0999 204.6C23.2999 204.7 23.3999 204.6 23.6999 204.6C23.2999 205 22.9999 205.4 22.6999 205.9C22.6999 205.9 22.1999 206.1 22.6999 206.2C22.8999 206.2 22.5999 206.6 22.4999 206.7C21.9999 207.3 21.6999 208 21.1999 208.6C20.9999 208.9 20.6999 209.3 20.3999 209.5C20.1999 209.8 20.1999 209.9 20.3999 210.1C20.7999 209.7 20.9999 208.9 21.6999 208.8C20.5999 210.3 19.6999 211.9 18.4999 213.4C18.6999 213.6 18.7999 213.9 18.4999 214.1C18.1999 214.4 18.0999 214.8 17.8999 215C17.3999 215.6 16.9999 216.4 16.2999 216.9C16.4999 217.1 16.5999 216.9 16.6999 216.9C16.8999 216.8 17.0999 216.5 17.3999 216.5C17.4999 216.5 17.6999 216.4 17.7999 216.2C17.9999 215.7 18.4999 215.4 18.8999 215C19.2999 214.5 19.7999 214 20.1999 213.5C19.8999 214 19.2999 214.3 19.3999 214.9C18.5999 216.1 17.4999 217 16.6999 218.1C16.2999 218.8 15.6999 219.4 15.1999 220.1C15.0999 220.2 14.8999 220.4 14.8999 220.6C14.8999 220.8 14.8999 220.8 15.0999 220.8C15.7999 219.9 16.5999 219.1 17.5999 218.5C17.6999 218.3 17.7999 218 18.0999 218.2C18.2999 218.2 18.3999 218.2 18.4999 218C18.9999 217.5 19.5999 217 19.9999 216.4C20.1999 216.3 20.3999 216.1 20.4999 215.9C20.4999 215.9 20.6999 215.8 20.7999 215.7C21.1999 215.2 21.8999 215.2 22.2999 214.7C22.2999 214.7 22.5999 214.7 22.6999 214.7C23.3999 214 24.0999 213.3 24.6999 212.5C24.8999 211.9 25.3999 211.6 25.8999 211.1C26.1999 210.8 26.3999 210.6 26.6999 210.3C27.2999 209.7 27.9999 209.1 28.3999 208.3C28.3999 208.3 28.3999 208.4 28.3999 208.5C28.3999 208.5 28.3999 208.6 28.5999 208.7C29.3999 207.8 29.8999 206.7 30.7999 205.9C30.9999 205.7 30.7999 205.2 31.2999 205.4C31.7999 205.3 31.6999 204.8 31.9999 204.6C31.9999 204.7 31.9999 204.8 31.8999 204.9C31.8999 205 31.6999 205.1 31.8999 205.3C31.9999 205.4 32.1999 205.5 32.2999 205.4H32.3999C32.7999 204.9 33.0999 204.3 33.6999 204.1C33.6999 203.8 33.6999 203.5 33.9999 203.6C34.2999 203.6 34.3999 203.4 34.2999 203.2C34.2999 203.1 34.2999 202.9 34.2999 202.8C34.2999 202.6 34.4999 202.6 34.5999 202.4C34.5999 202.6 34.5999 202.7 34.4999 202.8C34.4999 202.8 34.4999 202.9 34.4999 203C34.4999 203.1 34.4999 203.2 34.6999 203.2C35.1999 203 35.2999 202.5 35.4999 202.2C35.4999 202.2 35.6999 202 35.6999 202.1C35.7999 202.3 35.5999 202.4 35.4999 202.5C35.2999 202.7 35.1999 202.9 35.1999 203.1C35.4999 203.8 35.5999 203.8 35.9999 203.4C35.9999 203.4 35.9999 203.4 36.0999 203.3C36.3999 203.1 36.4999 202.7 36.8999 202.6C36.8999 202.8 36.7999 202.9 36.6999 203.1C36.6999 203.3 36.4999 203.5 36.6999 203.6C36.8999 203.6 36.9999 203.5 37.0999 203.3C37.1999 203 37.3999 202.8 37.4999 202.6C37.5999 202.6 37.5999 202.3 37.7999 202.3C37.9999 202.8 37.8999 203.2 37.6999 203.7C37.5999 204 37.6999 204.4 37.6999 204.7C37.4999 205 37.0999 205.1 37.0999 205.5C37.0999 205.8 37.0999 206 36.8999 206.2C36.6999 206.8 36.2999 207.3 35.9999 207.8C35.9999 208 35.7999 208.2 35.7999 208.4C36.2999 208.8 36.2999 208.2 36.4999 208.1C36.3999 208.3 36.2999 208.5 36.4999 208.7C36.6999 208.9 36.8999 208.7 37.0999 208.7C37.1999 208.7 37.2999 208.5 37.2999 208.3C37.7999 207.9 37.9999 207.3 38.0999 206.7C38.0999 206.4 38.4999 206.1 38.7999 206.1C39.2999 206 39.2999 205.7 39.2999 205.3C39.2999 206.2 38.8999 207 38.3999 207.7C38.3999 207.7 38.3999 207.8 38.3999 207.9C38.7999 208.1 38.7999 208.1 39.1999 207.6C39.1999 207.6 39.1999 207.6 39.1999 207.5C39.3999 207.3 39.3999 207 39.5999 206.8C39.6999 206.7 39.7999 206.5 39.8999 206.4C40.1999 206.1 40.3999 205.8 40.5999 205.5C40.5999 205.5 40.7999 205.3 40.8999 205.2C41.0999 205.5 41.0999 205.8 40.9999 206.1V206.2C41.2999 206.4 41.2999 206.6 41.0999 206.8C40.8999 207 40.7999 207.2 40.7999 207.5C40.7999 207.5 40.7999 207.6 40.8999 207.7C41.1999 207.8 41.2999 208.2 41.6999 208.2C41.6999 208.2 41.7999 208.2 41.8999 208C42.0999 207.4 42.4999 207 42.8999 206.5C42.8999 206.4 43.0999 206.2 43.0999 206.2C42.6999 206.5 42.4999 207.2 42.2999 207.8C42.2999 208.1 41.9999 208.2 41.8999 208.4C41.8999 208.5 41.8999 208.6 41.8999 208.7C42.0999 208.8 42.1999 208.7 42.2999 208.6C42.5999 208.4 42.8999 208.1 43.2999 207.9C43.2999 207.9 43.2999 207.9 43.3999 207.9C43.5999 207.6 43.7999 207.4 43.6999 207C43.6999 207.2 43.6999 207.5 43.4999 208C43.4999 208.3 43.6999 208.4 43.9999 208.4C44.1999 208.4 44.2999 208.3 44.2999 208.1C44.2999 208.1 44.2999 207.9 44.4999 207.9L44.3999 208.1C44.3999 208.1 44.3999 208.2 44.3999 208.3C44.4999 208.6 44.6999 208.6 44.9999 208.4C45.0999 208.2 45.1999 208.1 45.2999 207.9C45.3999 207.6 45.5999 207.5 45.9999 207.4C45.9999 207.5 45.8999 207.6 45.7999 207.7C45.7999 207.8 45.6999 207.9 45.6999 208C45.9999 208.5 46.0999 208.1 46.2999 208C46.2999 207.9 46.3999 207.7 46.4999 207.6C46.4999 207.4 46.7999 207.3 46.9999 207.3C46.9999 207.5 46.9999 207.7 46.7999 207.9C46.7999 208 46.4999 208.2 46.7999 208.3C46.8999 208.4 47.0999 208.3 47.1999 208.3C47.6999 207.9 48.2999 207.8 48.6999 207.3C48.9999 207 49.2999 206.9 49.6999 206.8C49.4999 207.1 49.4999 207.4 49.2999 207.7C49.1999 208 49.2999 208 49.5999 208C49.8999 208 49.9999 207.8 50.0999 207.6C50.1999 207.4 50.2999 207.1 50.3999 207C50.3999 207.2 50.0999 207.4 50.3999 207.6C50.7999 207.4 51.1999 207.2 51.2999 206.8C51.2999 206.8 51.2999 206.8 51.1999 206.7C51.1999 206.7 51.1999 206.7 51.1999 206.8C51.4999 206.8 51.5999 206.7 51.7999 206.6C51.9999 206.5 52.0999 206.6 52.0999 206.8C52.2999 206.9 52.4999 206.9 52.4999 206.7C52.4999 206.3 52.7999 206.4 53.0999 206.3C52.8999 206.5 52.6999 206.6 52.7999 206.8C52.8999 207 53.0999 207 53.1999 206.9C53.6999 206.8 53.5999 207.1 53.4999 207.3C53.2999 207.9 53.4999 208.2 53.9999 208.5C53.9999 208.5 54.0999 208.5 54.1999 208.5C54.1999 208.5 54.3999 208.4 54.3999 208.5C54.2999 208.9 53.9999 209.1 53.8999 209.5C53.8999 209.5 53.8999 209.6 53.8999 209.7C53.8999 209.8 53.8999 210 53.8999 210.1C53.8999 210.3 53.7999 210.5 53.5999 210.6C53.2999 210.9 53.1999 211.2 53.2999 211.5C53.2999 211.9 53.6999 212 53.9999 212.2C53.5999 212.2 53.4999 212 53.2999 212.1C53.2999 212.1 53.2999 212.1 53.1999 212.1C53.1999 212.4 53.5999 212.6 53.5999 212.9C53.5999 213.1 53.3999 213.2 53.5999 213.4H53.7999C53.9999 213.3 54.1999 213.1 54.2999 212.9C54.4999 212.5 54.4999 211.9 55.0999 211.9H55.1999C55.3999 211.7 55.4999 211.5 55.5999 211.3C55.5999 211.1 55.5999 211 55.7999 210.8C55.7999 210.1 56.3999 209.6 56.6999 209.1C56.6999 209.1 56.6999 209.1 56.6999 209C56.6999 208.8 56.6999 208.6 56.6999 208.5C56.6999 208 56.8999 207.8 57.3999 207.9C57.7999 207.9 57.9999 207.8 58.1999 207.4C58.3999 206.9 58.5999 206.4 58.6999 205.9C58.6999 205.7 58.6999 205.6 58.8999 205.5C59.2999 205.2 59.2999 204.7 59.4999 204.3C59.4999 204.4 59.4999 204.5 59.4999 204.5C59.4999 204.5 59.5999 204.5 59.6999 204.5C59.9999 204.3 60.2999 204.1 60.3999 203.7C60.4999 203.3 60.8999 203.7 61.0999 203.5C61.0999 203.5 61.1999 203.4 61.2999 203.3C61.2999 203.1 61.2999 202.8 61.5999 202.7C61.5999 202.7 61.5999 202.7 61.5999 202.6C61.5999 202.4 61.8999 202.3 61.8999 202.1V201.9C61.6999 201.9 61.5999 201.9 61.3999 201.9C61.5999 201.7 61.7999 202 61.9999 201.8C61.9999 201.8 61.9999 201.7 61.9999 201.6C61.9999 201.4 61.7999 201.3 61.5999 201.3C61.2999 201.3 61.4999 201.1 61.5999 200.9C61.6999 200.6 61.9999 200.4 62.1999 200.1C62.3999 199.9 62.3999 199.9 62.4999 200.1C62.6999 200.4 62.7999 200.1 62.8999 200.1C63.0999 199.7 63.4999 199.6 63.5999 199.2C63.5999 199.5 63.5999 199.8 63.8999 199.7C64.1999 199.7 64.5999 199.7 64.3999 199.2C64.2999 198.8 64.3999 198.6 64.7999 198.6C64.7999 198.6 64.9999 198.6 65.0999 198.5C65.2999 198.4 65.4999 198.2 65.4999 198C65.4999 197.8 65.0999 197.7 64.8999 197.7C64.6999 197.7 64.4999 198 64.3999 197.7C64.2999 197.4 63.8999 197.2 64.0999 196.8C64.0999 196 64.1999 195.2 64.6999 194.5C64.8999 194.2 64.6999 194 64.0999 193.8C64.4999 193.6 64.7999 193.3 65.1999 193.2C65.1999 193.2 65.1999 193.2 65.1999 193.1C65.1999 192.8 65.5999 192.9 65.5999 192.6C65.5999 192.6 65.5999 192.6 65.4999 192.6C65.1999 192.6 64.7999 192.8 64.6999 192.3C64.8999 192.6 65.1999 192.8 65.4999 192.5C65.6999 192.2 65.7999 192.1 66.1999 192.2C66.4999 192.3 67.0999 192.3 67.2999 191.8C67.2999 191.6 67.4999 191.4 67.0999 191.3C66.6999 191.3 66.1999 191.3 65.8999 190.9C65.8999 190.8 65.6999 190.7 65.5999 190.6C65.2999 190.4 65.2999 190.1 65.2999 189.8C65.2999 189.5 65.5999 189.2 65.2999 189C65.2999 189 65.1999 189 65.0999 189C65.0999 189 65.0999 189 65.0999 188.8C65.0999 188.8 65.0999 188.6 65.0999 188.5C64.6999 188.1 64.4999 187.6 64.2999 187.2C64.0999 187 64.2999 186.9 64.2999 186.7C64.4999 186.4 64.7999 186.2 64.2999 185.9C64.0999 185.9 64.2999 185.6 64.2999 185.5C64.6999 184.8 64.7999 184.1 64.9999 183.4C64.9999 183 65.1999 182.7 65.6999 182.5C65.8999 182.4 65.6999 182.2 65.6999 182C65.6999 181.5 65.5999 180.9 65.8999 180.4C65.7999 180.8 66.3999 181 66.2999 181.4V181.7C66.2999 181.9 66.2999 182.1 66.0999 182.3C66.0999 182.5 65.9999 182.6 66.0999 182.8C66.2999 183 66.3999 182.8 66.4999 182.7C66.4999 182.7 66.4999 182.4 66.7999 182.5C66.7999 182.5 66.7999 182.7 66.8999 182.8C66.8999 182.9 67.0999 183.1 67.1999 183.1C67.4999 183.1 67.5999 182.9 67.4999 182.7C67.3999 182.5 67.2999 182.3 67.4999 182.2C67.5999 182.2 67.7999 182 67.6999 181.8C67.6999 181.8 67.6999 181.8 67.5999 181.8C67.8999 181.4 67.6999 180.9 67.7999 180.5C67.1999 179.9 67.8999 179.4 67.8999 178.8C67.8999 178.6 67.9999 178.5 68.0999 178.3C68.0999 177.9 68.5999 177.9 68.5999 177.5C68.5999 177.3 68.5999 177 68.2999 177C68.3999 176.8 68.6999 177 68.7999 176.8C68.9999 176.7 69.0999 176.6 69.1999 176.5C69.1999 176.5 69.1999 176.4 69.2999 176.5C69.2999 176.5 69.2999 176.7 69.2999 176.8C69.2999 176.8 69.2999 176.9 69.2999 177V177.2C69.4999 177.2 69.6999 177.3 69.8999 177.2C69.9999 177.2 70.0999 177 70.0999 176.8C70.4999 176.1 70.6999 175.2 71.2999 174.6C71.2999 174.7 71.2999 174.9 71.2999 175C71.2999 175.1 71.3999 175.3 71.3999 175.4C71.4999 175.6 71.4999 175.8 71.5999 176.1C71.7999 176.6 71.1999 176.5 71.0999 176.8V177C71.0999 177 71.2999 177.1 71.3999 177C71.7999 176.7 71.7999 177 71.7999 177.3C71.7999 177.6 71.3999 177.8 71.4999 178.2C71.4999 178.2 71.5999 178.2 71.6999 178.2C72.0999 178.2 71.9999 178.5 71.9999 178.8C71.9999 178.9 71.9999 179 71.8999 179.2C71.6999 179.4 71.5999 179.6 71.8999 179.9C71.8999 180 72.0999 180.2 71.9999 180.3C71.6999 180.9 71.7999 181.7 71.2999 182.3C70.8999 183 70.4999 183.7 70.2999 184.5C70.5999 185 70.2999 185.3 70.0999 185.7C69.6999 186.3 69.4999 187 69.3999 187.7C69.3999 188.2 69.0999 188.5 68.9999 188.9C68.6999 189.2 68.6999 189.7 68.3999 190.1C68.3999 189.6 68.7999 189.4 68.7999 189.1C68.5999 188.8 68.3999 188.7 68.0999 189C67.8999 189.5 67.8999 190 67.5999 190.4C67.5999 190.6 67.6999 190.8 67.9999 190.7C68.4999 190.7 68.5999 190.9 68.3999 191.3C68.3999 191.3 68.3999 191.4 68.3999 191.5C68.0999 192.1 67.9999 192.7 67.8999 193.3C67.7999 193.7 67.5999 194.1 67.4999 194.5C67.4999 194.8 67.4999 195.1 67.4999 195.4C67.7999 195.6 67.9999 195.3 68.1999 195.1C68.1999 195.1 68.2999 195 68.3999 194.9C68.7999 194.6 69.0999 194.3 68.6999 193.8C68.6999 193.8 68.6999 194 68.8999 194C69.0999 194 69.0999 193.9 69.1999 193.7C69.1999 193.5 69.3999 193.4 69.5999 193.3C69.5999 192.4 70.2999 191.8 70.3999 191C70.3999 190.3 70.9999 189.9 71.1999 189.2C71.1999 189.1 71.1999 189 71.2999 188.9C71.2999 188.9 71.2999 188.9 71.2999 189C71.2999 189.4 70.8999 189.8 71.2999 190.2C71.4999 190.2 71.4999 190.1 71.5999 190C71.6999 189.8 71.7999 189.6 71.7999 189.4C71.7999 189.2 71.7999 189 72.0999 189H72.2999C72.4999 188.5 72.2999 188 72.2999 187.5C72.2999 187.3 72.2999 187.1 72.2999 186.9C72.2999 186.5 72.4999 186.3 72.8999 186.3C72.8999 186.3 72.9999 186.3 73.0999 186.1C73.0999 186 73.0999 185.8 73.1999 185.7C73.1999 185.4 73.4999 185.4 73.6999 185.5C73.8999 185.1 73.8999 184.6 74.0999 184.2C74.1999 183.9 74.1999 183.6 74.6999 183.7C74.6999 183.9 74.4999 184 74.4999 184.1C74.4999 184.1 74.4999 184.2 74.4999 184.3C74.4999 184.4 74.2999 185.4 74.2999 185.5C74.2999 185.8 74.4999 185.8 74.7999 185.7C74.7999 185.9 74.5999 186.1 74.5999 186.3C74.5999 186.6 74.3999 186.9 74.3999 187.3C74.3999 187.6 74.1999 187.8 74.0999 188C73.9999 188.3 73.8999 188.6 73.7999 188.9C73.7999 189.1 73.7999 189.3 73.6999 189.5C73.4999 189.8 73.2999 190.1 73.1999 190.4C73.0999 190.9 72.9999 191.5 72.7999 192C72.7999 192.2 72.7999 192.3 72.7999 192.5C72.7999 192.7 72.8999 192.9 72.7999 193.1C72.5999 193.4 72.7999 193.8 72.4999 194.1C72.2999 194.4 72.3999 194.7 72.1999 194.9C71.7999 195.2 71.5999 195.6 71.6999 196.2C71.6999 196.5 71.6999 197 71.2999 197.2C70.9999 197.6 70.9999 198.2 70.7999 198.7C70.7999 198.9 70.7999 199.1 70.7999 199.3C70.7999 199.3 70.7999 199.4 70.7999 199.5C70.9999 199.7 70.7999 200.1 71.0999 200.2C71.4999 200.2 71.4999 199.7 71.7999 199.5C71.9999 199.5 72.2999 199.5 72.3999 199.1C72.3999 198.9 72.6999 199 72.7999 198.9C72.9999 198.7 72.9999 198.5 72.9999 198.3C72.9999 198.5 72.7999 198.7 72.9999 198.9C73.1999 198.9 73.2999 198.9 73.3999 198.8C73.3999 198.8 73.4999 198.6 73.4999 198.5C73.4999 197.8 73.8999 197.2 74.0999 196.5C74.0999 196.4 74.1999 196.3 74.2999 196.1C74.3999 195.5 74.6999 194.9 74.9999 194.3C74.8999 195 74.6999 195.6 74.4999 196.3C74.4999 196.6 74.2999 196.9 74.2999 197.2C74.2999 197.2 74.2999 197.3 74.2999 197.4C74.2999 197.6 74.2999 197.9 74.5999 198C74.6999 198 74.7999 197.9 74.7999 197.8C74.9999 197 75.2999 196.2 75.4999 195.4C75.6999 194.8 75.6999 194.2 75.9999 193.7C76.5999 192.2 76.6999 190.6 77.2999 189.1C77.3999 189.3 77.2999 189.6 77.2999 189.8C77.0999 190.4 76.9999 191.1 76.6999 191.6C76.5999 191.8 76.6999 192 76.7999 192.2C76.9999 192.3 77.1999 192.2 77.2999 192.1C77.2999 191.7 77.5999 191.6 77.6999 191.3C77.9999 190.8 78.1999 190.3 78.1999 189.7V189.5C78.1999 189.4 78.2999 189.3 78.2999 189.1C78.2999 188.6 78.3999 188.2 78.7999 187.9C78.8999 187.8 78.7999 187.6 78.9999 187.4C78.7999 187.9 78.7999 187.9 78.9999 188.7C79.2999 188.7 79.4999 189.1 79.8999 188.9C79.9999 188.9 79.9999 188.9 80.0999 189.1C80.0999 189.4 80.2999 189.5 80.6999 189.4C80.8999 189.4 80.9999 189.5 80.9999 190.1C80.9999 189.9 81.1999 189.5 80.6999 189.5C80.1999 189.5 80.3999 190 80.3999 190.2C80.3999 190.4 80.4999 190.5 80.5999 190.6C80.4999 190.7 81.0999 190.6 80.5999 190.8C80.3999 190.8 80.2999 191 80.1999 191.2C80.1999 191.5 80.3999 191.6 80.3999 191.9C80.1999 192.7 80.1999 193.6 79.3999 194.3C79.1999 194.3 78.9999 194.3 78.8999 194.4C78.7999 194.4 78.5999 194.7 78.6999 194.7C79.0999 194.9 78.6999 195.2 78.8999 195.5C79.0999 195.8 78.8999 196.1 78.8999 196.4C78.9999 196.6 78.8999 197 79.0999 197.2C79.2999 197.4 79.5999 197.6 79.8999 197.5C80.1999 197.5 80.1999 197.1 80.2999 197C80.2999 197.5 79.9999 197.9 79.8999 198.4C79.8999 198.6 79.6999 198.8 79.6999 199C79.7999 199.3 79.5999 199.6 79.6999 199.9C79.6999 200.1 79.6999 200.4 79.6999 200.6C80.0999 200.8 79.8999 201 79.8999 201.3C79.8999 201.5 79.5999 201.8 79.8999 202C80.0999 202 80.0999 201.8 80.2999 201.7C80.2999 201.9 80.1999 202 80.1999 202.1C80.1999 202.3 80.3999 202.4 80.3999 202.5C80.5999 202.8 80.7999 202.7 80.8999 202.5C81.0999 201.8 81.5999 201.5 82.1999 201.2C82.3999 200.9 82.3999 200.6 82.4999 200.3C82.4999 200 82.6999 199.8 82.7999 199.5C82.7999 199 83.0999 198.8 83.4999 198.5C83.7999 198.2 84.1999 197.9 84.0999 197.4C84.0999 197.5 84.2999 197.8 84.0999 198.1C83.8999 198.3 84.2999 198.4 84.4999 198.5C84.5999 198.5 84.6999 198.5 84.7999 198.4C84.0999 199.2 84.3999 200.3 84.1999 201.2C84.2999 201.6 84.3999 201.9 84.1999 202.3C84.1999 202.5 83.9999 202.7 83.9999 202.9C83.9999 203.1 84.4999 203.2 83.9999 203.5C83.7999 204 83.4999 204.5 83.3999 205.1C83.3999 205.3 83.1999 205.6 83.4999 205.7C83.8999 205.5 83.9999 205.1 84.0999 204.7C84.0999 204.4 84.2999 204.3 84.2999 204C84.0999 204.7 84.0999 205.5 83.8999 206.2C84.1999 206.6 83.9999 207 83.8999 207.3C83.6999 207.9 83.2999 208.4 83.1999 209C83.1999 209.3 82.8999 209.5 83.1999 209.8C83.4999 209.8 83.5999 209.5 83.7999 209.4C83.9999 209.2 84.0999 209 84.1999 208.8C84.3999 208.5 84.5999 208.3 84.8999 208.2C85.1999 208.2 85.4999 207.9 85.5999 207.6C85.6999 207.4 85.7999 207.1 86.0999 207C86.0999 207 86.0999 207 86.1999 206.9C86.2999 206.7 86.3999 206.5 86.6999 206.4C87.1999 206.2 86.9999 205.7 87.1999 205.3C87.1999 204.8 87.4999 204.6 87.7999 204.4C88.0999 204.2 88.1999 204 88.3999 203.7C88.7999 202.9 88.9999 202 89.4999 201.2C89.4999 201.4 89.3999 201.5 89.2999 201.7C89.1999 202 88.8999 202.3 89.2999 202.5C89.5999 202.7 89.8999 202.5 90.0999 202.3C90.3999 202.2 90.1999 201.9 90.3999 201.6C90.4999 201.8 90.5999 201.9 90.6999 202.1C90.6999 202.1 90.7999 202.1 90.8999 202.1C90.8999 201.5 90.6999 200.8 90.5999 200.2C90.5999 200 90.0999 199.6 90.7999 199.6C90.8999 199.6 90.9999 199.3 90.7999 199.1V198.9C90.7999 198.9 90.9999 198.9 90.9999 199.1C90.9999 199.3 91.0999 199.5 90.9999 199.7C90.8999 199.8 90.7999 200 90.9999 200.1C91.0999 200.2 91.2999 200.2 91.4999 200.1C91.6999 200 91.8999 199.8 92.1999 199.9C91.7999 200.2 91.8999 200.6 91.7999 201C91.7999 201 91.8999 201 91.9999 201C92.0999 201 92.1999 200.7 92.2999 200.6C91.9999 200.9 92.0999 201.5 91.5999 201.6V201.8C92.0999 202 91.6999 202.2 91.5999 202.5C92.1999 202.5 92.0999 201.8 92.3999 201.6C92.5999 201.8 92.5999 201.8 92.3999 202.2C92.3999 202.4 92.0999 202.5 92.1999 202.8C92.4999 203.2 92.6999 202.8 92.7999 202.6C92.9999 202.2 93.2999 201.8 93.3999 201.4C93.2999 202.1 92.5999 202.6 92.8999 203.4C92.8999 203.6 92.4999 203.8 92.8999 203.9C92.8999 203.9 92.8999 204.1 92.8999 204.2C92.7999 204.4 92.7999 204.6 92.8999 204.9C92.8999 205 92.7999 205.2 92.8999 205.2C92.8999 205.2 93.0999 205 93.1999 205C93.5999 204.4 93.7999 203.6 94.4999 203.2C94.4999 203.2 94.5999 203 94.6999 203C94.6999 203.1 94.4999 203.2 94.4999 203.3C94.4999 203.4 94.4999 203.5 94.4999 203.6C94.4999 203.8 94.4999 204 94.6999 204C94.8999 204 94.9999 203.8 95.0999 203.7C94.7999 204.1 94.8999 204.7 94.4999 205.1C94.2999 205.4 94.5999 205.6 94.4999 205.9C94.6999 205.9 94.8999 205.4 95.0999 205.9C95.5999 205.6 95.5999 206.1 95.7999 206.3C95.5999 206.1 95.3999 206 95.0999 205.9C95.0999 206.2 94.6999 206.5 95.0999 206.9C95.0999 207.5 95.4999 208 95.1999 208.6C95.1999 208.6 95.1999 208.8 95.3999 208.8C95.3999 208.4 95.7999 208.3 95.8999 208C95.8999 207.9 96.1999 207.9 96.3999 207.8C96.3999 208 96.4999 208.2 96.3999 208.4C96.2999 208.7 96.1999 208.9 95.9999 209.3C96.3999 209.3 96.3999 208.9 96.4999 208.7C96.6999 208.1 96.8999 208.4 97.0999 208.7C97.3999 208.8 97.2999 208.4 97.4999 208.4C97.5999 208.5 97.6999 208.8 97.9999 208.7C98.1999 208.7 98.1999 208.4 98.2999 208.2C98.2999 207.9 98.2999 207.6 98.4999 207.4C98.4999 207.4 98.4999 207.2 98.4999 207.1C98.7999 206.8 98.8999 206.6 98.4999 206.3C98.5999 206.1 98.7999 206.3 98.8999 206.2C98.8999 205.7 98.7999 205.3 98.5999 204.9C98.3999 204.5 98.0999 204.3 98.0999 203.8C97.5999 203.1 97.4999 203.1 97.8999 202.5C98.0999 202.3 98.0999 201.8 98.4999 202.1C99.0999 202.5 99.1999 202.4 99.3999 201.8C99.5999 201.2 99.7999 200.6 100.4 200.2C100.6 200.1 100.9 199.8 101 200.3C101 200.3 101 200.3 101.2 200.3C101.4 200.3 101.5 200.3 101.7 200.3C101.9 200.4 102.1 200.4 102.2 200.1C102.2 199.9 102.2 199.6 102.1 199.5C101.6 199 101.1 199 100.4 199.2C99.6999 199.4 99.2999 199.9 99.0999 200.5C99.0999 200.7 98.8999 200.8 98.6999 200.8C98.4999 200.8 98.4999 200.6 98.3999 200.5C97.9999 199.9 98.0999 199.3 98.3999 198.7C98.3999 198.6 98.4999 198.5 98.3999 198.3C98.3999 197.9 98.6999 197.9 98.8999 198C99.6999 198.3 99.3999 197.8 99.3999 197.4C99.3999 197.2 99.3999 197.1 99.1999 197C99.1999 197 99.0999 196.8 99.1999 196.8C99.5999 196.8 99.4999 196.4 99.6999 196.2C99.8999 196 100.2 196 100.1 195.6C100.1 195.5 100.3 195.6 100.5 195.6C100.8 195.6 101.1 195.8 101.3 195.6C101.1 195.6 100.9 195.5 100.7 195.6C100.5 195.5 101.1 195.2 100.6 195.1C100.5 195.1 100.1 195.1 100.2 194.9C100.2 194.6 100.5 194.6 100.8 194.6C100.6 194.3 100.5 194 100.8 193.7C100.9 193.6 100.6 193.2 101 193C101.2 192.8 101.5 192.7 101.7 192.5C101.9 192.3 102 192.2 101.7 191.9C101.7 191.8 101.7 191.8 101.7 191.7C101.8 191.7 101.9 191.6 102 191.7C102 191.7 102.1 191.9 102.2 192C102.3 191.8 102.6 191.7 102.5 191.4C102.5 191.1 102.7 191.1 102.9 191C102.9 191 103.1 191 103.1 190.9C103.1 190.9 103.1 190.8 103.1 190.7C102.9 190.5 102.3 190.7 102.1 190.9C101.9 191.1 101.8 191.4 101.5 191.5C101.7 191 101.9 190.5 102 189.9C102 189.8 102 189.6 102.2 189.6C102.8 189.4 102.9 188.9 103.1 188.4H102.9C102.7 188.5 102.4 188.4 102.3 188.4C102.1 188.2 102.4 188.1 102.5 188C102.5 188 102.5 187.8 102.6 187.7C102.6 187.6 102.9 187.5 102.7 187.4C102.6 187.3 102.4 187.4 102.3 187.4C102.1 187.4 101.8 187.8 101.7 187.5C101.5 187.2 102 187.2 102.1 187C102.1 186.9 102.1 187 102.1 186.6C102.1 186.4 102.3 186.2 102.5 186.1C102.5 186.1 102.6 186.1 102.7 185.9C102.7 185.9 102.7 185.8 102.7 185.7C102.3 185.4 102.1 185.2 102.4 184.6C102.6 184.1 102.8 183.4 102.4 182.8C102.3 182.5 102.6 182.2 102.2 182C101.9 181.8 101.7 182.2 101.5 182.4C101.4 182.4 101.3 182.4 101.2 182.4C101.2 182.3 101.2 182.2 101.2 182.1C101.3 181.8 101.6 181.7 101.8 181.5C102.2 181 102.2 180.8 101.6 180.6C101.3 180.5 101.1 180.3 101.2 179.9C101.2 179.7 101.2 179.4 101.3 179.3C101.9 178.5 101.5 177.7 101.2 176.9C101.2 176.7 101.2 176.6 101.2 176.4C101.5 175.9 101.2 175.2 101.8 174.8C102 174.6 101.8 174.3 101.6 174.2C101.3 174 101.1 173.9 101.2 173.5C101.2 173.2 101 172.9 100.8 172.7C100.8 172.5 100.6 172.4 100.8 172.2C101 172.1 101.1 171.9 101.1 171.6C101.1 171.4 101.1 171.1 100.9 171C100.6 170.8 100.6 171.2 100.3 171.3C100.7 171.1 100.7 170.3 101.3 170.4C101.4 170.4 101.5 170.3 101.5 170.2C101.5 170.2 101.5 170.1 101.5 170C101.5 170 101.5 169.8 101.4 169.8C101.1 169.7 101.4 169.3 101.1 169.2C100.8 169.2 100.7 169.5 100.3 169.4C100.7 168.3 101.7 167.8 102.5 167.1C102.6 167.2 102.5 167.2 102.7 167.6C102.7 167.8 102.7 168.2 103.2 167.9C103.5 167.5 103.6 166.9 103.9 166.4C103.9 166.2 103.9 165.9 103.9 165.7C103.9 165.5 103.9 165.3 103.8 165.2C103.4 164.7 103.1 164.1 103 163.5C103 163.1 103.2 163.3 103.4 163.3C103.7 163.3 103.7 163.2 103.8 162.9C103.8 162.5 103.5 162.2 103.3 161.8C103.2 161.6 102.9 161.3 102.6 161.5C102.2 161.7 102.1 161.6 101.9 161.2C101.9 161 101.7 161 101.5 161C101.3 160.7 101.5 160.5 101.6 160.3C101.7 160.1 101.9 160 101.9 159.8C101.9 159.6 101.9 159.5 101.6 159.6C101.5 159.6 101.5 159.8 101.4 159.9C101.4 159.8 101.4 159.6 101.6 159.6C101.9 159.6 101.8 159.1 102.1 159.2C102.4 159.4 102.6 159.6 102.7 160C102.7 160.3 102.7 160.5 102.7 160.8C102.7 160.9 102.7 161 102.8 161.1C102.8 161.2 102.8 161.3 102.8 161.4C102.8 161.5 102.8 161.6 103 161.7C103.2 161.7 103.2 161.7 103.3 161.5C103.5 161.1 103.9 160.8 103.3 160.3C103.5 160.4 103.7 160.5 103.9 160.5H104.1C104.1 160.3 104.1 160.1 104.1 159.9C104.1 159.7 104.1 159.5 104.3 159.5C104.6 159.5 104.6 159.1 104.7 158.9C104.7 158.9 104.7 158.6 104.9 158.7C105.3 158.7 105.6 158.7 105.9 159C106 159 106.1 158.9 106.1 158.8C106.1 158.3 105.9 157.8 105.9 157.3C105.9 157 105.8 156.7 105.5 156.6C105 156.2 104.5 156.4 104 156.6C103.8 156.6 103.8 156.8 103.8 157C103.8 157 103.9 157.2 103.8 157.2C103.8 157.3 103.6 157.2 103.5 157.2C102.9 157.2 103.2 157.6 103 158C103 157.5 103 157.1 102.8 156.8C102.8 156.6 102.7 156.5 102.5 156.4C102.2 156.1 101.7 155.8 101.4 155.5C101.2 155.3 101 155.3 100.9 155.6C100.9 155.8 100.9 156 100.9 156.2C100.9 156.4 100.9 156.6 101.1 156.7C101.4 156.6 101.6 156.7 101.6 157C101.6 157.1 101.6 157.2 101.6 157.3C101.6 157.8 101.2 157.9 101 158.2C100.8 158.3 100.8 158.2 100.8 158.1C100.8 158 100.7 157.7 100.4 157.9C100.2 157.9 100.2 158.2 100.3 158.3C100.3 158.3 100.3 158.5 100.3 158.6C100.3 158.8 100.3 159.1 100.1 159.3C100.1 159.1 100.1 158.8 99.8999 158.6C99.8999 158.6 99.8999 158.6 99.7999 158.6C99.6999 158.6 99.4999 158.6 99.3999 158.5C99.3999 158.3 99.5999 158.3 99.5999 158.3C100.1 157.8 100.3 157.2 100.2 156.5V156.3C100.4 155.8 100.4 155.6 99.9999 155C99.6999 154.5 99.7999 153.9 99.4999 153.4C99.9999 153.7 100.1 153.4 100.2 153.1C100.5 153.5 100.8 154 101.2 154.2C101.6 154.4 101.8 154 102 153.8C102.2 153.6 102.3 153.5 102.3 153.3C102.3 153 102 153.1 101.9 153C101.7 152.8 101.7 152.5 101.6 152.3C101.4 151.833 101.033 151.633 100.5 151.7C100.2 151.9 100.1 151.5 99.8999 151.5C99.4999 151.5 99.2999 151.1 98.9999 151.2H98.7999C98.7999 151.2 98.6999 151.3 98.5999 151.4C98.4999 151.4 98.3999 151.5 98.1999 151.4C98.1999 151.3 98.1999 151.2 98.1999 151.1C98.3999 150.7 98.5999 150.2 98.8999 149.9C99.3999 149.9 99.4999 149.3 99.8999 149.2C100.2 149.2 100.3 149.4 100.5 149.6C100.6 149.7 100.7 149.9 100.8 150C100.9 150.1 101.1 150.3 101.2 150C101.3 149.9 101.3 149.7 101.2 149.5C101 149.2 100.7 149 100.4 148.8C100.3 148.7 100.1 148.5 99.9999 148.3C99.9999 148.2 99.7999 148.1 99.6999 148.1C99.3999 148.1 99.4999 147.9 99.4999 147.7C99.4999 147.7 99.4999 147.6 99.4999 147.5C99.1999 147.2 98.8999 147.4 98.5999 147.5C98.8999 147.3 99.3999 147.4 99.6999 147.2C99.8999 147.2 100.1 147 99.6999 146.8C99.4999 146.7 99.2999 146.6 99.1999 146.5C98.7999 146.5 98.5999 146.3 98.6999 145.8C98.9999 145.8 99.2999 146.2 99.5999 145.8C99.5999 145.8 99.5999 145.7 99.5999 145.6C99.5999 145.5 99.5999 145.4 99.5999 145.3C99.5999 145.1 99.1999 145.1 99.2999 144.8C99.1999 144.6 99.0999 144.5 98.8999 144.4C98.6999 144.4 98.5999 144.4 98.3999 144.5C98.3999 144.3 98.3999 144.2 98.3999 144.1C98.2999 143.7 98.0999 143.7 97.7999 144.1C97.7999 144.1 97.7999 144.5 97.4999 144.3C97.4999 144.3 97.4999 144.3 97.4999 144.2C97.4999 144.2 97.4999 144 97.4999 143.9C97.1999 143.3 96.8999 143.2 96.2999 143.7C96.2999 143.4 95.9999 143.4 95.7999 143.2C96.0999 143.4 96.3999 143.4 96.5999 143.2C96.7999 143 96.9999 143.2 97.1999 143.2C97.4999 143.2 97.5999 143.1 97.5999 142.8C97.5999 142.8 97.5999 142.6 97.5999 142.5C97.9999 142 97.6999 141.6 97.4999 141.2C97.2999 140.9 97.0999 140.7 96.9999 140.3C97.3999 140.3 97.8999 140.3 97.8999 139.8C97.8999 139.7 97.6999 139.6 97.5999 139.5C97.0999 139.1 96.4999 138.6 95.7999 138.4C95.5999 138.4 95.4999 138.2 95.3999 138C95.1999 137.7 94.9999 137.5 94.5999 137.4C94.2999 137.4 94.3999 137.6 94.2999 137.8C94.2999 138 94.2999 138.3 94.0999 138.4C93.5999 138.6 93.4999 138.1 93.1999 137.9C93.1999 137.6 92.9999 137.3 93.0999 137C93.0999 136.9 92.9999 136.7 92.8999 136.7C92.3999 136.8 92.3999 136.5 92.2999 136.2C92.2999 136 92.1999 135.6 91.8999 135.6C91.5999 135.6 91.4999 135.9 91.2999 136.1C91.2999 136.1 91.1999 136.3 91.0999 136.3C90.9999 136.5 90.9999 136.7 91.0999 136.9C91.0999 137.2 91.0999 137.3 90.8999 137.5C90.6999 138 90.3999 137.7 90.0999 137.7C89.7999 137.7 89.4999 137.6 89.1999 137.4C88.9999 137.4 88.8999 137.5 88.8999 137.7C89.1999 137.9 88.8999 138.4 89.1999 138.6C89.3999 138.6 89.4999 138.6 89.6999 138.6C90.1999 138.5 90.0999 138.9 90.0999 139.1C90.0999 139.4 90.2999 139.5 90.5999 139.5C90.6999 139.5 90.8999 139.5 90.8999 139.8C90.8999 140 90.6999 140 90.5999 139.8C90.5999 139.8 90.4999 139.7 90.3999 139.7C89.9999 139.7 90.1999 140 90.1999 140.1C90.1999 140.4 90.4999 140.6 90.7999 140.5C91.0999 140.2 91.1999 140.5 91.2999 140.7C91.3999 140.7 91.4999 140.7 91.5999 140.7C91.7999 140.5 91.7999 140.3 91.8999 140.1C92.0999 140.4 92.8999 140 92.4999 140.8C92.4999 140.9 92.4999 141.1 92.5999 141.2C92.9999 141.5 93.3999 141.8 93.6999 142.2C93.6999 142.3 93.8999 142.2 94.0999 142.3C93.6999 142.3 93.2999 142.6 92.8999 142.7C92.8999 142.5 93.0999 142.4 93.1999 142.4C93.4999 142.1 93.4999 141.9 93.1999 141.7C92.7999 141.6 92.3999 141.4 91.9999 141.6C91.9999 141.8 91.9999 142 92.1999 142.1C91.8999 141.9 91.6999 142.1 91.3999 142.1C91.1999 141.6 90.9999 141.5 90.8999 141.9C90.8999 142.1 90.8999 142.3 90.5999 142.5C90.5999 142.3 90.2999 142.2 90.0999 142.1C89.7999 141.8 89.5999 141.4 89.3999 141C89.3999 140.9 89.3999 140.7 89.3999 140.6C89.3999 140.1 88.9999 139.8 88.4999 140C88.3999 140.1 88.2999 140.2 88.0999 140.2C88.0999 140.2 87.8999 140.2 87.8999 140.3C87.5999 140.6 87.5999 140.4 87.4999 140.2C87.2999 139.7 86.8999 139.4 86.8999 138.8C86.8999 138.7 86.8999 138.6 86.6999 138.6C86.4999 138.6 86.3999 138.7 86.2999 138.9C86.2999 139.1 86.2999 139.3 86.2999 139.6C86.1999 139.9 86.2999 140.2 86.4999 140.6C86.0999 140.6 85.8999 140.4 85.5999 140.6C85.7999 140.1 85.8999 139.7 85.9999 139.2C85.9999 138.9 86.2999 138.7 86.2999 138.3C86.2999 138.1 85.9999 137.9 86.0999 137.7C86.0999 137.6 86.0999 137.5 86.0999 137.3C86.2999 137 86.4999 137.5 86.5999 137.3C86.7999 137 86.9999 136.7 86.8999 136.3C86.5999 136.1 86.3999 136.1 86.1999 136.6C86.2999 136 86.5999 136.2 86.8999 136.3C86.8999 136.3 86.9999 136.3 87.0999 136.3C87.2999 136.1 87.1999 135.7 87.5999 135.8H87.6999C87.7999 135.8 87.9999 135.8 88.0999 135.8H88.2999C88.3999 135.8 88.4999 135.8 88.4999 135.6C88.4999 135.5 88.4999 135.4 88.5999 135.2C88.5999 135.1 88.5999 135 88.5999 134.9C88.5999 134.8 88.5999 134.7 88.5999 134.5C88.5999 134.2 88.5999 134 88.1999 134C88.0999 134 87.9999 134.2 87.8999 134.2C87.7999 134.2 87.6999 134.4 87.5999 134.2C87.3999 133.5 87.5999 132.8 87.2999 132.1C87.0999 131.4 86.8999 130.7 86.5999 130C86.5999 129.8 86.5999 129.7 86.5999 129.5C86.3999 129.5 86.0999 129.5 85.9999 129.3C85.6999 128.9 85.5999 129.3 85.3999 129.5C85.1999 129.6 84.9999 129.6 84.7999 129.5C84.4999 129.5 84.2999 129.3 84.1999 129C84.1999 128.9 84.0999 128.8 83.8999 128.7C83.4999 128.5 83.1999 128.7 82.8999 128.9C82.7999 128.9 82.5999 129.1 82.4999 128.9C82.3999 128.8 82.4999 128.7 82.4999 128.5C82.5999 128.1 82.9999 127.7 82.7999 127.4C82.5999 127 82.8999 127 83.0999 126.8C83.0999 126.8 83.1999 126.6 83.2999 126.6C83.2999 126.2 83.4999 125.9 83.4999 125.5C83.4999 125.5 83.3999 125.5 83.2999 125.5C83.3999 125.5 83.3999 125.5 83.4999 125.6C83.6999 125.6 83.6999 125.4 83.7999 125.3C83.7999 124.9 84.1999 124.6 84.0999 124.2C84.0999 124.2 84.0999 124 83.9999 124C83.5999 124 83.6999 123.8 83.6999 123.6C83.3999 123.1 83.8999 122.7 83.9999 122.3C83.9999 122.3 83.9999 122.2 83.9999 122.1C83.8999 121.8 83.7999 121.6 83.9999 121.3C83.9999 120.9 83.7999 120.5 84.0999 120.2C84.1999 120 84.4999 120.2 84.5999 120C84.5999 119.6 84.1999 119.3 84.3999 118.8V118.6C84.3999 118.3 83.7999 118.5 83.7999 118C83.9999 118 84.2999 118.8 84.4999 118V117.8C84.4999 117.6 84.4999 117.5 84.4999 117.3C84.4999 116.8 84.2999 116.6 83.7999 116.7C83.9999 116.6 84.1999 116.5 84.3999 116.4C84.3999 116.4 84.3999 116.3 84.3999 116.2C84.3999 115.8 84.0999 115.6 83.6999 115.7C83.4999 115.9 83.3999 116.2 83.2999 116.4C82.9999 116.8 82.9999 117.2 83.4999 117.5C83.5999 117.5 83.6999 117.3 83.8999 117.5C83.8999 117.6 83.6999 117.5 83.5999 117.5C83.2999 117.6 83.1999 117.9 83.0999 118.4C82.7999 117.8 83.2999 117.4 83.0999 116.8C83.0999 116.4 83.3999 115.9 83.5999 115.4C83.5999 115.2 83.5999 115 83.6999 114.8C83.6999 115 83.6999 115.2 83.6999 115.4C83.6999 115.4 83.6999 115.4 83.6999 115.5C83.8999 115.7 84.0999 115.6 84.1999 115.3C84.1999 115.1 84.1999 115 84.1999 114.8C84.1999 114.5 84.1999 114.2 84.3999 113.9C84.3999 114.2 84.3999 114.5 84.6999 114.7C84.8999 114.8 85.0999 114.7 85.1999 114.5C85.1999 114.3 85.1999 114.1 85.2999 114C85.2999 114 85.1999 113.6 85.4999 113.7C85.6999 113.7 85.7999 113.8 85.6999 114.1C85.6999 114.3 85.6999 114.5 85.6999 114.7C85.7999 114.8 85.5999 115.1 85.8999 115.2C86.1999 115.2 86.1999 115 86.2999 114.8C86.2999 114.4 86.3999 114.1 86.7999 113.8C86.8999 113.8 86.9999 113.5 86.7999 113.3C86.6999 113.2 86.5999 113.3 86.4999 113.3C86.1999 113.5 86.4999 113.3 86.4999 113.2C86.4999 113.2 86.4999 113.2 86.4999 113.1C86.4999 113 86.4999 112.8 86.4999 112.7C86.4999 112.4 86.2999 112.2 85.9999 112.3C85.9999 112.3 85.9999 112.1 85.8999 112.1C85.6999 112.1 85.5999 112.3 85.5999 112.4C85.4999 112.4 85.5999 112.5 85.5999 112.4C85.7999 111.6 85.5999 110.7 85.9999 109.9C86.0999 109.6 85.7999 109.4 85.9999 109.1C85.9999 109.5 86.1999 109.7 86.4999 109.8C86.6999 109.8 86.7999 109.8 86.7999 109.5C86.6999 109.3 86.4999 109.5 86.2999 109.4C86.2999 108.8 86.9999 108.3 86.4999 107.7C86.4999 107.6 86.7999 107.4 86.5999 107.1C86.5999 107.1 86.5999 106.9 86.4999 106.8C86.2999 106.8 86.2999 106.8 86.1999 106.9C86.1999 107 85.9999 107.1 85.8999 107C85.6999 107 85.8999 106.7 85.8999 106.6C85.7999 106.6 85.5999 106.6 85.3999 106.8C85.3999 106.8 85.3999 106.7 85.3999 106.6C84.8999 105.9 84.9999 105.2 85.0999 104.4C85.1999 103.9 85.0999 103.7 84.4999 103.6C84.6999 103.3 84.9999 103.3 85.0999 103C85.2999 102.7 85.1999 102.4 84.8999 102.2C85.0999 102.2 85.1999 102.2 85.2999 102.4C85.2999 102.7 85.5999 102.8 85.8999 102.8C86.0999 102.8 86.1999 102.6 86.0999 102.1C86.4999 102.5 86.4999 102.5 86.9999 102C86.9999 102 86.9999 101.9 86.9999 101.8C86.9999 101.8 86.9999 101.9 86.9999 102C86.9999 102.1 87.1999 102.2 87.2999 102.2C87.5999 102.4 87.7999 102.4 87.6999 101.9C87.6999 101.7 87.5999 101.8 87.4999 101.8C87.2999 101.8 87.4999 101.4 87.0999 101.5C86.4999 101.2 86.7999 100.8 86.9999 100.4C86.9999 100.3 86.7999 100.4 86.6999 100.4C86.2999 100.2 86.4999 99.8 86.4999 99.5C86.4999 98.9 86.1999 98.3 85.8999 97.8C85.6999 97.4 85.2999 97.2 84.8999 97.5C84.5999 97.7 84.2999 97.7 83.8999 97.7C83.6999 97.7 83.4999 97.7 83.1999 97.9C83.2999 97.4 83.2999 97 83.7999 96.9C83.7999 96.9 83.7999 96.9 83.8999 96.8C83.8999 96.5 83.6999 96.3 83.6999 96C83.6999 95.7 83.6999 95.9 83.6999 95.8C83.6999 95.8 83.5999 95.6 83.4999 95.6C82.5999 95.9 82.6999 95 82.2999 94.6C82.2999 94.8 82.3999 94.9 82.5999 94.8C82.7999 94.5 82.7999 94.3 82.5999 94C82.2999 94 81.7999 94 81.9999 93.4V93.2C81.9999 92.8 82.0999 92.4 81.7999 92.1C81.7999 92.1 81.7999 92 81.7999 91.9C81.7999 91.7 81.7999 91.5 82.0999 91.6C82.3999 91.6 82.6999 91.6 82.8999 91.3C82.9999 91.1 83.0999 90.9 82.9999 90.7C82.7999 90.2 82.9999 89.7 83.2999 89.3C83.2999 89.1 83.4999 89.1 83.6999 89.1C83.8999 89.1 84.1999 89.3 84.2999 88.9H84.4999C84.6999 89.2 84.8999 89.3 85.1999 89.3C85.1999 89.6 84.6999 89.8 84.9999 90.1C85.2999 90.3 85.4999 90 85.6999 89.8C85.8999 89.6 85.9999 89.5 86.2999 89.7C86.4999 89.8 86.5999 89.7 86.6999 89.7C86.8999 89.6 86.7999 89.4 86.6999 89.2C86.6999 89 86.5999 88.8 86.4999 88.7C86.2999 88.4 86.4999 88.2 86.4999 87.9C86.4999 87.4 86.2999 87.2 85.7999 87.4C85.3999 87.5 85.3999 87.5 85.1999 87C85.4999 87 85.6999 87 85.9999 87.1C86.1999 87.1 86.4999 87.2 86.5999 86.9C86.5999 86.6 86.5999 86.3 86.2999 86.3C85.8999 86.3 85.5999 85.9 85.0999 86.1C85.2999 85.8 85.5999 86.1 85.6999 85.8C85.6999 85.6 85.8999 85.5 86.0999 85.5C86.0999 85.5 86.1999 85.5 86.0999 85.3C86.0999 85.2 85.8999 85.1 85.7999 85C85.6999 85 85.6999 84.8 85.4999 84.7C85.6999 84.7 85.9999 84.7 86.0999 84.6C86.2999 84.5 86.5999 84.6 86.8999 84.6C86.4999 84.2 86.5999 83.9 87.0999 83.6C87.0999 83.3 87.1999 83.1 87.4999 82.9C87.6999 82.7 87.7999 82.9 87.7999 83.1C87.9999 83.2 88.1999 83.1 88.2999 83.1C88.4999 83 88.5999 82.8 88.2999 82.6C87.7999 82.2 87.4999 81.8 87.6999 81.1C87.6999 80.8 87.3999 80.5 87.1999 80.2C86.9999 79.9 87.1999 79.4 86.8999 79.1C86.8999 79 86.8999 78.9 86.9999 78.9C86.9999 78.9 87.1999 78.7 87.0999 78.6C86.7999 78.3 87.0999 78 87.0999 77.7C87.2999 78.2 87.3999 78.8 88.0999 78.6C88.2999 78.6 88.4999 78.6 88.5999 78.8C88.5999 78.8 88.5999 78.8 88.6999 78.8C88.9999 78.6 88.7999 78.4 88.6999 78.3C88.5999 78.1 88.6999 78.1 88.6999 78.2C89.1999 78.5 89.5999 78.5 89.9999 78C89.9999 78 89.9999 77.9 89.9999 77.8C89.6999 77.3 89.8999 76.8 90.1999 76.3C89.9999 76.2 89.7999 76.3 89.6999 76.3C88.9999 76.3 88.5999 75.9 88.7999 75.3C88.7999 75 88.6999 74.8 88.7999 74.5C89.0999 74.7 89.5999 74.6 89.6999 75.1L89.8999 75.2C90.2999 75 90.4999 75.5 90.7999 75.4C90.7999 75.1 90.7999 74.9 91.0999 74.6C91.3999 74.3 91.0999 74 90.6999 73.9C90.6999 73.9 90.6999 73.9 90.5999 73.9C90.3999 74.1 90.2999 74.3 90.1999 74.5C90.1999 74.2 90.1999 73.9 89.9999 73.6C89.7999 73.3 89.5999 73 89.0999 73C88.8999 73 88.7999 73.1 88.6999 73.3C88.6999 73.5 88.6999 73.7 88.6999 74C87.8999 73.7 87.4999 74.2 87.0999 74.7C86.8999 74.9 86.6999 75 86.4999 74.7C86.2999 74.8 86.1999 75 85.9999 75.2C85.9999 74.8 86.2999 75 86.3999 74.8C87.1999 74.8 87.2999 74.5 86.9999 73.8C86.9999 73.7 86.9999 73.6 86.9999 73.5C87.1999 73.3 86.9999 73.1 86.9999 72.9C87.1999 72.4 87.2999 72.4 87.7999 72.8C87.8999 72.8 88.0999 72.9 88.1999 72.8C88.1999 72.4 88.1999 72 87.7999 71.7C87.4999 71.5 87.5999 71.3 87.5999 71C87.5999 70.8 87.8999 71 87.9999 70.9C87.9999 70.9 87.9999 70.7 87.9999 70.6C88.1999 70.3 88.4999 70.4 88.6999 70.5C88.9999 70.6 89.1999 70.5 89.3999 70.2C89.4999 70 89.3999 69.8 89.1999 69.7C89.4999 69.9 89.6999 70.1 89.4999 70.4C89.2999 70.7 88.9999 70.6 88.7999 70.6C88.5999 70.6 88.3999 70.4 88.0999 70.6C87.7999 70.8 88.0999 71.1 88.0999 71.3C88.3999 71.6 88.5999 72 89.0999 71.9C89.2999 71.9 89.3999 71.8 89.4999 71.7C89.5999 71.7 89.6999 71.7 89.6999 71.8C90.1999 71.9 90.6999 72.2 91.1999 72.1C91.2999 72.1 91.4999 72.1 91.5999 72.1C92.2999 71.9 92.0999 72.5 91.9999 72.6C91.5999 73 92.2999 73.2 92.1999 73.5H92.3999C92.6999 73.4 92.7999 73.4 92.8999 73.7C92.8999 73.9 92.8999 74 93.1999 74.1C93.3999 74.1 93.2999 74.3 93.1999 74.5C93.0999 75 93.1999 75.3 93.7999 75.4C93.6999 74.9 93.7999 74.5 93.9999 74.2C94.0999 74 94.1999 74.4 94.3999 74.3C94.6999 73.7 94.1999 73.4 93.8999 73C93.8999 73 93.8999 73 93.6999 73C93.2999 73 92.8999 73 92.4999 73.1C92.0999 73.1 91.9999 73 92.0999 72.6C92.0999 72.4 92.0999 72.2 92.0999 72C92.0999 72 92.1999 72.1 92.1999 72.2C92.2999 72.7 92.9999 73 93.4999 72.7C93.5999 72.7 93.7999 72.4 93.7999 72.7H93.8999V72.6C93.6999 72.4 93.8999 72.2 93.8999 72C93.9999 71.7 94.0999 71.5 93.5999 71.5C93.0999 71.5 93.3999 71.1 93.5999 70.8C93.5999 70.7 93.7999 70.5 93.5999 70.4C93.4999 70.3 93.2999 70.4 93.1999 70.4C92.9999 70.4 92.9999 70.6 93.1999 70.7C93.3999 70.9 93.2999 71 93.1999 71.1C92.8999 71.3 92.5999 71.3 92.6999 71.1C92.6999 70.9 92.7999 70.8 92.7999 70.6C92.5999 70.6 92.4999 70.6 92.4999 70.8C92.4999 71.4 92.1999 71.1 91.8999 71.2C91.6999 71.2 91.5999 71.2 91.5999 71C91.5999 70.8 91.7999 71 91.8999 71C92.1999 71.2 92.1999 70.7 92.1999 70.7C92.1999 70.4 92.2999 70.3 92.5999 70.3C92.5999 70.3 92.7999 70.3 92.7999 70.2C92.7999 69.9 93.1999 69.9 93.2999 69.7C93.4999 69.4 93.8999 69.7 93.8999 69.6C93.8999 69.4 93.4999 69.4 93.3999 69.2C93.5999 69 93.8999 68.8 93.9999 68.5C93.9999 68.4 94.2999 68.5 94.3999 68.5C94.5999 68.7 94.5999 69.1 94.8999 69.2C95.0999 69.2 95.3999 69.2 95.5999 69C95.5999 69 95.5999 68.9 95.5999 68.8C96.1999 68.1 95.3999 68 95.1999 67.6C95.1999 67.5 94.9999 67.4 95.1999 67.3C95.2999 67.1 95.3999 67.3 95.4999 67.3C95.8999 67.4 96.0999 67.3 96.3999 66.8C95.7999 66.5 95.0999 66.8 94.3999 66.8C94.2999 66.8 94.1999 66.8 94.1999 66.9C93.9999 67.2 93.8999 67.1 93.6999 66.9C93.4999 66.6 93.6999 66.6 93.8999 66.6C93.9999 66.6 94.0999 66.5 94.0999 66.2C93.4999 66.7 92.5999 66.6 92.0999 67.4C92.0999 67.4 91.8999 67.6 91.7999 67.4C91.7999 67.4 91.5999 67.2 91.5999 67.1C91.5999 66.9 91.6999 66.9 91.7999 66.9C92.1999 66.9 92.1999 66.7 92.0999 66.4C91.9999 66.2 92.0999 65.9 92.1999 65.7C92.1999 65.5 92.4999 65.7 92.4999 65.8C92.6999 66.5 93.1999 66.2 93.5999 66.1C93.8999 66 94.3999 65.8 93.8999 65.3C93.8999 65.3 93.6999 65 93.8999 64.9C94.0999 64.9 94.1999 64.9 94.0999 65.1C94.0999 65.3 94.1999 65.4 94.2999 65.4C94.4999 65.4 94.5999 65.4 94.6999 65.2C94.7999 65.1 94.7999 64.8 95.0999 64.8C95.0999 64.8 95.0999 64.8 95.0999 64.7C95.0999 64.2 94.8999 63.9 94.6999 63.5C94.6999 63.1 94.2999 62.7 94.1999 62.3C94.0999 62 93.7999 61.8 93.3999 61.9C93.3999 61.9 93.3999 61.9 93.3999 62C93.3999 62 93.3999 62.1 93.3999 62.2C93.3999 62.4 93.6999 62.7 93.3999 62.8C93.1999 62.8 92.8999 62.6 92.8999 62.2C92.8999 62.1 92.8999 61.9 92.6999 61.9C92.4999 62.1 92.2999 62 92.1999 61.7C92.1999 61.5 92.0999 61.6 91.9999 61.6C91.7999 61.6 91.9999 61.7 91.9999 61.8C91.9999 62.1 91.7999 61.9 91.7999 61.8C91.3999 61.3 90.7999 61.7 90.2999 61.5C90.1999 61.5 90.0999 61.5 90.0999 61.7C90.0999 61.8 90.0999 61.9 90.1999 61.9C90.2999 61.9 90.6999 62.3 90.1999 62.3C90.1999 62.5 90.1999 62.6 90.1999 62.7C90.3999 62.9 90.5999 63.1 90.1999 63.4C89.8999 63.6 90.3999 63.7 90.3999 63.9C90.1999 64.1 89.7999 63.9 89.4999 64.1C89.4999 64.1 89.3999 64.3 89.2999 64.4C89.2999 64.6 89.4999 64.8 89.5999 65C89.7999 65.2 89.8999 65.4 89.5999 65.5C89.2999 65.5 89.1999 65.7 89.1999 66C89.4999 66.2 89.3999 66.5 89.5999 66.7C89.7999 67 89.8999 67.3 89.8999 67.7C89.8999 67.9 90.0999 68.1 89.8999 68.1C89.6999 68.1 89.3999 68.1 89.2999 67.8C89.2999 67.4 88.9999 67.1 88.8999 66.8C88.6999 66.2 88.1999 65.9 87.6999 65.7C87.9999 65.7 88.1999 65.9 88.4999 65.8C88.6999 65.5 88.2999 65.4 88.2999 65.1C88.2999 64.9 88.2999 64.7 88.2999 64.5C88.2999 64.3 88.2999 64.1 88.2999 64C88.2999 63.8 88.2999 63.7 88.0999 63.5C87.9999 62.9 88.4999 63.3 88.5999 63.2C88.7999 63 88.9999 62.7 89.2999 62.6C89.2999 62.6 89.3999 62.5 89.2999 62.4C89.2999 61.9 88.6999 62 88.4999 61.7C88.0999 61.3 88.1999 60.9 88.2999 60.4C88.2999 60.2 88.2999 59.7 88.7999 59.9C88.9999 59.9 88.9999 59.7 88.7999 59.6C88.6999 59.4 88.4999 59.4 88.3999 59.2C88.2999 59 88.1999 58.8 88.3999 58.6C88.4999 58.4 88.5999 58.2 88.5999 58C88.5999 58 88.5999 58 88.4999 57.9C88.1999 57.8 88.3999 57.2 87.8999 57.3H87.6999C87.6999 56.9 87.5999 56.5 87.8999 56.2C88.0999 56.1 88.1999 55.9 87.9999 55.7C87.6999 55.4 87.9999 55 87.7999 54.7C87.7999 54.2 87.5999 54 87.0999 54.1C86.8999 54.1 86.6999 54.1 86.4999 53.9C86.4999 53.9 86.2999 53.7 86.1999 53.7C85.9999 53.7 85.0999 54.6 85.0999 54.9C85.0999 55.2 85.3999 55.2 85.5999 55.1C85.5999 55.5 85.4999 55.8 85.0999 55.9C84.8999 55.9 84.7999 55.8 84.6999 55.7C84.4999 55.7 84.2999 55.7 84.2999 55.4C84.2999 55.2 84.2999 55.1 84.2999 54.9C84.2999 54.2 84.2999 54.2 84.9999 54.4C85.1999 54.4 85.3999 54.4 85.4999 54.2C85.6999 53.8 85.9999 53.5 86.1999 53.1C86.4999 52.7 86.5999 52.1 86.4999 51.6C86.3999 51 86.6999 50.6 87.0999 50.3C87.3999 50 87.4999 49.9 87.3999 49.5C87.3999 49.3 87.3999 49.1 87.3999 48.9C87.7999 48.3 87.3999 47.8 87.0999 47.4C86.7999 47 86.2999 46.6 86.0999 46.1C85.6999 46.1 85.5999 46.4 85.5999 46.7C85.5999 47 85.5999 47.3 85.5999 47.5C85.5999 47.5 85.4999 47.5 85.3999 47.5C84.7999 47.1 84.0999 47.5 83.9999 48.2C83.9999 48.8 83.7999 49.4 83.6999 50C83.4999 49.5 83.4999 49.1 83.5999 48.6C83.5999 47.9 83.5999 47.8 82.8999 47.8C82.8999 47.6 83.1999 47.6 83.2999 47.5C83.4999 47.5 83.6999 47.2 83.6999 47C83.6999 46.5 83.8999 46 83.7999 45.5C83.7999 45.3 83.7999 45.2 83.9999 45.1C83.9999 45.1 84.0999 45.1 84.1999 45C84.3999 44.8 84.8999 44.7 84.9999 44.4C85.0999 44 84.6999 43.9 84.4999 43.6C84.1999 43.1 84.1999 42.6 84.3999 42C84.5999 41.6 84.6999 41.1 84.3999 40.7C84.3999 40.7 84.3999 40.5 84.3999 40.4C84.8999 40 84.3999 39.5 84.4999 39.1C84.4999 38.7 84.2999 38.7 83.9999 38.8C83.9999 38.8 83.8999 39 83.7999 38.8C83.7999 38.6 83.7999 38.4 83.5999 38.2C83.3999 38 83.1999 37.9 82.8999 38.1C82.6999 38.3 82.6999 38.6 82.4999 38.9C82.4999 38.6 82.6999 38.4 82.4999 38.2C82.3999 38 82.1999 37.9 81.9999 38.2C81.7999 38.4 81.5999 38.4 81.3999 38.5C81.0999 38.3 81.0999 38.1 81.2999 37.8C81.2999 38 81.2999 38.2 81.4999 38.2C81.8999 38.2 81.9999 38 82.0999 37.7C82.0999 37.2 82.3999 36.9 82.7999 36.6C82.9999 36.6 83.2999 36 83.2999 36.7C83.2999 37.1 83.4999 37.3 83.8999 37.1C83.9999 37.1 84.0999 36.8 84.2999 37.1C84.3999 37.3 84.4999 37.6 84.7999 37.6C85.0999 37.6 85.2999 37.3 85.2999 37C85.2999 36.7 85.3999 36.5 85.7999 36.5C86.1999 36.5 86.1999 36.1 86.3999 35.8C86.6999 36 86.5999 36.5 86.9999 36.5C87.4999 36.5 87.9999 36.5 88.3999 36.3C88.4999 36 88.7999 36 88.9999 36.1C89.1999 36.1 89.3999 36.1 89.3999 36.4C89.3999 36.7 89.3999 36.7 89.5999 36.7C89.7999 36.7 89.8999 36.7 89.8999 36.5C89.8999 36.3 90.0999 36.1 90.0999 35.9C90.0999 35 90.4999 34.2 90.8999 33.4C90.8999 33.2 91.1999 32.9 90.8999 32.8C90.5999 32.7 90.1999 32.6 90.0999 33C89.8999 33.3 89.7999 33.7 89.4999 33.2C89.3999 33 89.1999 33.1 88.9999 33.2C88.7999 33.4 88.5999 33.4 88.2999 33.2C88.7999 33.3 88.9999 33.1 88.9999 32.7C88.9999 32.4 89.1999 32.1 89.2999 31.7C89.2999 31.5 89.2999 31.2 89.6999 31.2C90.0999 31.2 90.1999 31.4 90.1999 31.7C90.1999 31.7 90.1999 31.7 90.1999 31.8C90.2999 31.8 90.3999 32 90.4999 32.1C90.7999 32.6 90.9999 32.6 91.3999 32.2C91.8999 31.7 91.8999 31.3 91.3999 30.8C91.3999 30.7 91.1999 30.6 91.1999 30.5C90.9999 30.1 90.6999 29.9 90.2999 30.2C90.0999 30.1 90.1999 29.9 90.1999 29.8C90.1999 29.2 89.9999 29.1 89.4999 29.5C89.2999 29.6 89.1999 29.6 89.0999 29.5C88.8999 29.4 88.9999 29.2 89.0999 29.1C89.2999 28.7 89.1999 28.4 88.7999 28.3C88.3999 28.1 88.1999 28.3 87.9999 28.8C87.9999 28.9 87.8999 29 87.8999 29.2C87.8999 29.1 87.9999 29 87.9999 28.9C87.9999 28.4 87.9999 28.1 88.6999 28.3C88.9999 28.4 89.1999 28 89.3999 27.7C89.6999 27.2 89.7999 26.5 89.9999 26C89.9999 25.8 90.1999 25.5 90.4999 25.6C90.7999 25.6 90.8999 25.9 90.8999 26.2C90.8999 26.5 90.8999 26.9 90.8999 27.2C90.9999 27.8 91.4999 28 91.8999 27.5C92.1999 27.2 92.3999 27.1 92.7999 27.3C93.0999 27.5 93.3999 27.2 93.4999 26.9C93.6999 26.6 93.9999 26.4 94.2999 26.2C94.8999 26 95.0999 25.5 94.8999 24.9C94.3999 23.7 93.7999 23.6 92.7999 24.4C92.4999 24.7 92.0999 24.8 91.7999 25C91.4999 25.2 91.1999 25 91.1999 24.7C91.1999 24.3 91.1999 23.9 90.9999 23.4C90.9999 23.1 90.9999 22.9 91.1999 22.7C91.4999 22.2 91.2999 21.5 91.5999 20.9C91.5999 20.9 91.5999 20.9 91.5999 20.8C91.5999 20.3 91.7999 19.8 91.8999 19.3C91.8999 19.1 91.8999 18.9 91.7999 18.9C91.5999 18.9 91.3999 19 91.3999 19.2C91.3999 19.5 91.1999 19.8 91.1999 20C91.1999 19.5 91.5999 19 91.1999 18.5C91.1999 18.4 91.1999 18.1 91.1999 17.9C91.1999 17.7 91.2999 17.4 91.1999 17.2C90.9999 16.9 90.8999 16.6 90.3999 16.8C90.2999 17 90.1999 17.1 90.0999 17.3C89.9999 17.7 89.9999 18.2 89.6999 18.7C89.7999 18.4 89.9999 18.2 89.8999 17.9C89.7999 17.7 89.5999 17.7 89.3999 17.8C89.2999 17.8 89.1999 18 89.1999 18.2C89.1999 18.6 89.1999 19.1 88.7999 19.4C88.7999 19.3 88.7999 19.1 88.7999 19V18.8C89.1999 17.9 89.1999 16.9 89.3999 16C89.3999 15.9 89.3999 15.8 89.3999 15.7C89.4999 15.3 89.5999 15 89.1999 14.7C88.9999 14.6 88.8999 14.7 88.8999 14.9C88.8999 15.1 88.8999 15.3 88.8999 15.4C88.8999 15.8 88.4999 16.1 88.4999 16.5C88.4999 16.6 88.4999 16.8 88.3999 16.8C88.3999 16.5 88.0999 16.3 88.5999 16.1C88.7999 16.1 88.7999 15.7 88.8999 15.5C88.8999 15.4 88.8999 15.3 88.8999 15.1C88.8999 14.8 88.8999 14.6 88.3999 14.7C88.3999 14.7 88.1999 14.7 88.0999 14.7C88.1999 14.1 88.5999 13.6 88.6999 13C88.6999 12.9 88.6999 12.7 88.6999 12.6C88.3999 12.3 88.2999 12.6 88.0999 12.8C87.8999 13.4 87.7999 13.5 87.2999 13.1C87.0999 13 86.9999 12.9 86.7999 12.9C86.7999 12.9 86.6999 12.9 86.5999 12.9C86.0999 13.1 86.1999 13.8 85.8999 14.2C85.8999 13.6 86.0999 12.9 86.2999 12.3C86.2999 12.1 86.3999 11.9 86.1999 11.8C85.8999 11.6 85.9999 11.4 86.1999 11.3C86.6999 11 86.7999 10.4 86.9999 9.90001C86.9999 9.60001 86.8999 9.40001 86.6999 9.20001C86.6999 8.80001 86.4999 8.60001 86.0999 9.00001C86.0999 8.70001 85.8999 8.50001 85.8999 8.20001C85.8999 8.00001 85.6999 8.00001 85.4999 8.10001C84.9999 8.30001 84.4999 8.40001 84.1999 8.90001C84.3999 9.30001 84.3999 9.60001 83.9999 9.80001C84.1999 9.60001 84.3999 9.40001 84.1999 9.10001C84.1999 9.00001 84.0999 8.80001 84.1999 8.80001C84.5999 8.50001 84.3999 8.10001 84.1999 7.80001C83.6999 7.80001 83.4999 8.10001 83.3999 8.50001C83.3999 8.70001 83.2999 8.90001 82.9999 9.10001C82.9999 9.10001 82.7999 9.10001 82.6999 9.20001C82.5999 9.20001 82.4999 9.30001 82.3999 9.40001C82.1999 9.50001 82.1999 9.80001 81.8999 9.40001C81.7999 9.20001 81.5999 9.50001 81.4999 9.60001C80.7999 9.60001 80.7999 9.60001 81.0999 10.4C81.2999 10.6 81.5999 10.4 81.8999 10.4C81.8999 10.6 81.8999 10.7 81.7999 10.8C81.7999 10.8 81.7999 11 81.7999 11.1C82.0999 11.5 81.7999 11.7 81.4999 12C81.4999 12 81.3999 12 81.2999 12.1C81.2999 12.3 81.2999 12.5 81.0999 12.6C80.8999 12.6 80.7999 12.4 80.7999 12.3L80.5999 12.2C80.3999 12.2 80.0999 12.5 80.0999 12C80.0999 11.8 79.9999 11.7 79.7999 11.8C79.0999 12.1 78.6999 12.1 78.1999 12.1C77.5999 12.2 77.4999 12.8 77.8999 13.3C78.0999 13.3 78.3999 13.3 78.2999 13.7C78.2999 13.9 78.4999 13.9 78.6999 13.9C78.4999 14 78.3999 13.9 78.2999 13.9C78.0999 13.8 77.9999 13.7 77.7999 13.9C77.5999 14.1 77.7999 14.3 77.7999 14.4C77.9999 14.6 77.7999 14.7 77.7999 14.9C77.5999 15.1 77.3999 15.1 77.1999 15.2C77.1999 15.2 77.0999 15 76.9999 15C76.7999 15.2 76.4999 15 76.2999 15.1C76.2999 15.4 76.2999 15.7 76.0999 15.9C75.9999 16.1 75.7999 16.4 76.0999 16.6C76.3999 16.9 76.0999 17.1 75.8999 17.3C75.8999 17.3 75.8999 17.4 75.8999 17.5C75.9999 17.7 76.3999 17.8 76.2999 18.1C76.2999 18.3 76.1999 18.5 75.9999 18.6C75.9999 18.7 75.9999 18.8 75.9999 18.9C76.2999 19.2 76.6999 19.4 76.6999 19.8C76.6999 20 77.1999 19.8 76.9999 20.2C76.9999 20.3 76.9999 20.4 76.9999 20.5C76.9999 20.8 76.9999 21.2 76.7999 21.4C76.4999 21.9 76.4999 22.3 76.5999 22.8C76.6999 23.2 76.5999 23.5 76.0999 23.4C75.9999 23.4 75.7999 23.4 75.6999 23.4C75.5999 23.4 75.4999 23.5 75.3999 23.6C75.3999 23.6 75.2999 23.8 75.1999 23.9C75.1999 24.3 74.8999 24.3 74.5999 24.2C74.3999 24.2 74.1999 24.2 73.9999 24.1C73.9999 23.8 74.1999 24.1 74.2999 24C74.4999 24 74.5999 24.1 74.7999 24.1C75.0999 24.1 75.1999 23.9 74.9999 23.7C74.8999 23.5 74.9999 23.3 74.9999 23.1C74.9999 22.8 75.3999 22.6 74.9999 22.3C74.4999 22 74.4999 22 74.1999 22.5V22.7C74.2999 22.9 74.3999 23.1 73.9999 23.1C73.5999 23.1 73.2999 23.1 73.0999 22.8C72.8999 22.5 72.6999 22.7 72.3999 22.8C72.5999 22.6 72.3999 22.4 72.3999 22.2C72.2999 22 72.3999 21.9 72.3999 21.7C71.7999 21.7 71.1999 22 71.0999 22.8C71.0999 22.4 71.2999 22.2 71.2999 21.9C71.2999 21.7 71.3999 21.6 71.2999 21.5C71.0999 21.4 70.9999 21.5 70.8999 21.6C70.2999 22.1 69.5999 22 68.9999 22.3C68.3999 22.3 68.6999 21.8 68.5999 21.5C68.5999 21.5 68.5999 21.5 68.4999 21.4C68.2999 21.4 68.0999 21.3 67.8999 21.6C67.8999 21.6 67.7999 21.6 67.6999 21.6C67.6999 21.6 67.5999 21.6 67.4999 21.6C67.2999 21.6 66.9999 21.4 66.7999 21.8C66.7999 22 67.0999 22 67.1999 22.2C67.1999 22.3 67.3999 22.4 67.4999 22.5C67.4999 22.5 67.5999 22.5 67.6999 22.6C67.7999 22.6 68.1999 22.6 67.7999 22.9C67.6999 22.9 67.5999 23.1 67.4999 23.1C67.3999 23.1 67.2999 23.3 67.2999 23.4V23.5C67.2999 23.5 67.6999 23.4 67.5999 23.7C67.5999 23.9 67.4999 23.9 67.2999 23.8C66.9999 23.8 66.7999 24 66.5999 24.2C66.5999 24.2 66.5999 24.2 66.5999 24.3C66.5999 24.5 66.5999 24.6 66.5999 24.8C66.5999 25.4 66.5999 25.8 66.9999 26.2C66.9999 26.2 66.9999 26.2 66.9999 26.3C67.1999 26.6 66.9999 27 67.1999 27.2C67.3999 27.2 67.6999 27.2 67.3999 27.6C67.3999 27.9 67.5999 28.1 67.7999 28.3C67.8999 28.4 67.9999 28.6 68.1999 28.7C68.2999 28.7 68.3999 28.8 68.5999 28.9C68.5999 28.9 68.7999 29 68.8999 29C68.5999 29.3 68.3999 29.6 67.8999 29.6C67.5999 29.6 67.4999 29.9 67.4999 30.2C67.5999 30.6 67.2999 30.8 67.1999 31.1C67.2999 31.5 66.8999 31.5 66.6999 31.7C66.6999 31.9 66.4999 32.2 66.6999 32.5C66.3999 32.1 66.0999 32.5 65.6999 32.4C65.7999 32.1 65.8999 31.9 65.5999 31.7C65.3999 31.6 65.4999 31.4 65.4999 31.2C65.4999 30.9 65.5999 30.5 65.4999 30.2C65.4999 30.1 65.3999 30 65.1999 29.9C65.1999 29.9 65.0999 29.9 64.9999 29.8C64.8999 29.6 64.9999 29.2 64.6999 29.2C64.1999 29.1 63.7999 28.7 63.2999 28.9C63.0999 28.9 62.9999 29.1 62.9999 29.3C62.9999 29.5 62.7999 29.6 62.5999 29.7C62.1999 29.7 62.0999 29.9 62.2999 30.3C62.4999 30.9 62.4999 31.5 62.0999 32C61.9999 32.1 61.7999 32.4 61.5999 32.2C61.3999 32.1 61.3999 31.9 61.5999 31.7C61.6999 31.4 61.6999 31.4 61.2999 31.3C61.5999 31.1 61.6999 30.8 61.5999 30.5C61.5999 30.3 61.3999 30.3 61.2999 30.5C61.9999 30.5 61.7999 29.8 61.7999 29.4C61.7999 29.2 61.7999 29.1 61.7999 28.9C61.6999 28.6 61.3999 28.6 61.0999 28.5C60.8999 28.5 60.6999 28.5 60.6999 28.1C60.6999 27.9 60.6999 27.8 60.6999 27.6C60.6999 26.9 60.8999 26.3 60.6999 25.6C60.6999 25.4 60.7999 25.4 60.9999 25.6C61.0999 25.8 61.2999 26 61.4999 25.6C61.5999 25.3 61.8999 24.9 61.4999 24.8C60.8999 24.6 61.0999 24.3 61.1999 23.9C61.1999 23.8 61.1999 23.7 61.1999 23.6C60.9999 23.2 60.7999 22.8 60.9999 22.4C60.9999 21.9 60.8999 21.3 61.3999 21C61.3999 20.8 61.3999 20.7 61.1999 20.7C60.9999 20.5 61.0999 20.3 61.1999 20.1C61.2999 19.6 61.3999 19 61.4999 18.4C61.4999 18.2 61.4999 18.1 61.6999 18C61.8999 17.8 62.0999 17.5 61.7999 17.2C61.7999 17.1 61.7999 17 61.8999 16.9C61.4999 16.4 61.5999 15.8 61.8999 15.3C61.8999 15.3 61.8999 15.1 61.9999 15.1C61.9999 14.5 62.1999 13.9 62.0999 13.3C62.0999 13.3 62.0999 13.1 61.8999 13.1H61.6999C61.3999 13.3 60.9999 13.1 60.8999 13.5C60.8999 13.7 60.9999 13.7 61.0999 13.9C61.3999 14.3 61.2999 14.4 60.8999 14.5C60.7999 14.5 60.5999 14.5 60.4999 14.7C60.4999 14.9 60.6999 14.9 60.7999 14.9C61.0999 14.9 61.0999 15.2 60.9999 15.3C60.6999 15.7 60.7999 16.1 60.5999 16.5C60.5999 16.7 60.7999 16.9 60.5999 17.1C60.5999 17.2 60.3999 17.4 60.2999 17.6C60.2999 17.8 60.2999 18.2 59.7999 18.2C59.6999 18.2 59.7999 18.5 59.5999 18.6C59.0999 18.3 58.9999 17.9 59.5999 17.5C59.5999 17.5 59.5999 17.3 59.5999 17.2C59.7999 17.2 59.6999 17.5 59.6999 17.6C59.6999 17.8 59.8999 17.9 60.0999 17.9C60.2999 17.9 60.2999 17.7 60.2999 17.6C60.2999 17.1 60.2999 16.6 60.2999 16.1C60.2999 15.8 60.4999 15.6 60.2999 15.3C60.1999 15.1 60.1999 14.8 59.7999 14.9C59.4999 14.9 59.3999 15.1 59.3999 15.4C59.3999 15.6 59.3999 15.8 59.3999 15.9C59.3999 16.1 59.3999 16.4 59.3999 16.7C59.1999 16.7 58.9999 16.6 58.7999 16.7C59.5999 15.9 59.5999 15.8 58.9999 15.4C58.8999 15.4 58.8999 15.2 58.7999 15C58.7999 14.8 58.5999 14.8 58.4999 14.9C58.2999 14.8 58.4999 14.7 58.4999 14.5C58.4999 14.4 58.4999 14.3 58.5999 14.2C58.8999 13.6 58.7999 12.9 59.0999 12.3C59.1999 12 58.8999 11.6 59.0999 11.2C58.9999 10.4 59.0999 9.60001 59.5999 8.90001C59.5999 8.70001 59.7999 8.40001 59.3999 8.40001C59.5999 8.40001 59.6999 8.60001 59.5999 8.90001C59.5999 9.00001 59.5999 9.10001 59.4999 9.20001C59.0999 9.60001 59.1999 10.1 59.4999 10.5C59.4999 10.6 59.6999 10.6 59.7999 10.7C59.8999 10.7 59.9999 10.7 60.0999 10.7C60.0999 10.1 59.9999 9.50001 60.1999 9.00001C60.1999 8.80001 60.3999 8.70001 60.4999 8.60001C60.4999 8.60001 60.4999 8.60001 60.5999 8.50001C60.7999 8.20001 60.7999 7.90001 60.9999 7.60001C61.1999 7.40001 61.3999 7.30001 61.2999 7.00001C61.1999 6.80001 60.8999 6.70001 60.6999 6.80001C60.4999 6.80001 60.3999 7.00001 60.1999 7.10001C60.1999 7.10001 60.1999 7.40001 60.0999 7.30001C59.5999 7.30001 59.5999 7.60001 59.6999 7.90001C59.4999 7.70001 59.4999 7.50001 59.6999 7.30001C59.6999 7.30001 59.8999 7.20001 59.8999 7.10001C59.8999 6.80001 59.6999 6.40001 60.2999 6.70001C60.2999 6.70001 60.3999 6.50001 60.4999 6.40001C60.4999 6.20001 60.4999 6.00001 60.4999 5.80001C60.4999 6.00001 60.4999 6.20001 60.7999 6.20001C60.9999 6.20001 60.9999 6.00001 60.9999 5.80001C60.9999 5.50001 61.1999 5.10001 60.9999 4.80001H60.7999C60.5999 5.20001 60.2999 5.00001 59.9999 4.90001C59.6999 5.10001 59.3999 4.90001 59.2999 4.70001C59.2999 4.50001 59.3999 4.20001 59.6999 4.20001C59.6999 4.20001 59.8999 4.20001 59.8999 4.00001C60.1999 3.60001 59.9999 3.30001 59.5999 3.20001C59.4999 2.90001 59.1999 3.00001 58.9999 3.00001C58.3999 2.40001 57.8999 2.40001 57.4999 3.20001C57.2999 3.60001 57.2999 3.90001 57.2999 4.30001V4.60001C57.2999 4.90001 57.1999 5.30001 57.0999 5.60001C57.0999 5.40001 57.1999 5.30001 57.0999 5.10001C56.6999 4.90001 56.7999 4.40001 56.3999 4.30001C56.1999 4.30001 56.0999 4.30001 56.0999 4.10001C55.5999 3.70001 56.2999 3.60001 56.2999 3.30001C56.2999 3.10001 56.3999 3.00001 56.2999 2.80001C56.2999 2.70001 56.0999 2.60001 56.0999 2.40001C56.0999 2.10001 56.0999 1.90001 56.3999 1.80001C56.7999 1.30001 56.7999 1.30001 56.3999 1.00001C56.0999 0.800008 56.3999 0.700006 56.3999 0.600006C56.3999 0.200006 56.1999 -0.0999936 55.6999 0.100006C54.7999 0.300006 53.7999 0.700006 52.8999 1.10001C52.8999 1.10001 52.6999 1.30001 52.6999 1.40001C52.4999 2.40001 51.9999 3.10001 51.1999 3.60001C51.0999 3.60001 50.9999 3.80001 50.8999 4.00001C50.8999 3.70001 51.0999 3.50001 51.0999 3.30001C51.0999 3.10001 51.0999 3.00001 50.9999 2.80001C50.8999 2.60001 50.6999 2.80001 50.5999 2.80001C50.3999 2.90001 50.0999 2.90001 49.8999 3.00001C49.7999 3.00001 49.5999 3.00001 49.4999 3.00001C49.0999 3.00001 48.9999 3.30001 48.6999 3.50001C48.4999 3.30001 48.6999 2.90001 48.3999 2.80001C48.1999 2.80001 48.0999 3.00001 47.9999 3.10001C47.9999 3.10001 47.8999 3.30001 47.7999 3.10001C47.7999 2.80001 47.9999 2.50001 47.9999 2.20001C47.9999 1.90001 47.7999 1.60001 47.4999 1.40001C47.3999 1.40001 47.2999 1.20001 47.2999 1.00001C47.2999 0.800008 47.0999 0.600009 46.7999 0.700009C46.6999 0.800009 46.7999 1.00001 46.7999 1.10001C46.7999 1.80001 46.7999 1.90001 46.0999 2.00001C45.6999 2.00001 45.5999 2.40001 45.3999 2.60001C45.3999 2.60001 45.3999 2.70001 45.3999 2.80001C45.3999 3.10001 45.3999 3.40001 45.6999 3.60001C45.9999 3.80001 46.1999 4.10001 46.1999 4.40001C46.5999 4.60001 46.6999 4.20001 46.9999 4.00001C46.8999 3.80001 46.9999 3.60001 46.8999 3.40001C46.9999 3.60001 46.8999 3.70001 46.8999 3.80001C47.0999 4.00001 46.8999 4.10001 46.6999 4.20001C46.5999 4.40001 46.2999 4.40001 46.2999 4.70001C46.2999 5.00001 46.6999 5.20001 46.5999 5.50001C46.5999 5.80001 46.8999 6.00001 46.4999 6.40001C46.1999 6.60001 46.7999 6.70001 46.7999 6.90001C46.3999 7.20001 46.4999 7.70001 46.4999 8.10001C46.4999 8.20001 46.4999 8.40001 46.4999 8.50001V8.70001C46.4999 8.90001 46.4999 9.10001 46.4999 9.30001C46.4999 9.50001 46.4999 9.70001 46.4999 9.80001C46.4999 10.1 46.3999 10.5 46.4999 10.8C46.4999 11 46.4999 11.2 46.2999 11.4C46.0999 11.5 46.0999 11.7 46.0999 11.9C46.0999 12.2 46.0999 12.4 45.7999 12.5C45.3999 12.8 45.3999 13.2 45.7999 13.5C45.9999 13.6 46.0999 13.7 45.9999 13.9C45.9999 14 45.9999 14.2 45.9999 14.4C45.9999 14.4 45.9999 14.5 45.9999 14.6C45.9999 15 46.0999 15.4 45.6999 15.7C45.6999 15.8 45.6999 15.9 45.6999 16C45.9999 16.4 45.8999 16.4 45.5999 16.7C45.3999 16.9 45.3999 17.1 45.3999 17.3C45.3999 17.4 45.3999 17.6 45.3999 17.7C45.2999 17.3 45.1999 17.2 44.7999 17.7C44.4999 18 44.5999 17.7 44.5999 17.7V17.6C44.4999 17.6 44.3999 17.6 44.2999 17.7C44.1999 18 44.0999 18.3 44.1999 18.4C44.1999 18.2 43.8999 18.1 43.6999 18.2C43.4999 18.4 43.3999 18.6 43.6999 18.7C44.0999 18.8 44.1999 19.1 44.1999 19.4C44.1999 19.8 44.2999 20.1 44.1999 20.5C44.1999 20.1 44.1999 19.7 43.9999 19.4C43.9999 19.2 43.8999 19 43.6999 19.1C43.4999 19.1 43.3999 19.3 43.3999 19.4C43.3999 19.5 43.3999 19.7 43.1999 19.8C43.0999 20 43.2999 20.1 43.2999 20.3C43.2999 20.3 43.2999 20.5 43.1999 20.5C43.1999 20.4 43.2999 20.2 43.1999 20.1C43.0999 20 42.8999 19.9 42.7999 20.1C42.5999 20.3 42.2999 20.4 42.0999 20.7C41.7999 20.9 41.8999 21.2 42.0999 21.3C42.4999 21.4 42.3999 21.7 42.4999 22C42.2999 21.7 41.9999 21.7 41.7999 21.7C41.6999 21.7 41.4999 21.7 41.3999 21.6C41.1999 21.3 40.8999 21.6 40.8999 21.7C41.0999 22 40.6999 22.6 41.1999 22.7C40.7999 22.8 40.3999 22.6 39.9999 22.5C39.6999 22.7 39.2999 22.7 38.9999 22.9C38.9999 22.9 38.7999 23 38.7999 23.2C38.7999 23.2 38.8999 23.3 38.9999 23.3C39.4999 23.3 39.7999 23.4 39.8999 24C39.8999 24 39.9999 24 40.0999 24C39.8999 24 39.5999 24.2 39.6999 23.8C39.6999 23.4 39.4999 23.3 39.2999 23.4C38.8999 23.4 38.5999 23.2 38.2999 23.2C37.6999 23.1 37.0999 23.2 36.4999 23.1C36.1999 22.9 36.1999 22.5 36.1999 22.2C36.1999 22 36.1999 21.9 36.1999 21.7C36.3999 21.1 36.6999 21.4 36.9999 21.5C37.1999 21.5 37.4999 21.5 37.6999 21.5H37.7999C37.5999 21.2 37.5999 20.7 37.0999 20.6C37.0999 20.6 36.9999 20.6 36.9999 20.8C36.8999 21.1 36.6999 21 36.4999 20.8C36.2999 20.7 36.4999 20.6 36.4999 20.4C36.5999 20.2 36.8999 20 36.6999 19.7C36.4999 19.6 36.3999 19.7 36.1999 19.7C35.9999 19.7 35.7999 19.5 35.7999 19.3C35.7999 19.1 35.8999 19 36.0999 18.9C36.3999 18.7 36.8999 18.9 36.7999 18.2C36.7999 18.1 37.0999 18.2 37.2999 18.2C37.9999 18.4 38.0999 18.4 38.4999 17.8C38.5999 17.6 38.7999 17.7 38.9999 17.6C39.1999 17.6 39.4999 17.6 39.4999 17.2C39.4999 16.8 39.0999 17 38.9999 16.9C39.1999 16.8 39.4999 16.9 39.6999 16.9C39.6999 16.9 39.6999 16.9 39.7999 16.9C39.8999 16.7 40.2999 16.6 40.2999 16.3C39.9999 15.9 39.7999 16 39.5999 16.3C39.5999 16.5 39.4999 16.7 39.1999 16.5C38.8999 16.4 38.6999 16.1 38.3999 16.5C38.4999 16.1 38.1999 16.2 37.9999 16.1C38.0999 16 38.2999 15.9 38.2999 15.8C38.2999 15.5 38.1999 15.6 37.9999 15.5C37.8999 15.5 37.9999 15 38.2999 14.9C38.4999 14.9 38.6999 14.9 38.7999 14.7C38.9999 14.5 38.9999 14.2 38.7999 14.1C38.8999 14 38.9999 14 39.0999 14C39.2999 14 39.5999 14.1 39.5999 13.8C39.5999 13.6 39.3999 13.5 39.0999 13.5C39.3999 13.3 39.4999 13 39.7999 12.9C39.9999 12.6 40.4999 12.8 40.4999 12.3C40.4999 12.3 40.7999 12.2 40.9999 12.3C41.0999 12.3 41.1999 12.3 41.2999 12.1C41.2999 11.8 41.3999 11.5 41.6999 11.3C41.9999 11.1 41.8999 10.4 41.4999 10.2C41.3999 10.2 41.1999 10.2 41.0999 10C41.0999 9.80001 41.3999 9.50001 41.2999 9.20001C41.1999 9.00001 40.7999 8.70001 41.2999 8.50001C40.9999 8.00001 41.4999 7.60001 41.2999 7.10001C41.2999 7.10001 41.1999 7.10001 41.0999 7.10001C40.8999 7.40001 40.4999 7.10001 40.2999 7.40001C40.2999 7.40001 40.1999 7.60001 40.1999 7.70001C40.2999 8.30001 40.3999 8.90001 40.3999 9.50001C39.8999 9.80001 39.8999 9.80001 39.7999 9.10001C39.5999 9.10001 39.3999 8.80001 39.1999 8.80001C39.0999 8.80001 38.9999 8.80001 38.8999 8.90001C38.8999 8.70001 38.9999 8.50001 39.0999 8.30001C39.0999 8.30001 39.0999 8.20001 39.0999 8.10001C39.0999 8.00001 38.9999 7.80001 38.8999 7.90001C38.5999 8.00001 38.1999 8.00001 38.0999 8.20001C37.8999 8.80001 37.2999 8.70001 36.7999 9.00001C36.4999 9.20001 35.4999 9.40001 34.9999 9.30001C34.7999 9.30001 34.5999 9.30001 34.4999 9.50001C34.4999 9.50001 34.4999 9.50001 34.4999 9.30001C34.4999 9.00001 34.5999 8.60001 33.9999 8.80001C33.9999 8.80001 33.9999 8.60001 33.9999 8.50001C33.9999 8.30001 33.9999 8.20001 33.8999 8.00001C33.6999 7.90001 33.4999 7.70001 33.1999 7.80001C33.1999 7.80001 33.0999 7.80001 33.1999 7.50001C33.1999 7.30001 33.1999 7.20001 33.1999 7.00001C33.2999 6.70001 33.4999 6.50001 33.7999 6.80001C34.1999 7.20001 34.1999 7.20001 34.4999 6.60001C34.4999 6.60001 34.4999 6.50001 34.4999 6.40001C34.2999 6.00001 34.0999 5.50001 33.5999 5.30001C33.3999 5.20001 33.2999 5.00001 33.2999 4.80001C33.2999 4.20001 33.0999 4.00001 32.4999 3.90001C32.1999 3.90001 32.1999 3.50001 31.8999 3.40001C32.2999 2.80001 32.6999 2.30001 33.1999 1.90001C33.1999 1.70001 33.1999 1.60001 32.9999 1.60001C32.6999 1.30001 32.3999 1.20001 31.9999 1.40001C31.9999 1.40001 31.7999 1.50001 31.8999 1.60001C32.1999 2.10001 31.5999 2.20001 31.3999 2.50001C31.4999 2.20001 31.6999 1.90001 31.4999 1.60001C31.4999 1.60001 31.2999 1.70001 31.2999 1.80001C31.2999 1.80001 31.0999 1.80001 31.0999 2.00001C30.8999 2.40001 30.4999 2.50001 30.0999 2.50001C30.0999 2.50001 29.8999 2.60001 29.8999 2.70001C30.0999 3.60001 29.2999 4.00001 29.0999 4.60001C29.0999 4.60001 29.0999 4.60001 29.0999 4.70001C29.0999 4.80001 29.0999 5.10001 28.6999 5.00001C28.6999 5.00001 28.4999 5.10001 28.4999 5.20001C28.3999 5.20001 28.2999 5.60001 28.0999 5.20001C27.9999 5.00001 27.7999 4.90001 27.5999 5.20001C26.8999 6.60001 26.8999 8.10001 26.4999 9.40001C26.4999 9.00001 26.6999 8.40001 26.7999 7.80001C26.7999 7.70001 26.7999 7.50001 26.8999 7.40001C26.8999 7.20001 26.8999 7.00001 26.7999 6.90001C26.5999 6.90001 26.4999 7.10001 26.4999 7.20001C26.2999 7.80001 26.0999 8.40001 25.9999 9.10001C25.9999 9.30001 25.9999 9.40001 25.8999 9.60001C25.8999 9.90001 25.8999 10.3 25.5999 10.6C25.5999 10.1 25.5999 9.70001 25.7999 9.30001C25.7999 8.90001 25.4999 8.50001 25.9999 8.20001C26.2999 8.00001 26.1999 7.70001 26.0999 7.40001C25.8999 7.20001 25.7999 7.40001 25.6999 7.40001C25.4999 7.50001 25.2999 7.60001 25.2999 7.90001C25.2999 8.00001 25.2999 8.20001 25.2999 8.30001C25.2999 8.30001 25.2999 8.50001 25.1999 8.60001C25.1999 8.40001 25.1999 8.20001 25.1999 8.00001C24.9999 7.60001 24.6999 7.60001 24.3999 7.80001C24.3999 7.80001 24.3999 7.80001 24.3999 7.90001C24.3999 7.90001 24.3999 8.00001 24.3999 8.10001C24.3999 8.20001 24.5999 8.40001 24.3999 8.40001C24.1999 8.40001 24.3999 8.20001 24.2999 8.10001C24.2999 8.00001 24.2999 7.80001 24.2999 7.70001C24.2999 7.50001 24.5999 7.10001 23.9999 7.10001C23.5999 7.20001 23.7999 7.60001 23.7999 7.70001C23.7999 7.90001 23.9999 8.10001 23.5999 8.10001C23.5999 8.10001 23.4999 8.10001 23.4999 8.20001C23.4999 8.30001 23.4999 8.70001 23.1999 8.60001C22.9999 8.60001 23.0999 8.20001 23.1999 8.10001C23.4999 7.50001 22.9999 7.10001 22.6999 6.70001C22.4999 7.00001 22.6999 7.40001 22.2999 7.40001C22.2999 7.40001 21.6999 7.40001 21.8999 7.00001C21.8999 7.00001 21.8999 6.90001 21.8999 6.80001C21.8999 6.60001 21.8999 6.40001 21.6999 6.40001C21.4999 6.40001 21.4999 6.70001 21.4999 6.80001C21.4999 6.80001 21.4999 6.80001 21.4999 6.90001C21.5999 7.50001 21.4999 8.00001 20.8999 8.20001C20.7999 8.30001 20.6999 8.60001 20.5999 8.80001C20.1999 8.40001 20.3999 8.00001 20.3999 7.60001V7.40001C20.3999 7.30001 20.1999 7.20001 19.9999 7.30001C19.7999 7.40001 19.7999 7.50001 19.6999 7.70001C19.8999 8.20001 19.4999 8.50001 19.2999 8.90001C19.4999 8.40001 19.2999 7.90001 19.2999 7.40001C19.2999 6.90001 19.1999 6.50001 18.5999 6.40001C18.5999 6.40001 18.5999 6.40001 18.4999 6.50001C18.4999 6.50001 18.3999 6.60001 18.2999 6.70001C18.2999 6.80001 18.0999 6.90001 17.9999 7.00001C17.8999 7.00001 17.6999 7.00001 17.4999 7.00001C17.2999 7.00001 17.1999 7.10001 17.2999 7.30001C17.2999 7.30001 17.2999 7.50001 17.2999 7.60001C17.1999 7.80001 16.9999 8.00001 16.6999 8.10001C16.6999 8.10001 16.4999 8.10001 16.3999 8.20001C16.1999 8.30001 16.0999 8.50001 15.9999 8.20001C15.9999 8.20001 15.8999 8.00001 15.7999 8.10001C15.6999 8.10001 15.6999 8.20001 15.6999 8.30001C15.6999 8.50001 15.7999 8.80001 15.4999 9.00001C15.2999 9.00001 15.2999 9.20001 15.3999 9.40001C15.4999 9.60001 15.5999 9.70001 15.3999 9.90001C15.3999 10 15.2999 10.1 15.2999 10.3C15.2999 10.5 15.2999 10.6 15.0999 10.8C14.8999 10.8 14.8999 10.6 14.6999 10.6C14.6999 10.6 14.4999 10.6 14.3999 10.6C14.0999 10.8 14.2999 11 14.3999 11.2C14.8999 11.4 14.9999 11.8 14.8999 12.3C14.8999 12.3 14.7999 12.2 14.6999 12.1H14.4999C14.4999 12.2 14.4999 12.3 14.4999 12.4C14.4999 12.6 14.2999 12.7 14.2999 12.9C14.2999 13 14.2999 13.2 14.3999 13.3C14.4999 13.5 14.9999 13.6 14.3999 13.9H14.1999C14.1999 13.9 14.1999 13.9 14.0999 14C14.0999 14.3 13.8999 14.5 14.2999 14.6C14.4999 14.6 14.4999 14.6 14.4999 14.8C14.3999 15.1 14.4999 15.4 14.4999 15.7C14.4999 16 14.1999 16.2 14.2999 16.5C13.9999 16.5 14.0999 16.1 13.8999 16.1C13.3999 16.1 13.1999 16.3 12.8999 16.7C12.6999 16.9 12.6999 17.1 12.8999 17.4C12.5999 17.2 12.4999 17 12.5999 16.8C12.5999 16.6 12.6999 16.4 12.6999 16.2C12.6999 15.9 12.6999 15.8 12.2999 16C12.1999 16.2 12.0999 16.5 11.7999 16.6C11.5999 16.6 11.4999 16.6 11.3999 16.6C11.1999 16.8 11.0999 16.9 11.0999 17.1C11.0999 17.3 11.0999 17.4 10.9999 17.5C10.7999 17.7 10.4999 17.8 10.2999 17.9C10.0999 18.1 10.0999 18.2 10.1999 18.5C9.99994 18.2 9.99994 17.9 9.99994 17.6C9.99994 17.4 10.1999 17.1 9.99994 17C9.79994 17 9.59994 17.1 9.49994 17.3C9.49994 17.3 9.49994 17.4 9.49994 17.5V17.7C9.49994 17.7 9.49994 17.6 9.49994 17.5C9.49994 17.2 9.49994 16.9 9.19994 16.8C9.09994 16.8 8.89994 16.5 8.89994 16.8C8.89994 17.1 8.99994 17.4 8.59994 17.5C8.49994 17.5 8.59994 17.6 8.59994 17.6C8.89994 17.6 8.59994 17.8 8.69994 17.9C8.49994 18.4 8.09994 18.2 7.79994 18.2C7.79994 18.2 7.79994 18.4 7.69994 18.4C7.19994 18.7 7.29994 19.2 7.39994 19.6C7.39994 19.8 7.39994 19.9 7.39994 20C7.19994 20.2 7.29994 20.4 7.39994 20.6C7.39994 20.7 7.39994 20.8 7.29994 20.9C7.29994 21.1 7.19994 21.2 7.39994 21.3C7.69994 21.3 7.59994 21.6 7.79994 21.8C7.99994 22.1 7.69994 22.1 7.59994 22.2C7.39994 22.6 7.39994 23 7.49994 23.4C7.49994 23.4 7.59994 23.5 7.49994 23.6C7.39994 23.7 7.09994 23.7 7.09994 23.9C7.19994 24.1 7.49994 23.9 7.59994 24.1C7.39994 24.1 7.29994 24 7.19994 24.1C7.29994 24.5 7.19994 25 7.19994 25.4C7.19994 25.6 7.19994 25.8 6.99994 26C6.99994 26.1 7.19994 26.4 6.89994 26.4C6.79994 26.4 6.79994 26.5 6.79994 26.6C6.79994 27.5 6.99994 28.3 7.09994 29.2C7.09994 29.2 7.09994 29.4 7.09994 29.5C6.79994 29.8 6.69994 30.1 6.99994 30.4C7.09994 30.6 7.09994 30.7 6.99994 30.9C6.99994 31.1 7.19994 31.1 7.29994 31.3C7.29994 31.3 7.29994 31.3 7.39994 31.4C7.39994 31.6 7.89994 31.2 7.59994 31.6C7.59994 31.7 7.59994 31.9 7.59994 32C7.79994 32.2 7.59994 32.3 7.59994 32.4C7.29994 32.7 7.29994 32.9 7.69994 33.2C7.69994 33.3 7.39994 33.3 7.39994 33.5C7.39994 33.8 7.19994 34 7.39994 34.3C7.39994 34.3 7.59994 34.3 7.69994 34.3C8.19994 34.2 8.09994 34.4 7.89994 34.7C8.29994 35.5 8.29994 36.3 7.89994 37.1C7.79994 37.3 7.69994 37.5 7.69994 37.7C7.69994 37.7 7.69994 37.6 7.69994 37.5C7.59994 37.3 7.49994 37.2 7.29994 37.1C7.09994 37.1 6.99994 37.1 6.79994 37.1C6.59994 37.1 6.59994 37.4 6.59994 37.5C6.49994 37.7 6.49994 38 6.19994 38H6.09994C6.09994 38 6.09994 38.1 6.09994 38.2C6.09994 38.4 6.39994 38.4 6.29994 38.6C6.29994 38.6 6.09994 38.7 6.09994 38.8C6.09994 38.9 5.99994 39.1 5.99994 39.2C5.99994 39.2 5.99994 39.3 6.09994 39.4C6.29994 39.4 6.39994 39.7 6.49994 39.9C6.19994 40.3 5.99994 40.1 5.89994 39.8C5.89994 39.7 5.89994 39.5 5.59994 39.6C5.39994 39.6 5.49994 39.8 5.39994 39.9C5.39994 40.2 5.19994 40.5 5.39994 40.7C4.99994 41.2 5.19994 41.8 5.19994 42.3C5.19994 43 5.39994 43.8 5.29994 44.6C5.29994 44.8 5.29994 45 4.99994 45C4.69994 45 4.59994 44.8 4.69994 44.7C4.69994 44.5 4.69994 44.4 4.49994 44.3C4.19994 44.4 4.69994 44.8 4.39994 44.8C4.19994 44.8 4.29994 44.5 4.19994 44.3C4.09994 44.3 3.99994 44.3 3.89994 44.3C3.59994 44.4 3.69994 44.2 3.69994 44.1C3.69994 43.8 3.69994 43.5 3.49994 43.3C3.39994 43.3 3.29994 43.3 3.19994 43.4C2.79994 43.4 2.99994 42.9 2.59994 42.9C2.79994 43 2.59994 43.3 2.79994 43.4C2.79994 43.4 2.89994 43.5 2.79994 43.5C2.49994 44.1 3.29994 44.8 2.79994 45.4V45.5C3.09994 45.8 2.99994 46 2.69994 46.2C2.49994 46.2 2.69994 46.4 2.69994 46.6C2.69994 46.9 2.69994 47.3 2.89994 47.7C2.89994 48 3.09994 48.3 2.89994 48.6C2.69994 48.8 2.69994 49 2.69994 49.3C2.69994 49.6 2.49994 49.7 2.39994 49.9C2.29994 49.6 2.39994 49.2 1.99994 49C1.99994 49 1.89994 49 1.79994 49C1.79994 49.4 1.79994 49.8 1.89994 50.1C1.89994 50.3 2.09994 50.4 1.69994 50.4C2.09994 50.5 1.09994 50.6 1.69994 50.8C1.69994 50.8 1.89994 50.9 1.69994 51C1.29994 51 1.69994 51.4 1.39994 51.5C1.29994 51.5 1.09994 51.7 0.999941 51.7C0.199941 51.9 0.0999402 52.2 0.39994 53C0.49994 53 0.599941 53.2 0.599941 53.3C0.299941 53.7 0.599941 54 0.799941 54.2C0.899941 54.2 0.799941 54.4 0.799941 54.5C0.799941 55 1.19994 55.2 1.39994 55.6C1.19994 55.6 0.99994 55.4 0.89994 55.3C0.79994 55.3 0.599941 55.2 0.599941 55.4C0.799941 55.4 0.299941 55.9 0.799941 55.7C0.799941 55.7 0.99994 55.7 0.89994 55.8C0.89994 56.2 1.29994 56.3 1.39994 56.6C1.89994 57.5 2.69994 58 3.39994 58.7C3.49994 58.8 3.59994 58.9 3.59994 59.1C3.59994 59.1 3.59994 59.1 3.69994 59.2C4.19994 59.5 4.59994 59.8 4.99994 60.2C5.09994 60.4 5.19994 60.6 5.29994 60.8C5.29994 60.8 5.79994 60.7 5.49994 61.1C5.49994 61.3 5.39994 61.4 5.59994 61.5C5.79994 61.5 5.99994 61.5 6.19994 61.5C6.29994 61.5 6.49994 61.6 6.49994 61.8C6.49994 62.1 6.49994 62.4 6.79994 62.7C6.99994 62.9 7.09994 63.2 7.19994 63.5C6.99994 63.3 6.89994 63.3 6.69994 63.4C6.89994 63.8 6.49994 64 6.49994 64.3C6.49994 64.6 6.79994 64.7 6.59994 65.1C6.49994 65.3 6.79994 65.3 6.89994 65.4C6.89994 65.4 6.99994 65.6 7.19994 65.4C7.39994 65.4 7.49994 65.4 7.69994 65.4C7.89994 65.4 7.99994 65.3 7.89994 65.1C7.69994 64.7 7.89994 64.3 7.89994 63.9C8.49994 64.1 8.49994 64.1 8.19994 64.6C8.19994 64.7 7.99994 64.8 7.99994 64.9C7.99994 65.1 7.89994 65.3 7.99994 65.5C8.09994 65.7 8.39994 65.5 8.49994 65.5C8.59994 65.5 8.59994 65.6 8.59994 65.7C8.59994 65.9 8.79994 66.2 8.69994 66.4C8.69994 66.6 8.69994 66.7 8.99994 66.8C9.19994 66.8 9.39994 66.8 9.49994 66.8C9.49994 66.8 9.49994 66.8 9.49994 66.7C9.49994 66.7 9.49994 66.8 9.49994 66.9C9.49994 67 9.49994 66.9 9.49994 67C9.69994 67.2 9.69994 67.3 9.49994 67.4C9.19994 67.6 8.89994 67.8 9.49994 68C9.69994 68 9.69994 68.2 9.69994 68.3C9.69994 68.5 9.69994 68.6 9.69994 68.8C9.69994 69.1 10.0999 69.2 10.1999 69.5C10.1999 69.5 10.2999 69.6 10.3999 69.7C10.3999 70.1 10.9999 71.3 11.4999 71.9C11.6999 71.9 11.4999 72.1 11.5999 72.3C11.5999 72.6 11.6999 72.8 11.9999 72.9C12.1999 72.9 12.0999 73.1 12.0999 73.2C12.0999 73.5 12.0999 73.7 12.1999 73.9C12.1999 74.2 12.2999 74.4 12.2999 74.7C12.7999 74.7 12.5999 74.3 12.6999 74.1C12.9999 74.4 12.6999 74.9 12.8999 75.3L16.6999 74.2Z" fill="#EEF4F8"/>
</svg>
