<svg width="160" height="160" viewBox="0 0 160 160" fill="none" xmlns="http://www.w3.org/2000/svg">
<g id="Frame 2087327029" clip-path="url(#clip0_751_4256)">
<path id="Vector" d="M79.7311 3.83727C78.7008 6.10948 77.6704 9.62108 77.6704 11.8933C77.6704 13.9589 75.4037 18.2968 72.5188 21.3952C69.6339 24.4937 67.3671 27.3856 67.3671 28.0053C67.3671 30.8972 59.5367 38.9532 58.0942 37.5073C57.0638 36.681 57.0638 37.0941 57.6821 38.3335C59.1246 40.8123 52.7365 49.488 49.4394 49.488C46.7605 49.488 42.4332 54.4456 41.8149 58.1637C41.4028 59.6097 40.5786 62.5016 39.7543 64.3606C38.9301 66.2197 38.724 68.6985 39.3422 69.9379C40.1664 70.9707 37.8997 74.8954 34.3966 78.6136C29.8631 83.7777 28.8328 86.0499 30.6874 88.1156C31.9239 89.5615 32.1299 90.8009 31.3056 90.8009C30.4814 90.8009 30.8935 92.0403 32.1299 93.6928C33.7784 95.5519 34.1905 99.4766 33.3662 104.021C32.542 107.946 32.7481 112.49 33.7784 113.936C34.8087 115.589 35.8391 112.077 36.4572 104.228C37.2816 93.0731 37.8997 91.8337 42.0211 92.0403C44.4938 92.0403 46.1424 91.6272 45.7303 90.8009C45.3181 90.1812 51.088 89.355 58.5063 89.1484C66.1308 88.7353 72.931 88.1156 73.7552 87.4959C74.5795 87.0827 76.0219 87.7024 76.8462 88.9418C77.6704 90.3878 77.4643 90.8009 76.228 90.1812C74.9916 89.355 74.1673 93.2797 73.9612 99.8897C73.7552 110.631 72.5188 114.762 65.9247 126.743C63.2458 131.907 63.0398 133.973 65.3065 139.137C66.7489 142.649 68.6035 148.846 69.6339 152.77L71.2824 160L70.8703 151.531C70.4581 144.714 71.0764 143.268 73.3431 144.095C75.1976 144.714 75.8158 144.301 74.7855 142.855C73.9612 141.616 75.1976 138.724 77.6704 136.245C79.9372 133.973 81.7918 131.081 81.7918 129.842C81.7918 126.743 105.695 90.8009 107.137 92.0403C107.55 92.66 108.58 90.5943 109.404 87.7024C110.229 84.8105 112.084 82.5383 113.732 82.5383C115.381 82.5383 116.823 81.2989 116.823 79.853C116.823 74.8954 120.944 83.5711 120.944 88.7353C121.15 97.6175 125.065 88.7353 125.065 79.4399C125.065 74.8954 126.508 69.5248 128.156 67.2526C133.102 60.8491 128.569 55.4784 119.295 56.5112C115.174 56.9243 110.022 56.3046 107.756 55.2718C104.871 53.6193 104.253 53.8259 105.49 56.0981C106.726 58.1637 106.519 58.1637 104.459 56.3046C102.605 54.6521 100.544 54.4456 97.8649 55.8915C95.3921 57.3375 94.1557 57.1309 94.1557 55.6849C94.1557 54.239 91.683 53.8259 87.9737 54.4456C82.4099 55.2718 81.7918 54.8587 81.7918 49.9011C81.7918 46.8027 82.822 40.6057 84.0585 36.0613C85.0888 31.5169 86.3253 25.7331 86.7374 23.2543C87.1495 20.7755 88.5919 15.818 90.0344 12.513C92.0951 7.34887 92.0951 5.48979 90.0344 3.01101C86.5313 -1.32684 82.4099 -0.913713 79.7311 3.83727ZM78.4947 22.8412C77.8765 24.0806 77.2583 29.0381 77.2583 33.5825C77.4643 38.3335 76.0219 44.3239 74.3733 47.0092C72.5188 49.6946 71.6945 54.6521 72.1066 59.4031C72.931 66.6329 73.3431 67.046 79.5251 66.6329C83.0282 66.4263 85.913 67.2526 85.913 68.6985C85.913 70.351 86.5313 70.351 88.3859 68.4919C91.4769 65.3935 94.98 65.1869 92.9193 68.2854C91.889 69.9379 92.7132 69.9379 95.8042 68.2854C101.368 65.3935 103.016 65.3935 101.162 68.4919C99.9256 70.5576 100.338 70.5576 102.605 68.6985C104.047 67.2526 107.344 66.0132 110.022 66.0132C116.205 66.0132 114.762 69.7313 101.368 87.7024C95.3921 95.5519 87.5616 106.706 84.0585 112.49L77.4643 122.818L78.7008 115.589C79.3189 111.664 80.1432 104.847 80.7614 100.303C81.1735 95.965 83.0282 90.1812 84.6767 87.7024C89.0041 81.0924 85.707 76.7545 78.2887 79.6464C70.6642 82.5383 44.6999 83.3646 44.6999 80.8858C44.6999 79.6464 45.3181 77.1676 45.9363 75.3086C46.9666 72.6232 47.5848 72.4167 49.0273 74.6889C50.2636 76.548 50.8819 75.5151 50.8819 71.5904C50.8819 65.3935 58.0942 49.488 60.9791 49.488C62.0094 49.488 63.2458 47.4224 64.07 44.737C65.1004 39.986 77.2583 20.569 79.1129 20.569C79.5251 20.569 79.3189 21.6018 78.4947 22.8412Z" fill="#00A3FF"/>
</g>
<defs>
<clipPath id="clip0_751_4256">
<rect width="160" height="160" fill="white"/>
</clipPath>
</defs>
</svg>
