<svg width="160" height="160" viewBox="0 0 160 160" fill="none" xmlns="http://www.w3.org/2000/svg">
<g id="Frame 2087327025" clip-path="url(#clip0_751_4197)">
<path id="Vector" d="M71.7028 2.52316C74.471 4.35819 74.471 4.58757 70.5494 4.12881C68.0119 3.89943 63.6289 4.81695 60.8607 6.4226C57.8618 8.02825 55.5549 8.7164 55.5549 8.02826C55.5549 7.34013 53.2481 8.25763 50.2492 10.322C47.2503 12.1571 44.0207 13.0746 43.3287 12.1571C42.406 11.4689 41.7139 12.3865 41.7139 14.4509C41.7139 16.5153 40.7912 18.5797 39.4071 18.5797C32.2559 19.4972 20.9524 25.461 20.491 28.443C20.491 29.8192 20.0296 32.113 20.0296 33.4893C19.7989 34.8656 18.4148 37.6181 17.0307 39.2238C13.8012 43.3526 14.2625 48.6283 18.4148 53.6746C20.7217 56.1978 20.7217 57.3447 18.8762 57.3447C17.2614 57.3447 16.8001 58.4916 17.4921 59.6385C18.4148 61.0148 17.7228 63.7673 15.8773 65.8317C14.2625 67.8961 14.0318 69.043 15.4159 68.1255C17.0307 67.208 17.9535 69.5018 18.1842 74.3187C18.4148 80.7413 17.4921 82.347 12.8784 83.4939C9.41817 84.4114 7.11133 86.7052 7.11133 89.2284C7.11133 95.4216 9.41817 96.5685 16.3387 92.8984C24.4126 88.7696 25.566 90.834 25.566 109.643C25.566 126.846 27.8729 139.921 30.8718 139.921C32.2559 139.921 32.7172 133.269 31.7945 120.883L30.4104 102.074L35.0241 107.808C38.4843 112.166 39.4071 116.524 39.1764 126.158C38.4843 146.802 39.1764 155.978 41.9446 155.978C43.5594 155.978 43.7901 149.096 42.8673 135.334C41.9446 121.341 42.1753 114.689 43.7901 114.689C45.1742 114.689 46.3276 115.836 46.3276 116.983C46.3276 118.359 47.2503 119.048 48.1731 118.818C49.0958 118.359 53.9402 120.195 58.5538 122.718C67.5505 127.305 67.7812 128.452 68.0119 148.867C68.2426 154.831 69.396 159.418 71.2414 159.877C73.3176 160.795 74.0096 156.666 74.0096 144.509C74.0096 130.975 74.7017 128.223 77.4699 129.14C79.3154 130.058 81.3915 129.37 82.3143 127.993C83.4677 126.388 82.7756 126.158 80.9302 127.305C78.854 128.452 78.3926 128.223 79.5461 126.617C80.4688 125.011 86.6973 123.865 93.1564 123.865C99.8462 123.865 106.536 122.947 108.382 121.8C110.688 120.195 112.765 120.883 114.61 123.406C117.378 126.846 117.378 126.617 116.225 122.03C114.841 116.754 118.993 114.919 120.838 119.736C121.761 121.571 122.223 121.341 122.223 119.048C122.453 116.983 123.837 114.001 125.452 112.625C127.99 110.561 128.682 112.854 129.143 124.553C129.374 132.352 130.758 139.692 131.911 141.068C133.526 142.674 133.987 138.086 133.065 127.305C132.142 113.772 132.373 111.937 134.91 115.378C136.756 117.671 139.524 118.818 141.831 117.901C146.444 116.066 146.675 111.478 142.061 107.808C139.062 105.285 139.062 104.138 143.445 97.2566C154.057 80.0532 156.594 62.391 150.597 45.1876C148.29 38.0769 147.136 32.113 148.29 32.113C149.213 32.113 150.135 30.0486 150.135 27.5255C150.135 22.7085 146.675 21.3322 144.368 25.461C143.445 26.8373 139.985 25.6904 135.141 22.0204C121.761 11.9277 101.692 4.12882 88.5427 4.3582C81.8529 4.3582 75.8551 3.44068 75.1631 2.29379C74.2403 0.917518 72.3949 0 71.0108 0C69.396 0 69.6267 0.917511 71.7028 2.52316ZM94.7712 15.3684C94.7712 16.5153 98.6928 17.4328 103.306 17.6622C112.303 18.1209 122.453 22.2497 122.453 25.6904C122.453 26.6079 121.069 27.2961 119.685 26.8373C115.994 26.1492 117.148 34.1774 121.3 38.9944C123.837 41.7469 123.837 43.1232 121.531 46.3345C119.916 48.6283 117.378 50.4633 115.994 50.4633C112.303 50.4633 110.919 56.8859 114.61 58.2622C116.455 58.9504 117.84 61.9323 117.84 64.6848C117.84 67.6667 118.993 71.5662 120.377 73.4012C121.992 75.9244 122.223 74.3187 121.069 68.1255C119.916 61.0148 120.377 58.4916 124.529 54.8215L129.374 50.234L131.45 55.5097C132.603 58.4916 132.834 61.9323 132.373 63.5379C131.45 66.0611 137.217 66.2905 139.755 63.7673C140.447 63.0792 139.524 58.2622 137.909 52.9865C134.449 43.582 135.372 41.2882 140.447 46.3345C143.676 49.5458 144.138 69.2724 140.908 80.0532C138.832 87.6227 130.527 97.7154 128.912 94.5041C127.528 91.5221 114.61 83.4939 103.999 79.1357C95.6939 75.695 88.0814 75.0069 65.4743 75.0069L37.3309 75.2363L35.7161 68.3549C34.7934 63.3085 35.2548 60.7854 37.5616 59.4091C39.8684 58.0328 40.7912 54.3628 40.5605 48.3989C40.0991 41.2882 41.2525 38.0769 45.4048 34.1774C52.0947 27.9842 53.2481 28.9017 54.4015 41.5176C54.8629 47.0227 56.247 54.1334 57.6311 57.3447C59.4766 61.9323 59.9379 58.9504 59.9379 42.8938C60.1686 31.8837 60.63 22.9379 61.0914 22.9379C61.5527 22.9379 63.8596 22.2497 65.705 21.5616C68.4732 20.6441 69.1653 21.1028 68.0119 23.626C67.3198 25.461 67.7812 27.7548 69.1653 28.6724C70.5494 29.3605 71.7028 32.113 71.7028 34.6362C71.7028 37.6181 72.6255 38.765 74.7017 37.6181C76.0858 36.7006 75.1631 38.5356 72.3949 41.7469C69.396 44.7289 67.0891 48.6283 67.0891 50.0046C67.0891 53.6746 74.0096 53.4453 74.2403 49.7752C74.471 48.3989 75.3938 49.5458 76.3165 52.7571L78.162 58.4916L78.3926 52.069C78.6233 48.6283 79.0847 45.8758 79.7767 45.8758C80.4688 45.8758 83.6984 48.6283 86.6973 52.069C93.6178 60.3266 96.6167 57.3447 91.7723 47.0227C88.0814 38.9944 88.0814 38.9944 95.2326 30.9661C105.152 19.7266 101.692 16.974 88.7734 26.3786C84.3904 29.5899 83.6984 29.3605 78.6233 23.8554C74.0096 19.0384 73.779 18.3503 77.2392 19.7266C80.4688 20.8735 81.1608 20.6441 80.0074 18.8091C79.0847 17.2034 79.5461 16.0565 80.6995 16.0565C82.0836 16.0565 83.237 17.4328 83.237 18.8091C83.237 20.4147 84.3904 19.956 85.7745 17.6622C88.0814 13.7627 94.7712 12.1571 94.7712 15.3684ZM107.459 90.6046C120.608 97.2566 126.375 103.22 119.685 103.22C118.07 103.22 113.918 105.056 110.919 107.12C107.689 109.414 103.306 111.249 101.23 111.478C98.9235 111.707 96.8474 111.937 96.6167 112.396C96.1553 112.625 89.9268 113.313 82.7756 114.001C69.1653 115.148 53.2481 111.478 53.2481 107.349C53.2481 106.202 51.864 105.514 50.4799 105.973C46.0969 107.579 37.1002 96.3391 37.1002 89.9165C37.1002 85.0995 48.6344 83.0351 70.7801 83.4939C91.3109 83.7233 95.4632 84.6408 107.459 90.6046Z" fill="#00A3FF"/>
</g>
<defs>
<clipPath id="clip0_751_4197">
<rect width="160" height="160" fill="white"/>
</clipPath>
</defs>
</svg>
