<svg width="160" height="160" viewBox="0 0 160 160" fill="none" xmlns="http://www.w3.org/2000/svg">
<g id="Frame 2087326932" clip-path="url(#clip0_751_4226)">
<path id="Vector" d="M73.6164 6.44025C71.433 10.0629 69.0512 15.2956 68.2573 18.1132C64.883 29.7862 57.142 44.0755 47.6148 55.7484C42.0572 62.7925 38.4844 68.4277 39.6753 68.4277C41.2633 68.4277 41.0647 69.6352 39.2784 71.8491C37.2935 74.0629 37.2935 74.6667 39.0799 73.6604C42.0572 71.8491 42.2557 73.0566 42.4541 94.5912C42.4541 104.252 43.2481 111.899 44.439 112.101C45.6299 112.503 46.4238 105.862 46.2254 94.9937C46.0269 85.3333 46.4238 81.1069 46.8208 85.5346C48.0117 97.2075 51.386 99.4214 51.386 88.3522C51.386 81.912 52.5769 78.4906 55.1572 76.0755C57.3406 74.2642 59.5238 73.2579 60.1193 73.8616C60.7148 74.6667 61.3103 73.6604 61.3103 72.0503C61.3103 68.8302 75.9982 63.5975 85.1285 63.5975C87.9073 63.5975 91.2816 62.3899 92.671 60.9811C94.0604 59.5723 96.2437 58.3648 97.2361 58.3648C99.6183 58.3648 89.0982 78.8931 85.724 81.1069C81.9528 83.522 76.7921 94.1887 79.1739 94.9937C81.1588 95.5975 72.0285 116.73 69.8451 116.73C69.2497 116.73 69.2497 110.692 69.8451 103.044C71.2345 88.956 70.4406 86.1384 64.883 83.9245C60.1193 82.1132 58.7299 88.1509 60.3179 103.245C61.3103 111.899 60.7148 118.34 58.7299 124.176C56.3481 131.019 56.3481 133.434 58.5314 138.667C59.9209 142.088 62.1042 144.906 63.2951 144.906C64.2876 144.906 65.4784 148.327 65.4784 152.352L65.8754 160L67.2649 151.95C68.0588 147.522 68.8527 145.107 69.0512 146.314C69.4481 150.34 73.2193 149.333 73.4179 145.308C73.6164 143.094 74.2118 143.497 75.2042 146.918C76.5937 150.943 76.7921 150.138 76.9906 142.289C77.1891 134.239 78.38 131.421 83.9375 125.182C87.7088 121.157 93.4649 116.126 96.4422 114.314L102.198 110.893L102.793 120.352C102.992 125.384 103.588 130.013 104.183 130.616C104.977 131.421 105.771 113.711 105.176 109.887C104.977 108.881 105.572 107.472 106.764 106.868C109.939 104.855 105.97 100.025 101.008 99.6226C98.427 99.4214 94.2588 101.434 91.6786 104.252C89.0982 106.868 86.5179 108.679 85.9225 108.277C85.1285 107.472 93.4649 89.5598 98.0301 82.5157C99.0225 80.9057 100.015 78.2893 100.214 76.8805C100.412 75.4717 103.191 70.8428 106.366 66.8176L111.924 59.3711L113.115 73.4591C114.504 90.9686 114.901 90.1635 115.497 68.6289C115.894 55.5472 116.688 51.3208 119.268 49.7107C122.047 47.6981 122.047 47.2956 118.276 44.2767C112.52 39.8491 106.961 37.8365 106.961 40.2516C106.961 41.4591 105.97 42.2642 104.58 42.2642C103.389 42.2642 100.809 43.4717 99.2209 45.0818C95.6483 48.1006 60.9133 60.5786 59.5238 59.1698C59.1269 58.7673 61.1118 54.1384 64.089 48.7044C67.0663 43.4717 71.0361 35.8239 72.8224 31.7987C74.6088 27.5723 76.7921 24.1509 77.586 24.1509C78.38 24.1509 79.3724 27.5723 79.7694 31.5975L80.5633 39.2453L80.7618 30.7925C80.9604 26.1635 81.9528 20.1258 82.9452 17.5094C85.327 11.2704 83.5406 4.02515 79.7694 4.02515C78.1815 4.02515 77.586 3.01886 78.1815 2.01257C78.777 0.805031 78.9755 0 78.38 0C77.9831 0 75.7997 3.01886 73.6164 6.44025Z" fill="#00A3FF"/>
</g>
<defs>
<clipPath id="clip0_751_4226">
<rect width="160" height="160" fill="white"/>
</clipPath>
</defs>
</svg>
