<svg width="42" height="42" viewBox="0 0 42 42" fill="none" xmlns="http://www.w3.org/2000/svg">
<path d="M32.0945 10.82C30.0571 9.88357 27.8723 9.19367 25.5879 8.79853C25.5463 8.79091 25.5048 8.80996 25.4833 8.84808C25.2023 9.34867 24.8911 10.0017 24.6731 10.515C22.2162 10.1466 19.7718 10.1466 17.3652 10.515C17.1472 9.99031 16.8246 9.34867 16.5424 8.84808C16.521 8.81124 16.4794 8.79218 16.4378 8.79853C14.1547 9.1924 11.9699 9.88231 9.93121 10.82C9.91356 10.8276 9.89843 10.8403 9.88839 10.8568C5.74425 17.0583 4.609 23.1075 5.16591 29.0816C5.16843 29.1108 5.18481 29.1387 5.20749 29.1565C7.94168 31.1678 10.5902 32.3888 13.1895 33.1981C13.2311 33.2108 13.2752 33.1956 13.3017 33.1613C13.9166 32.3202 14.4647 31.4333 14.9346 30.5007C14.9624 30.4461 14.9359 30.3813 14.8792 30.3597C14.0098 30.0294 13.182 29.6266 12.3857 29.1692C12.3227 29.1324 12.3176 29.0421 12.3756 28.9989C12.5432 28.8732 12.7108 28.7423 12.8708 28.6102C12.8997 28.586 12.9401 28.5809 12.9741 28.5962C18.2056 30.9886 23.8693 30.9886 29.039 28.5962C29.073 28.5797 29.1134 28.5848 29.1436 28.6089C29.3036 28.741 29.4712 28.8732 29.64 28.9989C29.698 29.0421 29.6942 29.1324 29.6312 29.1692C28.8349 29.6355 28.0071 30.0294 27.1364 30.3584C27.0797 30.3801 27.0545 30.4461 27.0823 30.5007C27.5623 31.432 28.1104 32.3189 28.7139 33.16C28.7391 33.1956 28.7845 33.2108 28.8261 33.1981C31.438 32.3888 34.0865 31.1678 36.8207 29.1565C36.8447 29.1387 36.8598 29.112 36.8623 29.0828C37.5288 22.1761 35.7459 16.1766 32.1361 10.8581C32.1272 10.8403 32.1122 10.8276 32.0945 10.82ZM15.7159 25.444C14.1408 25.444 12.8431 23.9956 12.8431 22.2168C12.8431 20.438 14.1157 18.9896 15.7159 18.9896C17.3286 18.9896 18.6138 20.4507 18.5886 22.2168C18.5886 23.9956 17.316 25.444 15.7159 25.444ZM26.3376 25.444C24.7626 25.444 23.4648 23.9956 23.4648 22.2168C23.4648 20.438 24.7374 18.9896 26.3376 18.9896C27.9504 18.9896 29.2356 20.4507 29.2104 22.2168C29.2104 23.9956 27.9504 25.444 26.3376 25.444Z" fill="currentColor"/>
</svg>
