<svg width="42" height="42" viewBox="0 0 42 42" fill="none" xmlns="http://www.w3.org/2000/svg">
<g clip-path="url(#clip0_773_3479)">
<path fill-rule="evenodd" clip-rule="evenodd" d="M14.0372 11.1727C14.0314 11.1659 14.0256 11.1591 14.0199 11.1523V11.1727H14.0372ZM14.0372 11.1727C14.8282 12.1066 15.7487 13.2618 15.2732 16.0542L14.0505 22.6579L14.2645 27.9572C14.3052 29.8731 15.2426 30.6985 16.822 30.6985H20.8571C22.1104 30.6985 22.6606 29.7202 23.1599 28.5075L26.2168 20.9764L26.5428 28.1814C26.5616 28.9074 26.7374 29.5064 27.0655 29.9418C27.1714 30.0823 27.2931 30.2057 27.4305 30.3109C27.7937 30.5889 28.2664 30.7393 28.8457 30.7393H31.5615H33.4208C34.7148 30.7393 35.2549 29.9444 35.8357 28.5482L41.7048 14.1383C42.3468 12.6606 41.9596 11.1829 40.37 11.1829H37.4456C36.3655 11.1829 35.6115 11.5498 35.1734 12.5893L31.2096 22.2299L30.8428 13.6185C30.7715 11.7842 29.9054 11.1727 28.8558 11.1727H25.8703C24.6782 11.1727 23.9954 11.6415 23.6388 12.5383L19.6751 22.2706L19.3083 13.4045C19.2675 11.7434 18.6969 11.1727 17.3621 11.1727H14.8147H14.0372Z" fill="#EEF4F8"/>
<path fill-rule="evenodd" clip-rule="evenodd" d="M11.9086 11.6458C13.0905 12.4781 13.7529 13.7522 13.3861 15.5299L11.0526 27.7679C10.7266 29.7716 8.7906 31.0869 6.80361 30.7169C4.92876 30.3471 3.55317 28.6002 3.91999 26.463L5.21407 19.3729L4.41928 19.7428C2.91123 20.4004 1.17901 19.7428 0.496311 18.2221C-0.155818 16.7321 0.496311 14.9545 2.00436 14.266L8.01618 11.5328C9.46309 10.8135 10.8285 10.9163 11.9086 11.6458Z" fill="#EEF4F8"/>
</g>
<defs>
<clipPath id="clip0_773_3479">
<rect width="42" height="42" fill="white"/>
</clipPath>
</defs>
</svg>
