<svg width="42" height="42" viewBox="0 0 42 42" fill="none" xmlns="http://www.w3.org/2000/svg">
<path d="M37.3334 7.3607L32.1141 34.1258C32.1141 34.1258 31.3843 35.982 29.3769 35.091L21.9507 29.3001L17.1867 33.7179C17.1867 33.7179 16.8144 34.0054 16.4069 33.8252L17.3692 25.4762C17.3692 25.4762 30.7273 13.2632 31.2747 12.7433C31.8222 12.2236 31.6398 12.1124 31.6398 12.1124C31.6763 11.4813 30.6542 12.1124 30.6542 12.1124L12.9531 23.546L5.58052 21.0215C5.58052 21.0215 4.4491 20.6133 4.33952 19.7224C4.23016 18.8314 5.61705 18.3489 5.61705 18.3489L34.9244 6.65528C34.9244 6.65528 37.3334 5.5788 37.3334 7.3607Z" fill="#EEF4F8"/>
</svg>
