<svg width="42" height="42" viewBox="0 0 42 42" fill="none" xmlns="http://www.w3.org/2000/svg">
<path d="M26.7871 14.4906C25.2971 13.0692 23.4138 12.3406 21.3039 12.3406C17.573 12.3406 14.4142 14.8609 13.2818 18.265C12.9957 19.125 12.8289 20.0448 12.8289 21.0003C12.8289 21.9559 12.9838 22.8756 13.2818 23.7356C14.4142 27.1398 17.573 29.66 21.3039 29.66C23.235 29.66 24.868 29.1345 26.1554 28.2745C27.6573 27.2592 28.6705 25.7662 29.0162 23.9984H21.304V18.6114H34.7735C34.9166 19.4834 35 20.3792 35 21.3228C35 25.6826 33.4504 29.3614 30.7565 31.8578C28.3963 34.0437 25.166 35.3337 21.3039 35.3337C15.7135 35.3337 10.8859 32.1087 8.53766 27.4264C7.56023 25.4914 7 23.3175 7 21.0003C7 18.6831 7.56024 16.5092 8.53767 14.5742C10.8859 9.892 15.7135 6.66699 21.3039 6.66699C25.166 6.66699 28.3963 8.08838 30.8638 10.4056L26.7871 14.4906Z" fill="currentColor"/>
</svg>
